<svg width="200" height="113" viewBox="0 0 200 113" fill="none" xmlns="http://www.w3.org/2000/svg">
<g clip-path="url(#clip0_736_93)">
<path d="M200 18.8691L199.974 87.4008L147.32 95.9339L147.346 27.4021L200 18.8691Z" fill="#DDB61F"/>
<path d="M147.346 27.4019L147.32 95.9336L105.307 85.1967L105.334 16.665L147.346 27.4019Z" fill="#CFAB2C"/>
<path d="M200 18.8691L199.974 86.5378L147.32 95.0708L147.346 27.4021L200 18.8691Z" fill="#EBCB3D"/>
<path d="M147.346 27.4019L147.32 95.0706L105.307 84.3337L105.334 16.665L147.346 27.4019Z" fill="#D5A700"/>
<path d="M200 18.8697L147.346 27.4026L105.334 16.6658L157.987 8.13281L200 18.8697Z" fill="#F4D759"/>
<path d="M167.122 3.30783C167.115 3.32233 167.109 3.33691 167.101 3.35141C167.046 3.44764 166.967 3.54318 166.867 3.63786C166.854 3.65046 166.841 3.66306 166.827 3.67558C166.721 3.77069 166.59 3.86476 166.438 3.95754C166.42 3.96876 166.402 3.98006 166.383 3.99128C166.224 4.08449 166.041 4.17615 165.837 4.26617C165.813 4.27635 165.792 4.28679 165.768 4.29698C165.559 4.38613 165.326 4.47321 165.072 4.5584C165.038 4.56979 165.006 4.58144 164.971 4.59275C164.719 4.67508 164.442 4.75483 164.148 4.83259C164.086 4.84899 164.022 4.86539 163.958 4.88161C163.641 4.96179 163.308 5.04015 162.945 5.11438C162.944 5.11455 162.944 5.11481 162.943 5.11498C162.542 5.19714 162.113 5.27534 161.658 5.34921C161.316 5.40471 160.961 5.45485 160.603 5.5031C160.402 5.5302 160.196 5.55462 159.991 5.57939C159.786 5.60425 159.58 5.62928 159.37 5.65189C158.903 5.70212 158.429 5.74786 157.945 5.78704C157.908 5.79006 157.872 5.79412 157.834 5.79714C157.368 5.83408 156.894 5.86567 156.416 5.89242C155.976 5.9171 155.531 5.93773 155.084 5.95387C155.054 5.95499 155.024 5.9556 154.994 5.95663C154.094 5.98796 153.184 6.00211 152.277 5.99927C152.241 5.99918 152.205 5.99884 152.169 5.99866C151.744 5.99668 151.321 5.9909 150.9 5.98149C150.845 5.98028 150.791 5.9789 150.737 5.9776C150.328 5.96759 149.92 5.95404 149.516 5.93713C149.454 5.93445 149.391 5.93169 149.329 5.92893C148.926 5.91089 148.526 5.88966 148.13 5.86472C148.071 5.86101 148.012 5.85678 147.952 5.85289C147.55 5.82648 147.152 5.79705 146.761 5.76348C146.72 5.75994 146.679 5.75597 146.638 5.75235C146.249 5.71808 145.865 5.68063 145.49 5.63937C145.465 5.6367 145.439 5.63428 145.415 5.63152C145.046 5.59052 144.688 5.54513 144.335 5.4974C144.255 5.48661 144.176 5.47591 144.097 5.46478C143.741 5.41455 143.393 5.36181 143.056 5.30477C143.012 5.29726 142.971 5.28889 142.928 5.28121C142.638 5.23098 142.358 5.17781 142.085 5.1224C141.915 5.08771 141.753 5.05034 141.589 5.01366C141.373 4.96524 141.153 4.91803 140.95 4.86616C138.784 4.31268 137.733 3.65193 137.733 2.99609L137.727 19.9133C137.727 20.569 138.778 21.2299 140.943 21.7833C141.025 21.8042 141.108 21.8249 141.192 21.8452C141.315 21.8752 141.452 21.9015 141.58 21.9302C141.745 21.9672 141.907 22.0046 142.079 22.0396C142.122 22.0485 142.161 22.0586 142.205 22.0673C142.44 22.1137 142.684 22.1572 142.93 22.1999C142.97 22.2069 143.007 22.2147 143.048 22.2216C143.056 22.223 143.063 22.2245 143.071 22.2258C143.331 22.2698 143.597 22.3116 143.869 22.3515C143.94 22.362 144.015 22.3713 144.088 22.3816C144.169 22.393 144.25 22.404 144.332 22.415C144.432 22.4286 144.53 22.4432 144.632 22.4562C144.875 22.4873 145.123 22.517 145.374 22.5451C145.385 22.5464 145.397 22.5474 145.408 22.5487C145.433 22.5515 145.458 22.5538 145.483 22.5565C145.687 22.5789 145.891 22.6008 146.099 22.6211C146.275 22.6383 146.454 22.6539 146.632 22.6696C146.673 22.6732 146.713 22.6771 146.754 22.6807C146.779 22.6827 146.803 22.6852 146.827 22.6874C147.069 22.7078 147.312 22.7268 147.558 22.7445C147.686 22.7538 147.816 22.7616 147.946 22.7702C148.005 22.774 148.064 22.7782 148.123 22.7819C148.178 22.7853 148.232 22.7894 148.286 22.7927C148.527 22.8072 148.769 22.8205 149.012 22.8325C149.116 22.8376 149.22 22.8416 149.324 22.8462C149.385 22.849 149.445 22.8516 149.506 22.8542C149.583 22.8574 149.658 22.8613 149.735 22.8643C149.965 22.8732 150.196 22.881 150.428 22.8876C150.53 22.8906 150.633 22.8925 150.736 22.895C150.787 22.8962 150.837 22.8975 150.888 22.8987C150.96 22.9002 151.031 22.9025 151.102 22.9038C151.319 22.908 151.535 22.9112 151.752 22.9135C151.889 22.9149 152.026 22.9153 152.162 22.916C152.198 22.9162 152.234 22.9165 152.27 22.9166C152.307 22.9167 152.344 22.9172 152.381 22.9173C152.587 22.9177 152.794 22.9171 153 22.9158C153.215 22.9143 153.429 22.9119 153.643 22.9085C153.644 22.9085 153.646 22.9085 153.647 22.9085C153.868 22.9051 154.09 22.9006 154.31 22.895C154.539 22.8892 154.768 22.8817 154.996 22.8738C155.022 22.8729 155.048 22.8724 155.074 22.8715C155.089 22.871 155.104 22.8706 155.118 22.8701C155.539 22.8546 155.956 22.8355 156.371 22.8125C156.383 22.8118 156.395 22.8108 156.407 22.8101C156.887 22.7833 157.362 22.7515 157.83 22.7145C157.834 22.7141 157.839 22.714 157.843 22.7136C157.872 22.7114 157.898 22.7081 157.926 22.7059C158.414 22.6663 158.893 22.6202 159.364 22.5695C159.419 22.5636 159.477 22.5597 159.532 22.5536C159.686 22.5365 159.833 22.5155 159.985 22.4971C160.19 22.4723 160.396 22.4478 160.596 22.4208C160.657 22.4126 160.721 22.406 160.782 22.3977C161.077 22.3566 161.367 22.313 161.651 22.2669C161.752 22.2506 161.851 22.2341 161.949 22.2174C162.293 22.1586 162.621 22.0972 162.932 22.0335C162.933 22.0333 162.934 22.033 162.935 22.0328C162.938 22.0321 162.941 22.0313 162.945 22.0306C163.213 21.9755 163.47 21.9188 163.713 21.8605C163.797 21.8405 163.872 21.8193 163.952 21.799C164.016 21.7828 164.079 21.7666 164.141 21.7502C164.208 21.7326 164.281 21.7156 164.345 21.6976C164.53 21.6465 164.706 21.5944 164.873 21.5413C164.905 21.5312 164.933 21.5206 164.964 21.5104C164.999 21.499 165.032 21.4873 165.066 21.4757C165.15 21.4476 165.237 21.4198 165.316 21.3913C165.45 21.3424 165.578 21.293 165.698 21.2429C165.721 21.2335 165.74 21.2237 165.762 21.2143C165.785 21.2043 165.807 21.1942 165.83 21.1842C165.898 21.1543 165.968 21.1245 166.031 21.0942C166.134 21.0448 166.229 20.995 166.319 20.9448C166.34 20.9328 166.357 20.9206 166.377 20.9087C166.396 20.8977 166.413 20.8865 166.431 20.8754C166.476 20.848 166.524 20.8207 166.565 20.793C166.642 20.7415 166.711 20.6897 166.774 20.6375C166.792 20.6228 166.805 20.6079 166.821 20.593C166.835 20.5805 166.848 20.5681 166.861 20.5555C166.888 20.5297 166.919 20.504 166.943 20.4781C166.994 20.4226 167.038 20.3667 167.074 20.3107C167.082 20.2968 167.086 20.2829 167.094 20.269C167.103 20.2543 167.108 20.2399 167.116 20.2252C167.131 20.1948 167.15 20.1644 167.161 20.134C167.182 20.0713 167.195 20.0084 167.197 19.9455C167.197 19.9374 167.198 19.9294 167.198 19.9215L167.204 3.00438C167.204 3.10596 167.172 3.20694 167.122 3.30783Z" fill="#E7C52E"/>
<path d="M163.986 1.13309C169.062 2.43035 168.019 4.31854 161.658 5.34955C155.302 6.3796 146.026 6.16367 140.95 4.86632C135.874 3.56906 136.921 1.68208 143.277 0.652024C149.639 -0.378982 158.91 -0.164254 163.986 1.13309Z" fill="#F4DA64"/>
<path d="M147.346 27.4023L147.32 95.9341L94.6663 104.467L94.6927 35.9354L147.346 27.4023Z" fill="#DDB61F"/>
<path d="M94.6926 35.9351L94.6662 104.467L52.6538 93.7299L52.6802 25.1982L94.6926 35.9351Z" fill="#CFAB2C"/>
<path d="M147.346 27.4023L147.32 95.0711L94.6663 103.604L94.6927 35.9354L147.346 27.4023Z" fill="#EBCB3D"/>
<path d="M94.6926 35.9351L94.6662 103.604L52.6538 92.8669L52.6802 25.1982L94.6926 35.9351Z" fill="#D5A700"/>
<path d="M147.346 27.4029L94.6926 35.9359L52.6802 25.199L105.334 16.666L147.346 27.4029Z" fill="#F4D759"/>
<path d="M114.468 11.841C114.461 11.8555 114.455 11.8701 114.447 11.8846C114.392 11.9808 114.314 12.0764 114.214 12.1711C114.201 12.1837 114.188 12.1963 114.174 12.2088C114.067 12.3039 113.937 12.398 113.785 12.4907C113.766 12.502 113.749 12.5133 113.73 12.5245C113.571 12.6177 113.388 12.7094 113.183 12.7994C113.16 12.8096 113.138 12.82 113.114 12.8302C112.906 12.9193 112.672 13.0064 112.419 13.0916C112.385 13.103 112.352 13.1146 112.318 13.1259C112.065 13.2083 111.789 13.288 111.495 13.3658C111.432 13.3822 111.368 13.3986 111.304 13.4148C110.987 13.495 110.654 13.5734 110.292 13.6476C110.291 13.6478 110.29 13.648 110.289 13.6482C109.888 13.7303 109.46 13.8085 109.004 13.8824C108.662 13.9379 108.308 13.9881 107.95 14.0363C107.749 14.0634 107.543 14.0878 107.338 14.1126C107.132 14.1375 106.926 14.1625 106.717 14.1851C106.25 14.2353 105.775 14.2811 105.292 14.3202C105.254 14.3233 105.218 14.3273 105.181 14.3303C104.714 14.3673 104.241 14.3989 103.763 14.4256C103.322 14.4503 102.877 14.4709 102.43 14.4871C102.401 14.4882 102.37 14.4888 102.341 14.4898C101.44 14.5212 100.531 14.5353 99.6232 14.5325C99.5871 14.5324 99.5511 14.532 99.515 14.5319C99.0909 14.5299 98.6676 14.5241 98.2461 14.5147C98.1918 14.5135 98.1376 14.5121 98.0833 14.5108C97.674 14.5008 97.2667 14.4872 96.8626 14.4703C96.8001 14.4677 96.7377 14.4649 96.6754 14.4621C96.2721 14.4441 95.8721 14.4229 95.4767 14.3979C95.4172 14.3942 95.3582 14.39 95.2989 14.3861C94.8967 14.3597 94.4985 14.3303 94.1073 14.2967C94.066 14.2931 94.0257 14.2892 93.9846 14.2855C93.5953 14.2513 93.2117 14.2138 92.836 14.1726C92.8113 14.1699 92.7858 14.1675 92.761 14.1647C92.3926 14.1237 92.034 14.0783 91.6812 14.0306C91.6018 14.0198 91.5223 14.0091 91.4435 13.998C91.0879 13.9478 90.739 13.895 90.4028 13.838C90.3587 13.8305 90.3177 13.8221 90.274 13.8144C89.9849 13.7642 89.7044 13.711 89.4318 13.6556C89.2611 13.6209 89.0995 13.5835 88.9357 13.5469C88.7198 13.4984 88.4993 13.4512 88.2962 13.3994C86.1306 12.8459 85.0796 12.1851 85.0798 11.5293L85.0732 28.4465C85.073 29.1022 86.124 29.7631 88.2897 30.3165C88.3715 30.3374 88.4544 30.3581 88.5383 30.3784C88.6618 30.4084 88.7982 30.4347 88.9263 30.4634C89.0911 30.5004 89.2533 30.5378 89.4252 30.5728C89.4687 30.5817 89.5077 30.5918 89.5517 30.6005C89.7861 30.6469 90.03 30.6904 90.2762 30.7331C90.3164 30.7401 90.3539 30.7479 90.3944 30.7548C90.4024 30.7562 90.4097 30.7577 90.4176 30.759C90.6775 30.803 90.9435 30.8448 91.2151 30.8847C91.2869 30.8952 91.3619 30.9045 91.4344 30.9148C91.515 30.9262 91.5964 30.9372 91.678 30.9482C91.7785 30.9618 91.8765 30.9764 91.9783 30.9894C92.2219 31.0205 92.4693 31.0502 92.72 31.0783C92.7313 31.0796 92.743 31.0806 92.7544 31.0819C92.7791 31.0847 92.8045 31.087 92.8294 31.0898C93.0331 31.1121 93.2378 31.134 93.4458 31.1543C93.6215 31.1715 93.8 31.1871 93.9785 31.2028C94.0193 31.2064 94.0594 31.2103 94.1004 31.2139C94.1251 31.2159 94.1491 31.2184 94.1738 31.2206C94.4151 31.241 94.6587 31.26 94.9043 31.2777C95.0326 31.287 95.1629 31.2948 95.2922 31.3034C95.3515 31.3072 95.4104 31.3114 95.4699 31.3151C95.5245 31.3185 95.578 31.3226 95.6327 31.3259C95.8732 31.3404 96.1153 31.3537 96.3587 31.3657C96.4622 31.3708 96.5668 31.3748 96.6707 31.3794C96.7315 31.3822 96.7918 31.3848 96.8526 31.3874C96.9291 31.3906 97.0049 31.3945 97.0816 31.3975C97.3115 31.4064 97.5424 31.4142 97.774 31.4208C97.8766 31.4238 97.9797 31.4257 98.0824 31.4282C98.1332 31.4295 98.1838 31.4307 98.2347 31.4319C98.3062 31.4334 98.3773 31.4357 98.4489 31.437C98.6651 31.4412 98.8818 31.4444 99.0989 31.4467C99.2354 31.4481 99.3721 31.4485 99.5088 31.4492C99.5447 31.4494 99.5806 31.4497 99.6166 31.4498C99.6535 31.4499 99.6904 31.4504 99.7274 31.4505C99.9337 31.4509 100.14 31.4503 100.347 31.449C100.561 31.4475 100.775 31.4451 100.99 31.4417C100.991 31.4417 100.992 31.4417 100.993 31.4417C101.215 31.4383 101.436 31.4338 101.657 31.4282C101.886 31.4224 102.114 31.415 102.342 31.407C102.368 31.4061 102.394 31.4056 102.42 31.4047C102.435 31.4042 102.45 31.4038 102.465 31.4033C102.885 31.3879 103.303 31.3687 103.717 31.3457C103.73 31.345 103.741 31.344 103.754 31.3433C104.233 31.3165 104.708 31.2847 105.176 31.2477C105.181 31.2473 105.185 31.2472 105.19 31.2468C105.218 31.2446 105.244 31.2413 105.272 31.2391C105.761 31.1995 106.239 31.1534 106.71 31.1027C106.765 31.0968 106.823 31.0929 106.878 31.0868C107.032 31.0697 107.179 31.0487 107.331 31.0303C107.536 31.0055 107.742 30.981 107.943 30.954C108.004 30.9458 108.068 30.9392 108.128 30.9309C108.423 30.8898 108.713 30.8462 108.998 30.8001C109.098 30.7838 109.197 30.7673 109.295 30.7506C109.64 30.6918 109.967 30.6304 110.279 30.5667C110.28 30.5665 110.28 30.5662 110.281 30.5661C110.285 30.5653 110.288 30.5645 110.291 30.5638C110.56 30.5087 110.816 30.452 111.06 30.3937C111.143 30.3737 111.218 30.3525 111.299 30.3322C111.363 30.316 111.426 30.2998 111.488 30.2834C111.555 30.2658 111.627 30.2488 111.692 30.2308C111.876 30.1797 112.052 30.1276 112.219 30.0745C112.251 30.0644 112.279 30.0538 112.311 30.0436C112.346 30.0322 112.378 30.0205 112.413 30.0089C112.496 29.9808 112.583 29.953 112.662 29.9245C112.797 29.8756 112.924 29.8262 113.044 29.7761C113.067 29.7667 113.086 29.7569 113.108 29.7475C113.132 29.7375 113.153 29.7274 113.176 29.7174C113.244 29.6875 113.315 29.6577 113.377 29.6274C113.48 29.578 113.576 29.5282 113.665 29.478C113.686 29.466 113.703 29.4538 113.724 29.4419C113.743 29.4309 113.76 29.4197 113.778 29.4086C113.823 29.3812 113.871 29.3539 113.912 29.3262C113.988 29.2747 114.058 29.2229 114.12 29.1708C114.138 29.156 114.151 29.1411 114.168 29.1262C114.182 29.1137 114.194 29.1013 114.207 29.0887C114.235 29.0629 114.265 29.0372 114.289 29.0113C114.341 28.9558 114.384 28.8999 114.42 28.8439C114.429 28.83 114.433 28.8161 114.441 28.8022C114.449 28.7876 114.455 28.7731 114.462 28.7584C114.477 28.728 114.497 28.6976 114.507 28.6672C114.529 28.6045 114.541 28.5416 114.544 28.4787C114.544 28.4706 114.544 28.4626 114.544 28.4547L114.551 11.5376C114.551 11.6392 114.519 11.7401 114.468 11.841Z" fill="#E7C52E"/>
<path d="M111.332 9.66629C116.408 10.9636 115.366 12.8517 109.004 13.8828C102.648 14.9128 93.3722 14.6969 88.296 13.3995C83.22 12.1023 84.2673 10.2153 90.6232 9.18523C96.985 8.15422 106.256 8.36895 111.332 9.66629Z" fill="#F4DA64"/>
<path d="M94.6925 35.9346L94.6661 104.466L42.0125 112.999L42.0388 44.4675L94.6925 35.9346Z" fill="#DDB61F"/>
<path d="M42.0388 44.4673L42.0125 112.999L0 102.262L0.0264387 33.7305L42.0388 44.4673Z" fill="#CFAB2C"/>
<path d="M94.6925 35.9346L94.6661 103.603L42.0125 112.136L42.0388 44.4675L94.6925 35.9346Z" fill="#EBCB3D"/>
<path d="M42.0388 44.4673L42.0125 112.136L0 101.399L0.0264387 33.7305L42.0388 44.4673Z" fill="#D5A700"/>
<path d="M94.6925 35.9351L42.0388 44.468L0.0263672 33.7312L52.6801 25.1982L94.6925 35.9351Z" fill="#F4D759"/>
<path d="M61.8147 20.3733C61.8074 20.3878 61.8014 20.4023 61.7932 20.4168C61.7384 20.5131 61.6601 20.6086 61.56 20.7033C61.5468 20.7159 61.5341 20.7285 61.52 20.741C61.4133 20.8361 61.2829 20.9302 61.1308 21.023C61.1123 21.0342 61.0949 21.0455 61.0759 21.0567C60.917 21.1499 60.7339 21.2416 60.5294 21.3316C60.5061 21.3418 60.4842 21.3522 60.4604 21.3624C60.2518 21.4516 60.0183 21.5386 59.765 21.6238C59.7311 21.6352 59.6986 21.6469 59.6638 21.6582C59.4114 21.7405 59.1349 21.8203 58.8407 21.898C58.7784 21.9144 58.7147 21.9308 58.6504 21.947C58.3334 22.0272 58.0005 22.1056 57.6381 22.1798C57.6371 22.18 57.6362 22.1802 57.6352 22.1804C57.2344 22.2626 56.8061 22.3408 56.3504 22.4146C56.0082 22.4701 55.6538 22.5203 55.2957 22.5685C55.0949 22.5956 54.8891 22.6201 54.6839 22.6448C54.4782 22.6697 54.2726 22.6947 54.0627 22.7173C53.596 22.7675 53.1214 22.8133 52.6377 22.8525C52.6003 22.8555 52.5643 22.8595 52.5268 22.8626C52.0604 22.8995 51.5869 22.9311 51.109 22.9579C50.6683 22.9825 50.2236 23.0032 49.7765 23.0193C49.7467 23.0204 49.7167 23.021 49.6869 23.0221C48.7865 23.0534 47.8768 23.0675 46.9694 23.0647C46.9333 23.0646 46.8972 23.0643 46.8612 23.0641C46.4371 23.0621 46.0138 23.0563 45.5923 23.0469C45.538 23.0457 45.4838 23.0443 45.4295 23.043C45.0202 23.033 44.6129 23.0195 44.2087 23.0026C44.1463 22.9999 44.0839 22.9971 44.0216 22.9944C43.6183 22.9763 43.2183 22.9551 42.8229 22.9301C42.7634 22.9264 42.7044 22.9222 42.6451 22.9183C42.2429 22.8919 41.8447 22.8625 41.4535 22.8289C41.4122 22.8254 41.3719 22.8214 41.3308 22.8178C40.9415 22.7835 40.5578 22.7461 40.1822 22.7048C40.1575 22.7021 40.132 22.6997 40.1072 22.6969C39.7388 22.656 39.3801 22.6106 39.0274 22.5628C38.9479 22.552 38.8685 22.5413 38.7897 22.5302C38.4341 22.48 38.0852 22.4272 37.749 22.3702C37.7049 22.3627 37.6639 22.3543 37.6202 22.3466C37.3311 22.2964 37.0506 22.2432 36.778 22.1878C36.6073 22.1531 36.4457 22.1158 36.2819 22.0791C36.066 22.0307 35.8455 21.9835 35.6424 21.9316C33.4768 21.3781 32.4257 20.7174 32.426 20.0615L32.4194 36.9787C32.4192 37.6344 33.4702 38.2953 35.6359 38.8488C35.7177 38.8697 35.8006 38.8903 35.8845 38.9107C36.008 38.9406 36.1444 38.9669 36.2725 38.9957C36.4373 39.0326 36.5995 39.0701 36.7714 39.105C36.8149 39.1139 36.8539 39.124 36.8979 39.1327C37.1323 39.1791 37.3762 39.2226 37.6224 39.2654C37.6626 39.2724 37.7001 39.2801 37.7406 39.287C37.7486 39.2884 37.7558 39.29 37.7638 39.2913C38.0237 39.3352 38.2897 39.377 38.5613 39.4169C38.6331 39.4274 38.7081 39.4367 38.7806 39.447C38.8612 39.4584 38.9426 39.4694 39.0242 39.4804C39.1247 39.494 39.2227 39.5087 39.3245 39.5216C39.5681 39.5528 39.8155 39.5825 40.0662 39.6105C40.0775 39.6118 40.0892 39.6128 40.1006 39.6141C40.1253 39.6169 40.1507 39.6192 40.1756 39.622C40.3793 39.6443 40.584 39.6663 40.792 39.6865C40.9676 39.7037 41.1462 39.7193 41.3247 39.735C41.3655 39.7387 41.4056 39.7425 41.4466 39.7461C41.4712 39.7482 41.4953 39.7507 41.52 39.7528C41.7613 39.7732 42.0049 39.7923 42.2505 39.81C42.3788 39.8192 42.5091 39.827 42.6384 39.8356C42.6977 39.8395 42.7566 39.8436 42.8161 39.8473C42.8706 39.8508 42.9242 39.8548 42.9789 39.8581C43.2194 39.8726 43.4615 39.8859 43.7049 39.8979C43.8084 39.903 43.913 39.907 44.0169 39.9116C44.0776 39.9144 44.138 39.9171 44.1988 39.9196C44.2753 39.9228 44.3511 39.9267 44.4278 39.9297C44.6577 39.9386 44.8886 39.9464 45.1202 39.953C45.2228 39.956 45.3259 39.958 45.4286 39.9605C45.4794 39.9617 45.53 39.963 45.5809 39.9641C45.6524 39.9656 45.7235 39.9679 45.7951 39.9693C46.0113 39.9734 46.228 39.9766 46.4451 39.9789C46.5816 39.9803 46.7183 39.9808 46.855 39.9814C46.8909 39.9816 46.9268 39.982 46.9628 39.982C46.9997 39.9821 47.0366 39.9827 47.0736 39.9827C47.2799 39.9831 47.4864 39.9826 47.6928 39.9812C47.9073 39.9797 48.1216 39.9773 48.3358 39.9739C48.3371 39.9739 48.3382 39.9739 48.3394 39.9739C48.5609 39.9705 48.7821 39.966 49.0029 39.9604C49.2321 39.9546 49.4605 39.9472 49.6886 39.9392C49.7146 39.9384 49.7406 39.9379 49.7665 39.9369C49.7813 39.9364 49.7962 39.936 49.8109 39.9355C50.2311 39.9201 50.6491 39.9009 51.0635 39.878C51.0758 39.8773 51.0876 39.8762 51.0999 39.8755C51.5794 39.8487 52.0543 39.8169 52.5225 39.7799C52.5269 39.7796 52.5316 39.7794 52.5361 39.7791C52.5641 39.7768 52.5905 39.7735 52.6184 39.7713C53.1067 39.7318 53.5854 39.6857 54.0564 39.6349C54.1113 39.6291 54.1695 39.6251 54.2241 39.619C54.3784 39.602 54.5253 39.5809 54.6772 39.5625C54.8827 39.5377 55.0882 39.5132 55.2891 39.4862C55.3499 39.478 55.414 39.4715 55.4743 39.4631C55.7695 39.422 56.0596 39.3784 56.3439 39.3323C56.4444 39.316 56.5436 39.2995 56.6414 39.2828C56.9857 39.224 57.3136 39.1627 57.6249 39.0989C57.6257 39.0987 57.6266 39.0985 57.6274 39.0983C57.631 39.0975 57.6341 39.0967 57.6376 39.096C57.9059 39.041 58.1625 38.9843 58.4059 38.9259C58.4894 38.9059 58.5642 38.8848 58.6448 38.8644C58.7087 38.8483 58.7719 38.832 58.834 38.8156C58.9008 38.798 58.9733 38.781 59.0379 38.7631C59.2227 38.712 59.3985 38.6598 59.5655 38.6068C59.5975 38.5966 59.6255 38.5861 59.6569 38.5758C59.692 38.5644 59.7247 38.5527 59.759 38.5412C59.8426 38.513 59.9294 38.4853 60.0082 38.4567C60.1429 38.4078 60.2704 38.3584 60.3907 38.3083C60.4133 38.2989 60.4325 38.2892 60.4547 38.2798C60.4781 38.2697 60.4994 38.2596 60.5222 38.2496C60.5902 38.2197 60.6607 38.1899 60.7237 38.1596C60.8262 38.1103 60.922 38.0605 61.0111 38.0102C61.0323 37.9982 61.0495 37.9861 61.0699 37.9741C61.0888 37.9631 61.1059 37.952 61.1241 37.9408C61.1691 37.9134 61.217 37.8861 61.2581 37.8584C61.3345 37.807 61.4039 37.7551 61.4666 37.703C61.4843 37.6882 61.4972 37.6733 61.5138 37.6584C61.5279 37.6459 61.5403 37.6335 61.5536 37.6209C61.5808 37.5951 61.6117 37.5695 61.6356 37.5436C61.6868 37.488 61.7305 37.4321 61.7662 37.3761C61.7751 37.3622 61.7789 37.3483 61.7868 37.3345C61.7951 37.3198 61.8011 37.3053 61.8084 37.2906C61.8235 37.2602 61.8428 37.2298 61.8533 37.1994C61.8751 37.1367 61.8872 37.0738 61.8898 37.0109C61.8901 37.0029 61.8902 36.9948 61.8902 36.9869L61.8968 20.0698C61.8968 20.1714 61.8649 20.2724 61.8147 20.3733Z" fill="#E7C52E"/>
<path d="M58.6786 18.1985C63.7547 19.4958 62.712 21.384 56.3502 22.415C49.9943 23.445 40.7184 23.2291 35.6422 21.9318C30.5662 20.6345 31.6135 18.7475 37.9694 17.7175C44.3312 16.6864 53.6025 16.9012 58.6786 18.1985Z" fill="#F4DA64"/>
<mask id="path-22-outside-1_736_93" maskUnits="userSpaceOnUse" x="68.3278" y="44.0878" width="114.329" height="41.9266" fill="black">
<rect fill="white" x="68.3278" y="44.0878" width="114.329" height="41.9266"/>
<path d="M75.6964 80.3779L76.6606 64.5871L85.2456 63.2532C86.3048 63.0886 87.2037 63.1513 87.942 63.4414C88.6939 63.7132 89.294 64.1624 89.7425 64.7889C90.1886 65.3996 90.4749 66.1324 90.6013 66.9871C90.6364 67.2245 90.6569 67.4723 90.6627 67.7304C90.682 67.9703 90.6799 68.2297 90.6565 68.5086C90.5832 69.6534 90.3128 70.7236 89.8455 71.7191C89.3916 72.6963 88.7131 73.5223 87.8101 74.1969C86.9229 74.8691 85.7837 75.3132 84.3924 75.5294L81.6414 75.9568L81.4355 79.4862L75.6964 80.3779ZM81.9264 71.3223L83.3256 71.1049C83.7841 71.0336 84.1369 70.8493 84.3841 70.5518C84.647 70.2519 84.7932 69.873 84.8225 69.415C84.8418 69.2177 84.841 69.0479 84.8199 68.9054C84.7239 68.2565 84.3202 67.9873 83.6087 68.0978L82.1147 68.3299L81.9264 71.3223ZM90.7733 78.0354L91.7375 62.2445L100.322 60.9106C101.809 60.6797 103.024 60.9119 103.968 61.6072C104.927 62.3001 105.502 63.2875 105.691 64.5696C105.755 64.9969 105.773 65.4475 105.746 65.9212C105.692 66.982 105.399 67.9505 104.865 68.8268C104.345 69.6848 103.642 70.4499 102.754 71.122C103.038 71.2885 103.235 71.5251 103.345 71.8318L104.884 75.8429L98.9077 76.7715L97.623 73.498C97.5106 73.1754 97.2963 73.0387 96.9801 73.0879L96.7429 73.1247L96.5124 77.1436L90.7733 78.0354ZM97.0517 68.4864L98.4509 68.269C99.3837 68.1241 99.8706 67.6437 99.9117 66.8277C99.9158 66.7461 99.9132 66.6736 99.9038 66.6103C99.9103 66.5446 99.9088 66.48 99.8995 66.4167C99.8175 65.8627 99.4129 65.6423 98.6857 65.7553L97.1916 65.9874L97.0517 68.4864ZM113.637 74.7258C112.277 74.9371 111.057 74.9405 109.975 74.7362C108.909 74.5293 108.033 74.0744 107.347 73.3715C106.675 72.6502 106.241 71.6328 106.047 70.319C105.941 69.6068 105.917 68.7848 105.973 67.8532C106.099 65.8583 106.504 64.2247 107.189 62.9525C107.888 61.6619 108.864 60.6602 110.117 59.9474C111.368 59.2187 112.887 58.7156 114.673 58.438C116.064 58.2219 117.293 58.2172 118.359 58.424C119.422 58.615 120.289 59.0632 120.959 59.7686C121.63 60.474 122.061 61.4757 122.253 62.7736C122.36 63.5017 122.389 64.3474 122.337 65.3107C122.209 67.2897 121.804 68.9233 121.121 70.2114C120.438 71.4995 119.471 72.5078 118.22 73.2365C116.983 73.9469 115.455 74.4433 113.637 74.7258ZM113.961 69.6966C114.799 69.5664 115.406 69.2453 115.783 68.7334C116.174 68.2031 116.406 67.3656 116.479 66.2208C116.498 65.9103 116.506 65.6338 116.502 65.3915C116.512 65.1309 116.502 64.8977 116.471 64.6919C116.389 64.1379 116.19 63.7723 115.872 63.5949C115.553 63.4017 115.045 63.3591 114.349 63.4672C113.512 63.5974 112.897 63.9276 112.507 64.4579C112.129 64.9699 111.904 65.7982 111.831 66.943C111.812 67.2536 111.806 67.5379 111.812 67.7961C111.815 68.0384 111.832 68.2625 111.862 68.4682C111.942 69.0064 112.142 69.3721 112.461 69.5653C112.781 69.7585 113.281 69.8022 113.961 69.6966ZM126.034 72.7997C125.354 72.9053 124.7 72.9665 124.071 72.9831C123.459 72.9973 122.853 72.9458 122.253 72.8285L122.544 67.9016C122.931 68.0034 123.351 68.0594 123.806 68.0698C124.258 68.0643 124.713 68.026 125.172 67.9547C125.978 67.8295 126.51 67.601 126.768 67.2694C127.043 66.9354 127.207 66.4079 127.262 65.6869L127.816 56.6388L133.556 55.7471L132.9 66.2439C132.834 67.4362 132.56 68.4826 132.079 69.3831C131.611 70.2654 130.885 70.9934 129.903 71.5671C128.936 72.1382 127.646 72.5491 126.034 72.7997ZM134.128 71.2992L135.092 55.5083L147.306 53.6107L147.039 57.8781L140.565 58.884L140.484 60.3052L146.057 59.4393L145.788 63.8529L140.215 64.7188L140.11 66.1437L146.584 65.1378L146.342 69.4015L134.128 71.2992ZM155.902 68.1589C154.337 68.4021 152.945 68.3917 151.725 68.1279C150.521 67.8616 149.539 67.3423 148.777 66.57C148.03 65.7795 147.56 64.7352 147.368 63.4374C147.279 62.8359 147.253 62.168 147.29 61.4336C147.459 58.7519 148.395 56.5988 150.095 54.9745C151.796 53.3502 154.061 52.3182 156.891 51.8785C157.871 51.7262 158.728 51.666 159.46 51.6979C160.209 51.7273 160.935 51.825 161.639 51.9909L161.312 57.1662C159.902 56.7054 158.445 56.5916 156.943 56.825C155.742 57.0117 154.826 57.3806 154.196 57.9319C153.579 58.4649 153.23 59.3287 153.148 60.5235C153.128 60.7208 153.124 60.9077 153.134 61.0843C153.144 61.2608 153.16 61.4283 153.184 61.5865C153.294 62.3305 153.624 62.8135 154.174 63.0356C154.738 63.2394 155.55 63.2591 156.609 63.0945C158.111 62.8611 159.611 62.288 161.11 61.3751L160.783 66.5504C160.046 66.924 159.293 67.2435 158.523 67.5088C157.756 67.7899 156.883 68.0066 155.902 68.1589ZM165.025 66.4985L165.723 54.9751L161.834 55.5794L162.1 51.312L175.618 49.2117L175.351 53.4791L171.462 54.0834L170.764 65.6068L165.025 66.4985Z"/>
</mask>
<path d="M75.6964 80.3779L76.6606 64.5871L85.2456 63.2532C86.3048 63.0886 87.2037 63.1513 87.942 63.4414C88.6939 63.7132 89.294 64.1624 89.7425 64.7889C90.1886 65.3996 90.4749 66.1324 90.6013 66.9871C90.6364 67.2245 90.6569 67.4723 90.6627 67.7304C90.682 67.9703 90.6799 68.2297 90.6565 68.5086C90.5832 69.6534 90.3128 70.7236 89.8455 71.7191C89.3916 72.6963 88.7131 73.5223 87.8101 74.1969C86.9229 74.8691 85.7837 75.3132 84.3924 75.5294L81.6414 75.9568L81.4355 79.4862L75.6964 80.3779ZM81.9264 71.3223L83.3256 71.1049C83.7841 71.0336 84.1369 70.8493 84.3841 70.5518C84.647 70.2519 84.7932 69.873 84.8225 69.415C84.8418 69.2177 84.841 69.0479 84.8199 68.9054C84.7239 68.2565 84.3202 67.9873 83.6087 68.0978L82.1147 68.3299L81.9264 71.3223ZM90.7733 78.0354L91.7375 62.2445L100.322 60.9106C101.809 60.6797 103.024 60.9119 103.968 61.6072C104.927 62.3001 105.502 63.2875 105.691 64.5696C105.755 64.9969 105.773 65.4475 105.746 65.9212C105.692 66.982 105.399 67.9505 104.865 68.8268C104.345 69.6848 103.642 70.4499 102.754 71.122C103.038 71.2885 103.235 71.5251 103.345 71.8318L104.884 75.8429L98.9077 76.7715L97.623 73.498C97.5106 73.1754 97.2963 73.0387 96.9801 73.0879L96.7429 73.1247L96.5124 77.1436L90.7733 78.0354ZM97.0517 68.4864L98.4509 68.269C99.3837 68.1241 99.8706 67.6437 99.9117 66.8277C99.9158 66.7461 99.9132 66.6736 99.9038 66.6103C99.9103 66.5446 99.9088 66.48 99.8995 66.4167C99.8175 65.8627 99.4129 65.6423 98.6857 65.7553L97.1916 65.9874L97.0517 68.4864ZM113.637 74.7258C112.277 74.9371 111.057 74.9405 109.975 74.7362C108.909 74.5293 108.033 74.0744 107.347 73.3715C106.675 72.6502 106.241 71.6328 106.047 70.319C105.941 69.6068 105.917 68.7848 105.973 67.8532C106.099 65.8583 106.504 64.2247 107.189 62.9525C107.888 61.6619 108.864 60.6602 110.117 59.9474C111.368 59.2187 112.887 58.7156 114.673 58.438C116.064 58.2219 117.293 58.2172 118.359 58.424C119.422 58.615 120.289 59.0632 120.959 59.7686C121.63 60.474 122.061 61.4757 122.253 62.7736C122.36 63.5017 122.389 64.3474 122.337 65.3107C122.209 67.2897 121.804 68.9233 121.121 70.2114C120.438 71.4995 119.471 72.5078 118.22 73.2365C116.983 73.9469 115.455 74.4433 113.637 74.7258ZM113.961 69.6966C114.799 69.5664 115.406 69.2453 115.783 68.7334C116.174 68.2031 116.406 67.3656 116.479 66.2208C116.498 65.9103 116.506 65.6338 116.502 65.3915C116.512 65.1309 116.502 64.8977 116.471 64.6919C116.389 64.1379 116.19 63.7723 115.872 63.5949C115.553 63.4017 115.045 63.3591 114.349 63.4672C113.512 63.5974 112.897 63.9276 112.507 64.4579C112.129 64.9699 111.904 65.7982 111.831 66.943C111.812 67.2536 111.806 67.5379 111.812 67.7961C111.815 68.0384 111.832 68.2625 111.862 68.4682C111.942 69.0064 112.142 69.3721 112.461 69.5653C112.781 69.7585 113.281 69.8022 113.961 69.6966ZM126.034 72.7997C125.354 72.9053 124.7 72.9665 124.071 72.9831C123.459 72.9973 122.853 72.9458 122.253 72.8285L122.544 67.9016C122.931 68.0034 123.351 68.0594 123.806 68.0698C124.258 68.0643 124.713 68.026 125.172 67.9547C125.978 67.8295 126.51 67.601 126.768 67.2694C127.043 66.9354 127.207 66.4079 127.262 65.6869L127.816 56.6388L133.556 55.7471L132.9 66.2439C132.834 67.4362 132.56 68.4826 132.079 69.3831C131.611 70.2654 130.885 70.9934 129.903 71.5671C128.936 72.1382 127.646 72.5491 126.034 72.7997ZM134.128 71.2992L135.092 55.5083L147.306 53.6107L147.039 57.8781L140.565 58.884L140.484 60.3052L146.057 59.4393L145.788 63.8529L140.215 64.7188L140.11 66.1437L146.584 65.1378L146.342 69.4015L134.128 71.2992ZM155.902 68.1589C154.337 68.4021 152.945 68.3917 151.725 68.1279C150.521 67.8616 149.539 67.3423 148.777 66.57C148.03 65.7795 147.56 64.7352 147.368 63.4374C147.279 62.8359 147.253 62.168 147.29 61.4336C147.459 58.7519 148.395 56.5988 150.095 54.9745C151.796 53.3502 154.061 52.3182 156.891 51.8785C157.871 51.7262 158.728 51.666 159.46 51.6979C160.209 51.7273 160.935 51.825 161.639 51.9909L161.312 57.1662C159.902 56.7054 158.445 56.5916 156.943 56.825C155.742 57.0117 154.826 57.3806 154.196 57.9319C153.579 58.4649 153.23 59.3287 153.148 60.5235C153.128 60.7208 153.124 60.9077 153.134 61.0843C153.144 61.2608 153.16 61.4283 153.184 61.5865C153.294 62.3305 153.624 62.8135 154.174 63.0356C154.738 63.2394 155.55 63.2591 156.609 63.0945C158.111 62.8611 159.611 62.288 161.11 61.3751L160.783 66.5504C160.046 66.924 159.293 67.2435 158.523 67.5088C157.756 67.7899 156.883 68.0066 155.902 68.1589ZM165.025 66.4985L165.723 54.9751L161.834 55.5794L162.1 51.312L175.618 49.2117L175.351 53.4791L171.462 54.0834L170.764 65.6068L165.025 66.4985Z" fill="#F0F0F0"/>
<path d="M75.6964 80.3779L71.7082 80.1612C71.6346 81.3666 72.1073 82.5372 72.9948 83.3471C73.8824 84.1571 75.09 84.52 76.2815 84.3349L75.6964 80.3779ZM76.6606 64.5871L76.0754 60.6301C74.2072 60.9204 72.7878 62.4805 72.6724 64.3703L76.6606 64.5871ZM87.942 63.4414L86.4613 67.1709C86.495 67.1842 86.529 67.197 86.5631 67.2093L87.942 63.4414ZM89.7425 64.7889L86.4903 67.1379C86.4977 67.1483 86.5052 67.1587 86.5127 67.169L89.7425 64.7889ZM90.6627 67.7304L86.6681 67.849C86.6698 67.9261 86.6738 68.0031 86.68 68.08L90.6627 67.7304ZM90.6565 68.5086L86.675 68.2001C86.6727 68.2267 86.6707 68.2533 86.669 68.28L90.6565 68.5086ZM89.8455 71.7191L86.2321 70.0351C86.2298 70.0401 86.2274 70.0452 86.2251 70.0502L89.8455 71.7191ZM87.8101 74.1969L85.4364 70.9924C85.4292 70.9979 85.4219 71.0033 85.4147 71.0088L87.8101 74.1969ZM81.6414 75.9568L81.0562 71.9999C79.184 72.2908 77.763 73.8568 77.6525 75.751L81.6414 75.9568ZM81.4355 79.4862L82.0207 83.4432C83.8929 83.1523 85.3139 81.5863 85.4244 79.692L81.4355 79.4862ZM81.9264 71.3223L77.9387 71.0981C77.8628 72.3047 78.3344 73.4773 79.2222 74.289C80.1099 75.1007 81.3187 75.4646 82.5116 75.2792L81.9264 71.3223ZM84.3841 70.5518L81.3905 67.9207C81.3669 67.9476 81.3436 67.9748 81.3208 68.0023L84.3841 70.5518ZM84.8225 69.415L80.846 69.0511C80.8416 69.0962 80.8379 69.1413 80.835 69.1864L84.8225 69.415ZM82.1147 68.3299L81.5295 64.373C79.6641 64.6628 78.2457 66.2189 78.1269 68.1058L82.1147 68.3299ZM75.6964 80.3779L79.6846 80.5946L80.6488 64.8038L76.6606 64.5871L72.6724 64.3703L71.7082 80.1612L75.6964 80.3779ZM76.6606 64.5871L77.2457 68.544L85.8307 67.2102L85.2456 63.2532L84.6604 59.2962L76.0754 60.6301L76.6606 64.5871ZM85.2456 63.2532L85.8307 67.2102C86.4256 67.1177 86.5672 67.2125 86.4613 67.1709L87.942 63.4414L89.4228 59.7119C87.8402 59.0902 86.1841 59.0595 84.6604 59.2962L85.2456 63.2532ZM87.942 63.4414L86.5631 67.2093C86.5809 67.2158 86.586 67.2189 86.5814 67.2165C86.5766 67.2139 86.5655 67.2075 86.5509 67.1965C86.5361 67.1855 86.5221 67.1731 86.5101 67.1608C86.4981 67.1485 86.4916 67.1399 86.4903 67.1379L89.7425 64.7889L92.9947 62.4399C92.0614 61.1359 90.7966 60.2069 89.321 59.6735L87.942 63.4414ZM89.7425 64.7889L86.5127 67.169C86.5287 67.1909 86.6036 67.2964 86.6487 67.6012L90.6013 66.9871L94.5539 66.3729C94.3462 64.9683 93.8486 63.6084 92.9723 62.4088L89.7425 64.7889ZM90.6013 66.9871L86.6487 67.6012C86.6578 67.6629 86.6657 67.7446 86.6681 67.849L90.6627 67.7304L94.6573 67.6118C94.648 67.2 94.615 66.7861 94.5539 66.3729L90.6013 66.9871ZM90.6627 67.7304L86.68 68.08C86.6791 68.0693 86.6829 68.1061 86.675 68.2001L90.6565 68.5086L94.638 68.8171C94.677 68.3533 94.6849 67.8713 94.6455 67.3809L90.6627 67.7304ZM90.6565 68.5086L86.669 68.28C86.6265 68.944 86.475 69.5179 86.2321 70.0351L89.8455 71.7191L93.4588 73.403C94.1507 71.9292 94.5398 70.3627 94.6439 68.7372L90.6565 68.5086ZM89.8455 71.7191L86.2251 70.0502C86.0665 70.3917 85.8291 70.6991 85.4364 70.9924L87.8101 74.1969L90.1838 77.4013C91.5971 76.3455 92.7167 75.0009 93.4658 73.388L89.8455 71.7191ZM87.8101 74.1969L85.4147 71.0088C85.183 71.1844 84.7145 71.4315 83.8072 71.5724L84.3924 75.5294L84.9776 79.4864C86.8529 79.195 88.6629 78.5538 90.2055 77.385L87.8101 74.1969ZM84.3924 75.5294L83.8072 71.5724L81.0562 71.9999L81.6414 75.9568L82.2266 79.9138L84.9776 79.4864L84.3924 75.5294ZM81.6414 75.9568L77.6525 75.751L77.4467 79.2804L81.4355 79.4862L85.4244 79.692L85.6302 76.1627L81.6414 75.9568ZM81.4355 79.4862L80.8503 75.5292L75.1112 76.4209L75.6964 80.3779L76.2815 84.3349L82.0207 83.4432L81.4355 79.4862ZM81.9264 71.3223L82.5116 75.2792L83.9108 75.0618L83.3256 71.1049L82.7405 67.1479L81.3412 67.3653L81.9264 71.3223ZM83.3256 71.1049L83.9108 75.0618C85.1297 74.8724 86.4491 74.3028 87.4474 73.1013L84.3841 70.5518L81.3208 68.0023C81.5497 67.7267 81.8241 67.5127 82.1064 67.3652C82.3787 67.2229 82.6077 67.1685 82.7405 67.1479L83.3256 71.1049ZM84.3841 70.5518L87.3777 73.1829C88.3154 72.1133 88.7329 70.8471 88.8099 69.6436L84.8225 69.415L80.835 69.1864C80.8431 69.0603 80.873 68.8611 80.9652 68.6218C81.0598 68.3766 81.2028 68.1348 81.3905 67.9207L84.3841 70.5518ZM84.8225 69.415L88.799 69.7789C88.8393 69.3678 88.8554 68.8523 88.7725 68.2913L84.8199 68.9054L80.8673 69.5195C80.8458 69.374 80.8411 69.2601 80.8407 69.188C80.8404 69.115 80.8444 69.0677 80.846 69.0511L84.8225 69.415ZM84.8199 68.9054L88.7725 68.2913C88.6195 67.2571 88.1011 65.8294 86.6746 64.8782C85.3273 63.9798 83.9022 64.0043 83.0236 64.1408L83.6087 68.0978L84.1939 72.0548C84.0267 72.0807 83.1593 72.1846 82.2157 71.5554C81.1929 70.8734 80.9243 69.9048 80.8673 69.5195L84.8199 68.9054ZM83.6087 68.0978L83.0236 64.1408L81.5295 64.373L82.1147 68.3299L82.6998 72.2869L84.1939 72.0548L83.6087 68.0978ZM82.1147 68.3299L78.1269 68.1058L77.9387 71.0981L81.9264 71.3223L85.9142 71.5464L86.1024 68.5541L82.1147 68.3299ZM90.7733 78.0354L86.7851 77.8186C86.7115 79.0241 87.1842 80.1946 88.0718 81.0046C88.9593 81.8146 90.1669 82.1775 91.3585 81.9923L90.7733 78.0354ZM91.7375 62.2445L91.1523 58.2875C89.2841 58.5778 87.8647 60.1379 87.7493 62.0278L91.7375 62.2445ZM103.968 61.6072L101.586 64.8395C101.597 64.847 101.607 64.8544 101.617 64.8618L103.968 61.6072ZM105.746 65.9212L101.757 65.7209C101.756 65.7298 101.756 65.7386 101.755 65.7474L105.746 65.9212ZM104.865 68.8268L101.458 66.7585L101.454 66.7654L104.865 68.8268ZM102.754 71.122L100.359 67.9339C99.2911 68.7431 98.6929 70.0304 98.7646 71.3652C98.8363 72.7 99.5685 73.9062 100.716 74.5803L102.754 71.122ZM103.345 71.8318L99.5836 73.21C99.5934 73.2375 99.6036 73.2648 99.614 73.292L103.345 71.8318ZM104.884 75.8429L105.469 79.7999C106.668 79.6135 107.722 78.8921 108.334 77.8388C108.946 76.7855 109.049 75.5141 108.615 74.3828L104.884 75.8429ZM98.9077 76.7715L95.1879 78.2596C95.8673 79.9907 97.6523 81.0144 99.4929 80.7284L98.9077 76.7715ZM97.623 73.498L93.8497 74.8417C93.8666 74.8902 93.8845 74.9384 93.9032 74.9862L97.623 73.498ZM96.7429 73.1247L96.1578 69.1677C94.2841 69.4589 92.8626 71.027 92.7539 72.9228L96.7429 73.1247ZM96.5124 77.1436L97.0976 81.1006C98.9713 80.8095 100.393 79.2414 100.501 77.3456L96.5124 77.1436ZM97.0517 68.4864L93.0623 68.29C92.995 69.4922 93.4707 70.6572 94.3576 71.4625C95.2446 72.2678 96.4488 72.628 97.6369 72.4434L97.0517 68.4864ZM99.9117 66.8277L103.902 67.0015L103.902 67.0015L99.9117 66.8277ZM99.9038 66.6103L95.9273 66.2464C95.8954 66.5725 95.9034 66.9009 95.9513 67.2245L99.9038 66.6103ZM97.1916 65.9874L96.6064 62.0304C94.7307 62.3219 93.3085 63.893 93.2022 65.791L97.1916 65.9874ZM90.7733 78.0354L94.7615 78.2521L95.7257 62.4612L91.7375 62.2445L87.7493 62.0278L86.7851 77.8186L90.7733 78.0354ZM91.7375 62.2445L92.3227 66.2015L100.908 64.8676L100.322 60.9106L99.7373 56.9537L91.1523 58.2875L91.7375 62.2445ZM100.322 60.9106L100.908 64.8676C101.292 64.8079 101.498 64.8308 101.573 64.8452C101.631 64.8563 101.616 64.8613 101.586 64.8395L103.968 61.6072L106.349 58.375C104.334 56.8909 101.966 56.6074 99.7373 56.9537L100.322 60.9106ZM103.968 61.6072L101.617 64.8618C101.646 64.8827 101.657 64.8949 101.659 64.8966C101.66 64.898 101.661 64.8987 101.663 64.9028C101.665 64.9056 101.709 64.9788 101.739 65.1837L105.691 64.5696L109.644 63.9555C109.313 61.7176 108.229 59.7321 106.318 58.3526L103.968 61.6072ZM105.691 64.5696L101.739 65.1837C101.759 65.3173 101.77 65.4935 101.757 65.7209L105.746 65.9212L109.735 66.1216C109.776 65.4015 109.751 64.6766 109.644 63.9555L105.691 64.5696ZM105.746 65.9212L101.755 65.7474C101.734 66.1649 101.629 66.4779 101.458 66.7585L104.865 68.8268L108.272 70.8951C109.168 69.4231 109.651 67.7991 109.736 66.0951L105.746 65.9212ZM104.865 68.8268L101.454 66.7654C101.226 67.1415 100.884 67.5359 100.359 67.9339L102.754 71.122L105.15 74.3101C106.399 73.3639 107.464 72.2281 108.276 70.8882L104.865 68.8268ZM102.754 71.122L100.716 74.5803C100.49 74.4478 100.251 74.2576 100.038 74.0004C99.8234 73.7428 99.6762 73.4681 99.5836 73.21L103.345 71.8318L107.106 70.4536C106.678 69.2618 105.866 68.2943 104.793 67.6637L102.754 71.122ZM103.345 71.8318L99.614 73.292L101.153 77.3031L104.884 75.8429L108.615 74.3828L107.075 70.3717L103.345 71.8318ZM104.884 75.8429L104.299 71.886L98.3225 72.8145L98.9077 76.7715L99.4929 80.7284L105.469 79.7999L104.884 75.8429ZM98.9077 76.7715L102.627 75.2833L101.343 72.0098L97.623 73.498L93.9032 74.9862L95.1879 78.2596L98.9077 76.7715ZM97.623 73.498L101.396 72.1543C101.146 71.4366 100.618 70.4587 99.5404 69.7712C98.4281 69.0617 97.2586 68.9967 96.3949 69.1309L96.9801 73.0879L97.5653 77.0448C97.0178 77.1299 96.1135 77.1087 95.2156 76.5359C94.3523 75.9852 93.9874 75.2368 93.8497 74.8417L97.623 73.498ZM96.9801 73.0879L96.3949 69.1309L96.1578 69.1677L96.7429 73.1247L97.3281 77.0817L97.5653 77.0448L96.9801 73.0879ZM96.7429 73.1247L92.7539 72.9228L92.5234 76.9417L96.5124 77.1436L100.501 77.3456L100.732 73.3266L96.7429 73.1247ZM96.5124 77.1436L95.9273 73.1867L90.1881 74.0784L90.7733 78.0354L91.3585 81.9923L97.0976 81.1006L96.5124 77.1436ZM97.0517 68.4864L97.6369 72.4434L99.0361 72.226L98.4509 68.269L97.8657 64.3121L96.4665 64.5295L97.0517 68.4864ZM98.4509 68.269L99.0361 72.226C100.023 72.0727 101.271 71.668 102.309 70.6438C103.408 69.5588 103.842 68.2067 103.902 67.0015L99.9117 66.8277L95.9211 66.6539C95.9407 66.2647 96.1099 65.5607 96.7226 64.9562C97.2737 64.4125 97.8119 64.3204 97.8657 64.3121L98.4509 68.269ZM99.9117 66.8277L103.902 67.0015C103.916 66.7244 103.913 66.3797 103.856 65.9962L99.9038 66.6103L95.9513 67.2245C95.9133 66.9676 95.9154 66.7678 95.9211 66.6539L99.9117 66.8277ZM99.9038 66.6103L103.88 66.9743C103.918 66.5925 103.911 66.1993 103.852 65.8026L99.8995 66.4167L95.9469 67.0308C95.9069 66.7608 95.9028 66.4966 95.9273 66.2464L99.9038 66.6103ZM99.8995 66.4167L103.852 65.8026C103.671 64.5813 102.992 63.1486 101.462 62.3149C100.159 61.605 98.8532 61.6813 98.1005 61.7983L98.6857 65.7553L99.2708 69.7122C99.2454 69.7162 98.505 69.8463 97.6069 69.3568C96.4817 68.7436 96.0456 67.6981 95.9469 67.0308L99.8995 66.4167ZM98.6857 65.7553L98.1005 61.7983L96.6064 62.0304L97.1916 65.9874L97.7768 69.9444L99.2708 69.7122L98.6857 65.7553ZM97.1916 65.9874L93.2022 65.791L93.0623 68.29L97.0517 68.4864L101.041 68.6829L101.181 66.1838L97.1916 65.9874ZM109.975 74.7362L109.189 78.6677C109.195 78.6689 109.202 78.6701 109.208 78.6713L109.975 74.7362ZM107.347 73.3715L104.419 76.1169C104.44 76.1388 104.461 76.1605 104.482 76.1819L107.347 73.3715ZM105.973 67.8532L101.985 67.629L101.985 67.6389L105.973 67.8532ZM107.189 62.9525L103.68 61.0619L103.676 61.0696L107.189 62.9525ZM110.117 59.9474L112.071 63.4265C112.083 63.4197 112.095 63.4128 112.107 63.4058L110.117 59.9474ZM118.359 58.424L117.573 62.3555C117.591 62.359 117.609 62.3624 117.627 62.3657L118.359 58.424ZM120.959 59.7686L118.057 62.5409L118.057 62.5409L120.959 59.7686ZM122.337 65.3107L126.324 65.5415C126.325 65.5269 126.326 65.5122 126.327 65.4975L122.337 65.3107ZM121.121 70.2114L117.595 68.3519L121.121 70.2114ZM118.22 73.2365L120.188 76.7076C120.195 76.7034 120.203 76.6992 120.21 76.6949L118.22 73.2365ZM115.783 68.7334L112.575 66.3696L112.575 66.3696L115.783 68.7334ZM116.479 66.2208L120.467 66.4494C120.467 66.4446 120.467 66.4398 120.468 66.435L116.479 66.2208ZM116.502 65.3915L112.509 65.2659C112.507 65.3363 112.506 65.4068 112.507 65.4773L116.502 65.3915ZM115.872 63.5949L113.792 67.0279C113.83 67.051 113.869 67.0735 113.908 67.0954L115.872 63.5949ZM111.831 66.943L107.843 66.7144C107.843 66.7192 107.843 66.724 107.843 66.7288L111.831 66.943ZM111.812 67.7961L115.807 67.7103C115.807 67.6994 115.806 67.6885 115.806 67.6775L111.812 67.7961ZM113.637 74.7258L113.052 70.7689C112.035 70.9269 111.283 70.9032 110.742 70.801L109.975 74.7362L109.208 78.6713C110.83 78.9778 112.52 78.9473 114.222 78.6828L113.637 74.7258ZM109.975 74.7362L110.761 70.8047C110.402 70.7349 110.278 70.628 110.213 70.561L107.347 73.3715L104.482 76.1819C105.789 77.5209 107.417 78.3238 109.189 78.6677L109.975 74.7362ZM107.347 73.3715L110.275 70.6261C110.311 70.6643 110.115 70.4873 109.999 69.7049L106.047 70.319L102.094 70.9332C102.367 72.7782 103.038 74.6361 104.419 76.1169L107.347 73.3715ZM106.047 70.319L109.999 69.7049C109.944 69.3329 109.917 68.7985 109.962 68.0674L105.973 67.8532L101.985 67.6389C101.916 68.7712 101.939 69.8807 102.094 70.9332L106.047 70.319ZM105.973 67.8532L109.961 68.0773C110.063 66.4524 110.378 65.437 110.702 64.8354L107.189 62.9525L103.676 61.0696C102.63 63.0125 102.134 65.2642 101.985 67.629L105.973 67.8532ZM107.189 62.9525L110.698 64.8431C111.044 64.2053 111.486 63.7595 112.071 63.4265L110.117 59.9474L108.163 56.4683C106.242 57.561 104.732 59.1185 103.68 61.0619L107.189 62.9525ZM110.117 59.9474L112.107 63.4058C112.83 62.9845 113.846 62.6144 115.258 62.395L114.673 58.438L114.088 54.4811C111.927 54.8169 109.906 55.4529 108.127 56.489L110.117 59.9474ZM114.673 58.438L115.258 62.395C116.321 62.2299 117.069 62.2578 117.573 62.3555L118.359 58.424L119.145 54.4925C117.517 54.1765 115.808 54.2138 114.088 54.4811L114.673 58.438ZM118.359 58.424L117.627 62.3657C117.955 62.4246 118.03 62.5126 118.057 62.5409L120.959 59.7686L123.862 56.9963C122.548 55.6138 120.889 54.8054 119.09 54.4823L118.359 58.424ZM120.959 59.7686L118.057 62.5409C118 62.4807 118.188 62.6276 118.3 63.3877L122.253 62.7736L126.205 62.1594C125.934 60.3238 125.26 58.4674 123.862 56.9963L120.959 59.7686ZM122.253 62.7736L118.3 63.3877C118.359 63.7843 118.388 64.3513 118.347 65.1238L122.337 65.3107L126.327 65.4975C126.389 64.3435 126.362 63.219 126.205 62.1594L122.253 62.7736ZM122.337 65.3107L118.35 65.0798C118.246 66.6847 117.932 67.7164 117.595 68.3519L121.121 70.2114L124.646 72.0709C125.675 70.1302 126.172 67.8948 126.324 65.5415L122.337 65.3107ZM121.121 70.2114L117.595 68.3519C117.263 68.9785 116.826 69.4309 116.23 69.7781L118.22 73.2365L120.21 76.6949C122.116 75.5848 123.613 74.0205 124.646 72.0709L121.121 70.2114ZM118.22 73.2365L116.252 69.7653C115.548 70.1699 114.519 70.5408 113.052 70.7689L113.637 74.7258L114.222 78.6828C116.391 78.3458 118.418 77.7238 120.188 76.7076L118.22 73.2365ZM113.961 69.6966L114.546 73.6536C116.066 73.4174 117.793 72.7253 118.992 71.0971L115.783 68.7334L112.575 66.3696C112.776 66.0965 113.012 65.9185 113.2 65.819C113.371 65.7286 113.455 65.7273 113.375 65.7397L113.961 69.6966ZM115.783 68.7334L118.992 71.0971C120.07 69.6333 120.376 67.8603 120.467 66.4494L116.479 66.2208L112.492 65.9922C112.467 66.3708 112.423 66.5795 112.401 66.6617C112.39 66.6984 112.391 66.6859 112.413 66.6373C112.436 66.5883 112.485 66.4918 112.575 66.3696L115.783 68.7334ZM116.479 66.2208L120.468 66.435C120.491 66.0509 120.503 65.6714 120.497 65.3057L116.502 65.3915L112.507 65.4773C112.509 65.5963 112.505 65.7696 112.491 66.0066L116.479 66.2208ZM116.502 65.3915L120.495 65.5171C120.512 65.0679 120.498 64.5803 120.424 64.0778L116.471 64.6919L112.519 65.306C112.512 65.2578 112.51 65.2295 112.51 65.2248C112.51 65.22 112.511 65.2329 112.509 65.2659L116.502 65.3915ZM116.471 64.6919L120.424 64.0778C120.26 62.9691 119.703 61.137 117.837 60.0944L115.872 63.5949L113.908 67.0954C112.677 66.4076 112.519 65.3068 112.519 65.306L116.471 64.6919ZM115.872 63.5949L117.953 60.1619C116.385 59.2144 114.676 59.3686 113.764 59.5103L114.349 63.4672L114.935 67.4242C115.078 67.4019 115.046 67.4215 114.891 67.4085C114.744 67.3962 114.308 67.3397 113.792 67.0279L115.872 63.5949ZM114.349 63.4672L113.764 59.5103C112.198 59.7536 110.49 60.4763 109.298 62.0941L112.507 64.4579L115.715 66.8216C115.534 67.0674 115.317 67.2379 115.13 67.3383C114.959 67.4301 114.87 67.4343 114.935 67.4242L114.349 63.4672ZM112.507 64.4579L109.298 62.0941C108.222 63.555 107.932 65.3371 107.843 66.7144L111.831 66.943L115.818 67.1716C115.83 66.984 115.847 66.8339 115.865 66.717C115.883 66.5994 115.9 66.5265 115.909 66.4907C115.919 66.4542 115.918 66.4702 115.894 66.5244C115.869 66.5788 115.815 66.6863 115.715 66.8216L112.507 64.4579ZM111.831 66.943L107.843 66.7288C107.818 67.1287 107.808 67.526 107.817 67.9147L111.812 67.7961L115.806 67.6775C115.803 67.5499 115.806 67.3785 115.819 67.1572L111.831 66.943ZM111.812 67.7961L107.816 67.8819C107.822 68.2732 107.85 68.6761 107.91 69.0824L111.862 68.4682L115.815 67.8541C115.814 67.8488 115.808 67.8036 115.807 67.7103L111.812 67.7961ZM111.862 68.4682L107.91 69.0824C108.082 70.2486 108.657 71.9566 110.381 72.9982L112.461 69.5653L114.542 66.1323C115.626 66.7876 115.802 67.7642 115.815 67.8541L111.862 68.4682ZM112.461 69.5653L110.381 72.9982C111.936 73.9382 113.623 73.797 114.546 73.6536L113.961 69.6966L113.375 65.7397C113.246 65.7598 113.288 65.7396 113.452 65.7539C113.61 65.7677 114.039 65.8281 114.542 66.1323L112.461 69.5653ZM124.071 72.9831L124.136 76.9864L124.149 76.9861L124.071 72.9831ZM122.253 72.8285L118.265 72.6203C118.147 74.6124 119.51 76.377 121.461 76.7588L122.253 72.8285ZM122.544 67.9016L123.583 64.0279C122.423 63.7228 121.183 63.9582 120.208 64.6691C119.233 65.3799 118.626 66.4906 118.555 67.6934L122.544 67.9016ZM123.806 68.0698L123.687 72.0731C123.733 72.0742 123.78 72.0744 123.826 72.0738L123.806 68.0698ZM126.768 67.2694L123.689 64.7391C123.668 64.7655 123.646 64.7923 123.625 64.8192L126.768 67.2694ZM127.262 65.6869L131.246 65.965C131.248 65.9448 131.249 65.9246 131.25 65.9044L127.262 65.6869ZM127.816 56.6388L127.231 52.6818C125.363 52.972 123.944 54.5317 123.828 56.4213L127.816 56.6388ZM133.556 55.7471L137.543 55.9693C137.619 54.763 137.147 53.5909 136.259 52.7797C135.371 51.9685 134.163 51.6048 132.97 51.7901L133.556 55.7471ZM132.9 66.2439L128.912 66.0216C128.912 66.0308 128.911 66.0399 128.911 66.049L132.9 66.2439ZM132.079 69.3831L128.56 67.5114L128.553 67.523L132.079 69.3831ZM129.903 71.5671L127.91 68.1106C127.904 68.1141 127.898 68.1176 127.892 68.1212L129.903 71.5671ZM126.034 72.7997L125.448 68.8427C124.921 68.9246 124.437 68.9684 123.994 68.9802L124.071 72.9831L124.149 76.9861C124.962 76.9645 125.786 76.886 126.619 76.7567L126.034 72.7997ZM124.071 72.9831L124.007 68.9799C123.682 68.9874 123.363 68.9602 123.045 68.8981L122.253 72.8285L121.461 76.7588C122.343 76.9313 123.236 77.0073 124.136 76.9864L124.071 72.9831ZM122.253 72.8285L126.242 73.0367L126.532 68.1098L122.544 67.9016L118.555 67.6934L118.265 72.6203L122.253 72.8285ZM122.544 67.9016L121.504 71.7753C122.229 71.9658 122.962 72.0566 123.687 72.0731L123.806 68.0698L123.925 64.0665C123.74 64.0623 123.632 64.0409 123.583 64.0279L122.544 67.9016ZM123.806 68.0698L123.826 72.0738C124.472 72.066 125.116 72.0113 125.757 71.9117L125.172 67.9547L124.586 63.9978C124.31 64.0407 124.044 64.0626 123.785 64.0658L123.806 68.0698ZM125.172 67.9547L125.757 71.9117C126.737 71.7593 128.644 71.347 129.912 69.7197L126.768 67.2694L123.625 64.8192C124.044 64.2812 124.492 64.067 124.624 64.0101C124.765 63.9497 124.782 63.9674 124.586 63.9978L125.172 67.9547ZM126.768 67.2694L129.848 69.7998C130.896 68.5216 131.167 67.0074 131.246 65.965L127.262 65.6869L123.278 65.4088C123.267 65.5541 123.253 65.5526 123.285 65.4526C123.316 65.3533 123.418 65.0693 123.689 64.7391L126.768 67.2694ZM127.262 65.6869L131.25 65.9044L131.805 56.8563L127.816 56.6388L123.828 56.4213L123.274 65.4694L127.262 65.6869ZM127.816 56.6388L128.402 60.5957L134.141 59.704L133.556 55.7471L132.97 51.7901L127.231 52.6818L127.816 56.6388ZM133.556 55.7471L129.568 55.5248L128.912 66.0216L132.9 66.2439L136.888 66.4661L137.543 55.9693L133.556 55.7471ZM132.9 66.2439L128.911 66.049C128.871 66.7553 128.72 67.2111 128.56 67.5114L132.079 69.3831L135.598 71.2549C136.4 69.7541 136.796 68.117 136.89 66.4387L132.9 66.2439ZM132.079 69.3831L128.553 67.523C128.485 67.6514 128.337 67.8612 127.91 68.1106L129.903 71.5671L131.896 75.0236C133.434 74.1256 134.736 72.8795 135.604 71.2433L132.079 69.3831ZM129.903 71.5671L127.892 68.1212C127.516 68.343 126.768 68.6377 125.448 68.8427L126.034 72.7997L126.619 76.7567C128.524 76.4606 130.356 75.9335 131.914 75.0129L129.903 71.5671ZM134.128 71.2992L130.14 71.0824C130.066 72.2879 130.539 73.4584 131.427 74.2684C132.314 75.0784 133.522 75.4413 134.713 75.2561L134.128 71.2992ZM135.092 55.5083L134.507 51.5513C132.639 51.8416 131.219 53.4017 131.104 55.2916L135.092 55.5083ZM147.306 53.6107L151.294 53.833C151.369 52.6267 150.897 51.4546 150.009 50.6433C149.122 49.8321 147.913 49.4684 146.721 49.6537L147.306 53.6107ZM147.039 57.8781L147.624 61.835C149.49 61.5451 150.909 59.988 151.027 58.1004L147.039 57.8781ZM140.565 58.884L139.98 54.927C138.105 55.2183 136.684 56.7872 136.576 58.6837L140.565 58.884ZM140.484 60.3052L136.495 60.1049C136.426 61.3077 136.901 62.4738 137.788 63.28C138.676 64.0862 139.88 64.4469 141.069 64.2622L140.484 60.3052ZM146.057 59.4393L150.045 59.6558C150.119 58.4504 149.646 57.2799 148.758 56.47C147.871 55.6601 146.663 55.2972 145.472 55.4824L146.057 59.4393ZM145.788 63.8529L146.373 67.8098C148.241 67.5196 149.661 65.9593 149.776 64.0693L145.788 63.8529ZM140.215 64.7188L139.63 60.7618C137.78 61.0492 136.367 62.5827 136.23 64.4526L140.215 64.7188ZM140.11 66.1437L136.125 65.8775C136.036 67.0907 136.502 68.2749 137.39 69.0963C138.279 69.9176 139.495 70.2872 140.695 70.1007L140.11 66.1437ZM146.584 65.1378L150.574 65.3381C150.642 64.1353 150.167 62.9692 149.28 62.163C148.393 61.3568 147.188 60.9961 145.999 61.1808L146.584 65.1378ZM146.342 69.4015L146.927 73.3585C148.801 73.0672 150.223 71.4983 150.331 69.6018L146.342 69.4015ZM134.128 71.2992L138.116 71.5159L139.08 55.725L135.092 55.5083L131.104 55.2916L130.14 71.0824L134.128 71.2992ZM135.092 55.5083L135.677 59.4653L147.891 57.5676L147.306 53.6107L146.721 49.6537L134.507 51.5513L135.092 55.5083ZM147.306 53.6107L143.318 53.3883L143.051 57.6557L147.039 57.8781L151.027 58.1004L151.294 53.833L147.306 53.6107ZM147.039 57.8781L146.454 53.9211L139.98 54.927L140.565 58.884L141.15 62.841L147.624 61.835L147.039 57.8781ZM140.565 58.884L136.576 58.6837L136.495 60.1049L140.484 60.3052L144.473 60.5056L144.554 59.0843L140.565 58.884ZM140.484 60.3052L141.069 64.2622L146.642 63.3963L146.057 59.4393L145.472 55.4824L139.899 56.3483L140.484 60.3052ZM146.057 59.4393L142.069 59.2229L141.8 63.6364L145.788 63.8529L149.776 64.0693L150.045 59.6558L146.057 59.4393ZM145.788 63.8529L145.203 59.8959L139.63 60.7618L140.215 64.7188L140.8 68.6758L146.373 67.8098L145.788 63.8529ZM140.215 64.7188L136.23 64.4526L136.125 65.8775L140.11 66.1437L144.095 66.4099L144.2 64.985L140.215 64.7188ZM140.11 66.1437L140.695 70.1007L147.17 69.0947L146.584 65.1378L145.999 61.1808L139.525 62.1868L140.11 66.1437ZM146.584 65.1378L142.595 64.9375L142.352 69.2012L146.342 69.4015L150.331 69.6018L150.574 65.3381L146.584 65.1378ZM146.342 69.4015L145.756 65.4445L133.543 67.3422L134.128 71.2992L134.713 75.2561L146.927 73.3585L146.342 69.4015ZM151.725 68.1279L150.838 72.0384C150.844 72.0397 150.85 72.041 150.856 72.0423L151.725 68.1279ZM148.777 66.57L145.868 69.3354C145.887 69.3551 145.906 69.3747 145.925 69.3941L148.777 66.57ZM147.29 61.4336L143.302 61.2083C143.301 61.2255 143.3 61.2426 143.299 61.2598L147.29 61.4336ZM150.095 54.9745L147.349 52.085L147.349 52.085L150.095 54.9745ZM159.46 51.6979L159.259 55.6984C159.264 55.6987 159.27 55.6989 159.276 55.6991L159.46 51.6979ZM161.639 51.9909L165.626 52.2156C165.749 50.2753 164.464 48.5368 162.579 48.0926L161.639 51.9909ZM161.312 57.1662L160.05 60.9742C161.226 61.3585 162.517 61.1726 163.545 60.471C164.573 59.7693 165.222 58.6315 165.3 57.391L161.312 57.1662ZM154.196 57.9319L156.793 60.9564C156.799 60.9512 156.805 60.9459 156.812 60.9405L154.196 57.9319ZM153.148 60.5235L157.124 60.8874C157.128 60.8486 157.131 60.8097 157.134 60.7708L153.148 60.5235ZM153.134 61.0843L157.123 60.8309L157.123 60.8309L153.134 61.0843ZM154.174 63.0356L152.659 66.7515C152.704 66.7697 152.75 66.787 152.795 66.8035L154.174 63.0356ZM161.11 61.3751L165.097 61.5998C165.191 60.1137 164.455 58.7039 163.186 57.9394C161.917 57.1749 160.325 57.1817 159.052 57.9573L161.11 61.3751ZM160.783 66.5504L162.567 70.1213C163.841 69.4753 164.681 68.2005 164.771 66.7752L160.783 66.5504ZM158.523 67.5088L157.247 63.7232C157.223 63.7316 157.199 63.7402 157.174 63.7491L158.523 67.5088ZM155.902 68.1589L155.317 64.2019C154.112 64.3891 153.228 64.3506 152.594 64.2134L151.725 68.1279L150.856 72.0423C152.661 72.4329 154.562 72.415 156.487 72.1158L155.902 68.1589ZM151.725 68.1279L152.612 64.2174C152.051 64.0932 151.784 63.9027 151.63 63.746L148.777 66.57L145.925 69.3941C147.293 70.7818 148.991 71.63 150.838 72.0384L151.725 68.1279ZM148.777 66.57L151.686 63.8047C151.603 63.7169 151.417 63.4787 151.321 62.8232L147.368 63.4374L143.415 64.0515C143.702 65.9918 144.456 67.842 145.868 69.3354L148.777 66.57ZM147.368 63.4374L151.321 62.8232C151.277 62.5294 151.254 62.1306 151.281 61.6074L147.29 61.4336L143.299 61.2598C143.252 62.2053 143.281 63.1424 143.415 64.0515L147.368 63.4374ZM147.29 61.4336L151.278 61.6589C151.393 59.831 151.981 58.6853 152.841 57.864L150.095 54.9745L147.349 52.085C144.808 54.5124 143.526 57.6728 143.302 61.2083L147.29 61.4336ZM150.095 54.9745L152.841 57.864C153.825 56.9244 155.275 56.1775 157.476 55.8354L156.891 51.8785L156.306 47.9215C152.848 48.4588 149.767 49.776 147.349 52.085L150.095 54.9745ZM156.891 51.8785L157.476 55.8354C158.28 55.7105 158.862 55.6812 159.259 55.6984L159.46 51.6979L159.662 47.6973C158.593 47.6508 157.462 47.7418 156.306 47.9215L156.891 51.8785ZM159.46 51.6979L159.276 55.6991C159.778 55.7189 160.25 55.7837 160.698 55.8892L161.639 51.9909L162.579 48.0926C161.619 47.8663 160.639 47.7358 159.645 47.6966L159.46 51.6979ZM161.639 51.9909L157.651 51.7662L157.324 56.9415L161.312 57.1662L165.3 57.391L165.626 52.2156L161.639 51.9909ZM161.312 57.1662L162.575 53.3583C160.556 52.6989 158.467 52.5404 156.358 52.868L156.943 56.825L157.529 60.7819C158.424 60.6428 159.247 60.7118 160.05 60.9742L161.312 57.1662ZM156.943 56.825L156.358 52.868C154.729 53.1211 152.99 53.6894 151.58 54.9233L154.196 57.9319L156.812 60.9405C156.731 61.0114 156.71 61.0012 156.823 60.9556C156.94 60.9086 157.163 60.8387 157.529 60.7819L156.943 56.825ZM154.196 57.9319L151.598 54.9074C149.85 56.4185 149.283 58.5143 149.161 60.2762L153.148 60.5235L157.134 60.7708C157.154 60.4817 157.196 60.4044 157.173 60.4613C157.159 60.4947 157.126 60.5663 157.062 60.6591C156.997 60.7537 156.908 60.8574 156.793 60.9564L154.196 57.9319ZM153.148 60.5235L149.171 60.1596C149.134 60.5381 149.121 60.9327 149.144 61.3376L153.134 61.0843L157.123 60.8309C157.126 60.8827 157.123 60.9034 157.124 60.8874L153.148 60.5235ZM153.134 61.0843L149.144 61.3376C149.16 61.6227 149.188 61.9112 149.231 62.2007L153.184 61.5865L157.136 60.9724C157.132 60.9453 157.127 60.899 157.123 60.8309L153.134 61.0843ZM153.184 61.5865L149.231 62.2007C149.485 63.9171 150.452 65.8605 152.659 66.7515L154.174 63.0356L155.689 59.3196C156.127 59.4963 156.532 59.8143 156.815 60.2278C157.072 60.6036 157.127 60.9092 157.136 60.9724L153.184 61.5865ZM154.174 63.0356L152.795 66.8035C154.304 67.3488 155.917 67.2499 157.194 67.0514L156.609 63.0945L156.024 59.1375C155.66 59.1941 155.438 59.2026 155.33 59.2C155.28 59.1988 155.276 59.1956 155.31 59.2011C155.343 59.2065 155.43 59.223 155.553 59.2677L154.174 63.0356ZM156.609 63.0945L157.194 67.0514C159.29 66.7258 161.286 65.9395 163.168 64.793L161.11 61.3751L159.052 57.9573C157.937 58.6364 156.932 58.9964 156.024 59.1375L156.609 63.0945ZM161.11 61.3751L157.122 61.1504L156.796 66.3257L160.783 66.5504L164.771 66.7752L165.097 61.5998L161.11 61.3751ZM160.783 66.5504L159 62.9795C158.425 63.2713 157.84 63.5186 157.247 63.7232L158.523 67.5088L159.799 71.2944C160.745 70.9683 161.668 70.5768 162.567 70.1213L160.783 66.5504ZM158.523 67.5088L157.174 63.7491C156.701 63.9225 156.091 64.0817 155.317 64.2019L155.902 68.1589L156.487 72.1158C157.674 71.9314 158.811 71.6573 159.872 71.2685L158.523 67.5088ZM165.025 66.4985L161.037 66.2839C160.964 67.489 161.437 68.659 162.324 69.4685C163.212 70.278 164.419 70.6406 165.61 70.4555L165.025 66.4985ZM165.723 54.9751L169.711 55.1898C169.784 53.9847 169.311 52.8147 168.424 52.0052C167.536 51.1957 166.329 50.8331 165.138 51.0181L165.723 54.9751ZM161.834 55.5794L157.846 55.3571C157.77 56.5634 158.242 57.7355 159.13 58.5468C160.018 59.358 161.226 59.7217 162.419 59.5364L161.834 55.5794ZM162.1 51.312L161.515 47.355C159.649 47.645 158.23 49.202 158.112 51.0897L162.1 51.312ZM175.618 49.2117L179.606 49.434C179.681 48.2277 179.209 47.0556 178.321 46.2443C177.434 45.4331 176.225 45.0694 175.033 45.2547L175.618 49.2117ZM175.351 53.4791L175.937 57.4361C177.803 57.1461 179.221 55.5891 179.339 53.7014L175.351 53.4791ZM171.462 54.0834L170.877 50.1264C169.008 50.4168 167.588 51.978 167.474 53.8687L171.462 54.0834ZM170.764 65.6068L171.35 69.5638C173.219 69.2734 174.638 67.7122 174.753 65.8215L170.764 65.6068ZM165.025 66.4985L169.014 66.7132L169.711 55.1898L165.723 54.9751L161.735 54.7605L161.037 66.2839L165.025 66.4985ZM165.723 54.9751L165.138 51.0181L161.248 51.6224L161.834 55.5794L162.419 59.5364L166.308 58.9321L165.723 54.9751ZM161.834 55.5794L165.821 55.8017L166.088 51.5343L162.1 51.312L158.112 51.0897L157.846 55.3571L161.834 55.5794ZM162.1 51.312L162.685 55.269L176.203 53.1687L175.618 49.2117L175.033 45.2547L161.515 47.355L162.1 51.312ZM175.618 49.2117L171.63 48.9894L171.364 53.2568L175.351 53.4791L179.339 53.7014L179.606 49.434L175.618 49.2117ZM175.351 53.4791L174.766 49.5221L170.877 50.1264L171.462 54.0834L172.047 58.0404L175.937 57.4361L175.351 53.4791ZM171.462 54.0834L167.474 53.8687L166.776 65.3922L170.764 65.6068L174.753 65.8215L175.45 54.298L171.462 54.0834ZM170.764 65.6068L170.179 61.6499L164.44 62.5416L165.025 66.4985L165.61 70.4555L171.35 69.5638L170.764 65.6068Z" fill="#F0F0F0" mask="url(#path-22-outside-1_736_93)"/>
<mask id="path-24-outside-2_736_93" maskUnits="userSpaceOnUse" x="70.5967" y="46.3734" width="109.792" height="37.3555" fill="black">
<rect fill="white" x="70.5967" y="46.3734" width="109.792" height="37.3555"/>
<path d="M75.6964 80.3779L76.6606 64.5871L85.2456 63.2532C86.3048 63.0886 87.2037 63.1513 87.942 63.4414C88.6939 63.7132 89.294 64.1624 89.7425 64.7889C90.1886 65.3996 90.4749 66.1324 90.6013 66.9871C90.6364 67.2245 90.6569 67.4723 90.6627 67.7304C90.682 67.9703 90.6799 68.2297 90.6565 68.5086C90.5832 69.6534 90.3128 70.7236 89.8455 71.7191C89.3916 72.6963 88.7131 73.5223 87.8101 74.1969C86.9229 74.8691 85.7837 75.3132 84.3924 75.5294L81.6414 75.9568L81.4355 79.4862L75.6964 80.3779ZM81.9264 71.3223L83.3256 71.1049C83.7841 71.0336 84.1369 70.8493 84.3841 70.5518C84.647 70.2519 84.7932 69.873 84.8225 69.415C84.8418 69.2177 84.841 69.0479 84.8199 68.9054C84.7239 68.2565 84.3202 67.9873 83.6087 68.0978L82.1147 68.3299L81.9264 71.3223ZM90.7733 78.0354L91.7375 62.2445L100.322 60.9106C101.809 60.6797 103.024 60.9119 103.968 61.6072C104.927 62.3001 105.502 63.2875 105.691 64.5696C105.755 64.9969 105.773 65.4475 105.746 65.9212C105.692 66.982 105.399 67.9505 104.865 68.8268C104.345 69.6848 103.642 70.4499 102.754 71.122C103.038 71.2885 103.235 71.5251 103.345 71.8318L104.884 75.8429L98.9077 76.7715L97.623 73.498C97.5106 73.1754 97.2963 73.0387 96.9801 73.0879L96.7429 73.1247L96.5124 77.1436L90.7733 78.0354ZM97.0517 68.4864L98.4509 68.269C99.3837 68.1241 99.8706 67.6437 99.9117 66.8277C99.9158 66.7461 99.9132 66.6736 99.9038 66.6103C99.9103 66.5446 99.9088 66.48 99.8995 66.4167C99.8175 65.8627 99.4129 65.6423 98.6857 65.7553L97.1916 65.9874L97.0517 68.4864ZM113.637 74.7258C112.277 74.9371 111.057 74.9405 109.975 74.7362C108.909 74.5293 108.033 74.0744 107.347 73.3715C106.675 72.6502 106.241 71.6328 106.047 70.319C105.941 69.6068 105.917 68.7848 105.973 67.8532C106.099 65.8583 106.504 64.2247 107.189 62.9525C107.888 61.6619 108.864 60.6602 110.117 59.9474C111.368 59.2187 112.887 58.7156 114.673 58.438C116.064 58.2219 117.293 58.2172 118.359 58.424C119.422 58.615 120.289 59.0632 120.959 59.7686C121.63 60.474 122.061 61.4757 122.253 62.7736C122.36 63.5017 122.389 64.3474 122.337 65.3107C122.209 67.2897 121.804 68.9233 121.121 70.2114C120.438 71.4995 119.471 72.5078 118.22 73.2365C116.983 73.9469 115.455 74.4433 113.637 74.7258ZM113.961 69.6966C114.799 69.5664 115.406 69.2453 115.783 68.7334C116.174 68.2031 116.406 67.3656 116.479 66.2208C116.498 65.9103 116.506 65.6338 116.502 65.3915C116.512 65.1309 116.502 64.8977 116.471 64.6919C116.389 64.1379 116.19 63.7723 115.872 63.5949C115.553 63.4017 115.045 63.3591 114.349 63.4672C113.512 63.5974 112.897 63.9276 112.507 64.4579C112.129 64.9699 111.904 65.7982 111.831 66.943C111.812 67.2536 111.806 67.5379 111.812 67.7961C111.815 68.0384 111.832 68.2625 111.862 68.4682C111.942 69.0064 112.142 69.3721 112.461 69.5653C112.781 69.7585 113.281 69.8022 113.961 69.6966ZM126.034 72.7997C125.354 72.9053 124.7 72.9665 124.071 72.9831C123.459 72.9973 122.853 72.9458 122.253 72.8285L122.544 67.9016C122.931 68.0034 123.351 68.0594 123.806 68.0698C124.258 68.0643 124.713 68.026 125.172 67.9547C125.978 67.8295 126.51 67.601 126.768 67.2694C127.043 66.9354 127.207 66.4079 127.262 65.6869L127.816 56.6388L133.556 55.7471L132.9 66.2439C132.834 67.4362 132.56 68.4826 132.079 69.3831C131.611 70.2654 130.885 70.9934 129.903 71.5671C128.936 72.1382 127.646 72.5491 126.034 72.7997ZM134.128 71.2992L135.092 55.5083L147.306 53.6107L147.039 57.8781L140.565 58.884L140.484 60.3052L146.057 59.4393L145.788 63.8529L140.215 64.7188L140.11 66.1437L146.584 65.1378L146.342 69.4015L134.128 71.2992ZM155.902 68.1589C154.337 68.4021 152.945 68.3917 151.725 68.1279C150.521 67.8616 149.539 67.3423 148.777 66.57C148.03 65.7795 147.56 64.7352 147.368 63.4374C147.279 62.8359 147.253 62.168 147.29 61.4336C147.459 58.7519 148.395 56.5988 150.095 54.9745C151.796 53.3502 154.061 52.3182 156.891 51.8785C157.871 51.7262 158.728 51.666 159.46 51.6979C160.209 51.7273 160.935 51.825 161.639 51.9909L161.312 57.1662C159.902 56.7054 158.445 56.5916 156.943 56.825C155.742 57.0117 154.826 57.3806 154.196 57.9319C153.579 58.4649 153.23 59.3287 153.148 60.5235C153.128 60.7208 153.124 60.9077 153.134 61.0843C153.144 61.2608 153.16 61.4283 153.184 61.5865C153.294 62.3305 153.624 62.8135 154.174 63.0356C154.738 63.2394 155.55 63.2591 156.609 63.0945C158.111 62.8611 159.611 62.288 161.11 61.3751L160.783 66.5504C160.046 66.924 159.293 67.2435 158.523 67.5088C157.756 67.7899 156.883 68.0066 155.902 68.1589ZM165.025 66.4985L165.723 54.9751L161.834 55.5794L162.1 51.312L175.618 49.2117L175.351 53.4791L171.462 54.0834L170.764 65.6068L165.025 66.4985Z"/>
</mask>
<path d="M75.6964 80.3779L76.6606 64.5871L85.2456 63.2532C86.3048 63.0886 87.2037 63.1513 87.942 63.4414C88.6939 63.7132 89.294 64.1624 89.7425 64.7889C90.1886 65.3996 90.4749 66.1324 90.6013 66.9871C90.6364 67.2245 90.6569 67.4723 90.6627 67.7304C90.682 67.9703 90.6799 68.2297 90.6565 68.5086C90.5832 69.6534 90.3128 70.7236 89.8455 71.7191C89.3916 72.6963 88.7131 73.5223 87.8101 74.1969C86.9229 74.8691 85.7837 75.3132 84.3924 75.5294L81.6414 75.9568L81.4355 79.4862L75.6964 80.3779ZM81.9264 71.3223L83.3256 71.1049C83.7841 71.0336 84.1369 70.8493 84.3841 70.5518C84.647 70.2519 84.7932 69.873 84.8225 69.415C84.8418 69.2177 84.841 69.0479 84.8199 68.9054C84.7239 68.2565 84.3202 67.9873 83.6087 68.0978L82.1147 68.3299L81.9264 71.3223ZM90.7733 78.0354L91.7375 62.2445L100.322 60.9106C101.809 60.6797 103.024 60.9119 103.968 61.6072C104.927 62.3001 105.502 63.2875 105.691 64.5696C105.755 64.9969 105.773 65.4475 105.746 65.9212C105.692 66.982 105.399 67.9505 104.865 68.8268C104.345 69.6848 103.642 70.4499 102.754 71.122C103.038 71.2885 103.235 71.5251 103.345 71.8318L104.884 75.8429L98.9077 76.7715L97.623 73.498C97.5106 73.1754 97.2963 73.0387 96.9801 73.0879L96.7429 73.1247L96.5124 77.1436L90.7733 78.0354ZM97.0517 68.4864L98.4509 68.269C99.3837 68.1241 99.8706 67.6437 99.9117 66.8277C99.9158 66.7461 99.9132 66.6736 99.9038 66.6103C99.9103 66.5446 99.9088 66.48 99.8995 66.4167C99.8175 65.8627 99.4129 65.6423 98.6857 65.7553L97.1916 65.9874L97.0517 68.4864ZM113.637 74.7258C112.277 74.9371 111.057 74.9405 109.975 74.7362C108.909 74.5293 108.033 74.0744 107.347 73.3715C106.675 72.6502 106.241 71.6328 106.047 70.319C105.941 69.6068 105.917 68.7848 105.973 67.8532C106.099 65.8583 106.504 64.2247 107.189 62.9525C107.888 61.6619 108.864 60.6602 110.117 59.9474C111.368 59.2187 112.887 58.7156 114.673 58.438C116.064 58.2219 117.293 58.2172 118.359 58.424C119.422 58.615 120.289 59.0632 120.959 59.7686C121.63 60.474 122.061 61.4757 122.253 62.7736C122.36 63.5017 122.389 64.3474 122.337 65.3107C122.209 67.2897 121.804 68.9233 121.121 70.2114C120.438 71.4995 119.471 72.5078 118.22 73.2365C116.983 73.9469 115.455 74.4433 113.637 74.7258ZM113.961 69.6966C114.799 69.5664 115.406 69.2453 115.783 68.7334C116.174 68.2031 116.406 67.3656 116.479 66.2208C116.498 65.9103 116.506 65.6338 116.502 65.3915C116.512 65.1309 116.502 64.8977 116.471 64.6919C116.389 64.1379 116.19 63.7723 115.872 63.5949C115.553 63.4017 115.045 63.3591 114.349 63.4672C113.512 63.5974 112.897 63.9276 112.507 64.4579C112.129 64.9699 111.904 65.7982 111.831 66.943C111.812 67.2536 111.806 67.5379 111.812 67.7961C111.815 68.0384 111.832 68.2625 111.862 68.4682C111.942 69.0064 112.142 69.3721 112.461 69.5653C112.781 69.7585 113.281 69.8022 113.961 69.6966ZM126.034 72.7997C125.354 72.9053 124.7 72.9665 124.071 72.9831C123.459 72.9973 122.853 72.9458 122.253 72.8285L122.544 67.9016C122.931 68.0034 123.351 68.0594 123.806 68.0698C124.258 68.0643 124.713 68.026 125.172 67.9547C125.978 67.8295 126.51 67.601 126.768 67.2694C127.043 66.9354 127.207 66.4079 127.262 65.6869L127.816 56.6388L133.556 55.7471L132.9 66.2439C132.834 67.4362 132.56 68.4826 132.079 69.3831C131.611 70.2654 130.885 70.9934 129.903 71.5671C128.936 72.1382 127.646 72.5491 126.034 72.7997ZM134.128 71.2992L135.092 55.5083L147.306 53.6107L147.039 57.8781L140.565 58.884L140.484 60.3052L146.057 59.4393L145.788 63.8529L140.215 64.7188L140.11 66.1437L146.584 65.1378L146.342 69.4015L134.128 71.2992ZM155.902 68.1589C154.337 68.4021 152.945 68.3917 151.725 68.1279C150.521 67.8616 149.539 67.3423 148.777 66.57C148.03 65.7795 147.56 64.7352 147.368 63.4374C147.279 62.8359 147.253 62.168 147.29 61.4336C147.459 58.7519 148.395 56.5988 150.095 54.9745C151.796 53.3502 154.061 52.3182 156.891 51.8785C157.871 51.7262 158.728 51.666 159.46 51.6979C160.209 51.7273 160.935 51.825 161.639 51.9909L161.312 57.1662C159.902 56.7054 158.445 56.5916 156.943 56.825C155.742 57.0117 154.826 57.3806 154.196 57.9319C153.579 58.4649 153.23 59.3287 153.148 60.5235C153.128 60.7208 153.124 60.9077 153.134 61.0843C153.144 61.2608 153.16 61.4283 153.184 61.5865C153.294 62.3305 153.624 62.8135 154.174 63.0356C154.738 63.2394 155.55 63.2591 156.609 63.0945C158.111 62.8611 159.611 62.288 161.11 61.3751L160.783 66.5504C160.046 66.924 159.293 67.2435 158.523 67.5088C157.756 67.7899 156.883 68.0066 155.902 68.1589ZM165.025 66.4985L165.723 54.9751L161.834 55.5794L162.1 51.312L175.618 49.2117L175.351 53.4791L171.462 54.0834L170.764 65.6068L165.025 66.4985Z" fill="#F0F0F0"/>
<path d="M75.6964 80.3779L73.7023 80.2695C73.6655 80.8723 73.9018 81.4575 74.3456 81.8625C74.7894 82.2675 75.3932 82.449 75.989 82.3564L75.6964 80.3779ZM76.6606 64.5871L76.368 62.6086C75.4339 62.7537 74.7242 63.5338 74.6665 64.4787L76.6606 64.5871ZM87.942 63.4414L87.2017 65.3062C87.2185 65.3128 87.2355 65.3192 87.2525 65.3253L87.942 63.4414ZM89.7425 64.7889L88.1164 65.9634C88.1201 65.9686 88.1238 65.9738 88.1276 65.9789L89.7425 64.7889ZM90.6627 67.7304L88.6654 67.7897C88.6663 67.8283 88.6682 67.8668 88.6713 67.9052L90.6627 67.7304ZM90.6565 68.5086L88.6657 68.3543C88.6646 68.3676 88.6636 68.381 88.6628 68.3943L90.6565 68.5086ZM89.8455 71.7191L88.0388 70.8771L88.0353 70.8846L89.8455 71.7191ZM87.8101 74.1969L86.6233 72.5946L86.6124 72.6028L87.8101 74.1969ZM81.6414 75.9568L81.3488 73.9784C80.4127 74.1238 79.7022 74.9068 79.647 75.8539L81.6414 75.9568ZM81.4355 79.4862L81.7281 81.4647C82.6642 81.3192 83.3747 80.5362 83.4299 79.5891L81.4355 79.4862ZM81.9264 71.3223L79.9326 71.2102C79.8946 71.8135 80.1304 72.3998 80.5743 72.8056C81.0182 73.2115 81.6226 73.3934 82.219 73.3007L81.9264 71.3223ZM84.3841 70.5518L82.8873 69.2362C82.8755 69.2497 82.8639 69.2633 82.8524 69.2771L84.3841 70.5518ZM84.8225 69.415L82.8342 69.2331C82.832 69.2556 82.8302 69.2782 82.8288 69.3007L84.8225 69.415ZM82.1147 68.3299L81.8221 66.3515C80.8894 66.4964 80.1802 67.2744 80.1208 68.2179L82.1147 68.3299ZM75.6964 80.3779L77.6905 80.4863L78.6547 64.6954L76.6606 64.5871L74.6665 64.4787L73.7023 80.2695L75.6964 80.3779ZM76.6606 64.5871L76.9532 66.5656L85.5381 65.2317L85.2456 63.2532L84.953 61.2747L76.368 62.6086L76.6606 64.5871ZM85.2456 63.2532L85.5381 65.2317C86.3652 65.1032 86.8854 65.1819 87.2017 65.3062L87.942 63.4414L88.6824 61.5767C87.5219 61.1208 86.2445 61.074 84.953 61.2747L85.2456 63.2532ZM87.942 63.4414L87.2525 65.3253C87.6425 65.4663 87.9104 65.6756 88.1164 65.9634L89.7425 64.7889L91.3686 63.6144C90.6777 62.6491 89.7452 61.9601 88.6315 61.5575L87.942 63.4414ZM89.7425 64.7889L88.1276 65.9789C88.3587 66.2953 88.5393 66.7144 88.625 67.2941L90.6013 66.9871L92.5776 66.68C92.4105 65.5503 92.0186 64.504 91.3574 63.5989L89.7425 64.7889ZM90.6013 66.9871L88.625 67.2941C88.6471 67.4437 88.6613 67.6084 88.6654 67.7897L90.6627 67.7304L92.66 67.6711C92.6525 67.3361 92.6257 67.0053 92.5776 66.68L90.6013 66.9871ZM90.6627 67.7304L88.6713 67.9052C88.6806 68.0198 88.6814 68.1679 88.6657 68.3543L90.6565 68.5086L92.6472 68.6628C92.6785 68.2915 92.6835 67.9208 92.6541 67.5556L90.6627 67.7304ZM90.6565 68.5086L88.6628 68.3943C88.6048 69.2987 88.3939 70.1207 88.0388 70.8771L89.8455 71.7191L91.6521 72.5611C92.2318 71.3264 92.5615 70.0081 92.6502 68.6229L90.6565 68.5086ZM89.8455 71.7191L88.0353 70.8846C87.729 71.544 87.2711 72.1107 86.6233 72.5947L87.8101 74.1969L88.997 75.7991C90.1551 74.9339 91.0541 73.8486 91.6556 72.5535L89.8455 71.7191ZM87.8101 74.1969L86.6124 72.6028C86.053 73.0267 85.2491 73.3724 84.0998 73.5509L84.3924 75.5294L84.685 77.5079C86.3183 77.2541 87.7929 76.7114 89.0078 75.791L87.8101 74.1969ZM84.3924 75.5294L84.0998 73.5509L81.3488 73.9784L81.6414 75.9568L81.934 77.9353L84.685 77.5079L84.3924 75.5294ZM81.6414 75.9568L79.647 75.8539L79.4411 79.3833L81.4355 79.4862L83.4299 79.5891L83.6358 76.0598L81.6414 75.9568ZM81.4355 79.4862L81.1429 77.5077L75.4038 78.3994L75.6964 80.3779L75.989 82.3564L81.7281 81.4647L81.4355 79.4862ZM81.9264 71.3223L82.219 73.3007L83.6182 73.0833L83.3256 71.1049L83.033 69.1264L81.6338 69.3438L81.9264 71.3223ZM83.3256 71.1049L83.6182 73.0833C84.4569 72.953 85.293 72.576 85.9157 71.8265L84.3841 70.5518L82.8524 69.2771C82.9051 69.2136 82.9673 69.1668 83.0203 69.1392C83.0682 69.1141 83.0813 69.1189 83.033 69.1264L83.3256 71.1049ZM84.3841 70.5518L85.8809 71.8674C86.4812 71.1826 86.763 70.36 86.8162 69.5293L84.8225 69.415L82.8288 69.3007C82.8255 69.3521 82.8185 69.3571 82.8281 69.3323C82.8327 69.3202 82.8402 69.3041 82.8512 69.2858C82.8622 69.2675 82.8746 69.2507 82.8873 69.2362L84.3841 70.5518ZM84.8225 69.415L86.8107 69.597C86.8406 69.2927 86.8482 68.9501 86.7962 68.5983L84.8199 68.9054L82.8436 69.2125C82.8408 69.1933 82.8395 69.1795 82.839 69.1718C82.8385 69.1641 82.8385 69.1612 82.8385 69.1638C82.8386 69.1664 82.8385 69.1734 82.8379 69.1853C82.8373 69.1971 82.8362 69.213 82.8342 69.2331L84.8225 69.415ZM84.8199 68.9054L86.7962 68.5983C86.6957 67.919 86.374 67.0904 85.5599 66.5475C84.7853 66.031 83.9334 66.0234 83.3162 66.1193L83.6087 68.0978L83.9013 70.0763C83.9956 70.0616 83.7013 70.1334 83.3304 69.8861C82.9199 69.6124 82.8481 69.2429 82.8436 69.2125L84.8199 68.9054ZM83.6087 68.0978L83.3162 66.1193L81.8221 66.3515L82.1147 68.3299L82.4073 70.3084L83.9013 70.0763L83.6087 68.0978ZM82.1147 68.3299L80.1208 68.2179L79.9326 71.2102L81.9264 71.3223L83.9203 71.4343L84.1085 68.442L82.1147 68.3299ZM90.7733 78.0354L88.7792 77.927C88.7424 78.5297 88.9788 79.115 89.4225 79.52C89.8663 79.925 90.4701 80.1064 91.0659 80.0138L90.7733 78.0354ZM91.7375 62.2445L91.4449 60.266C90.5108 60.4112 89.8011 61.1912 89.7434 62.1362L91.7375 62.2445ZM103.968 61.6072L102.777 63.2234C102.782 63.2271 102.787 63.2308 102.792 63.2345L103.968 61.6072ZM105.746 65.9212L103.751 65.8211L103.75 65.8343L105.746 65.9212ZM104.865 68.8268L103.162 67.7926L103.16 67.7961L104.865 68.8268ZM102.754 71.122L101.557 69.528C101.023 69.9326 100.724 70.5762 100.76 71.2436C100.795 71.911 101.161 72.5141 101.735 72.8512L102.754 71.122ZM103.345 71.8318L101.464 72.5209C101.469 72.5346 101.474 72.5483 101.479 72.5619L103.345 71.8318ZM104.884 75.8429L105.177 77.8214C105.776 77.7282 106.303 77.3675 106.609 76.8409C106.915 76.3142 106.966 75.6785 106.749 75.1128L104.884 75.8429ZM98.9077 76.7715L97.0478 77.5156C97.3875 78.3811 98.28 78.893 99.2003 78.75L98.9077 76.7715ZM97.623 73.498L95.7364 74.1698C95.7448 74.1941 95.7537 74.2182 95.7631 74.2421L97.623 73.498ZM96.7429 73.1247L96.4504 71.1462C95.5135 71.2918 94.8028 72.0758 94.7484 73.0237L96.7429 73.1247ZM96.5124 77.1436L96.805 79.1221C97.7419 78.9766 98.4526 78.1925 98.507 77.2446L96.5124 77.1436ZM97.0517 68.4864L95.057 68.3882C95.0233 68.9893 95.2612 69.5718 95.7047 69.9745C96.1481 70.3771 96.7502 70.5572 97.3443 70.4649L97.0517 68.4864ZM99.9117 66.8277L101.907 66.9146L101.907 66.9146L99.9117 66.8277ZM99.9038 66.6103L97.9156 66.4284C97.8996 66.5914 97.9036 66.7556 97.9275 66.9174L99.9038 66.6103ZM97.1916 65.9874L96.899 64.0089C95.9611 64.1546 95.25 64.9402 95.1969 65.8892L97.1916 65.9874ZM90.7733 78.0354L92.7674 78.1437L93.7316 62.3529L91.7375 62.2445L89.7434 62.1362L88.7792 77.927L90.7733 78.0354ZM91.7375 62.2445L92.0301 64.223L100.615 62.8891L100.322 60.9106L100.03 58.9321L91.4449 60.266L91.7375 62.2445ZM100.322 60.9106L100.615 62.8891C101.73 62.7159 102.368 62.9224 102.777 63.2234L103.968 61.6072L105.158 59.9911C103.679 58.9014 101.887 58.6436 100.03 58.9321L100.322 60.9106ZM103.968 61.6072L102.792 63.2345C103.276 63.5841 103.596 64.0725 103.715 64.8767L105.691 64.5696L107.668 64.2625C107.407 62.5026 106.578 61.0161 105.143 59.9799L103.968 61.6072ZM105.691 64.5696L103.715 64.8767C103.757 65.1571 103.771 65.4705 103.751 65.8211L105.746 65.9212L107.74 66.0214C107.774 65.4245 107.753 64.8368 107.668 64.2625L105.691 64.5696ZM105.746 65.9212L103.75 65.8343C103.713 66.5734 103.514 67.2142 103.162 67.7926L104.865 68.8268L106.569 69.8609C107.284 68.6868 107.671 67.3905 107.741 66.0082L105.746 65.9212ZM104.865 68.8268L103.16 67.7961C102.786 68.4131 102.263 68.9929 101.557 69.528L102.754 71.122L103.952 72.7161C105.02 71.9069 105.905 70.9564 106.571 69.8575L104.865 68.8268ZM102.754 71.122L101.735 72.8512C101.693 72.8265 101.634 72.7818 101.576 72.7124C101.518 72.6427 101.483 72.5733 101.464 72.5209L103.345 71.8318L105.225 71.1427C104.956 70.3934 104.452 69.7914 103.774 69.3929L102.754 71.122ZM103.345 71.8318L101.479 72.5619L103.019 76.573L104.884 75.8429L106.749 75.1128L105.21 71.1017L103.345 71.8318ZM104.884 75.8429L104.591 73.8644L98.6151 74.793L98.9077 76.7715L99.2003 78.75L105.177 77.8214L104.884 75.8429ZM98.9077 76.7715L100.768 76.0274L99.4829 72.7539L97.623 73.498L95.7631 74.2421L97.0478 77.5156L98.9077 76.7715ZM97.623 73.498L99.5096 72.8262C99.3565 72.3867 99.0515 71.8403 98.4592 71.4624C97.8495 71.0734 97.1984 71.03 96.6875 71.1094L96.9801 73.0879L97.2727 75.0663C97.078 75.0966 96.6922 75.097 96.2968 74.8447C95.9187 74.6035 95.7771 74.2868 95.7364 74.1698L97.623 73.498ZM96.9801 73.0879L96.6875 71.1094L96.4504 71.1462L96.7429 73.1247L97.0355 75.1032L97.2727 75.0663L96.9801 73.0879ZM96.7429 73.1247L94.7484 73.0237L94.5179 77.0427L96.5124 77.1436L98.507 77.2446L98.7375 73.2257L96.7429 73.1247ZM96.5124 77.1436L96.2198 75.1652L90.4807 76.0569L90.7733 78.0354L91.0659 80.0138L96.805 79.1221L96.5124 77.1436ZM97.0517 68.4864L97.3443 70.4649L98.7435 70.2475L98.4509 68.269L98.1583 66.2905L96.7591 66.508L97.0517 68.4864ZM98.4509 68.269L98.7435 70.2475C99.47 70.1346 100.272 69.8541 100.912 69.2219C101.584 68.5593 101.866 67.7212 101.907 66.9146L99.9117 66.8277L97.9164 66.7408C97.9156 66.7563 97.9158 66.7113 97.9484 66.6313C97.9832 66.5457 98.0412 66.455 98.1191 66.3781C98.2729 66.2264 98.3646 66.2585 98.1583 66.2905L98.4509 68.269ZM99.9117 66.8277L101.907 66.9146C101.916 66.7353 101.913 66.5267 101.88 66.3033L99.9038 66.6103L97.9275 66.9174C97.9132 66.8206 97.9156 66.7569 97.9164 66.7408L99.9117 66.8277ZM99.9038 66.6103L101.892 66.7923C101.914 66.5685 101.91 66.3397 101.876 66.1097L99.8995 66.4167L97.9232 66.7238C97.9079 66.6204 97.9065 66.5206 97.9156 66.4284L99.9038 66.6103ZM99.8995 66.4167L101.876 66.1097C101.765 65.3605 101.364 64.5474 100.498 64.0754C99.7459 63.6653 98.9512 63.69 98.3931 63.7768L98.6857 65.7553L98.9782 67.7337C99.1473 67.7075 98.9187 67.7859 98.5707 67.5963C98.3769 67.4907 98.2059 67.3319 98.0847 67.1389C97.9703 66.9568 97.9344 66.7995 97.9232 66.7238L99.8995 66.4167ZM98.6857 65.7553L98.3931 63.7768L96.899 64.0089L97.1916 65.9874L97.4842 67.9659L98.9782 67.7337L98.6857 65.7553ZM97.1916 65.9874L95.1969 65.8892L95.057 68.3882L97.0517 68.4864L99.0464 68.5846L99.1863 66.0856L97.1916 65.9874ZM109.975 74.7362L109.582 76.7019L109.592 76.7037L109.975 74.7362ZM107.347 73.3715L105.883 74.7442C105.894 74.7551 105.904 74.766 105.914 74.7767L107.347 73.3715ZM105.973 67.8532L103.979 67.7411L103.979 67.7461L105.973 67.8532ZM107.189 62.9525L105.435 62.0072L105.433 62.011L107.189 62.9525ZM110.117 59.9474L111.094 61.687C111.1 61.6835 111.106 61.6801 111.112 61.6766L110.117 59.9474ZM118.359 58.424L117.966 60.3898C117.975 60.3915 117.984 60.3932 117.993 60.3949L118.359 58.424ZM120.959 59.7686L119.508 61.1548L119.508 61.1548L120.959 59.7686ZM122.337 65.3107L124.331 65.4261C124.331 65.4188 124.331 65.4114 124.332 65.4041L122.337 65.3107ZM121.121 70.2114L119.358 69.2816L121.121 70.2114ZM118.22 73.2365L119.204 74.9721L119.215 74.9657L118.22 73.2365ZM115.783 68.7334L114.179 67.5515L114.179 67.5515L115.783 68.7334ZM116.479 66.2208L118.473 66.3351L118.473 66.3279L116.479 66.2208ZM116.502 65.3915L114.506 65.3287C114.504 65.3639 114.504 65.3991 114.504 65.4344L116.502 65.3915ZM115.872 63.5949L114.832 65.3114C114.851 65.323 114.871 65.3342 114.89 65.3451L115.872 63.5949ZM111.831 66.943L109.837 66.8287L109.837 66.8359L111.831 66.943ZM111.812 67.7961L113.809 67.7532C113.809 67.7477 113.809 67.7423 113.809 67.7368L111.812 67.7961ZM113.637 74.7258L113.344 72.7473C112.156 72.932 111.17 72.9219 110.359 72.7686L109.975 74.7362L109.592 76.7037C110.943 76.9592 112.399 76.9422 113.93 76.7043L113.637 74.7258ZM109.975 74.7362L110.368 72.7704C109.655 72.6321 109.156 72.3512 108.78 71.9663L107.347 73.3715L105.914 74.7767C106.911 75.7977 108.163 76.4266 109.582 76.7019L109.975 74.7362ZM107.347 73.3715L108.811 71.9988C108.493 71.6573 108.178 71.06 108.023 70.012L106.047 70.319L104.07 70.6261C104.304 72.2055 104.856 73.6432 105.883 74.7442L107.347 73.3715ZM106.047 70.319L108.023 70.012C107.943 69.4699 107.917 68.7916 107.967 67.9603L105.973 67.8532L103.979 67.7461C103.917 68.778 103.94 69.7437 104.07 70.6261L106.047 70.319ZM105.973 67.8532L107.967 67.9652C108.081 66.1553 108.441 64.8309 108.946 63.8939L107.189 62.9525L105.433 62.011C104.567 63.6186 104.117 65.5612 103.979 67.7411L105.973 67.8532ZM107.189 62.9525L108.944 63.8978C109.466 62.9336 110.175 62.2099 111.094 61.687L110.117 59.9474L109.14 58.2079C107.553 59.1106 106.31 60.3902 105.435 62.0072L107.189 62.9525ZM110.117 59.9474L111.112 61.6766C112.099 61.1016 113.367 60.665 114.966 60.4165L114.673 58.438L114.381 56.4595C112.407 56.7662 110.637 57.3358 109.122 58.2182L110.117 59.9474ZM114.673 58.438L114.966 60.4165C116.193 60.2259 117.181 60.2375 117.966 60.3898L118.359 58.424L118.752 56.4583C117.405 56.1969 115.936 56.2178 114.381 56.4595L114.673 58.438ZM118.359 58.424L117.993 60.3949C118.688 60.5198 119.159 60.7879 119.508 61.1548L120.959 59.7686L122.411 58.3825C121.418 57.3385 120.156 56.7102 118.724 56.4532L118.359 58.424ZM120.959 59.7686L119.508 61.1548C119.815 61.4774 120.124 62.0517 120.277 63.0806L122.253 62.7736L124.229 62.4665C123.997 60.8997 123.445 59.4707 122.411 58.3825L120.959 59.7686ZM122.253 62.7736L120.277 63.0806C120.36 63.643 120.388 64.3493 120.342 65.2173L122.337 65.3107L124.332 65.4041C124.389 64.3454 124.361 63.3603 124.229 62.4665L122.253 62.7736ZM122.337 65.3107L120.343 65.1953C120.227 66.9872 119.868 68.3198 119.358 69.2816L121.121 70.2114L122.884 71.1411C123.74 69.5267 124.191 67.5922 124.331 65.4261L122.337 65.3107ZM121.121 70.2114L119.358 69.2816C118.85 70.239 118.149 70.9693 117.225 71.5073L118.22 73.2365L119.215 74.9657C120.793 74.0463 122.025 72.76 122.884 71.1411L121.121 70.2114ZM118.22 73.2365L117.236 71.5009C116.265 72.0584 114.987 72.4921 113.344 72.7473L113.637 74.7258L113.93 76.7043C115.923 76.3946 117.7 75.8354 119.204 74.9721L118.22 73.2365ZM113.961 69.6966L114.253 71.6751C115.432 71.4919 116.599 70.9853 117.388 69.9153L115.783 68.7334L114.179 67.5515C114.179 67.5516 114.179 67.5516 114.179 67.5517C114.179 67.5519 114.177 67.5531 114.175 67.5554C114.17 67.5596 114.154 67.5717 114.123 67.5886C114.056 67.6236 113.917 67.6794 113.668 67.7181L113.961 69.6966ZM115.783 68.7334L117.388 69.9153C118.122 68.9182 118.391 67.613 118.473 66.3351L116.479 66.2208L114.485 66.1065C114.421 67.1183 114.226 67.488 114.179 67.5515L115.783 68.7334ZM116.479 66.2208L118.473 66.3279C118.494 65.9806 118.504 65.6526 118.5 65.3486L116.502 65.3915L114.504 65.4344C114.507 65.615 114.502 65.8399 114.485 66.1137L116.479 66.2208ZM116.502 65.3915L118.498 65.4543C118.512 65.0994 118.5 64.739 118.448 64.3849L116.471 64.6919L114.495 64.999C114.504 65.0564 114.512 65.1623 114.506 65.3287L116.502 65.3915ZM116.471 64.6919L118.448 64.3849C118.325 63.5535 117.946 62.4546 116.855 61.8447L115.872 63.5949L114.89 65.3451C114.678 65.2267 114.559 65.069 114.506 64.9726C114.462 64.8925 114.478 64.8803 114.495 64.999L116.471 64.6919ZM115.872 63.5949L116.913 61.8784C115.969 61.308 114.86 61.3639 114.057 61.4887L114.349 63.4672L114.642 65.4457C114.761 65.4273 114.856 65.4177 114.93 65.4136C115.005 65.4096 115.051 65.4115 115.072 65.4133C115.093 65.4151 115.079 65.4158 115.039 65.4044C114.998 65.3927 114.923 65.3665 114.832 65.3114L115.872 63.5949ZM114.349 63.4672L114.057 61.4887C112.855 61.6755 111.694 62.202 110.902 63.276L112.507 64.4579L114.111 65.6398C114.118 65.6301 114.135 65.6078 114.195 65.5754C114.263 65.5388 114.4 65.4833 114.642 65.4457L114.349 63.4672ZM112.507 64.4579L110.902 63.276C110.176 64.2624 109.918 65.5677 109.837 66.8287L111.831 66.943L113.825 67.0573C113.855 66.5778 113.915 66.2251 113.982 65.9769C114.051 65.724 114.112 65.6378 114.111 65.6398L112.507 64.4579ZM111.831 66.943L109.837 66.8359C109.815 67.1911 109.807 67.532 109.814 67.8554L111.812 67.7961L113.809 67.7368C113.804 67.5439 113.809 67.316 113.825 67.0501L111.831 66.943ZM111.812 67.7961L109.814 67.839C109.818 68.1558 109.841 68.4693 109.886 68.7753L111.862 68.4682L113.839 68.1612C113.823 68.0557 113.812 67.921 113.809 67.7532L111.812 67.7961ZM111.862 68.4682L109.886 68.7753C110.012 69.6275 110.399 70.6643 111.421 71.2818L112.461 69.5653L113.502 67.8488C113.675 67.9533 113.777 68.0867 113.826 68.1757C113.867 68.2506 113.854 68.2642 113.839 68.1612L111.862 68.4682ZM112.461 69.5653L111.421 71.2818C112.358 71.8483 113.452 71.7996 114.253 71.6751L113.961 69.6966L113.668 67.7181C113.555 67.7358 113.464 67.7447 113.394 67.7484C113.324 67.7521 113.282 67.75 113.264 67.7484C113.245 67.7468 113.261 67.7465 113.301 67.7582C113.342 67.7701 113.414 67.7959 113.502 67.8488L112.461 69.5653ZM124.071 72.9831L124.104 74.9848L124.11 74.9846L124.071 72.9831ZM122.253 72.8285L120.259 72.7244C120.2 73.7204 120.882 74.6027 121.857 74.7936L122.253 72.8285ZM122.544 67.9016L123.063 65.9648C122.483 65.8122 121.863 65.9299 121.376 66.2853C120.888 66.6408 120.585 67.1961 120.549 67.7975L122.544 67.9016ZM123.806 68.0698L123.746 70.0715C123.77 70.072 123.793 70.0721 123.816 70.0718L123.806 68.0698ZM126.768 67.2694L125.229 66.0043C125.218 66.0175 125.207 66.0309 125.197 66.0443L126.768 67.2694ZM127.262 65.6869L129.254 65.826C129.255 65.8159 129.256 65.8058 129.256 65.7957L127.262 65.6869ZM127.816 56.6388L127.524 54.6603C126.59 54.8054 125.88 55.5852 125.822 56.53L127.816 56.6388ZM133.556 55.7471L135.55 55.8582C135.587 55.255 135.351 54.669 134.907 54.2634C134.464 53.8578 133.859 53.6759 133.263 53.7686L133.556 55.7471ZM132.9 66.2439L130.906 66.1328L130.905 66.1464L132.9 66.2439ZM132.079 69.3831L130.319 68.4473L130.316 68.4531L132.079 69.3831ZM129.903 71.5671L128.906 69.8388L128.897 69.8441L129.903 71.5671ZM126.034 72.7997L125.741 70.8212C125.138 70.915 124.568 70.9675 124.032 70.9817L124.071 72.9831L124.11 74.9846C124.831 74.9655 125.57 74.8957 126.326 74.7782L126.034 72.7997ZM124.071 72.9831L124.039 70.9815C123.57 70.9924 123.108 70.953 122.649 70.8633L122.253 72.8285L121.857 74.7936C122.598 74.9386 123.348 75.0023 124.104 74.9848L124.071 72.9831ZM122.253 72.8285L124.248 72.9326L124.538 68.0057L122.544 67.9016L120.549 67.7975L120.259 72.7244L122.253 72.8285ZM122.544 67.9016L122.024 69.8384C122.58 69.9846 123.157 70.058 123.746 70.0715L123.806 68.0698L123.865 66.0681C123.546 66.0609 123.282 66.0222 123.063 65.9648L122.544 67.9016ZM123.806 68.0698L123.816 70.0718C124.365 70.0652 124.914 70.0186 125.464 69.9332L125.172 67.9547L124.879 65.9763C124.512 66.0333 124.151 66.0635 123.796 66.0678L123.806 68.0698ZM125.172 67.9547L125.464 69.9332C126.358 69.7944 127.577 69.474 128.34 68.4946L126.768 67.2694L125.197 66.0443C125.342 65.8582 125.467 65.8211 125.4 65.8498C125.373 65.8614 125.318 65.8819 125.228 65.9057C125.139 65.9293 125.024 65.9538 124.879 65.9763L125.172 67.9547ZM126.768 67.2694L128.308 68.5346C128.969 67.7285 129.187 66.7076 129.254 65.826L127.262 65.6869L125.27 65.5479C125.251 65.8008 125.217 65.9561 125.191 66.0379C125.165 66.1202 125.162 66.0859 125.229 66.0043L126.768 67.2694ZM127.262 65.6869L129.256 65.7957L129.811 56.7475L127.816 56.6388L125.822 56.53L125.268 65.5782L127.262 65.6869ZM127.816 56.6388L128.109 58.6173L133.848 57.7256L133.556 55.7471L133.263 53.7686L127.524 54.6603L127.816 56.6388ZM133.556 55.7471L131.562 55.636L130.906 66.1328L132.9 66.2439L134.894 66.355L135.55 55.8582L133.556 55.7471ZM132.9 66.2439L130.905 66.1464C130.853 67.0957 130.64 67.8468 130.319 68.4473L132.079 69.3831L133.838 70.319C134.48 69.1183 134.815 67.7766 134.895 66.3413L132.9 66.2439ZM132.079 69.3831L130.316 68.4531C130.048 68.9584 129.611 69.4273 128.906 69.8388L129.903 71.5671L130.899 73.2953C132.16 72.5595 133.173 71.5724 133.841 70.3132L132.079 69.3831ZM129.903 71.5671L128.897 69.8441C128.226 70.2406 127.207 70.5934 125.741 70.8212L126.034 72.7997L126.326 74.7782C128.085 74.5049 129.646 74.0359 130.908 73.29L129.903 71.5671ZM134.128 71.2992L132.134 71.1908C132.097 71.7935 132.334 72.3788 132.777 72.7838C133.221 73.1888 133.825 73.3702 134.421 73.2776L134.128 71.2992ZM135.092 55.5083L134.8 53.5298C133.866 53.675 133.156 54.455 133.098 55.3999L135.092 55.5083ZM147.306 53.6107L149.3 53.7218C149.337 53.1187 149.101 52.5326 148.658 52.127C148.214 51.7214 147.609 51.5395 147.013 51.6322L147.306 53.6107ZM147.039 57.8781L147.332 59.8565C148.265 59.7116 148.974 58.933 149.033 57.9892L147.039 57.8781ZM140.565 58.884L140.272 56.9055C139.335 57.0511 138.624 57.8356 138.57 58.7838L140.565 58.884ZM140.484 60.3052L138.489 60.2051C138.455 60.8065 138.693 61.3895 139.136 61.7926C139.58 62.1957 140.182 62.3761 140.777 62.2837L140.484 60.3052ZM146.057 59.4393L148.051 59.5476C148.088 58.9449 147.852 58.3596 147.408 57.9547C146.964 57.5497 146.36 57.3683 145.764 57.4608L146.057 59.4393ZM145.788 63.8529L146.08 65.8314C147.015 65.6862 147.724 64.9061 147.782 63.9611L145.788 63.8529ZM140.215 64.7188L139.922 62.7403C138.997 62.884 138.291 63.6507 138.222 64.5857L140.215 64.7188ZM140.11 66.1437L138.118 66.0106C138.073 66.6172 138.306 67.2093 138.75 67.62C139.195 68.0307 139.803 68.2154 140.403 68.1222L140.11 66.1437ZM146.584 65.1378L148.579 65.2379C148.613 64.6365 148.376 64.0535 147.932 63.6504C147.489 63.2473 146.886 63.0669 146.292 63.1593L146.584 65.1378ZM146.342 69.4015L146.634 71.38C147.571 71.2344 148.282 70.4499 148.336 69.5017L146.342 69.4015ZM134.128 71.2992L136.122 71.4075L137.086 55.6167L135.092 55.5083L133.098 55.3999L132.134 71.1908L134.128 71.2992ZM135.092 55.5083L135.385 57.4868L147.598 55.5891L147.306 53.6107L147.013 51.6322L134.8 53.5298L135.092 55.5083ZM147.306 53.6107L145.312 53.4995L145.045 57.7669L147.039 57.8781L149.033 57.9892L149.3 53.7218L147.306 53.6107ZM147.039 57.8781L146.747 55.8996L140.272 56.9055L140.565 58.884L140.857 60.8625L147.332 59.8565L147.039 57.8781ZM140.565 58.884L138.57 58.7838L138.489 60.2051L140.484 60.3052L142.479 60.4054L142.559 58.9842L140.565 58.884ZM140.484 60.3052L140.777 62.2837L146.35 61.4178L146.057 59.4393L145.764 57.4608L140.191 58.3268L140.484 60.3052ZM146.057 59.4393L144.063 59.3311L143.794 63.7446L145.788 63.8529L147.782 63.9611L148.051 59.5476L146.057 59.4393ZM145.788 63.8529L145.495 61.8744L139.922 62.7403L140.215 64.7188L140.507 66.6973L146.08 65.8314L145.788 63.8529ZM140.215 64.7188L138.222 64.5857L138.118 66.0106L140.11 66.1437L142.102 66.2768L142.207 64.8519L140.215 64.7188ZM140.11 66.1437L140.403 68.1222L146.877 67.1163L146.584 65.1378L146.292 63.1593L139.817 64.1652L140.11 66.1437ZM146.584 65.1378L144.59 65.0376L144.347 69.3013L146.342 69.4015L148.336 69.5017L148.579 65.2379L146.584 65.1378ZM146.342 69.4015L146.049 67.423L133.836 69.3207L134.128 71.2992L134.421 73.2776L146.634 71.38L146.342 69.4015ZM151.725 68.1279L151.281 70.0832L151.29 70.0851L151.725 68.1279ZM148.777 66.57L147.323 67.9527C147.332 67.9626 147.342 67.9723 147.351 67.982L148.777 66.57ZM147.29 61.4336L145.296 61.321C145.296 61.3296 145.295 61.3381 145.295 61.3467L147.29 61.4336ZM150.095 54.9745L148.722 53.5298L148.722 53.5298L150.095 54.9745ZM159.46 51.6979L159.36 53.6982L159.368 53.6985L159.46 51.6979ZM161.639 51.9909L163.632 52.1033C163.694 51.1331 163.051 50.2639 162.109 50.0417L161.639 51.9909ZM161.312 57.1662L160.681 59.0702C161.269 59.2624 161.915 59.1694 162.429 58.8186C162.943 58.4678 163.267 57.8988 163.306 57.2786L161.312 57.1662ZM154.196 57.9319L155.495 59.4442L155.504 59.4362L154.196 57.9319ZM153.148 60.5235L155.136 60.7054C155.138 60.686 155.139 60.6666 155.141 60.6471L153.148 60.5235ZM153.134 61.0843L155.128 60.9576L155.128 60.9576L153.134 61.0843ZM154.174 63.0356L153.417 64.8936C153.439 64.9026 153.462 64.9113 153.485 64.9195L154.174 63.0356ZM161.11 61.3751L163.104 61.4875C163.15 60.7444 162.782 60.0395 162.148 59.6573C161.513 59.275 160.717 59.2784 160.081 59.6662L161.11 61.3751ZM160.783 66.5504L161.675 68.3359C162.312 68.0129 162.732 67.3754 162.777 66.6628L160.783 66.5504ZM158.523 67.5088L157.885 65.616C157.873 65.6202 157.861 65.6245 157.849 65.6289L158.523 67.5088ZM155.902 68.1589L155.61 66.1804C154.225 66.3956 153.086 66.3712 152.16 66.1707L151.725 68.1279L151.29 70.0851C152.803 70.4123 154.449 70.4086 156.195 70.1374L155.902 68.1589ZM151.725 68.1279L152.169 66.1726C151.286 65.9774 150.661 65.6225 150.204 65.158L148.777 66.57L147.351 67.982C148.416 69.0621 149.756 69.7458 151.281 70.0831L151.725 68.1279ZM148.777 66.57L150.232 65.1873C149.817 64.7482 149.489 64.1069 149.344 63.1303L147.368 63.4374L145.392 63.7444C145.631 65.3635 146.243 66.8107 147.323 67.9527L148.777 66.57ZM147.368 63.4374L149.344 63.1303C149.278 62.6826 149.254 62.1493 149.285 61.5205L147.29 61.4336L145.295 61.3467C145.252 62.1867 145.28 62.9891 145.392 63.7444L147.368 63.4374ZM147.29 61.4336L149.284 61.5463C149.426 59.2914 150.188 57.642 151.468 56.4193L150.095 54.9745L148.722 53.5298C146.601 55.5556 145.493 58.2123 145.296 61.321L147.29 61.4336ZM150.095 54.9745L151.468 56.4193C152.81 55.1373 154.668 54.2479 157.184 53.8569L156.891 51.8785L156.599 49.9C153.454 50.3885 150.781 51.5631 148.722 53.5298L150.095 54.9745ZM156.891 51.8785L157.184 53.8569C158.076 53.7183 158.795 53.6736 159.36 53.6982L159.46 51.6979L159.561 49.6976C158.66 49.6584 157.667 49.734 156.599 49.9L156.891 51.8785ZM159.46 51.6979L159.368 53.6985C159.993 53.7231 160.593 53.8044 161.168 53.9401L161.639 51.9909L162.109 50.0417C161.277 49.8456 160.424 49.7315 159.553 49.6972L159.46 51.6979ZM161.639 51.9909L159.645 51.8785L159.318 57.0539L161.312 57.1662L163.306 57.2786L163.632 52.1033L161.639 51.9909ZM161.312 57.1662L161.943 55.2623C160.229 54.7021 158.456 54.566 156.651 54.8465L156.943 56.825L157.236 58.8034C158.435 58.6172 159.574 58.7086 160.681 59.0702L161.312 57.1662ZM156.943 56.825L156.651 54.8465C155.236 55.0664 153.908 55.535 152.888 56.4276L154.196 57.9319L155.504 59.4362C155.744 59.2263 156.248 58.957 157.236 58.8034L156.943 56.825ZM154.196 57.9319L152.897 56.4196C151.715 57.4417 151.256 58.9215 151.155 60.3998L153.148 60.5235L155.141 60.6471C155.203 59.736 155.444 59.4881 155.495 59.4442L154.196 57.9319ZM153.148 60.5235L151.159 60.3415C151.131 60.6295 151.123 60.9202 151.139 61.211L153.134 61.0843L155.128 60.9576C155.125 60.8952 155.125 60.8121 155.136 60.7054L153.148 60.5235ZM153.134 61.0843L151.139 61.211C151.152 61.4418 151.174 61.6697 151.207 61.8936L153.184 61.5865L155.16 61.2795C155.146 61.1868 155.135 61.0799 155.128 60.9576L153.134 61.0843ZM153.184 61.5865L151.207 61.8936C151.389 63.1238 152.038 64.337 153.417 64.8936L154.174 63.0356L154.932 61.1776C154.963 61.1905 155.009 61.2141 155.056 61.2525C155.105 61.291 155.141 61.3324 155.164 61.3673C155.21 61.4344 155.183 61.4338 155.16 61.2795L153.184 61.5865ZM154.174 63.0356L153.485 64.9195C154.521 65.2941 155.733 65.2545 156.902 65.073L156.609 63.0945L156.316 61.116C155.366 61.2637 154.955 61.1847 154.864 61.1517L154.174 63.0356ZM156.609 63.0945L156.902 65.073C158.7 64.7935 160.448 64.1138 162.139 63.084L161.11 61.3751L160.081 59.6662C158.774 60.4622 157.521 60.9287 156.316 61.116L156.609 63.0945ZM161.11 61.3751L159.116 61.2627L158.79 66.4381L160.783 66.5504L162.777 66.6628L163.104 61.4875L161.11 61.3751ZM160.783 66.5504L159.892 64.765C159.235 65.0977 158.567 65.3811 157.885 65.616L158.523 67.5088L159.161 69.4016C160.019 69.1059 160.857 68.7504 161.675 68.3359L160.783 66.5504ZM158.523 67.5088L157.849 65.6289C157.229 65.8562 156.487 66.0442 155.61 66.1804L155.902 68.1589L156.195 70.1374C157.278 69.969 158.284 69.7236 159.198 69.3886L158.523 67.5088ZM165.025 66.4985L163.031 66.3912C162.995 66.9938 163.231 67.5788 163.675 67.9835C164.119 68.3883 164.722 68.5696 165.318 68.477L165.025 66.4985ZM165.723 54.9751L167.717 55.0824C167.754 54.4799 167.517 53.8949 167.073 53.4901C166.63 53.0854 166.026 52.9041 165.43 52.9966L165.723 54.9751ZM161.834 55.5794L159.84 55.4682C159.802 56.0714 160.038 56.6575 160.482 57.0631C160.926 57.4687 161.53 57.6505 162.126 57.5579L161.834 55.5794ZM162.1 51.312L161.808 49.3335C160.874 49.4785 160.165 50.257 160.106 51.2008L162.1 51.312ZM175.618 49.2117L177.612 49.3228C177.65 48.7197 177.414 48.1336 176.97 47.728C176.526 47.3224 175.922 47.1406 175.325 47.2332L175.618 49.2117ZM175.351 53.4791L175.644 55.4576C176.577 55.3126 177.286 54.5341 177.345 53.5903L175.351 53.4791ZM171.462 54.0834L171.169 52.1049C170.235 52.2501 169.525 53.0307 169.468 53.9761L171.462 54.0834ZM170.764 65.6068L171.057 67.5853C171.991 67.4401 172.701 66.6595 172.759 65.7142L170.764 65.6068ZM165.025 66.4985L167.019 66.6059L167.717 55.0824L165.723 54.9751L163.729 54.8678L163.031 66.3912L165.025 66.4985ZM165.723 54.9751L165.43 52.9966L161.541 53.6009L161.834 55.5794L162.126 57.5579L166.015 56.9536L165.723 54.9751ZM161.834 55.5794L163.827 55.6906L164.094 51.4232L162.1 51.312L160.106 51.2008L159.84 55.4682L161.834 55.5794ZM162.1 51.312L162.393 53.2905L175.91 51.1902L175.618 49.2117L175.325 47.2332L161.808 49.3335L162.1 51.312ZM175.618 49.2117L173.624 49.1005L173.357 53.3679L175.351 53.4791L177.345 53.5903L177.612 49.3228L175.618 49.2117ZM175.351 53.4791L175.059 51.5006L171.169 52.1049L171.462 54.0834L171.755 56.0619L175.644 55.4576L175.351 53.4791ZM171.462 54.0834L169.468 53.9761L168.77 65.4995L170.764 65.6068L172.759 65.7142L173.456 54.1907L171.462 54.0834ZM170.764 65.6068L170.472 63.6283L164.733 64.5201L165.025 66.4985L165.318 68.477L171.057 67.5853L170.764 65.6068Z" fill="#EBCB3D" mask="url(#path-24-outside-2_736_93)"/>
</g>
<defs>
<clipPath id="clip0_736_93">
<rect width="200" height="113" fill="white"/>
</clipPath>
</defs>
</svg>
