<svg width="200" height="110" viewBox="0 0 200 110" fill="none" xmlns="http://www.w3.org/2000/svg">
<g clip-path="url(#clip0_433_970)">
<path d="M200 18.3682L199.974 85.0804L147.32 93.3869L147.346 26.6746L200 18.3682Z" fill="#72AE60"/>
<path d="M147.346 26.6744L147.32 93.3868L105.307 82.9349L105.334 16.2227L147.346 26.6744Z" fill="#51A032"/>
<path d="M200 18.3682L199.974 84.2403L147.32 92.5468L147.346 26.6746L200 18.3682Z" fill="#58BC44"/>
<path d="M147.346 26.6744L147.32 92.5466L105.307 82.0948L105.334 16.2227L147.346 26.6744Z" fill="#38A611"/>
<path d="M200 18.3688L147.346 26.6752L105.334 16.2234L157.987 7.91699L200 18.3688Z" fill="#6FC55C"/>
<path d="M167.122 3.22045C167.115 3.23457 167.109 3.24876 167.101 3.26288C167.046 3.35655 166.967 3.44956 166.867 3.54172C166.854 3.55399 166.841 3.56625 166.827 3.57844C166.721 3.67102 166.59 3.7626 166.438 3.85291C166.42 3.86383 166.402 3.87484 166.383 3.88576C166.224 3.9765 166.041 4.06572 165.837 4.15335C165.813 4.16326 165.792 4.17343 165.768 4.18334C165.559 4.27013 165.326 4.3549 165.072 4.43782C165.038 4.44891 165.006 4.46025 164.971 4.47126C164.719 4.55141 164.442 4.62903 164.148 4.70473C164.086 4.72069 164.022 4.73666 163.958 4.75245C163.641 4.8305 163.308 4.90678 162.945 4.97904C162.944 4.97921 162.944 4.97946 162.943 4.97963C162.542 5.05961 162.113 5.13572 161.658 5.20764C161.316 5.26166 160.961 5.31047 160.603 5.35744C160.402 5.38382 160.196 5.40759 159.991 5.43171C159.786 5.4559 159.58 5.48027 159.37 5.50228C158.903 5.55117 158.429 5.5957 157.945 5.63384C157.908 5.63678 157.872 5.64073 157.834 5.64367C157.368 5.67963 156.894 5.71038 156.416 5.73643C155.976 5.76045 155.531 5.78053 155.084 5.79624C155.054 5.79734 155.024 5.79792 154.994 5.79893C154.094 5.82943 153.184 5.84321 152.277 5.84044C152.241 5.84035 152.205 5.84001 152.169 5.83985C151.744 5.83791 151.321 5.83229 150.9 5.82313C150.845 5.82195 150.791 5.82061 150.737 5.81935C150.328 5.8096 149.92 5.79641 149.516 5.77994C149.454 5.77734 149.391 5.77465 149.329 5.77196C148.926 5.7544 148.526 5.73374 148.13 5.70946C148.071 5.70584 148.012 5.70173 147.952 5.69795C147.55 5.67224 147.152 5.64359 146.761 5.61091C146.72 5.60746 146.679 5.6036 146.638 5.60007C146.249 5.56672 145.865 5.53025 145.49 5.4901C145.465 5.48749 145.439 5.48514 145.415 5.48245C145.046 5.44254 144.688 5.39835 144.335 5.35189C144.255 5.34139 144.176 5.33097 144.097 5.32014C143.741 5.27124 143.393 5.21991 143.056 5.16437C143.012 5.15706 142.971 5.14891 142.928 5.14144C142.638 5.09254 142.358 5.04079 142.085 4.98685C141.915 4.95308 141.753 4.9167 141.589 4.88099C141.373 4.83386 141.153 4.78791 140.95 4.73741C138.784 4.19863 137.733 3.55542 137.733 2.91699L137.727 19.385C137.727 20.0234 138.778 20.6667 140.943 21.2055C141.025 21.2258 141.108 21.2459 141.192 21.2657C141.315 21.2949 141.452 21.3205 141.58 21.3485C141.745 21.3844 141.907 21.4209 142.079 21.4549C142.122 21.4636 142.161 21.4734 142.205 21.4819C142.44 21.5271 142.684 21.5694 142.93 21.611C142.97 21.6178 143.007 21.6254 143.048 21.6321C143.056 21.6334 143.063 21.6349 143.071 21.6362C143.331 21.679 143.597 21.7197 143.869 21.7585C143.94 21.7688 144.015 21.7778 144.088 21.7878C144.169 21.7989 144.25 21.8096 144.332 21.8204C144.432 21.8336 144.53 21.8478 144.632 21.8604C144.875 21.8908 145.123 21.9197 145.374 21.947C145.385 21.9482 145.397 21.9492 145.408 21.9505C145.433 21.9532 145.458 21.9555 145.483 21.9581C145.687 21.9799 145.891 22.0012 146.099 22.021C146.275 22.0377 146.454 22.0529 146.632 22.0682C146.673 22.0717 146.713 22.0755 146.754 22.079C146.779 22.081 146.803 22.0834 146.827 22.0855C147.069 22.1053 147.312 22.1239 147.558 22.1411C147.686 22.1501 147.816 22.1578 147.946 22.1661C148.005 22.1699 148.064 22.1739 148.123 22.1775C148.178 22.1809 148.232 22.1848 148.286 22.188C148.527 22.2021 148.769 22.2151 149.012 22.2267C149.116 22.2317 149.22 22.2356 149.324 22.2401C149.385 22.2428 149.445 22.2454 149.506 22.2479C149.583 22.251 149.658 22.2548 149.735 22.2577C149.965 22.2664 150.196 22.274 150.428 22.2804C150.53 22.2833 150.633 22.2852 150.736 22.2876C150.787 22.2888 150.837 22.2901 150.888 22.2912C150.96 22.2927 151.031 22.2949 151.102 22.2962C151.319 22.3002 151.535 22.3034 151.752 22.3056C151.889 22.307 152.026 22.3074 152.162 22.3081C152.198 22.3082 152.234 22.3086 152.27 22.3087C152.307 22.3087 152.344 22.3092 152.381 22.3093C152.587 22.3097 152.794 22.3092 153 22.3078C153.215 22.3064 153.429 22.304 153.643 22.3008C153.644 22.3008 153.646 22.3008 153.647 22.3008C153.868 22.2974 154.09 22.293 154.31 22.2876C154.539 22.2819 154.768 22.2747 154.996 22.267C155.022 22.2661 155.048 22.2656 155.074 22.2647C155.089 22.2642 155.104 22.2639 155.118 22.2634C155.539 22.2483 155.956 22.2297 156.371 22.2073C156.383 22.2067 156.395 22.2057 156.407 22.205C156.887 22.1788 157.362 22.1479 157.83 22.1119C157.834 22.1116 157.839 22.1114 157.843 22.111C157.872 22.1089 157.898 22.1057 157.926 22.1035C158.414 22.065 158.893 22.0201 159.364 21.9707C159.419 21.965 159.477 21.9612 159.532 21.9553C159.686 21.9387 159.833 21.9182 159.985 21.9003C160.19 21.8761 160.396 21.8523 160.596 21.826C160.657 21.818 160.721 21.8116 160.782 21.8035C161.077 21.7635 161.367 21.7211 161.651 21.6762C161.752 21.6603 161.851 21.6443 161.949 21.628C162.293 21.5708 162.621 21.511 162.932 21.4489C162.933 21.4488 162.934 21.4485 162.935 21.4483C162.938 21.4476 162.941 21.4468 162.945 21.4462C163.213 21.3926 163.47 21.3374 163.713 21.2806C163.797 21.2611 163.872 21.2405 163.952 21.2207C164.016 21.205 164.079 21.1892 164.141 21.1732C164.208 21.1561 164.281 21.1395 164.345 21.122C164.53 21.0723 164.706 21.0216 164.873 20.9699C164.905 20.96 164.933 20.9497 164.964 20.9397C164.999 20.9286 165.032 20.9173 165.066 20.906C165.15 20.8786 165.237 20.8516 165.316 20.8238C165.45 20.7762 165.578 20.7281 165.698 20.6794C165.721 20.6702 165.74 20.6607 165.762 20.6516C165.785 20.6418 165.807 20.632 165.83 20.6222C165.898 20.5931 165.968 20.5641 166.031 20.5346C166.134 20.4866 166.229 20.4381 166.319 20.3892C166.34 20.3775 166.357 20.3657 166.377 20.3541C166.396 20.3433 166.413 20.3325 166.431 20.3216C166.476 20.2949 166.524 20.2684 166.565 20.2414C166.642 20.1913 166.711 20.1408 166.774 20.0901C166.792 20.0757 166.805 20.0612 166.821 20.0467C166.835 20.0346 166.848 20.0225 166.861 20.0102C166.888 19.9851 166.919 19.9601 166.943 19.9349C166.994 19.8808 167.038 19.8265 167.074 19.7719C167.082 19.7584 167.086 19.7449 167.094 19.7313C167.103 19.7171 167.108 19.703 167.116 19.6887C167.131 19.6591 167.15 19.6295 167.161 19.5999C167.182 19.5389 167.195 19.4776 167.197 19.4164C167.197 19.4086 167.198 19.4008 167.198 19.393L167.204 2.92506C167.204 3.02394 167.172 3.12224 167.122 3.22045Z" fill="#54B840"/>
<path d="M163.986 1.10301C169.062 2.36583 168.019 4.20389 161.658 5.20752C155.302 6.21023 146.026 6.00003 140.95 4.73713C135.874 3.47431 136.921 1.63742 143.277 0.634713C149.639 -0.368921 158.91 -0.159893 163.986 1.10301Z" fill="#74C565"/>
<path d="M147.346 26.6748L147.32 93.3871L94.6663 101.694L94.6927 34.9813L147.346 26.6748Z" fill="#72AE60"/>
<path d="M94.6926 34.9811L94.6662 101.693L52.6538 91.2415L52.6802 24.5293L94.6926 34.9811Z" fill="#51A032"/>
<path d="M147.346 26.6748L147.32 92.547L94.6663 100.853L94.6927 34.9813L147.346 26.6748Z" fill="#58BC44"/>
<path d="M94.6926 34.9811L94.6662 100.853L52.6538 90.4014L52.6802 24.5293L94.6926 34.9811Z" fill="#38A611"/>
<path d="M147.346 26.6754L94.6926 34.9819L52.6802 24.5301L105.334 16.2236L147.346 26.6754Z" fill="#6FC55C"/>
<path d="M114.468 11.5271C114.461 11.5412 114.455 11.5554 114.447 11.5695C114.392 11.6632 114.314 11.7562 114.214 11.8484C114.201 11.8606 114.188 11.8729 114.174 11.8851C114.067 11.9777 113.937 12.0692 113.785 12.1596C113.766 12.1705 113.749 12.1815 113.73 12.1924C113.571 12.2831 113.388 12.3724 113.183 12.46C113.16 12.4699 113.138 12.4801 113.114 12.49C112.906 12.5768 112.672 12.6615 112.419 12.7445C112.385 12.7555 112.352 12.7669 112.318 12.7779C112.065 12.858 111.789 12.9357 111.495 13.0114C111.432 13.0273 111.368 13.0433 111.304 13.0591C110.987 13.1371 110.654 13.2134 110.292 13.2857C110.291 13.2858 110.29 13.2861 110.289 13.2863C109.888 13.3662 109.46 13.4424 109.004 13.5143C108.662 13.5683 108.308 13.6171 107.95 13.6641C107.749 13.6905 107.543 13.7142 107.338 13.7383C107.132 13.7625 106.926 13.7869 106.717 13.8089C106.25 13.8578 105.775 13.9023 105.292 13.9405C105.254 13.9434 105.218 13.9474 105.181 13.9503C104.714 13.9863 104.241 14.017 103.763 14.0431C103.322 14.0671 102.877 14.0872 102.43 14.1029C102.401 14.104 102.37 14.1046 102.341 14.1056C101.44 14.1361 100.531 14.1498 99.6232 14.1471C99.5871 14.147 99.5511 14.1467 99.515 14.1465C99.0909 14.1446 98.6676 14.1389 98.2461 14.1298C98.1918 14.1286 98.1376 14.1272 98.0833 14.126C97.674 14.1162 97.2667 14.1031 96.8626 14.0866C96.8001 14.084 96.7377 14.0813 96.6754 14.0786C96.2721 14.061 95.8721 14.0404 95.4767 14.0161C95.4172 14.0125 95.3582 14.0084 95.2989 14.0046C94.8967 13.9789 94.4985 13.9502 94.1073 13.9175C94.066 13.9141 94.0257 13.9102 93.9846 13.9067C93.5953 13.8734 93.2117 13.8369 92.836 13.7967C92.8113 13.7941 92.7858 13.7918 92.761 13.7891C92.3926 13.7492 92.034 13.705 91.6812 13.6585C91.6018 13.648 91.5223 13.6376 91.4435 13.6268C91.0879 13.5779 90.739 13.5265 90.4028 13.471C90.3587 13.4637 90.3177 13.4556 90.274 13.4481C89.9849 13.3992 89.7044 13.3474 89.4318 13.2935C89.2611 13.2597 89.0995 13.2233 88.9357 13.1876C88.7198 13.1405 88.4993 13.0945 88.2962 13.0441C86.1306 12.5053 85.0796 11.8621 85.0798 11.2236L85.0732 27.6917C85.073 28.33 86.124 28.9733 88.2897 29.5121C88.3715 29.5324 88.4544 29.5525 88.5383 29.5723C88.6618 29.6015 88.7982 29.6271 88.9263 29.6551C89.0911 29.6911 89.2533 29.7275 89.4252 29.7615C89.4687 29.7702 89.5077 29.78 89.5517 29.7885C89.7861 29.8337 90.03 29.8761 90.2762 29.9176C90.3164 29.9244 90.3539 29.932 90.3944 29.9387C90.4024 29.9401 90.4097 29.9416 90.4176 29.9428C90.6775 29.9856 90.9435 30.0264 91.2151 30.0652C91.2869 30.0754 91.3619 30.0844 91.4344 30.0945C91.515 30.1056 91.5964 30.1162 91.678 30.127C91.7785 30.1402 91.8765 30.1545 91.9783 30.1671C92.2219 30.1974 92.4693 30.2263 92.72 30.2536C92.7313 30.2549 92.743 30.2559 92.7544 30.2571C92.7791 30.2598 92.8045 30.2621 92.8294 30.2648C93.0331 30.2865 93.2378 30.3079 93.4458 30.3276C93.6215 30.3443 93.8 30.3596 93.9785 30.3748C94.0193 30.3784 94.0594 30.3822 94.1004 30.3856C94.1251 30.3876 94.1491 30.39 94.1738 30.3922C94.4151 30.412 94.6587 30.4305 94.9043 30.4478C95.0326 30.4568 95.1629 30.4644 95.2922 30.4727C95.3515 30.4765 95.4104 30.4805 95.4699 30.4841C95.5245 30.4875 95.578 30.4915 95.6327 30.4946C95.8732 30.5088 96.1153 30.5217 96.3587 30.5334C96.4622 30.5383 96.5668 30.5423 96.6707 30.5467C96.7315 30.5494 96.7918 30.552 96.8526 30.5546C96.9291 30.5577 97.0049 30.5614 97.0816 30.5644C97.3115 30.573 97.5424 30.5806 97.774 30.5871C97.8766 30.5899 97.9797 30.5919 98.0824 30.5943C98.1332 30.5955 98.1838 30.5967 98.2347 30.5978C98.3062 30.5993 98.3773 30.6015 98.4489 30.6029C98.6651 30.6069 98.8818 30.61 99.0989 30.6123C99.2354 30.6136 99.3721 30.614 99.5088 30.6147C99.5447 30.6149 99.5806 30.6152 99.6166 30.6153C99.6535 30.6154 99.6904 30.6159 99.7274 30.616C99.9337 30.6163 100.14 30.6158 100.347 30.6145C100.561 30.613 100.775 30.6107 100.99 30.6074C100.991 30.6074 100.992 30.6074 100.993 30.6074C101.215 30.604 101.436 30.5997 101.657 30.5942C101.886 30.5886 102.114 30.5813 102.342 30.5736C102.368 30.5728 102.394 30.5723 102.42 30.5714C102.435 30.5708 102.45 30.5705 102.465 30.57C102.885 30.555 103.303 30.5363 103.717 30.514C103.73 30.5133 103.741 30.5123 103.754 30.5116C104.233 30.4855 104.708 30.4546 105.176 30.4185C105.181 30.4182 105.185 30.418 105.19 30.4177C105.218 30.4155 105.244 30.4123 105.272 30.4101C105.761 30.3717 106.239 30.3268 106.71 30.2774C106.765 30.2717 106.823 30.2678 106.878 30.2619C107.032 30.2453 107.179 30.2248 107.331 30.2069C107.536 30.1828 107.742 30.1589 107.943 30.1326C108.004 30.1246 108.068 30.1183 108.128 30.1101C108.423 30.0701 108.713 30.0277 108.998 29.9828C109.098 29.967 109.197 29.9509 109.295 29.9346C109.64 29.8774 109.967 29.8177 110.279 29.7556C110.28 29.7554 110.28 29.7552 110.281 29.755C110.285 29.7542 110.288 29.7535 110.291 29.7528C110.56 29.6992 110.816 29.644 111.06 29.5872C111.143 29.5677 111.218 29.5471 111.299 29.5273C111.363 29.5116 111.426 29.4958 111.488 29.4798C111.555 29.4627 111.627 29.4461 111.692 29.4287C111.876 29.3789 112.052 29.3282 112.219 29.2765C112.251 29.2666 112.279 29.2564 112.311 29.2464C112.346 29.2353 112.378 29.2239 112.413 29.2127C112.496 29.1853 112.583 29.1582 112.662 29.1304C112.797 29.0829 112.924 29.0347 113.044 28.986C113.067 28.9768 113.086 28.9674 113.108 28.9582C113.132 28.9485 113.153 28.9386 113.176 28.9289C113.244 28.8997 113.315 28.8707 113.377 28.8412C113.48 28.7932 113.576 28.7447 113.665 28.6958C113.686 28.6841 113.703 28.6723 113.724 28.6607C113.743 28.6499 113.76 28.6391 113.778 28.6283C113.823 28.6016 113.871 28.575 113.912 28.548C113.988 28.498 114.058 28.4475 114.12 28.3967C114.138 28.3824 114.151 28.3678 114.168 28.3534C114.182 28.3412 114.194 28.3291 114.207 28.3168C114.235 28.2917 114.265 28.2668 114.289 28.2416C114.341 28.1874 114.384 28.1331 114.42 28.0786C114.429 28.065 114.433 28.0515 114.441 28.038C114.449 28.0237 114.455 28.0096 114.462 27.9953C114.477 27.9657 114.497 27.9362 114.507 27.9065C114.529 27.8455 114.541 27.7843 114.544 27.723C114.544 27.7152 114.544 27.7074 114.544 27.6997L114.551 11.2317C114.551 11.3306 114.519 11.4289 114.468 11.5271Z" fill="#54B840"/>
<path d="M111.332 9.40965C116.408 10.6725 115.366 12.5105 109.004 13.5142C102.648 14.5169 93.3722 14.3067 88.296 13.0438C83.22 11.781 84.2673 9.94406 90.6232 8.94135C96.985 7.93772 106.256 8.14675 111.332 9.40965Z" fill="#74C565"/>
<path d="M94.6925 34.9814L94.6661 101.694L42.0125 110L42.0388 43.2878L94.6925 34.9814Z" fill="#72AE60"/>
<path d="M42.0388 43.2877L42.0125 110L0 99.5483L0.0264387 32.8359L42.0388 43.2877Z" fill="#51A032"/>
<path d="M94.6925 34.9814L94.6661 100.854L42.0125 109.16L42.0388 43.2878L94.6925 34.9814Z" fill="#58BC44"/>
<path d="M42.0388 43.2877L42.0125 109.16L0 98.7081L0.0264387 32.8359L42.0388 43.2877Z" fill="#38A611"/>
<path d="M94.6925 34.9821L42.0388 43.2885L0.0263672 32.8367L52.6801 24.5303L94.6925 34.9821Z" fill="#6FC55C"/>
<path d="M61.8147 19.8337C61.8074 19.8478 61.8014 19.862 61.7932 19.8762C61.7384 19.9698 61.6601 20.0628 61.56 20.155C61.5468 20.1673 61.5341 20.1795 61.52 20.1917C61.4133 20.2843 61.2829 20.3759 61.1308 20.4662C61.1123 20.4771 61.0949 20.4881 61.0759 20.499C60.917 20.5898 60.7339 20.679 60.5294 20.7666C60.5061 20.7765 60.4842 20.7867 60.4604 20.7966C60.2518 20.8834 60.0183 20.9682 59.765 21.0511C59.7311 21.0622 59.6986 21.0735 59.6638 21.0845C59.4114 21.1647 59.1349 21.2423 58.8407 21.318C58.7784 21.334 58.7147 21.3499 58.6504 21.3657C58.3334 21.4438 58.0005 21.5201 57.6381 21.5923C57.6371 21.5925 57.6362 21.5927 57.6352 21.5929C57.2344 21.6729 56.8061 21.749 56.3504 21.8209C56.0082 21.8749 55.6538 21.9238 55.2957 21.9707C55.0949 21.9971 54.8891 22.0209 54.6839 22.045C54.4782 22.0692 54.2726 22.0935 54.0627 22.1156C53.596 22.1645 53.1214 22.209 52.6377 22.2471C52.6003 22.2501 52.5643 22.254 52.5268 22.257C52.0604 22.2929 51.5869 22.3237 51.109 22.3497C50.6683 22.3737 50.2236 22.3938 49.7765 22.4095C49.7467 22.4106 49.7167 22.4112 49.6869 22.4122C48.7865 22.4427 47.8768 22.4565 46.9694 22.4537C46.9333 22.4536 46.8972 22.4533 46.8612 22.4531C46.4371 22.4512 46.0138 22.4456 45.5923 22.4364C45.538 22.4352 45.4838 22.4339 45.4295 22.4326C45.0202 22.4229 44.6129 22.4097 44.2087 22.3932C44.1463 22.3906 44.0839 22.3879 44.0216 22.3852C43.6183 22.3677 43.2183 22.347 42.8229 22.3227C42.7634 22.3191 42.7044 22.315 42.6451 22.3112C42.2429 22.2855 41.8447 22.2569 41.4535 22.2242C41.4122 22.2207 41.3719 22.2169 41.3308 22.2134C40.9415 22.18 40.5578 22.1435 40.1822 22.1034C40.1575 22.1008 40.132 22.0984 40.1072 22.0957C39.7388 22.0558 39.3801 22.0116 39.0274 21.9652C38.9479 21.9547 38.8685 21.9443 38.7897 21.9334C38.4341 21.8845 38.0852 21.8332 37.749 21.7777C37.7049 21.7703 37.6639 21.7622 37.6202 21.7547C37.3311 21.7058 37.0506 21.6541 36.778 21.6001C36.6073 21.5664 36.4457 21.53 36.2819 21.4943C36.066 21.4471 35.8455 21.4012 35.6424 21.3507C33.4768 20.8119 32.4257 20.1687 32.426 19.5303L32.4194 35.9983C32.4192 36.6367 33.4702 37.28 35.6359 37.8187C35.7177 37.8391 35.8006 37.8592 35.8845 37.879C36.008 37.9081 36.1444 37.9338 36.2725 37.9617C36.4373 37.9977 36.5995 38.0342 36.7714 38.0682C36.8149 38.0768 36.8539 38.0867 36.8979 38.0951C37.1323 38.1403 37.3762 38.1827 37.6224 38.2243C37.6626 38.2311 37.7001 38.2386 37.7406 38.2454C37.7486 38.2467 37.7558 38.2482 37.7638 38.2495C38.0237 38.2922 38.2897 38.333 38.5613 38.3718C38.6331 38.3821 38.7081 38.391 38.7806 38.4011C38.8612 38.4122 38.9426 38.4229 39.0242 38.4336C39.1247 38.4468 39.2227 38.4611 39.3245 38.4737C39.5681 38.504 39.8155 38.5329 40.0662 38.5603C40.0775 38.5615 40.0892 38.5625 40.1006 38.5638C40.1253 38.5665 40.1507 38.5687 40.1756 38.5714C40.3793 38.5932 40.584 38.6145 40.792 38.6343C40.9676 38.651 41.1462 38.6662 41.3247 38.6815C41.3655 38.685 41.4056 38.6888 41.4466 38.6922C41.4712 38.6943 41.4953 38.6967 41.52 38.6988C41.7613 38.7186 42.0049 38.7372 42.2505 38.7544C42.3788 38.7634 42.5091 38.771 42.6384 38.7794C42.6977 38.7831 42.7566 38.7872 42.8161 38.7908C42.8706 38.7941 42.9242 38.7981 42.9789 38.8013C43.2194 38.8154 43.4615 38.8283 43.7049 38.84C43.8084 38.845 43.913 38.8489 44.0169 38.8534C44.0776 38.8561 44.138 38.8587 44.1988 38.8612C44.2753 38.8643 44.3511 38.8681 44.4278 38.871C44.6577 38.8797 44.8886 38.8872 45.1202 38.8937C45.2228 38.8966 45.3259 38.8985 45.4286 38.9009C45.4794 38.9021 45.53 38.9034 45.5809 38.9045C45.6524 38.906 45.7235 38.9082 45.7951 38.9095C46.0113 38.9135 46.228 38.9166 46.4451 38.9189C46.5816 38.9203 46.7183 38.9207 46.855 38.9213C46.8909 38.9215 46.9268 38.9218 46.9628 38.9219C46.9997 38.922 47.0366 38.9225 47.0736 38.9226C47.2799 38.9229 47.4864 38.9224 47.6928 38.9211C47.9073 38.9197 48.1216 38.9173 48.3358 38.914C48.3371 38.914 48.3382 38.914 48.3394 38.914C48.5609 38.9107 48.7821 38.9063 49.0029 38.9008C49.2321 38.8952 49.4605 38.888 49.6886 38.8803C49.7146 38.8794 49.7406 38.8789 49.7665 38.878C49.7813 38.8775 49.7962 38.8772 49.8109 38.8767C50.2311 38.8616 50.6491 38.843 51.0635 38.8206C51.0758 38.8199 51.0876 38.8189 51.0999 38.8183C51.5794 38.7921 52.0543 38.7612 52.5225 38.7252C52.5269 38.7248 52.5316 38.7247 52.5361 38.7243C52.5641 38.7221 52.5905 38.719 52.6184 38.7168C53.1067 38.6783 53.5854 38.6334 54.0564 38.584C54.1113 38.5783 54.1695 38.5744 54.2241 38.5686C54.3784 38.5519 54.5253 38.5314 54.6772 38.5135C54.8827 38.4894 55.0882 38.4656 55.2891 38.4393C55.3499 38.4313 55.414 38.4249 55.4743 38.4168C55.7695 38.3768 56.0596 38.3343 56.3439 38.2895C56.4444 38.2736 56.5436 38.2575 56.6414 38.2412C56.9857 38.184 57.3136 38.1243 57.6249 38.0622C57.6257 38.062 57.6266 38.0618 57.6274 38.0616C57.631 38.0609 57.6341 38.0601 57.6376 38.0594C57.9059 38.0058 58.1625 37.9506 58.4059 37.8938C58.4894 37.8744 58.5642 37.8538 58.6448 37.834C58.7087 37.8182 58.7719 37.8024 58.834 37.7865C58.9008 37.7693 58.9733 37.7528 59.0379 37.7353C59.2227 37.6856 59.3985 37.6348 59.5655 37.5832C59.5975 37.5733 59.6255 37.563 59.6569 37.553C59.692 37.5419 59.7247 37.5306 59.759 37.5193C59.8426 37.4919 59.9294 37.4649 60.0082 37.4371C60.1429 37.3895 60.2704 37.3414 60.3907 37.2926C60.4133 37.2835 60.4325 37.274 60.4547 37.2648C60.4781 37.2551 60.4994 37.2453 60.5222 37.2355C60.5902 37.2064 60.6607 37.1774 60.7237 37.1479C60.8262 37.0998 60.922 37.0514 61.0111 37.0025C61.0323 36.9908 61.0495 36.9789 61.0699 36.9673C61.0888 36.9566 61.1059 36.9457 61.1241 36.9349C61.1691 36.9082 61.217 36.8816 61.2581 36.8547C61.3345 36.8046 61.4039 36.7541 61.4666 36.7034C61.4843 36.689 61.4972 36.6745 61.5138 36.66C61.5279 36.6478 61.5403 36.6357 61.5536 36.6235C61.5808 36.5984 61.6117 36.5734 61.6356 36.5482C61.6868 36.4941 61.7305 36.4397 61.7662 36.3852C61.7751 36.3717 61.7789 36.3582 61.7868 36.3446C61.7951 36.3303 61.8011 36.3162 61.8084 36.3019C61.8235 36.2724 61.8428 36.2428 61.8533 36.2131C61.8751 36.1522 61.8872 36.0909 61.8898 36.0297C61.8901 36.0218 61.8902 36.014 61.8902 36.0063L61.8968 19.5383C61.8968 19.6372 61.8649 19.7355 61.8147 19.8337Z" fill="#54B840"/>
<path d="M58.6786 17.7163C63.7547 18.9791 62.712 20.8172 56.3502 21.8208C49.9943 22.8235 40.7184 22.6133 35.6422 21.3504C30.5662 20.0876 31.6135 18.2507 37.9694 17.248C44.3312 16.2444 53.6025 16.4534 58.6786 17.7163Z" fill="#74C565"/>
<mask id="path-22-outside-1_433_970" maskUnits="userSpaceOnUse" x="72.6109" y="44.4122" width="87.799" height="37.428" fill="black">
<rect fill="white" x="72.6109" y="44.4122" width="87.799" height="37.428"/>
<path d="M85.2932 75.6758C84.2174 75.8385 83.1838 75.9058 82.1924 75.8778C81.2143 75.8315 80.3983 75.6799 79.7442 75.4228L79.9935 70.9917C80.7291 71.2526 81.5499 71.4359 82.4561 71.5416C83.378 71.6449 84.2029 71.6415 84.9306 71.5314C85.4369 71.4549 85.8307 71.3306 86.112 71.1586C86.391 70.9707 86.5112 70.7503 86.4728 70.4972C86.4343 70.2441 86.1749 70.081 85.6945 70.0081C85.2141 69.9351 84.5872 69.8034 83.8138 69.6129C82.7364 69.3389 81.905 68.9792 81.3194 68.5338C80.7315 68.0725 80.3726 67.4148 80.2428 66.5606C80.178 66.1335 80.166 65.6822 80.2071 65.2067C80.31 63.5406 80.8959 62.2302 81.9646 61.2757C83.031 60.3053 84.7823 59.6358 87.2186 59.2674C87.7248 59.1908 88.2845 59.1466 88.8977 59.1348C89.5085 59.1071 90.107 59.1056 90.6934 59.1302C91.2797 59.1547 91.7803 59.2004 92.195 59.2671L91.9256 63.7256C91.0951 63.479 90.346 63.3415 89.6781 63.313C89.0261 63.2822 88.4469 63.3051 87.9407 63.3816C87.6559 63.4247 87.3657 63.4848 87.0699 63.5619C86.7741 63.639 86.5227 63.7417 86.3156 63.8701C86.1244 63.9962 86.0432 64.1541 86.072 64.3439C86.1009 64.5337 86.2898 64.6589 86.6389 64.7194C87.0013 64.7616 87.5474 64.8409 88.2771 64.957C89.6661 65.1515 90.6594 65.511 91.2569 66.0355C91.8703 66.5577 92.2419 67.2458 92.3716 68.1C92.4077 68.3373 92.4291 68.5849 92.4359 68.8428C92.4427 69.1007 92.4361 69.3768 92.4161 69.6711C92.357 70.6671 92.0822 71.5744 91.5916 72.393C91.1168 73.2092 90.3715 73.8963 89.3558 74.4545C88.3402 75.0127 86.9859 75.4198 85.2932 75.6758ZM96.4001 73.7532L97.0552 62.2458L93.1634 62.8344L93.4142 58.573L106.94 56.5272L106.69 60.7886L102.798 61.3772L102.143 72.8846L96.4001 73.7532ZM104.358 72.5495L111.149 55.8906L117.105 54.9898L122.084 69.8684L116.389 70.7298L115.458 67.9579L111.756 68.5178L110.504 71.62L104.358 72.5495ZM112.609 64.3838L114.935 64.032L113.946 61.1961L112.609 64.3838ZM130.608 68.822C129.041 69.0589 127.647 69.0432 126.425 68.775C125.219 68.5044 124.233 67.9819 123.468 67.2076C122.717 66.4151 122.242 65.3702 122.045 64.0731C121.954 63.472 121.925 62.8048 121.96 62.0714C122.119 59.3934 123.047 57.2465 124.744 55.6306C126.44 54.0147 128.705 52.9926 131.536 52.5643C132.517 52.416 133.374 52.3591 134.108 52.3938C134.857 52.4261 135.585 52.5265 136.29 52.6949L135.983 57.863C134.569 57.3972 133.11 57.278 131.607 57.5053C130.405 57.6871 129.489 58.0522 128.861 58.6004C128.245 59.1304 127.899 59.9919 127.821 61.1849C127.802 61.3819 127.798 61.5686 127.809 61.745C127.82 61.9214 127.837 62.0887 127.861 62.2469C127.974 62.9903 128.306 63.4741 128.858 63.698C129.424 63.9038 130.236 63.9265 131.296 63.7662C132.799 63.5389 134.299 62.9722 135.796 62.0662L135.489 67.2343C134.752 67.6046 133.999 67.9208 133.229 68.1828C132.462 68.4606 131.589 68.6737 130.608 68.822ZM136.674 67.6618L137.58 51.893L143.323 51.0244L143.07 55.4318L146.669 50.5183L153.147 49.5385L147.56 56.8644L152.716 65.2355L146.641 66.1543L143.816 61.1444L142.642 62.6813L142.417 66.7932L136.674 67.6618Z"/>
</mask>
<path d="M85.2932 75.6758C84.2174 75.8385 83.1838 75.9058 82.1924 75.8778C81.2143 75.8315 80.3983 75.6799 79.7442 75.4228L79.9935 70.9917C80.7291 71.2526 81.5499 71.4359 82.4561 71.5416C83.378 71.6449 84.2029 71.6415 84.9306 71.5314C85.4369 71.4549 85.8307 71.3306 86.112 71.1586C86.391 70.9707 86.5112 70.7503 86.4728 70.4972C86.4343 70.2441 86.1749 70.081 85.6945 70.0081C85.2141 69.9351 84.5872 69.8034 83.8138 69.6129C82.7364 69.3389 81.905 68.9792 81.3194 68.5338C80.7315 68.0725 80.3726 67.4148 80.2428 66.5606C80.178 66.1335 80.166 65.6822 80.2071 65.2067C80.31 63.5406 80.8959 62.2302 81.9646 61.2757C83.031 60.3053 84.7823 59.6358 87.2186 59.2674C87.7248 59.1908 88.2845 59.1466 88.8977 59.1348C89.5085 59.1071 90.107 59.1056 90.6934 59.1302C91.2797 59.1547 91.7803 59.2004 92.195 59.2671L91.9256 63.7256C91.0951 63.479 90.346 63.3415 89.6781 63.313C89.0261 63.2822 88.4469 63.3051 87.9407 63.3816C87.6559 63.4247 87.3657 63.4848 87.0699 63.5619C86.7741 63.639 86.5227 63.7417 86.3156 63.8701C86.1244 63.9962 86.0432 64.1541 86.072 64.3439C86.1009 64.5337 86.2898 64.6589 86.6389 64.7194C87.0013 64.7616 87.5474 64.8409 88.2771 64.957C89.6661 65.1515 90.6594 65.511 91.2569 66.0355C91.8703 66.5577 92.2419 67.2458 92.3716 68.1C92.4077 68.3373 92.4291 68.5849 92.4359 68.8428C92.4427 69.1007 92.4361 69.3768 92.4161 69.6711C92.357 70.6671 92.0822 71.5744 91.5916 72.393C91.1168 73.2092 90.3715 73.8963 89.3558 74.4545C88.3402 75.0127 86.9859 75.4198 85.2932 75.6758ZM96.4001 73.7532L97.0552 62.2458L93.1634 62.8344L93.4142 58.573L106.94 56.5272L106.69 60.7886L102.798 61.3772L102.143 72.8846L96.4001 73.7532ZM104.358 72.5495L111.149 55.8906L117.105 54.9898L122.084 69.8684L116.389 70.7298L115.458 67.9579L111.756 68.5178L110.504 71.62L104.358 72.5495ZM112.609 64.3838L114.935 64.032L113.946 61.1961L112.609 64.3838ZM130.608 68.822C129.041 69.0589 127.647 69.0432 126.425 68.775C125.219 68.5044 124.233 67.9819 123.468 67.2076C122.717 66.4151 122.242 65.3702 122.045 64.0731C121.954 63.472 121.925 62.8048 121.96 62.0714C122.119 59.3934 123.047 57.2465 124.744 55.6306C126.44 54.0147 128.705 52.9926 131.536 52.5643C132.517 52.416 133.374 52.3591 134.108 52.3938C134.857 52.4261 135.585 52.5265 136.29 52.6949L135.983 57.863C134.569 57.3972 133.11 57.278 131.607 57.5053C130.405 57.6871 129.489 58.0522 128.861 58.6004C128.245 59.1304 127.899 59.9919 127.821 61.1849C127.802 61.3819 127.798 61.5686 127.809 61.745C127.82 61.9214 127.837 62.0887 127.861 62.2469C127.974 62.9903 128.306 63.4741 128.858 63.698C129.424 63.9038 130.236 63.9265 131.296 63.7662C132.799 63.5389 134.299 62.9722 135.796 62.0662L135.489 67.2343C134.752 67.6046 133.999 67.9208 133.229 68.1828C132.462 68.4606 131.589 68.6737 130.608 68.822ZM136.674 67.6618L137.58 51.893L143.323 51.0244L143.07 55.4318L146.669 50.5183L153.147 49.5385L147.56 56.8644L152.716 65.2355L146.641 66.1543L143.816 61.1444L142.642 62.6813L142.417 66.7932L136.674 67.6618Z" fill="#F0F0F0"/>
<path d="M82.1924 75.8778L82.0058 79.8729C82.0311 79.8741 82.0564 79.8751 82.0817 79.8758L82.1924 75.8778ZM79.7442 75.4228L75.7502 75.1957C75.6531 76.9202 76.6744 78.5128 78.2826 79.1449L79.7442 75.4228ZM79.9935 70.9917L81.3292 67.2224C80.142 66.8013 78.8261 66.9635 77.7775 67.6604C76.729 68.3573 76.0702 69.5074 75.9995 70.7646L79.9935 70.9917ZM82.4561 71.5416L81.995 75.5143C82.0011 75.515 82.0071 75.5157 82.0131 75.5163L82.4561 71.5416ZM86.112 71.1586L88.2005 74.5711C88.2504 74.5407 88.2996 74.5091 88.348 74.4764L86.112 71.1586ZM85.6945 70.0081L86.293 66.0538L86.293 66.0538L85.6945 70.0081ZM83.8138 69.6129L82.83 73.489C82.8397 73.4915 82.8495 73.4939 82.8592 73.4963L83.8138 69.6129ZM81.3194 68.5338L78.8511 71.6797C78.8668 71.692 78.8825 71.7042 78.8983 71.7162L81.3194 68.5338ZM80.2071 65.2067L84.1927 65.5531C84.1955 65.5207 84.1979 65.4882 84.1999 65.4557L80.2071 65.2067ZM81.9646 61.2757L84.6308 64.2592C84.64 64.2509 84.6492 64.2426 84.6583 64.2343L81.9646 61.2757ZM88.8977 59.1348L88.9774 63.1336C89.012 63.133 89.0466 63.1318 89.0811 63.1303L88.8977 59.1348ZM90.6934 59.1302L90.5282 63.1263L90.5282 63.1263L90.6934 59.1302ZM92.195 59.2671L96.1881 59.5108C96.3121 57.4582 94.8591 55.6451 92.8282 55.3183L92.195 59.2671ZM91.9256 63.7256L90.7889 67.5596C91.9584 67.9069 93.2221 67.7018 94.2211 67.0026C95.2201 66.3034 95.8451 65.1865 95.9187 63.9693L91.9256 63.7256ZM89.6781 63.313L89.4916 67.3082C89.4978 67.3085 89.5041 67.3087 89.5103 67.309L89.6781 63.313ZM87.0699 63.5619L86.0584 59.6916L86.0584 59.6916L87.0699 63.5619ZM86.3156 63.8701L84.2055 60.4709C84.1743 60.4902 84.1434 60.51 84.1128 60.5302L86.3156 63.8701ZM86.6389 64.7194L85.9581 68.6602C86.031 68.6728 86.1043 68.6835 86.1778 68.692L86.6389 64.7194ZM88.2771 64.957L87.6505 68.9069C87.6752 68.9108 87.7 68.9145 87.7248 68.918L88.2771 64.957ZM91.2569 66.0355L88.6187 69.0404C88.6339 69.0538 88.6492 69.067 88.6647 69.0802L91.2569 66.0355ZM92.4161 69.6711L88.4249 69.3971C88.4242 69.4087 88.4234 69.4203 88.4227 69.4318L92.4161 69.6711ZM91.5916 72.393L88.1598 70.3355C88.1508 70.3505 88.142 70.3655 88.1332 70.3805L91.5916 72.393ZM89.3558 74.4545L91.2845 77.9598L91.2845 77.9598L89.3558 74.4545ZM85.2932 75.6758L84.6924 71.7212C83.8296 71.8517 83.0348 71.9005 82.303 71.8798L82.1924 75.8778L82.0817 79.8758C83.3328 79.9112 84.6053 79.8253 85.894 79.6304L85.2932 75.6758ZM82.1924 75.8778L82.3789 71.8827C81.6793 71.8496 81.3273 71.7483 81.2059 71.7006L79.7442 75.4228L78.2826 79.1449C79.4693 79.6114 80.7494 79.8135 82.0058 79.8729L82.1924 75.8778ZM79.7442 75.4228L83.7383 75.6499L83.9876 71.2188L79.9935 70.9917L75.9995 70.7646L75.7502 75.1957L79.7442 75.4228ZM79.9935 70.9917L78.6579 74.761C79.7192 75.1375 80.8394 75.3795 81.995 75.5143L82.4561 71.5416L82.9171 67.5689C82.2604 67.4923 81.7389 67.3678 81.3292 67.2224L79.9935 70.9917ZM82.4561 71.5416L82.0131 75.5163C83.1967 75.6489 84.3822 75.6599 85.5314 75.4861L84.9306 71.5314L84.3298 67.5768C84.0236 67.6231 83.5594 67.6408 82.8991 67.5669L82.4561 71.5416ZM84.9306 71.5314L85.5314 75.4861C86.3045 75.3691 87.2837 75.1316 88.2005 74.5711L86.112 71.1586L84.0235 67.746C84.2186 67.6267 84.3608 67.5788 84.3992 67.5666C84.4405 67.5536 84.4242 67.5625 84.3298 67.5768L84.9306 71.5314ZM86.112 71.1586L88.348 74.4764C89.4308 73.7474 90.774 72.178 90.4278 69.899L86.4728 70.4972L82.5177 71.0954C82.4084 70.3754 82.5322 69.6084 82.8991 68.9357C83.232 68.3254 83.6563 67.9886 83.876 67.8407L86.112 71.1586ZM86.4728 70.4972L90.4278 69.899C90.1993 68.3949 89.2794 67.3665 88.3767 66.7992C87.5889 66.3041 86.7937 66.1299 86.293 66.0538L85.6945 70.0081L85.096 73.9623C85.0757 73.9592 84.6504 73.903 84.122 73.5709C83.4787 73.1666 82.7078 72.3463 82.5177 71.0954L86.4728 70.4972ZM85.6945 70.0081L86.293 66.0538C85.9833 66.0068 85.4881 65.9067 84.7684 65.7294L83.8138 69.6129L82.8592 73.4963C83.6862 73.7 84.4448 73.8634 85.096 73.9623L85.6945 70.0081ZM83.8138 69.6129L84.7976 65.7367C84.4206 65.6408 84.1514 65.546 83.9689 65.4671C83.7845 65.3873 83.7247 65.3393 83.7405 65.3513L81.3194 68.5338L78.8983 71.7162C80.0727 72.6096 81.4725 73.1438 82.83 73.489L83.8138 69.6129ZM81.3194 68.5338L83.7877 65.3878C83.9228 65.4938 84.0406 65.6338 84.1209 65.7809C84.1962 65.9189 84.2033 65.9981 84.1979 65.9624L80.2428 66.5606L76.2878 67.1588C76.5449 68.8512 77.336 70.4911 78.8511 71.6797L81.3194 68.5338ZM80.2428 66.5606L84.1979 65.9624C84.1851 65.8786 84.176 65.7462 84.1927 65.5531L80.2071 65.2067L76.2215 64.8603C76.1561 65.6182 76.1708 66.3884 76.2878 67.1588L80.2428 66.5606ZM80.2071 65.2067L84.1999 65.4557C84.2494 64.6537 84.4763 64.3971 84.6308 64.2592L81.9646 61.2757L79.2985 58.2922C77.3154 60.0633 76.3706 62.4274 76.2143 64.9577L80.2071 65.2067ZM81.9646 61.2757L84.6583 64.2343C84.858 64.0526 85.6721 63.5468 87.8193 63.222L87.2186 59.2674L86.6178 55.3127C83.8925 55.7249 81.2039 56.5579 79.2709 58.317L81.9646 61.2757ZM87.2186 59.2674L87.8193 63.222C88.1233 63.176 88.5058 63.1427 88.9774 63.1336L88.8977 59.1348L88.818 55.1359C88.0633 55.1504 87.3263 55.2056 86.6178 55.3127L87.2186 59.2674ZM88.8977 59.1348L89.0811 63.1303C89.5806 63.1077 90.0628 63.1067 90.5282 63.1263L90.6934 59.1302L90.8585 55.1341C90.1513 55.1044 89.4363 55.1065 88.7143 55.1392L88.8977 59.1348ZM90.6934 59.1302L90.5282 63.1263C91.0142 63.1466 91.3492 63.1817 91.5618 63.2159L92.195 59.2671L92.8282 55.3183C92.2113 55.2191 91.5453 55.1629 90.8585 55.1341L90.6934 59.1302ZM92.195 59.2671L88.2019 59.0234L87.9325 63.4819L91.9256 63.7256L95.9187 63.9693L96.1881 59.5108L92.195 59.2671ZM91.9256 63.7256L93.0622 59.8915C92.0041 59.5773 90.9222 59.3629 89.8459 59.317L89.6781 63.313L89.5103 67.309C89.7698 67.3201 90.1861 67.3806 90.7889 67.5596L91.9256 63.7256ZM89.6781 63.313L89.8646 59.3179C89.0174 59.2778 88.1662 59.302 87.3399 59.427L87.9407 63.3816L88.5415 67.3363C88.7277 67.3081 89.0348 67.2866 89.4916 67.3082L89.6781 63.313ZM87.9407 63.3816L87.3399 59.427C86.9087 59.4922 86.4813 59.5814 86.0584 59.6916L87.0699 63.5619L88.0814 67.4322C88.25 67.3882 88.4031 67.3572 88.5415 67.3363L87.9407 63.3816ZM87.0699 63.5619L86.0584 59.6916C85.4688 59.8453 84.8268 60.0856 84.2055 60.4709L86.3156 63.8701L88.4258 67.2694C88.3199 67.3351 88.2326 67.3757 88.1752 67.3991C88.1179 67.4225 88.0842 67.4314 88.0814 67.4322L87.0699 63.5619ZM86.3156 63.8701L84.1128 60.5302C83.6054 60.8645 82.9866 61.4101 82.5533 62.2526C82.0967 63.1406 81.9871 64.0869 82.117 64.9421L86.072 64.3439L90.0271 63.7457C90.1281 64.4111 90.0447 65.1835 89.6693 65.9135C89.3173 66.5982 88.8347 67.0018 88.5185 67.2101L86.3156 63.8701ZM86.072 64.3439L82.117 64.9421C82.332 66.357 83.1758 67.3499 84.0274 67.914C84.7699 68.4058 85.5126 68.583 85.9581 68.6602L86.6389 64.7194L87.3196 60.7785C87.416 60.7952 87.8898 60.8796 88.4433 61.2463C89.106 61.6852 89.8409 62.5206 90.0271 63.7457L86.072 64.3439ZM86.6389 64.7194L86.1778 68.692C86.4537 68.7242 86.9321 68.7925 87.6505 68.9069L88.2771 64.957L88.9038 61.0072C88.1627 60.8892 87.5489 60.799 87.0999 60.7467L86.6389 64.7194ZM88.2771 64.957L87.7248 68.918C88.2276 68.9884 88.538 69.073 88.7042 69.1332C88.8768 69.1957 88.7963 69.1963 88.6187 69.0404L91.2569 66.0355L93.8952 63.0307C92.413 61.7296 90.4746 61.2264 88.8295 60.9961L88.2771 64.957ZM91.2569 66.0355L88.6647 69.0802C88.6053 69.0296 88.5325 68.9468 88.4757 68.8415C88.421 68.7402 88.4137 68.6787 88.4166 68.6982L92.3716 68.1L96.3267 67.5019C96.0636 65.7701 95.2527 64.1856 93.8492 62.9909L91.2569 66.0355ZM92.3716 68.1L88.4166 68.6982C88.426 68.7599 88.4342 68.8415 88.4369 68.9459L92.4359 68.8428L96.4349 68.7397C96.4241 68.3283 96.3894 67.9148 96.3267 67.5019L92.3716 68.1ZM92.4359 68.8428L88.4369 68.9459C88.44 69.0617 88.4376 69.2109 88.4249 69.3971L92.4161 69.6711L96.4073 69.945C96.4346 69.5426 96.4455 69.1396 96.4349 68.7397L92.4359 68.8428ZM92.4161 69.6711L88.4227 69.4318C88.4 69.8154 88.3044 70.0942 88.1598 70.3355L91.5916 72.393L95.0234 74.4504C95.86 73.0546 96.3141 71.5188 96.4095 69.9103L92.4161 69.6711ZM91.5916 72.393L88.1332 70.3805C88.098 70.441 87.9511 70.6613 87.4272 70.9492L89.3558 74.4545L91.2845 77.9598C92.792 77.1314 94.1355 75.9773 95.0499 74.4055L91.5916 72.393ZM89.3558 74.4545L87.4272 70.9492C86.9711 71.1999 86.1206 71.5052 84.6924 71.7212L85.2932 75.6758L85.894 79.6304C87.8513 79.3344 89.7092 78.8255 91.2845 77.9598L89.3558 74.4545ZM96.4001 73.7532L92.4062 73.5234C92.3377 74.7268 92.8157 75.8973 93.7073 76.7093C94.5989 77.5212 95.8089 77.8881 97.0009 77.7078L96.4001 73.7532ZM97.0552 62.2458L101.049 62.4756C101.118 61.2721 100.64 60.1017 99.748 59.2897C98.8564 58.4777 97.6464 58.1109 96.4544 58.2912L97.0552 62.2458ZM93.1634 62.8344L89.17 62.597C89.0991 63.8016 89.576 64.9742 90.4678 65.7879C91.3596 66.6016 92.5709 66.9695 93.7642 66.789L93.1634 62.8344ZM93.4142 58.573L92.8135 54.6184C90.9462 54.9008 89.5317 56.4506 89.4208 58.3356L93.4142 58.573ZM106.94 56.5272L110.934 56.7646C111.005 55.56 110.528 54.3874 109.636 53.5737C108.744 52.76 107.533 52.3921 106.34 52.5725L106.94 56.5272ZM106.69 60.7886L107.29 64.7432C109.158 64.4608 110.572 62.911 110.683 61.026L106.69 60.7886ZM102.798 61.3772L102.197 57.4226C100.327 57.7055 98.9114 59.2594 98.8039 61.1475L102.798 61.3772ZM102.143 72.8846L102.744 76.8392C104.614 76.5564 106.029 75.0024 106.137 73.1144L102.143 72.8846ZM96.4001 73.7532L100.394 73.9829L101.049 62.4756L97.0552 62.2458L93.0613 62.016L92.4062 73.5234L96.4001 73.7532ZM97.0552 62.2458L96.4544 58.2912L92.5627 58.8798L93.1634 62.8344L93.7642 66.789L97.656 66.2004L97.0552 62.2458ZM93.1634 62.8344L97.1569 63.0718L97.4077 58.8104L93.4142 58.573L89.4208 58.3356L89.17 62.597L93.1634 62.8344ZM93.4142 58.573L94.015 62.5276L107.541 60.4818L106.94 56.5272L106.34 52.5725L92.8135 54.6184L93.4142 58.573ZM106.94 56.5272L102.947 56.2897L102.696 60.5512L106.69 60.7886L110.683 61.026L110.934 56.7646L106.94 56.5272ZM106.69 60.7886L106.089 56.834L102.197 57.4226L102.798 61.3772L103.399 65.3319L107.29 64.7432L106.69 60.7886ZM102.798 61.3772L98.8039 61.1475L98.1489 72.6548L102.143 72.8846L106.137 73.1144L106.792 61.607L102.798 61.3772ZM102.143 72.8846L101.542 68.93L95.7993 69.7985L96.4001 73.7532L97.0009 77.7078L102.744 76.8392L102.143 72.8846ZM104.358 72.5495L100.653 71.038C100.11 72.3703 100.325 73.892 101.216 75.0228C102.106 76.1537 103.536 76.7194 104.959 76.5042L104.358 72.5495ZM111.149 55.8906L110.548 51.936C109.155 52.1467 107.976 53.0748 107.444 54.3791L111.149 55.8906ZM117.105 54.9898L120.899 53.7228C120.282 51.8784 118.427 50.7443 116.504 51.0351L117.105 54.9898ZM122.084 69.8684L122.685 73.8231C123.853 73.6465 124.882 72.9632 125.498 71.9562C126.114 70.9492 126.253 69.7213 125.878 68.6015L122.084 69.8684ZM116.389 70.7298L112.597 72.0008C113.216 73.843 115.069 74.9751 116.99 74.6845L116.389 70.7298ZM115.458 67.9579L119.251 66.6869C118.632 64.8447 116.779 63.7127 114.858 64.0033L115.458 67.9579ZM111.756 68.5178L111.156 64.5632C109.758 64.7746 108.576 65.7082 108.047 67.0189L111.756 68.5178ZM110.504 71.62L111.105 75.5746C112.503 75.3631 113.685 74.4295 114.214 73.1189L110.504 71.62ZM112.609 64.3838L108.92 62.8357C108.361 64.169 108.565 65.7007 109.455 66.8415C110.344 67.9823 111.78 68.5547 113.21 68.3384L112.609 64.3838ZM114.935 64.032L115.535 67.9867C116.712 67.8088 117.747 67.1166 118.361 66.0981C118.975 65.0796 119.104 63.8405 118.712 62.7172L114.935 64.032ZM113.946 61.1961L117.723 59.8812C117.177 58.3169 115.724 57.2501 114.068 57.1984C112.412 57.1467 110.896 58.1208 110.256 59.648L113.946 61.1961ZM104.358 72.5495L108.063 74.0611L114.854 57.4022L111.149 55.8906L107.444 54.3791L100.653 71.038L104.358 72.5495ZM111.149 55.8906L111.75 59.8453L117.706 58.9444L117.105 54.9898L116.504 51.0351L110.548 51.936L111.149 55.8906ZM117.105 54.9898L113.312 56.2567L118.291 71.1354L122.084 69.8684L125.878 68.6015L120.899 53.7228L117.105 54.9898ZM122.084 69.8684L121.484 65.9138L115.788 66.7752L116.389 70.7298L116.99 74.6845L122.685 73.8231L122.084 69.8684ZM116.389 70.7298L120.181 69.4589L119.251 66.6869L115.458 67.9579L111.666 69.2288L112.597 72.0008L116.389 70.7298ZM115.458 67.9579L114.858 64.0033L111.156 64.5632L111.756 68.5178L112.357 72.4724L116.059 71.9125L115.458 67.9579ZM111.756 68.5178L108.047 67.0189L106.794 70.121L110.504 71.62L114.214 73.1189L115.466 70.0167L111.756 68.5178ZM110.504 71.62L109.903 67.6653L103.757 68.5949L104.358 72.5495L104.959 76.5042L111.105 75.5746L110.504 71.62ZM112.609 64.3838L113.21 68.3384L115.535 67.9867L114.935 64.032L114.334 60.0774L112.008 60.4291L112.609 64.3838ZM114.935 64.032L118.712 62.7172L117.723 59.8812L113.946 61.1961L110.168 62.511L111.158 65.3469L114.935 64.032ZM113.946 61.1961L110.256 59.648L108.92 62.8357L112.609 64.3838L116.299 65.9318L117.635 62.7441L113.946 61.1961ZM126.425 68.775L125.552 72.6775C125.558 72.6789 125.564 72.6802 125.57 72.6816L126.425 68.775ZM123.468 67.2076L120.566 69.9585C120.585 69.9783 120.604 69.9979 120.623 70.0174L123.468 67.2076ZM121.96 62.0714L117.966 61.8311C117.965 61.8482 117.964 61.8653 117.964 61.8824L121.96 62.0714ZM124.744 55.6306L121.984 52.7339L121.984 52.7339L124.744 55.6306ZM134.108 52.3938L133.921 56.389C133.927 56.3892 133.933 56.3895 133.938 56.3897L134.108 52.3938ZM136.29 52.6949L140.283 52.9347C140.398 50.9972 139.106 49.2557 137.217 48.8048L136.29 52.6949ZM135.983 57.863L134.733 61.6617C135.912 62.0501 137.204 61.8693 138.231 61.1725C139.258 60.4756 139.902 59.3416 139.976 58.1028L135.983 57.863ZM128.861 58.6004L131.473 61.6314C131.479 61.6261 131.485 61.6209 131.491 61.6156L128.861 58.6004ZM127.821 61.1849L131.804 61.5637C131.807 61.5249 131.81 61.4861 131.813 61.4472L127.821 61.1849ZM127.809 61.745L131.802 61.5073L131.802 61.5073L127.809 61.745ZM128.858 63.698L127.356 67.4039C127.401 67.4221 127.446 67.4396 127.492 67.4562L128.858 63.698ZM135.796 62.0662L139.789 62.306C139.877 60.822 139.135 59.411 137.862 58.6425C136.588 57.8739 134.994 57.8747 133.723 58.6444L135.796 62.0662ZM135.489 67.2343L137.287 70.8079C138.561 70.1675 139.397 68.8974 139.482 67.4741L135.489 67.2343ZM133.229 68.1828L131.937 64.3967C131.913 64.405 131.889 64.4135 131.865 64.4223L133.229 68.1828ZM130.608 68.822L130.007 64.8674C128.801 65.0497 127.916 65.0079 127.281 64.8684L126.425 68.775L125.57 72.6816C127.379 73.0786 129.282 73.0681 131.208 72.7767L130.608 68.822ZM126.425 68.775L127.299 64.8725C126.736 64.7462 126.469 64.555 126.313 64.3978L123.468 67.2076L120.623 70.0174C121.998 71.4088 123.702 72.2625 125.552 72.6775L126.425 68.775ZM123.468 67.2076L126.37 64.4567C126.287 64.3687 126.1 64.13 126 63.4749L122.045 64.0731L118.09 64.6713C118.385 66.6105 119.146 68.4614 120.566 69.9585L123.468 67.2076ZM122.045 64.0731L126 63.4749C125.956 63.1813 125.931 62.7829 125.956 62.2604L121.96 62.0714L117.964 61.8824C117.92 62.8267 117.952 63.7628 118.09 64.6713L122.045 64.0731ZM121.96 62.0714L125.953 62.3118C126.062 60.4864 126.646 59.3443 127.504 58.5273L124.744 55.6306L121.984 52.7339C119.448 55.1487 118.177 58.3005 117.966 61.8311L121.96 62.0714ZM124.744 55.6306L127.504 58.5273C128.486 57.5926 129.934 56.8522 132.137 56.519L131.536 52.5643L130.936 48.6097C127.475 49.1331 124.395 50.4369 121.984 52.7339L124.744 55.6306ZM131.536 52.5643L132.137 56.519C132.942 56.3973 133.524 56.3702 133.921 56.389L134.108 52.3938L134.294 48.3987C133.225 48.3481 132.093 48.4347 130.936 48.6097L131.536 52.5643ZM134.108 52.3938L133.938 56.3897C134.441 56.4114 134.914 56.478 135.363 56.5851L136.29 52.6949L137.217 48.8048C136.255 48.575 135.274 48.4409 134.278 48.3979L134.108 52.3938ZM136.29 52.6949L132.297 52.4551L131.989 57.6232L135.983 57.863L139.976 58.1028L140.283 52.9347L136.29 52.6949ZM135.983 57.863L137.232 54.0643C135.209 53.3979 133.116 53.2316 131.007 53.5507L131.607 57.5053L132.208 61.4599C133.104 61.3244 133.928 61.3965 134.733 61.6617L135.983 57.863ZM131.607 57.5053L131.007 53.5507C129.377 53.7972 127.638 54.3581 126.23 55.5852L128.861 58.6004L131.491 61.6156C131.41 61.686 131.39 61.6757 131.503 61.6307C131.619 61.5842 131.842 61.5152 132.208 61.4599L131.607 57.5053ZM128.861 58.6004L126.249 55.5693C124.504 57.072 123.944 59.1631 123.829 60.9226L127.821 61.1849L131.813 61.4472C131.832 61.1586 131.874 61.0816 131.851 61.1383C131.837 61.1716 131.805 61.243 131.741 61.3354C131.676 61.4296 131.587 61.5329 131.473 61.6314L128.861 58.6004ZM127.821 61.1849L123.838 60.8061C123.803 61.1841 123.791 61.5781 123.816 61.9827L127.809 61.745L131.802 61.5073C131.805 61.5591 131.802 61.5797 131.804 61.5637L127.821 61.1849ZM127.809 61.745L123.816 61.9827C123.833 62.2675 123.862 62.5557 123.906 62.8451L127.861 62.2469L131.816 61.6487C131.812 61.6216 131.806 61.5753 131.802 61.5073L127.809 61.745ZM127.861 62.2469L123.906 62.8451C124.167 64.5605 125.142 66.5054 127.356 67.4039L128.858 63.698L130.361 59.9922C130.8 60.1704 131.207 60.4895 131.492 60.9037C131.75 61.2801 131.806 61.5855 131.816 61.6487L127.861 62.2469ZM128.858 63.698L127.492 67.4562C129.004 68.0068 130.619 67.9141 131.897 67.7209L131.296 63.7662L130.695 59.8116C130.331 59.8667 130.109 59.8744 130.001 59.8714C129.951 59.87 129.947 59.8668 129.981 59.8724C130.014 59.8779 130.101 59.8947 130.225 59.9399L128.858 63.698ZM131.296 63.7662L131.897 67.7209C133.994 67.4037 135.989 66.626 137.869 65.488L135.796 62.0662L133.723 58.6444C132.609 59.3185 131.604 59.6742 130.695 59.8116L131.296 63.7662ZM135.796 62.0662L131.803 61.8264L131.495 66.9944L135.489 67.2343L139.482 67.4741L139.789 62.306L135.796 62.0662ZM135.489 67.2343L133.69 63.6607C133.115 63.9498 132.531 64.1947 131.937 64.3967L133.229 68.1828L134.521 71.9689C135.467 71.6469 136.389 71.2594 137.287 70.8079L135.489 67.2343ZM133.229 68.1828L131.865 64.4223C131.392 64.5936 130.781 64.7503 130.007 64.8674L130.608 68.822L131.208 72.7767C132.396 72.597 133.533 72.3276 134.594 71.9433L133.229 68.1828ZM136.674 67.6618L132.68 67.4299C132.611 68.6337 133.089 69.8047 133.981 70.6171C134.872 71.4296 136.083 71.7967 137.275 71.6164L136.674 67.6618ZM137.58 51.893L136.979 47.9383C135.11 48.2211 133.695 49.7739 133.586 51.6611L137.58 51.893ZM143.323 51.0244L147.317 51.256C147.386 50.0523 146.908 48.8813 146.016 48.0689C145.125 47.2565 143.914 46.8894 142.722 47.0698L143.323 51.0244ZM143.07 55.4318L139.076 55.2002C138.974 56.9697 140.05 58.5956 141.718 59.1954C143.387 59.7952 145.251 59.2257 146.298 57.7962L143.07 55.4318ZM146.669 50.5183L146.068 46.5637C145.015 46.7229 144.07 47.2953 143.441 48.1539L146.669 50.5183ZM153.147 49.5385L156.329 51.9649C157.317 50.6693 157.419 48.9033 156.588 47.5009C155.757 46.0985 154.158 45.3401 152.546 45.5839L153.147 49.5385ZM147.56 56.8644L144.378 54.438C143.375 55.7533 143.286 57.5508 144.154 58.96L147.56 56.8644ZM152.716 65.2355L153.316 69.1901C154.643 68.9894 155.781 68.1367 156.345 66.9195C156.91 65.7023 156.826 64.2829 156.122 63.1399L152.716 65.2355ZM146.641 66.1543L143.156 68.1166C143.972 69.5644 145.599 70.3574 147.242 70.1089L146.641 66.1543ZM143.816 61.1444L147.301 59.1821C146.64 58.0104 145.435 57.2486 144.094 57.1546C142.752 57.0605 141.453 57.6468 140.637 58.7149L143.816 61.1444ZM142.642 62.6813L139.462 60.2518C138.975 60.8894 138.691 61.659 138.647 62.4604L142.642 62.6813ZM142.417 66.7932L143.018 70.7478C144.891 70.4645 146.308 68.9058 146.411 67.0141L142.417 66.7932ZM136.674 67.6618L140.668 67.8936L141.574 52.1248L137.58 51.893L133.586 51.6611L132.68 67.4299L136.674 67.6618ZM137.58 51.893L138.181 55.8476L143.924 54.979L143.323 51.0244L142.722 47.0698L136.979 47.9383L137.58 51.893ZM143.323 51.0244L139.329 50.7928L139.076 55.2002L143.07 55.4318L147.064 55.6633L147.317 51.256L143.323 51.0244ZM143.07 55.4318L146.298 57.7962L149.897 52.8827L146.669 50.5183L143.441 48.1539L139.842 53.0674L143.07 55.4318ZM146.669 50.5183L147.269 54.4729L153.748 53.4931L153.147 49.5385L152.546 45.5839L146.068 46.5637L146.669 50.5183ZM153.147 49.5385L149.965 47.1121L144.378 54.438L147.56 56.8644L150.742 59.2908L156.329 51.9649L153.147 49.5385ZM147.56 56.8644L144.154 58.96L149.31 67.3311L152.716 65.2355L156.122 63.1399L150.966 54.7688L147.56 56.8644ZM152.716 65.2355L152.115 61.2809L146.04 62.1997L146.641 66.1543L147.242 70.1089L153.316 69.1901L152.716 65.2355ZM146.641 66.1543L150.125 64.192L147.301 59.1821L143.816 61.1444L140.332 63.1067L143.156 68.1166L146.641 66.1543ZM143.816 61.1444L140.637 58.7149L139.462 60.2518L142.642 62.6813L145.821 65.1108L146.996 63.5738L143.816 61.1444ZM142.642 62.6813L138.647 62.4604L138.422 66.5722L142.417 66.7932L146.411 67.0141L146.636 62.9022L142.642 62.6813ZM142.417 66.7932L141.816 62.8386L136.073 63.7071L136.674 67.6618L137.275 71.6164L143.018 70.7478L142.417 66.7932Z" fill="#F0F0F0" mask="url(#path-22-outside-1_433_970)"/>
<mask id="path-24-outside-2_433_970" maskUnits="userSpaceOnUse" x="74.8888" y="46.6886" width="83.2432" height="32.8752" fill="black">
<rect fill="white" x="74.8888" y="46.6886" width="83.2432" height="32.8752"/>
<path d="M85.2932 75.6758C84.2174 75.8385 83.1838 75.9058 82.1924 75.8778C81.2143 75.8315 80.3983 75.6799 79.7442 75.4228L79.9935 70.9917C80.7291 71.2526 81.5499 71.4359 82.4561 71.5416C83.378 71.6449 84.2029 71.6415 84.9306 71.5314C85.4369 71.4549 85.8307 71.3306 86.112 71.1586C86.391 70.9707 86.5112 70.7503 86.4728 70.4972C86.4343 70.2441 86.1749 70.081 85.6945 70.0081C85.2141 69.9351 84.5872 69.8034 83.8138 69.6129C82.7364 69.3389 81.905 68.9792 81.3194 68.5338C80.7315 68.0725 80.3726 67.4148 80.2428 66.5606C80.178 66.1335 80.166 65.6822 80.2071 65.2067C80.31 63.5406 80.8959 62.2302 81.9646 61.2757C83.031 60.3053 84.7823 59.6358 87.2186 59.2674C87.7248 59.1908 88.2845 59.1466 88.8977 59.1348C89.5085 59.1071 90.107 59.1056 90.6934 59.1302C91.2797 59.1547 91.7803 59.2004 92.195 59.2671L91.9256 63.7256C91.0951 63.479 90.346 63.3415 89.6781 63.313C89.0261 63.2822 88.4469 63.3051 87.9407 63.3816C87.6559 63.4247 87.3657 63.4848 87.0699 63.5619C86.7741 63.639 86.5227 63.7417 86.3156 63.8701C86.1244 63.9962 86.0432 64.1541 86.072 64.3439C86.1009 64.5337 86.2898 64.6589 86.6389 64.7194C87.0013 64.7616 87.5474 64.8409 88.2771 64.957C89.6661 65.1515 90.6594 65.511 91.2569 66.0355C91.8703 66.5577 92.2419 67.2458 92.3716 68.1C92.4077 68.3373 92.4291 68.5849 92.4359 68.8428C92.4427 69.1007 92.4361 69.3768 92.4161 69.6711C92.357 70.6671 92.0822 71.5744 91.5916 72.393C91.1168 73.2092 90.3715 73.8963 89.3558 74.4545C88.3402 75.0127 86.9859 75.4198 85.2932 75.6758ZM96.4001 73.7532L97.0552 62.2458L93.1634 62.8344L93.4142 58.573L106.94 56.5272L106.69 60.7886L102.798 61.3772L102.143 72.8846L96.4001 73.7532ZM104.358 72.5495L111.149 55.8906L117.105 54.9898L122.084 69.8684L116.389 70.7298L115.458 67.9579L111.756 68.5178L110.504 71.62L104.358 72.5495ZM112.609 64.3838L114.935 64.032L113.946 61.1961L112.609 64.3838ZM130.608 68.822C129.041 69.0589 127.647 69.0432 126.425 68.775C125.219 68.5044 124.233 67.9819 123.468 67.2076C122.717 66.4151 122.242 65.3702 122.045 64.0731C121.954 63.472 121.925 62.8048 121.96 62.0714C122.119 59.3934 123.047 57.2465 124.744 55.6306C126.44 54.0147 128.705 52.9926 131.536 52.5643C132.517 52.416 133.374 52.3591 134.108 52.3938C134.857 52.4261 135.585 52.5265 136.29 52.6949L135.983 57.863C134.569 57.3972 133.11 57.278 131.607 57.5053C130.405 57.6871 129.489 58.0522 128.861 58.6004C128.245 59.1304 127.899 59.9919 127.821 61.1849C127.802 61.3819 127.798 61.5686 127.809 61.745C127.82 61.9214 127.837 62.0887 127.861 62.2469C127.974 62.9903 128.306 63.4741 128.858 63.698C129.424 63.9038 130.236 63.9265 131.296 63.7662C132.799 63.5389 134.299 62.9722 135.796 62.0662L135.489 67.2343C134.752 67.6046 133.999 67.9208 133.229 68.1828C132.462 68.4606 131.589 68.6737 130.608 68.822ZM136.674 67.6618L137.58 51.893L143.323 51.0244L143.07 55.4318L146.669 50.5183L153.147 49.5385L147.56 56.8644L152.716 65.2355L146.641 66.1543L143.816 61.1444L142.642 62.6813L142.417 66.7932L136.674 67.6618Z"/>
</mask>
<path d="M85.2932 75.6758C84.2174 75.8385 83.1838 75.9058 82.1924 75.8778C81.2143 75.8315 80.3983 75.6799 79.7442 75.4228L79.9935 70.9917C80.7291 71.2526 81.5499 71.4359 82.4561 71.5416C83.378 71.6449 84.2029 71.6415 84.9306 71.5314C85.4369 71.4549 85.8307 71.3306 86.112 71.1586C86.391 70.9707 86.5112 70.7503 86.4728 70.4972C86.4343 70.2441 86.1749 70.081 85.6945 70.0081C85.2141 69.9351 84.5872 69.8034 83.8138 69.6129C82.7364 69.3389 81.905 68.9792 81.3194 68.5338C80.7315 68.0725 80.3726 67.4148 80.2428 66.5606C80.178 66.1335 80.166 65.6822 80.2071 65.2067C80.31 63.5406 80.8959 62.2302 81.9646 61.2757C83.031 60.3053 84.7823 59.6358 87.2186 59.2674C87.7248 59.1908 88.2845 59.1466 88.8977 59.1348C89.5085 59.1071 90.107 59.1056 90.6934 59.1302C91.2797 59.1547 91.7803 59.2004 92.195 59.2671L91.9256 63.7256C91.0951 63.479 90.346 63.3415 89.6781 63.313C89.0261 63.2822 88.4469 63.3051 87.9407 63.3816C87.6559 63.4247 87.3657 63.4848 87.0699 63.5619C86.7741 63.639 86.5227 63.7417 86.3156 63.8701C86.1244 63.9962 86.0432 64.1541 86.072 64.3439C86.1009 64.5337 86.2898 64.6589 86.6389 64.7194C87.0013 64.7616 87.5474 64.8409 88.2771 64.957C89.6661 65.1515 90.6594 65.511 91.2569 66.0355C91.8703 66.5577 92.2419 67.2458 92.3716 68.1C92.4077 68.3373 92.4291 68.5849 92.4359 68.8428C92.4427 69.1007 92.4361 69.3768 92.4161 69.6711C92.357 70.6671 92.0822 71.5744 91.5916 72.393C91.1168 73.2092 90.3715 73.8963 89.3558 74.4545C88.3402 75.0127 86.9859 75.4198 85.2932 75.6758ZM96.4001 73.7532L97.0552 62.2458L93.1634 62.8344L93.4142 58.573L106.94 56.5272L106.69 60.7886L102.798 61.3772L102.143 72.8846L96.4001 73.7532ZM104.358 72.5495L111.149 55.8906L117.105 54.9898L122.084 69.8684L116.389 70.7298L115.458 67.9579L111.756 68.5178L110.504 71.62L104.358 72.5495ZM112.609 64.3838L114.935 64.032L113.946 61.1961L112.609 64.3838ZM130.608 68.822C129.041 69.0589 127.647 69.0432 126.425 68.775C125.219 68.5044 124.233 67.9819 123.468 67.2076C122.717 66.4151 122.242 65.3702 122.045 64.0731C121.954 63.472 121.925 62.8048 121.96 62.0714C122.119 59.3934 123.047 57.2465 124.744 55.6306C126.44 54.0147 128.705 52.9926 131.536 52.5643C132.517 52.416 133.374 52.3591 134.108 52.3938C134.857 52.4261 135.585 52.5265 136.29 52.6949L135.983 57.863C134.569 57.3972 133.11 57.278 131.607 57.5053C130.405 57.6871 129.489 58.0522 128.861 58.6004C128.245 59.1304 127.899 59.9919 127.821 61.1849C127.802 61.3819 127.798 61.5686 127.809 61.745C127.82 61.9214 127.837 62.0887 127.861 62.2469C127.974 62.9903 128.306 63.4741 128.858 63.698C129.424 63.9038 130.236 63.9265 131.296 63.7662C132.799 63.5389 134.299 62.9722 135.796 62.0662L135.489 67.2343C134.752 67.6046 133.999 67.9208 133.229 68.1828C132.462 68.4606 131.589 68.6737 130.608 68.822ZM136.674 67.6618L137.58 51.893L143.323 51.0244L143.07 55.4318L146.669 50.5183L153.147 49.5385L147.56 56.8644L152.716 65.2355L146.641 66.1543L143.816 61.1444L142.642 62.6813L142.417 66.7932L136.674 67.6618Z" fill="#F0F0F0"/>
<path d="M82.1924 75.8778L82.0991 77.8754C82.1117 77.876 82.1244 77.8765 82.137 77.8768L82.1924 75.8778ZM79.7442 75.4228L77.7472 75.3092C77.6987 76.1715 78.2093 76.9678 79.0134 77.2839L79.7442 75.4228ZM79.9935 70.9917L80.6614 69.1071C80.0678 68.8965 79.4098 68.9776 78.8855 69.3261C78.3613 69.6745 78.0319 70.2495 77.9965 70.8781L79.9935 70.9917ZM82.4561 71.5416L82.2256 73.528L82.2346 73.529L82.4561 71.5416ZM86.112 71.1586L87.1562 72.8649C87.1812 72.8496 87.2058 72.8338 87.23 72.8175L86.112 71.1586ZM85.6945 70.0081L85.9937 68.0309L85.9937 68.0309L85.6945 70.0081ZM83.8138 69.6129L83.3219 71.551C83.3268 71.5522 83.3316 71.5534 83.3365 71.5546L83.8138 69.6129ZM81.3194 68.5338L80.0853 70.1067C80.0931 70.1129 80.101 70.119 80.1089 70.125L81.3194 68.5338ZM80.2071 65.2067L82.1999 65.3799C82.2013 65.3637 82.2025 65.3475 82.2035 65.3312L80.2071 65.2067ZM81.9646 61.2757L83.2977 62.7674C83.3023 62.7633 83.3069 62.7591 83.3115 62.755L81.9646 61.2757ZM88.8977 59.1348L88.9375 61.1342C88.9548 61.1339 88.9721 61.1333 88.9894 61.1325L88.8977 59.1348ZM90.6934 59.1302L90.6108 61.1282L90.6108 61.1282L90.6934 59.1302ZM92.195 59.2671L94.1915 59.389C94.2536 58.3627 93.527 57.4561 92.5116 57.2927L92.195 59.2671ZM91.9256 63.7256L91.3572 65.6426C91.942 65.8162 92.5738 65.7137 93.0733 65.3641C93.5728 65.0145 93.8853 64.4561 93.9221 63.8474L91.9256 63.7256ZM89.6781 63.313L89.5848 65.3106L89.5942 65.311L89.6781 63.313ZM87.0699 63.5619L86.5641 61.6267L86.5641 61.6267L87.0699 63.5619ZM86.3156 63.8701L85.2606 62.1705C85.245 62.1802 85.2295 62.1901 85.2142 62.2002L86.3156 63.8701ZM86.6389 64.7194L86.2985 66.6898C86.3349 66.6961 86.3716 66.7014 86.4083 66.7057L86.6389 64.7194ZM88.2771 64.957L87.9638 66.9319C87.9762 66.9339 87.9885 66.9358 88.001 66.9375L88.2771 64.957ZM91.2569 66.0355L89.9378 67.538C89.9454 67.5447 89.9531 67.5513 89.9608 67.5579L91.2569 66.0355ZM92.4161 69.6711L90.4205 69.5341C90.4201 69.5399 90.4198 69.5457 90.4194 69.5515L92.4161 69.6711ZM91.5916 72.393L89.8757 71.3643C89.8712 71.3717 89.8668 71.3792 89.8624 71.3867L91.5916 72.393ZM89.3558 74.4545L90.3201 76.2072L90.3201 76.2072L89.3558 74.4545ZM85.2932 75.6758L84.9928 73.6985C84.0235 73.8451 83.1093 73.9032 82.2477 73.8788L82.1924 75.8778L82.137 77.8768C83.2583 77.9085 84.4113 77.8319 85.5936 77.6531L85.2932 75.6758ZM82.1924 75.8778L82.2856 73.8802C81.4468 73.8406 80.8628 73.7141 80.4751 73.5617L79.7442 75.4228L79.0134 77.2839C79.9338 77.6456 80.9818 77.8225 82.0991 77.8754L82.1924 75.8778ZM79.7442 75.4228L81.7413 75.5364L81.9906 71.1052L79.9935 70.9917L77.9965 70.8781L77.7472 75.3092L79.7442 75.4228ZM79.9935 70.9917L79.3257 72.8763C80.2242 73.195 81.1947 73.4077 82.2256 73.5279L82.4561 71.5416L82.6866 69.5553C81.9052 69.4641 81.234 69.3102 80.6614 69.1071L79.9935 70.9917ZM82.4561 71.5416L82.2346 73.529C83.2874 73.6469 84.2925 73.6507 85.231 73.5087L84.9306 71.5314L84.6302 69.5541C84.1132 69.6323 83.4687 69.6429 82.6776 69.5542L82.4561 71.5416ZM84.9306 71.5314L85.231 73.5087C85.8707 73.412 86.5572 73.2311 87.1562 72.8649L86.112 71.1586L85.0678 69.4523C85.095 69.4356 85.0817 69.4487 85.0024 69.4737C84.9246 69.4983 84.804 69.5278 84.6302 69.5541L84.9306 71.5314ZM86.112 71.1586L87.23 72.8175C87.9109 72.3591 88.6426 71.4641 88.4503 70.1981L86.4728 70.4972L84.4953 70.7963C84.4502 70.4996 84.5019 70.1752 84.6552 69.894C84.7916 69.644 84.9539 69.5266 84.994 69.4996L86.112 71.1586ZM86.4728 70.4972L88.4503 70.1981C88.3264 69.3828 87.8293 68.8166 87.313 68.4921C86.8543 68.2038 86.3642 68.0872 85.9937 68.0309L85.6945 70.0081L85.3952 71.9852C85.5052 72.0019 85.385 72.0033 85.1857 71.878C85.0729 71.8071 84.917 71.6842 84.7762 71.4874C84.6298 71.2829 84.533 71.0444 84.4953 70.7963L86.4728 70.4972ZM85.6945 70.0081L85.9937 68.0309C85.5987 67.9709 85.0376 67.855 84.2911 67.6711L83.8138 69.6129L83.3365 71.5546C84.1367 71.7517 84.8295 71.8992 85.3952 71.9852L85.6945 70.0081ZM83.8138 69.6129L84.3057 67.6748C83.3684 67.4364 82.8211 67.164 82.53 66.9425L81.3194 68.5338L80.1089 70.125C80.9888 70.7944 82.1044 71.2414 83.3219 71.551L83.8138 69.6129ZM81.3194 68.5338L82.5536 66.9608C82.4292 66.8632 82.2864 66.6966 82.2204 66.2615L80.2428 66.5606L78.2653 66.8597C78.4588 68.133 79.0337 69.2818 80.0853 70.1067L81.3194 68.5338ZM80.2428 66.5606L82.2204 66.2615C82.1815 66.006 82.171 65.7142 82.1999 65.3799L80.2071 65.2067L78.2143 65.0335C78.1611 65.6502 78.1744 66.2609 78.2653 66.8597L80.2428 66.5606ZM80.2071 65.2067L82.2035 65.3312C82.2797 64.0971 82.6861 63.3137 83.2977 62.7674L81.9646 61.2757L80.6315 59.7839C79.1056 61.1468 78.3403 62.984 78.2107 65.0822L80.2071 65.2067ZM81.9646 61.2757L83.3115 62.755C83.9445 62.1789 85.2272 61.5913 87.519 61.2447L87.2186 59.2674L86.9182 57.29C84.3374 57.6804 82.1174 58.4316 80.6177 59.7963L81.9646 61.2757ZM87.2186 59.2674L87.519 61.2447C87.9241 61.1834 88.3952 61.1447 88.9375 61.1342L88.8977 59.1348L88.8579 57.1353C88.1739 57.1485 87.5256 57.1982 86.9182 57.29L87.2186 59.2674ZM88.8977 59.1348L88.9894 61.1325C89.5445 61.1074 90.0849 61.1062 90.6108 61.1282L90.6934 59.1302L90.776 57.1321C90.1292 57.105 89.4724 57.1068 88.806 57.137L88.8977 59.1348ZM90.6934 59.1302L90.6108 61.1282C91.1469 61.1507 91.5647 61.1911 91.8784 61.2415L92.195 59.2671L92.5116 57.2927C91.9958 57.2097 91.4125 57.1588 90.776 57.1321L90.6934 59.1302ZM92.195 59.2671L90.1984 59.1453L89.929 63.6037L91.9256 63.7256L93.9221 63.8474L94.1915 59.389L92.195 59.2671ZM91.9256 63.7256L92.4939 61.8085C91.5496 61.5282 90.6341 61.3522 89.762 61.315L89.6781 63.313L89.5942 65.311C90.0579 65.3308 90.6406 65.4298 91.3572 65.6426L91.9256 63.7256ZM89.6781 63.313L89.7714 61.3155C89.0217 61.28 88.3066 61.3035 87.6403 61.4043L87.9407 63.3816L88.2411 65.3589C88.5873 65.3066 89.0304 65.2844 89.5848 65.3106L89.6781 63.313ZM87.9407 63.3816L87.6403 61.4043C87.2823 61.4585 86.9235 61.5331 86.5641 61.6267L87.0699 63.5619L87.5757 65.497C87.8079 65.4365 88.0295 65.3909 88.2411 65.3589L87.9407 63.3816ZM87.0699 63.5619L86.5641 61.6267C86.1215 61.7421 85.6747 61.9137 85.2606 62.1705L86.3156 63.8701L87.3707 65.5698C87.3707 65.5698 87.4268 65.5358 87.5757 65.497L87.0699 63.5619ZM86.3156 63.8701L85.2142 62.2002C84.9127 62.3988 84.5692 62.7071 84.3323 63.1679C84.0837 63.6513 84.0224 64.1679 84.0945 64.643L86.072 64.3439L88.0495 64.0448C88.0929 64.33 88.0577 64.6728 87.8903 64.9983C87.7346 65.3012 87.5273 65.4675 87.4171 65.5401L86.3156 63.8701ZM86.072 64.3439L84.0945 64.643C84.2092 65.3979 84.6584 65.9337 85.1314 66.247C85.5499 66.5242 85.9885 66.6361 86.2985 66.6898L86.6389 64.7194L86.9792 62.7489C86.9402 62.7422 87.1098 62.7612 87.3394 62.9132C87.6234 63.1014 87.9637 63.4797 88.0495 64.0448L86.072 64.3439ZM86.6389 64.7194L86.4083 66.7057C86.7275 66.7429 87.2398 66.8167 87.9638 66.9319L88.2771 64.957L88.5905 62.9821C87.855 62.865 87.2751 62.7803 86.8694 62.733L86.6389 64.7194ZM88.2771 64.957L88.001 66.9375C89.2618 67.114 89.7826 67.4017 89.9378 67.538L91.2569 66.0355L92.576 64.5331C91.5362 63.6203 90.0704 63.189 88.5533 62.9766L88.2771 64.957ZM91.2569 66.0355L89.9608 67.5579C90.1791 67.7437 90.331 67.9837 90.3941 68.3991L92.3716 68.1L94.3492 67.801C94.1527 66.508 93.5615 65.3716 92.553 64.5132L91.2569 66.0355ZM92.3716 68.1L90.3941 68.3991C90.4168 68.5486 90.4316 68.7132 90.4364 68.8943L92.4359 68.8428L94.4354 68.7913C94.4266 68.4566 94.3985 68.1261 94.3492 67.801L92.3716 68.1ZM92.4359 68.8428L90.4364 68.8943C90.4414 69.0812 90.4369 69.2938 90.4205 69.5341L92.4161 69.6711L94.4117 69.808C94.4354 69.4597 94.4441 69.1201 94.4354 68.7913L92.4359 68.8428ZM92.4161 69.6711L90.4194 69.5515C90.3785 70.2413 90.1933 70.8343 89.8757 71.3643L91.5916 72.393L93.3075 73.4217C93.9711 72.3145 94.3356 71.0929 94.4128 69.7907L92.4161 69.6711ZM91.5916 72.393L89.8624 71.3867C89.6074 71.8251 89.1613 72.2788 88.3915 72.7019L89.3558 74.4545L90.3201 76.2072C91.5818 75.5138 92.6262 74.5932 93.3207 73.3992L91.5916 72.393ZM89.3558 74.4545L88.3915 72.7019C87.6556 73.1063 86.5533 73.4625 84.9928 73.6985L85.2932 75.6758L85.5936 77.6531C87.4186 77.3771 89.0247 76.9191 90.3201 76.2072L89.3558 74.4545ZM96.4001 73.7532L94.4031 73.6383C94.3689 74.24 94.6079 74.8252 95.0537 75.2312C95.4995 75.6372 96.1045 75.8206 96.7005 75.7305L96.4001 73.7532ZM97.0552 62.2458L99.0521 62.3607C99.0864 61.759 98.8474 61.1737 98.4016 60.7678C97.9558 60.3618 97.3508 60.1783 96.7548 60.2685L97.0552 62.2458ZM93.1634 62.8344L91.1667 62.7157C91.1313 63.318 91.3697 63.9043 91.8156 64.3112C92.2615 64.718 92.8672 64.902 93.4638 64.8117L93.1634 62.8344ZM93.4142 58.573L93.1139 56.5957C92.1802 56.7369 91.473 57.5118 91.4175 58.4543L93.4142 58.573ZM106.94 56.5272L108.937 56.6459C108.973 56.0436 108.734 55.4573 108.288 55.0504C107.842 54.6436 107.237 54.4596 106.64 54.5499L106.94 56.5272ZM106.69 60.7886L106.99 62.7659C107.924 62.6247 108.631 61.8498 108.686 60.9073L106.69 60.7886ZM102.798 61.3772L102.497 59.3999C101.562 59.5413 100.855 60.3183 100.801 61.2623L102.798 61.3772ZM102.143 72.8846L102.443 74.8619C103.378 74.7205 104.086 73.9435 104.14 72.9995L102.143 72.8846ZM96.4001 73.7532L98.3971 73.8681L99.0521 62.3607L97.0552 62.2458L95.0582 62.1309L94.4031 73.6383L96.4001 73.7532ZM97.0552 62.2458L96.7548 60.2685L92.8631 60.8571L93.1634 62.8344L93.4638 64.8117L97.3556 64.2231L97.0552 62.2458ZM93.1634 62.8344L95.1602 62.9531L95.411 58.6917L93.4142 58.573L91.4175 58.4543L91.1667 62.7157L93.1634 62.8344ZM93.4142 58.573L93.7146 60.5503L107.241 58.5045L106.94 56.5272L106.64 54.5499L93.1139 56.5957L93.4142 58.573ZM106.94 56.5272L104.944 56.4085L104.693 60.6699L106.69 60.7886L108.686 60.9073L108.937 56.6459L106.94 56.5272ZM106.69 60.7886L106.389 58.8113L102.497 59.3999L102.798 61.3772L103.098 63.3545L106.99 62.7659L106.69 60.7886ZM102.798 61.3772L100.801 61.2623L100.146 72.7697L102.143 72.8846L104.14 72.9995L104.795 61.4921L102.798 61.3772ZM102.143 72.8846L101.842 70.9073L96.0997 71.7759L96.4001 73.7532L96.7005 75.7305L102.443 74.8619L102.143 72.8846ZM104.358 72.5495L102.506 71.7938C102.234 72.4599 102.342 73.2208 102.787 73.7862C103.232 74.3516 103.947 74.6345 104.658 74.5269L104.358 72.5495ZM111.149 55.8906L110.849 53.9133C110.152 54.0187 109.563 54.4827 109.297 55.1349L111.149 55.8906ZM117.105 54.9898L119.002 54.3563C118.693 53.4341 117.766 52.867 116.805 53.0124L117.105 54.9898ZM122.084 69.8684L122.385 71.8458C122.969 71.7575 123.483 71.4158 123.791 70.9123C124.099 70.4088 124.169 69.7949 123.981 69.235L122.084 69.8684ZM116.389 70.7298L114.493 71.3653C114.802 72.2864 115.729 72.8525 116.69 72.7072L116.389 70.7298ZM115.458 67.9579L117.354 67.3224C117.045 66.4013 116.119 65.8353 115.158 65.9806L115.458 67.9579ZM111.756 68.5178L111.456 66.5405C110.757 66.6462 110.166 67.113 109.902 67.7683L111.756 68.5178ZM110.504 71.62L110.805 73.5973C111.503 73.4915 112.094 73.0247 112.359 72.3694L110.504 71.62ZM112.609 64.3838L110.764 63.6097C110.485 64.2764 110.587 65.0422 111.032 65.6126C111.477 66.1831 112.195 66.4692 112.91 66.3611L112.609 64.3838ZM114.935 64.032L115.235 66.0094C115.823 65.9204 116.341 65.5743 116.648 65.0651C116.955 64.5558 117.019 63.9363 116.823 63.3746L114.935 64.032ZM113.946 61.1961L115.834 60.5386C115.561 59.7565 114.835 59.2231 114.007 59.1972C113.179 59.1714 112.421 59.6584 112.101 60.422L113.946 61.1961ZM104.358 72.5495L106.21 73.3053L113.001 56.6464L111.149 55.8906L109.297 55.1349L102.506 71.7938L104.358 72.5495ZM111.149 55.8906L111.449 57.8679L117.406 56.9671L117.105 54.9898L116.805 53.0124L110.849 53.9133L111.149 55.8906ZM117.105 54.9898L115.208 55.6232L120.188 70.5019L122.084 69.8684L123.981 69.235L119.002 54.3563L117.105 54.9898ZM122.084 69.8684L121.784 67.8911L116.089 68.7525L116.389 70.7298L116.69 72.7072L122.385 71.8458L122.084 69.8684ZM116.389 70.7298L118.285 70.0944L117.354 67.3224L115.458 67.9579L113.562 68.5934L114.493 71.3653L116.389 70.7298ZM115.458 67.9579L115.158 65.9806L111.456 66.5405L111.756 68.5178L112.057 70.4951L115.759 69.9352L115.458 67.9579ZM111.756 68.5178L109.902 67.7683L108.649 70.8705L110.504 71.62L112.359 72.3694L113.611 69.2673L111.756 68.5178ZM110.504 71.62L110.204 69.6426L104.058 70.5722L104.358 72.5495L104.658 74.5269L110.805 73.5973L110.504 71.62ZM112.609 64.3838L112.91 66.3611L115.235 66.0094L114.935 64.032L114.634 62.0547L112.309 62.4065L112.609 64.3838ZM114.935 64.032L116.823 63.3746L115.834 60.5386L113.946 61.1961L112.057 61.8535L113.046 64.6895L114.935 64.032ZM113.946 61.1961L112.101 60.422L110.764 63.6097L112.609 64.3838L114.454 65.1578L115.79 61.9701L113.946 61.1961ZM126.425 68.775L125.988 70.7263L125.997 70.7283L126.425 68.775ZM123.468 67.2076L122.017 68.583C122.027 68.5929 122.036 68.6028 122.046 68.6125L123.468 67.2076ZM121.96 62.0714L119.963 61.9512C119.963 61.9598 119.962 61.9684 119.962 61.9769L121.96 62.0714ZM124.744 55.6306L123.364 54.1823L123.364 54.1823L124.744 55.6306ZM134.108 52.3938L134.015 54.3914L134.023 54.3918L134.108 52.3938ZM136.29 52.6949L138.287 52.8148C138.344 51.846 137.698 50.9753 136.753 50.7498L136.29 52.6949ZM135.983 57.863L135.358 59.7623C135.947 59.9565 136.594 59.8662 137.107 59.5177C137.62 59.1693 137.943 58.6023 137.979 57.9829L135.983 57.863ZM128.861 58.6004L130.167 60.1159L130.176 60.108L128.861 58.6004ZM127.821 61.1849L129.812 61.3743C129.814 61.3549 129.816 61.3355 129.817 61.3161L127.821 61.1849ZM127.809 61.745L129.806 61.6261L129.806 61.6261L127.809 61.745ZM128.858 63.698L128.107 65.5509C128.129 65.5601 128.152 65.5688 128.175 65.5771L128.858 63.698ZM135.796 62.0662L137.793 62.1861C137.837 61.4441 137.465 60.7386 136.829 60.3543C136.192 59.9701 135.395 59.9704 134.759 60.3553L135.796 62.0662ZM135.489 67.2343L136.388 69.0211C137.025 68.7009 137.443 68.0658 137.485 67.3542L135.489 67.2343ZM133.229 68.1828L132.583 66.2897C132.571 66.2939 132.559 66.2981 132.547 66.3025L133.229 68.1828ZM130.608 68.822L130.307 66.8447C128.921 67.0543 127.782 67.0256 126.853 66.8217L126.425 68.775L125.997 70.7283C127.513 71.0609 129.162 71.0635 130.908 70.7994L130.608 68.822ZM126.425 68.775L126.862 66.8237C125.977 66.6253 125.351 66.2684 124.891 65.8027L123.468 67.2076L122.046 68.6125C123.115 69.6953 124.46 70.3834 125.988 70.7263L126.425 68.775ZM123.468 67.2076L124.919 65.8321C124.502 65.3919 124.171 64.7501 124.023 63.774L122.045 64.0731L120.068 64.3722C120.314 65.9904 120.932 67.4383 122.017 68.583L123.468 67.2076ZM122.045 64.0731L124.023 63.774C123.955 63.3267 123.928 62.7938 123.958 62.1659L121.96 62.0714L119.962 61.9769C119.922 62.8157 119.953 63.6174 120.068 64.3722L122.045 64.0731ZM121.96 62.0714L123.956 62.1916C124.091 59.9399 124.847 58.2954 126.124 57.079L124.744 55.6306L123.364 54.1823C121.248 56.1976 120.148 58.8469 119.963 61.9512L121.96 62.0714ZM124.744 55.6306L126.124 57.079C127.463 55.8037 129.319 54.9224 131.837 54.5416L131.536 52.5643L131.236 50.587C128.09 51.0629 125.418 52.2258 123.364 54.1823L124.744 55.6306ZM131.536 52.5643L131.837 54.5416C132.73 54.4066 133.449 54.3647 134.015 54.3914L134.108 52.3938L134.201 50.3963C133.3 50.3536 132.305 50.4253 131.236 50.587L131.536 52.5643ZM134.108 52.3938L134.023 54.3918C134.649 54.4188 135.25 54.5022 135.826 54.64L136.29 52.6949L136.753 50.7498C135.92 50.5507 135.065 50.4335 134.193 50.3959L134.108 52.3938ZM136.29 52.6949L134.293 52.575L133.986 57.7431L135.983 57.863L137.979 57.9829L138.287 52.8148L136.29 52.6949ZM135.983 57.863L136.607 55.9637C134.889 55.3975 133.113 55.2548 131.307 55.528L131.607 57.5053L131.908 59.4826C133.107 59.3012 134.248 59.3969 135.358 59.7623L135.983 57.863ZM131.607 57.5053L131.307 55.528C129.891 55.7421 128.564 56.2051 127.546 57.0928L128.861 58.6004L130.176 60.108C130.415 59.8992 130.919 59.6321 131.908 59.4826L131.607 57.5053ZM128.861 58.6004L127.555 57.0848C126.375 58.1012 125.921 59.5775 125.825 61.0537L127.821 61.1849L129.817 61.3161C129.876 60.4062 130.116 60.1595 130.167 60.1159L128.861 58.6004ZM127.821 61.1849L125.83 60.9955C125.803 61.283 125.795 61.5734 125.812 61.8638L127.809 61.745L129.806 61.6261C129.802 61.5638 129.802 61.4808 129.812 61.3743L127.821 61.1849ZM127.809 61.745L125.812 61.8638C125.826 62.0944 125.849 62.3222 125.883 62.546L127.861 62.2469L129.838 61.9478C129.824 61.8552 129.813 61.7484 129.806 61.6261L127.809 61.745ZM127.861 62.2469L125.883 62.546C126.07 63.7754 126.724 64.9897 128.107 65.5509L128.858 63.698L129.61 61.8451C129.642 61.8581 129.687 61.8819 129.735 61.9204C129.783 61.9591 129.819 62.0005 129.843 62.0355C129.89 62.1027 129.862 62.102 129.838 61.9478L127.861 62.2469ZM128.858 63.698L128.175 65.5771C129.214 65.9553 130.428 65.9203 131.597 65.7435L131.296 63.7662L130.996 61.7889C130.045 61.9328 129.633 61.8523 129.541 61.8189L128.858 63.698ZM131.296 63.7662L131.597 65.7435C133.396 65.4713 135.144 64.7991 136.832 63.7771L135.796 62.0662L134.759 60.3553C133.454 61.1454 132.202 61.6065 130.996 61.7889L131.296 63.7662ZM135.796 62.0662L133.799 61.9463L133.492 67.1143L135.489 67.2343L137.485 67.3542L137.793 62.1861L135.796 62.0662ZM135.489 67.2343L134.589 65.4475C133.933 65.7772 133.265 66.0577 132.583 66.2897L133.229 68.1828L133.875 70.0758C134.733 69.7838 135.57 69.432 136.388 69.0211L135.489 67.2343ZM133.229 68.1828L132.547 66.3025C131.927 66.5271 131.185 66.712 130.307 66.8447L130.608 68.822L130.908 70.7994C131.992 70.6354 132.998 70.3941 133.912 70.063L133.229 68.1828ZM136.674 67.6618L134.677 67.5458C134.643 68.1477 134.882 68.7332 135.327 69.1395C135.773 69.5457 136.378 69.7292 136.975 69.6391L136.674 67.6618ZM137.58 51.893L137.28 49.9157C136.345 50.057 135.637 50.8334 135.583 51.777L137.58 51.893ZM143.323 51.0244L145.32 51.1402C145.354 50.5383 145.115 49.9528 144.669 49.5467C144.224 49.1405 143.618 48.9569 143.022 49.0471L143.323 51.0244ZM143.07 55.4318L141.073 55.316C141.022 56.2007 141.56 57.0137 142.394 57.3136C143.228 57.6135 144.16 57.3288 144.684 56.614L143.07 55.4318ZM146.669 50.5183L146.368 48.541C145.842 48.6206 145.369 48.9068 145.055 49.3361L146.669 50.5183ZM153.147 49.5385L154.738 50.7517C155.232 50.1039 155.283 49.2209 154.868 48.5197C154.452 47.8185 153.652 47.4393 152.847 47.5612L153.147 49.5385ZM147.56 56.8644L145.969 55.6512C145.468 56.3088 145.423 57.2076 145.857 57.9122L147.56 56.8644ZM152.716 65.2355L153.016 67.2128C153.68 67.1125 154.248 66.6861 154.531 66.0775C154.813 65.4689 154.771 64.7592 154.419 64.1877L152.716 65.2355ZM146.641 66.1543L144.899 67.1355C145.307 67.8594 146.12 68.2559 146.941 68.1316L146.641 66.1543ZM143.816 61.1444L145.559 60.1632C145.228 59.5774 144.626 59.1965 143.955 59.1495C143.284 59.1024 142.635 59.3956 142.227 59.9296L143.816 61.1444ZM142.642 62.6813L141.052 61.4666C140.809 61.7854 140.667 62.1701 140.645 62.5708L142.642 62.6813ZM142.417 66.7932L142.717 68.7705C143.654 68.6288 144.362 67.8495 144.414 66.9037L142.417 66.7932ZM136.674 67.6618L138.671 67.7777L139.577 52.0089L137.58 51.893L135.583 51.777L134.677 67.5458L136.674 67.6618ZM137.58 51.893L137.88 53.8703L143.623 53.0017L143.323 51.0244L143.022 49.0471L137.28 49.9157L137.58 51.893ZM143.323 51.0244L141.326 50.9086L141.073 55.316L143.07 55.4318L145.067 55.5476L145.32 51.1402L143.323 51.0244ZM143.07 55.4318L144.684 56.614L148.283 51.7005L146.669 50.5183L145.055 49.3361L141.456 54.2496L143.07 55.4318ZM146.669 50.5183L146.969 52.4956L153.447 51.5158L153.147 49.5385L152.847 47.5612L146.368 48.541L146.669 50.5183ZM153.147 49.5385L151.556 48.3253L145.969 55.6512L147.56 56.8644L149.151 58.0776L154.738 50.7517L153.147 49.5385ZM147.56 56.8644L145.857 57.9122L151.013 66.2833L152.716 65.2355L154.419 64.1877L149.263 55.8166L147.56 56.8644ZM152.716 65.2355L152.415 63.2582L146.34 64.177L146.641 66.1543L146.941 68.1316L153.016 67.2128L152.716 65.2355ZM146.641 66.1543L148.383 65.1732L145.559 60.1632L143.816 61.1444L142.074 62.1255L144.899 67.1355L146.641 66.1543ZM143.816 61.1444L142.227 59.9296L141.052 61.4666L142.642 62.6813L144.231 63.896L145.406 62.3591L143.816 61.1444ZM142.642 62.6813L140.645 62.5708L140.42 66.6827L142.417 66.7932L144.414 66.9037L144.639 62.7918L142.642 62.6813ZM142.417 66.7932L142.116 64.8159L136.374 65.6845L136.674 67.6618L136.975 69.6391L142.717 68.7705L142.417 66.7932Z" fill="#58BC44" mask="url(#path-24-outside-2_433_970)"/>
</g>
<defs>
<clipPath id="clip0_433_970">
<rect width="200" height="110" fill="white"/>
</clipPath>
</defs>
</svg>
