<svg width="200" height="113" viewBox="0 0 200 113" fill="none" xmlns="http://www.w3.org/2000/svg">
<g clip-path="url(#clip0_433_922)">
<path d="M200 18.8691L199.974 87.4009L147.32 95.9339L147.346 27.4021L200 18.8691Z" fill="#693AE5"/>
<path d="M147.346 27.4019L147.32 95.9336L105.307 85.1968L105.334 16.665L147.346 27.4019Z" fill="#957ADF"/>
<path d="M200 18.8691L199.974 86.5378L147.32 95.0708L147.346 27.4021L200 18.8691Z" fill="#7F4FE9"/>
<path d="M147.346 27.4019L147.32 95.0706L105.307 84.3337L105.334 16.665L147.346 27.4019Z" fill="#784CE2"/>
<path d="M200 18.8697L147.346 27.4026L105.334 16.6658L157.988 8.13281L200 18.8697Z" fill="#916AFB"/>
<path d="M167.122 3.30806C167.115 3.32259 167.109 3.33713 167.101 3.35166C167.046 3.44782 166.967 3.54338 166.867 3.63811C166.854 3.6507 166.841 3.66329 166.827 3.67579C166.721 3.77094 166.59 3.86498 166.438 3.95776C166.42 3.969 166.402 3.98032 166.383 3.99147C166.224 4.08468 166.041 4.17636 165.837 4.26643C165.813 4.27665 165.792 4.28705 165.768 4.29727C165.559 4.38642 165.326 4.47345 165.072 4.55862C165.038 4.57003 165.006 4.58161 164.971 4.59293C164.719 4.67523 164.442 4.75499 164.148 4.83273C164.086 4.84921 164.022 4.86552 163.958 4.88174C163.641 4.96193 163.308 5.04026 162.945 5.11453C162.944 5.1147 162.944 5.11495 162.943 5.11512C162.542 5.19725 162.113 5.2755 161.658 5.34935C161.316 5.40478 160.961 5.45497 160.603 5.50322C160.402 5.53026 160.196 5.55476 159.991 5.57952C159.786 5.60436 159.58 5.62938 159.37 5.65202C158.903 5.7023 158.429 5.74801 157.945 5.78722C157.908 5.79026 157.872 5.79431 157.834 5.79727C157.368 5.8342 156.894 5.8658 156.416 5.89258C155.976 5.91726 155.531 5.93788 155.084 5.95401C155.054 5.95511 155.024 5.9557 154.994 5.95672C154.094 5.98798 153.184 6.00226 152.277 5.99931C152.241 5.99922 152.205 5.99888 152.169 5.99871C151.744 5.99669 151.321 5.99094 150.9 5.98156C150.845 5.98038 150.791 5.97894 150.737 5.97767C150.328 5.9677 149.92 5.9541 149.516 5.9372C149.454 5.93458 149.391 5.93179 149.329 5.929C148.926 5.91101 148.526 5.88971 148.13 5.86479C148.071 5.86107 148.012 5.85684 147.952 5.85296C147.55 5.82651 147.152 5.7971 146.761 5.76356C146.72 5.76001 146.679 5.75604 146.638 5.7524C146.249 5.71818 145.865 5.68066 145.49 5.63943C145.465 5.63673 145.439 5.63436 145.415 5.63157C145.046 5.59051 144.688 5.54522 144.335 5.49747C144.255 5.48674 144.176 5.47601 144.097 5.46486C143.741 5.41467 143.393 5.36186 143.056 5.30482C143.012 5.2973 142.971 5.28893 142.928 5.28125C142.638 5.23097 142.358 5.17782 142.085 5.12247C141.915 5.08783 141.753 5.0504 141.589 5.01373C141.373 4.96531 141.153 4.91816 140.95 4.86619C138.784 4.31273 137.733 3.65196 137.733 2.99609L137.727 19.9133C137.727 20.569 138.778 21.2299 140.943 21.7834C141.025 21.8042 141.108 21.8249 141.192 21.8452C141.315 21.8752 141.452 21.9015 141.58 21.9302C141.745 21.9672 141.907 22.0047 142.079 22.0396C142.122 22.0484 142.161 22.0585 142.205 22.0673C142.44 22.1137 142.684 22.1572 142.93 22.1999C142.97 22.2069 143.007 22.2147 143.048 22.2216C143.056 22.2229 143.063 22.2244 143.071 22.2258C143.331 22.2697 143.597 22.3116 143.869 22.3514C143.94 22.362 144.015 22.3712 144.088 22.3815C144.169 22.3929 144.25 22.4039 144.332 22.4149C144.432 22.4285 144.53 22.4431 144.632 22.4561C144.875 22.4873 145.123 22.517 145.374 22.545C145.385 22.5463 145.397 22.5473 145.408 22.5486C145.433 22.5513 145.458 22.5536 145.483 22.5564C145.687 22.5787 145.891 22.6007 146.099 22.621C146.275 22.6381 146.454 22.6538 146.632 22.6695C146.673 22.673 146.713 22.677 146.754 22.6806C146.779 22.6827 146.803 22.6851 146.827 22.6872C147.069 22.7076 147.312 22.7266 147.558 22.7444C147.686 22.7536 147.816 22.7615 147.946 22.77C148.005 22.7739 148.064 22.7781 148.123 22.7818C148.178 22.7852 148.232 22.7893 148.286 22.7926C148.527 22.8071 148.769 22.8204 149.012 22.8324C149.116 22.8375 149.22 22.8415 149.324 22.8462C149.385 22.8489 149.445 22.8516 149.506 22.8542C149.583 22.8574 149.658 22.8613 149.735 22.8643C149.965 22.8731 150.196 22.8809 150.428 22.8876C150.53 22.8905 150.633 22.8925 150.736 22.895C150.787 22.8962 150.837 22.8975 150.888 22.8986C150.96 22.9003 151.031 22.9024 151.102 22.9038C151.319 22.9079 151.535 22.9112 151.752 22.9134C151.889 22.9149 152.026 22.9153 152.162 22.9159C152.198 22.9161 152.234 22.9164 152.27 22.9165C152.307 22.9166 152.344 22.9171 152.381 22.9171C152.587 22.9175 152.794 22.917 153 22.9155C153.215 22.9141 153.429 22.9117 153.643 22.9083C153.644 22.9083 153.646 22.9083 153.647 22.9083C153.868 22.9048 154.09 22.9003 154.31 22.8948C154.539 22.889 154.768 22.8816 154.996 22.8736C155.022 22.8727 155.048 22.8722 155.074 22.8713C155.089 22.8708 155.104 22.8704 155.118 22.8699C155.539 22.8545 155.956 22.8353 156.371 22.8124C156.383 22.8117 156.395 22.8106 156.407 22.8099C156.887 22.7831 157.362 22.7514 157.83 22.7143C157.834 22.7139 157.839 22.7138 157.843 22.7133C157.872 22.7111 157.898 22.7078 157.926 22.7056C158.414 22.666 158.893 22.62 159.364 22.5692C159.419 22.5633 159.477 22.5593 159.532 22.5533C159.686 22.5362 159.833 22.5152 159.985 22.4968C160.19 22.4719 160.396 22.4475 160.596 22.4205C160.657 22.4123 160.721 22.4057 160.782 22.3973C161.077 22.3563 161.367 22.3127 161.651 22.2666C161.752 22.2503 161.851 22.2338 161.949 22.2171C162.293 22.1583 162.621 22.0969 162.932 22.0332C162.933 22.0331 162.934 22.0328 162.935 22.0326C162.938 22.0319 162.941 22.0311 162.945 22.0303C163.213 21.9753 163.47 21.9186 163.713 21.8603C163.797 21.8402 163.872 21.8191 163.952 21.7987C164.016 21.7826 164.079 21.7664 164.141 21.75C164.208 21.7323 164.281 21.7153 164.345 21.6974C164.53 21.6463 164.706 21.5942 164.873 21.5411C164.905 21.531 164.933 21.5203 164.964 21.5101C164.999 21.4987 165.032 21.487 165.066 21.4755C165.15 21.4473 165.237 21.4196 165.316 21.391C165.45 21.3421 165.578 21.2927 165.698 21.2426C165.721 21.2331 165.74 21.2235 165.762 21.2139C165.785 21.204 165.807 21.1938 165.83 21.1838C165.898 21.1538 165.968 21.124 166.031 21.0938C166.134 21.0444 166.229 20.9947 166.319 20.9444C166.34 20.9324 166.357 20.9202 166.377 20.9083C166.396 20.8972 166.413 20.8862 166.431 20.875C166.476 20.8476 166.524 20.8203 166.565 20.7926C166.642 20.7412 166.711 20.6893 166.774 20.6372C166.792 20.6224 166.805 20.6074 166.821 20.5926C166.835 20.5801 166.848 20.5677 166.861 20.5551C166.888 20.5293 166.919 20.5037 166.943 20.4778C166.994 20.4222 167.038 20.3663 167.074 20.3103C167.082 20.2965 167.086 20.2825 167.094 20.2687C167.103 20.254 167.108 20.2395 167.116 20.2248C167.131 20.1944 167.15 20.164 167.161 20.1335C167.182 20.0708 167.195 20.008 167.197 19.945C167.197 19.937 167.198 19.929 167.198 19.921L167.204 3.00387C167.204 3.10552 167.172 3.20717 167.122 3.30806Z" fill="#764DF3"/>
<path d="M163.986 1.13295C169.062 2.43024 168.019 4.31843 161.658 5.34938C155.302 6.37941 146.026 6.16343 140.95 4.86622C135.874 3.56893 136.921 1.68202 143.277 0.651994C149.639 -0.37896 158.91 -0.164337 163.986 1.13295Z" fill="#A081FF"/>
<path d="M147.346 27.4023L147.32 95.9341L94.666 104.467L94.6925 35.9353L147.346 27.4023Z" fill="#693AE5"/>
<path d="M94.6926 35.9351L94.6662 104.467L52.6538 93.73L52.6802 25.1982L94.6926 35.9351Z" fill="#957ADF"/>
<path d="M147.346 27.4023L147.32 95.071L94.666 103.604L94.6925 35.9353L147.346 27.4023Z" fill="#7F4FE9"/>
<path d="M94.6926 35.9351L94.6662 103.604L52.6538 92.8669L52.6802 25.1982L94.6926 35.9351Z" fill="#784CE2"/>
<path d="M147.353 27.4019L94.6992 35.9349L52.6868 25.198L105.34 16.665L147.353 27.4019Z" fill="#916AFB"/>
<path d="M114.468 11.8413C114.461 11.8558 114.455 11.8703 114.447 11.8849C114.392 11.981 114.314 12.0766 114.214 12.1713C114.2 12.1839 114.188 12.1965 114.174 12.209C114.067 12.3041 113.937 12.3982 113.784 12.491C113.766 12.5022 113.748 12.5135 113.729 12.5247C113.571 12.6179 113.387 12.7096 113.183 12.7996C113.16 12.8099 113.138 12.8203 113.114 12.8305C112.905 12.9196 112.672 13.0067 112.419 13.0918C112.385 13.1032 112.352 13.1148 112.317 13.1261C112.065 13.2084 111.788 13.2882 111.494 13.3659C111.432 13.3824 111.368 13.3987 111.304 13.4149C110.987 13.4951 110.654 13.5735 110.292 13.6477C110.291 13.6479 110.29 13.6482 110.289 13.6483C109.888 13.7305 109.46 13.8087 109.004 13.8826C108.662 13.938 108.307 13.9882 107.949 14.0364C107.748 14.0635 107.543 14.088 107.337 14.1127C107.132 14.1376 106.926 14.1626 106.716 14.1852C106.25 14.2355 105.775 14.2812 105.291 14.3204C105.254 14.3235 105.218 14.3275 105.18 14.3305C104.714 14.3674 104.24 14.399 103.763 14.4258C103.322 14.4505 102.877 14.4711 102.43 14.4872C102.4 14.4883 102.37 14.4889 102.34 14.4899C101.44 14.5212 100.53 14.5355 99.623 14.5325C99.5868 14.5324 99.5508 14.5321 99.5148 14.5319C99.0907 14.5299 98.6674 14.5241 98.2459 14.5148C98.1916 14.5136 98.1373 14.5121 98.083 14.5109C97.6737 14.5009 97.2665 14.4873 96.8623 14.4704C96.7998 14.4678 96.7374 14.465 96.6751 14.4622C96.2719 14.4442 95.8719 14.4229 95.4765 14.398C95.4169 14.3943 95.358 14.39 95.2986 14.3862C94.8964 14.3597 94.4982 14.3303 94.107 14.2968C94.0658 14.2932 94.0254 14.2892 93.9844 14.2856C93.595 14.2514 93.2114 14.2139 92.8358 14.1726C92.811 14.1699 92.7855 14.1676 92.7608 14.1648C92.3923 14.1237 92.0337 14.0784 91.681 14.0307C91.6015 14.0199 91.522 14.0092 91.4433 13.9981C91.0876 13.9479 90.7388 13.8951 90.4026 13.838C90.3585 13.8305 90.3175 13.8221 90.2738 13.8144C89.9846 13.7642 89.7042 13.711 89.4316 13.6557C89.2608 13.621 89.0993 13.5836 88.9355 13.5469C88.7195 13.4985 88.4991 13.4514 88.296 13.3994C86.1304 12.8459 85.0793 12.1852 85.0796 11.5293L85.073 28.4465C85.0727 29.1022 86.1237 29.7631 88.2894 30.3166C88.3713 30.3374 88.4541 30.3581 88.5381 30.3784C88.6616 30.4084 88.798 30.4347 88.9261 30.4634C89.0908 30.5004 89.2531 30.5379 89.4249 30.5728C89.4685 30.5816 89.5075 30.5917 89.5515 30.6005C89.7858 30.647 90.0298 30.6904 90.276 30.7331C90.3161 30.7401 90.3537 30.7479 90.3942 30.7548C90.4022 30.7561 90.4094 30.7576 90.4173 30.759C90.6772 30.8029 90.9432 30.8448 91.2149 30.8846C91.2867 30.8952 91.3616 30.9044 91.4341 30.9147C91.5148 30.9261 91.5961 30.9371 91.6778 30.9481C91.7782 30.9617 91.8763 30.9763 91.978 30.9893C92.2216 31.0205 92.469 31.0502 92.7198 31.0782C92.731 31.0795 92.7428 31.0805 92.7541 31.0818C92.7789 31.0845 92.8043 31.0868 92.8291 31.0896C93.0328 31.1119 93.2376 31.1339 93.4456 31.1542C93.6212 31.1713 93.7998 31.187 93.9782 31.2027C94.0191 31.2062 94.0591 31.2102 94.1001 31.2138C94.1248 31.2159 94.1489 31.2183 94.1736 31.2204C94.4149 31.2408 94.6585 31.2598 94.9041 31.2776C95.0324 31.2869 95.1627 31.2947 95.292 31.3032C95.3513 31.3071 95.4101 31.3113 95.4696 31.315C95.5242 31.3185 95.5778 31.3225 95.6325 31.3258C95.873 31.3403 96.115 31.3536 96.3585 31.3656C96.4619 31.3707 96.5665 31.3747 96.6705 31.3794C96.7312 31.3821 96.7916 31.3848 96.8524 31.3874C96.9288 31.3906 97.0047 31.3945 97.0814 31.3975C97.3113 31.4063 97.5421 31.4141 97.7738 31.4208C97.8763 31.4237 97.9795 31.4257 98.0822 31.4282C98.133 31.4294 98.1836 31.4307 98.2344 31.4318C98.3059 31.4335 98.3771 31.4356 98.4486 31.437C98.6649 31.4411 98.8816 31.4444 99.0987 31.4466C99.2351 31.4481 99.3719 31.4485 99.5085 31.4491C99.5445 31.4493 99.5804 31.4496 99.6163 31.4497C99.6533 31.4498 99.6902 31.4503 99.7271 31.4504C99.9335 31.4507 100.14 31.4502 100.346 31.4487C100.561 31.4473 100.775 31.4449 100.989 31.4415C100.991 31.4415 100.992 31.4415 100.993 31.4415C101.215 31.438 101.436 31.4335 101.656 31.428C101.886 31.4222 102.114 31.4148 102.342 31.4068C102.368 31.4059 102.394 31.4054 102.42 31.4045C102.435 31.404 102.45 31.4036 102.464 31.4031C102.885 31.3877 103.303 31.3685 103.717 31.3456C103.729 31.3449 103.741 31.3438 103.753 31.3431C104.233 31.3163 104.708 31.2846 105.176 31.2475C105.18 31.2471 105.185 31.247 105.19 31.2465C105.218 31.2443 105.244 31.2411 105.272 31.2388C105.76 31.1992 106.239 31.1532 106.71 31.1024C106.765 31.0965 106.823 31.0925 106.878 31.0865C107.032 31.0694 107.179 31.0484 107.331 31.03C107.536 31.0051 107.742 30.9807 107.943 30.9537C108.003 30.9455 108.068 30.9389 108.128 30.9305C108.423 30.8895 108.713 30.8459 108.997 30.7998C109.098 30.7835 109.197 30.767 109.295 30.7503C109.639 30.6915 109.967 30.6301 110.278 30.5664C110.279 30.5663 110.28 30.566 110.281 30.5658C110.285 30.5651 110.288 30.5643 110.291 30.5636C110.559 30.5085 110.816 30.4518 111.059 30.3935C111.143 30.3734 111.218 30.3523 111.298 30.3319C111.362 30.3158 111.425 30.2996 111.488 30.2832C111.554 30.2655 111.627 30.2485 111.691 30.2306C111.876 30.1795 112.052 30.1274 112.219 30.0743C112.251 30.0642 112.279 30.0535 112.31 30.0433C112.346 30.0319 112.378 30.0202 112.413 30.0087C112.496 29.9805 112.583 29.9528 112.662 29.9242C112.796 29.8753 112.924 29.8259 113.044 29.7758C113.067 29.7663 113.086 29.7567 113.108 29.7471C113.132 29.7372 113.153 29.727 113.176 29.717C113.244 29.687 113.314 29.6572 113.377 29.627C113.48 29.5776 113.576 29.5279 113.665 29.4776C113.686 29.4656 113.703 29.4534 113.723 29.4415C113.742 29.4304 113.759 29.4194 113.778 29.4082C113.823 29.3808 113.871 29.3535 113.912 29.3258C113.988 29.2744 114.057 29.2225 114.12 29.1704C114.138 29.1556 114.151 29.1406 114.167 29.1258C114.181 29.1133 114.194 29.1009 114.207 29.0883C114.234 29.0625 114.265 29.0369 114.289 29.011C114.34 28.9554 114.384 28.8995 114.42 28.8435C114.429 28.8297 114.432 28.8157 114.44 28.8019C114.449 28.7872 114.455 28.7727 114.462 28.758C114.477 28.7276 114.496 28.6973 114.507 28.6667C114.529 28.6041 114.541 28.5412 114.543 28.4782C114.544 28.4702 114.544 28.4622 114.544 28.4542L114.55 11.5371C114.55 11.6387 114.518 11.7404 114.468 11.8413Z" fill="#764DF3"/>
<path d="M111.332 9.66616C116.408 10.9634 115.366 12.8516 109.004 13.8826C102.648 14.9126 93.3722 14.6966 88.296 13.3994C83.22 12.1021 84.2673 10.2152 90.6232 9.1852C96.985 8.15424 106.256 8.36887 111.332 9.66616Z" fill="#A081FF"/>
<path d="M94.6925 35.9355L94.6661 104.467L42.0125 113L42.0388 44.4685L94.6925 35.9355Z" fill="#693AE5"/>
<path d="M42.0388 44.4683L42.0125 113L0 102.263L0.0264387 33.7314L42.0388 44.4683Z" fill="#6B52BF"/>
<path d="M94.6925 35.9355L94.6661 103.604L42.0125 112.137L42.0388 44.4685L94.6925 35.9355Z" fill="#7F4FE9"/>
<path d="M42.0388 44.4683L42.0125 112.137L0 101.4L0.0264387 33.7314L42.0388 44.4683Z" fill="#7153C7"/>
<path d="M94.6925 35.9351L42.0388 44.4681L0.0263672 33.7312L52.6801 25.1982L94.6925 35.9351Z" fill="#916AFB"/>
<path d="M61.8213 20.3745C61.814 20.389 61.808 20.4035 61.7998 20.4181C61.745 20.5142 61.6667 20.6098 61.5666 20.7045C61.5534 20.7171 61.5407 20.7297 61.5266 20.7422C61.4199 20.8373 61.2895 20.9314 61.1374 21.0242C61.1189 21.0354 61.1015 21.0467 61.0825 21.0579C60.9236 21.1511 60.7405 21.2428 60.5359 21.3328C60.5127 21.3431 60.4908 21.3535 60.467 21.3637C60.2584 21.4528 60.0249 21.5399 59.7716 21.625C59.7376 21.6364 59.7051 21.648 59.6704 21.6593C59.418 21.7416 59.1415 21.8214 58.8473 21.8991C58.785 21.9156 58.7213 21.9319 58.657 21.9481C58.34 22.0283 58.0071 22.1067 57.6447 22.1809C57.6437 22.1811 57.6428 22.1814 57.6418 22.1815C57.241 22.2637 56.8127 22.3419 56.357 22.4158C56.0148 22.4712 55.6604 22.5214 55.3023 22.5696C55.1015 22.5967 54.8957 22.6212 54.6905 22.6459C54.4848 22.6708 54.2791 22.6958 54.0693 22.7184C53.6026 22.7687 53.128 22.8144 52.6443 22.8536C52.6069 22.8567 52.5709 22.8607 52.5334 22.8637C52.067 22.9006 51.5935 22.9322 51.1156 22.959C50.6749 22.9837 50.2302 23.0043 49.783 23.0204C49.7533 23.0215 49.7233 23.0221 49.6935 23.0231C48.7931 23.0544 47.8834 23.0687 46.976 23.0657C46.9399 23.0656 46.9038 23.0653 46.8678 23.0651C46.4437 23.0631 46.0204 23.0573 45.5989 23.048C45.5446 23.0468 45.4904 23.0453 45.4361 23.0441C45.0268 23.0341 44.6195 23.0205 44.2153 23.0036C44.1529 23.001 44.0905 22.9982 44.0282 22.9954C43.6249 22.9774 43.2249 22.9561 42.8295 22.9312C42.77 22.9275 42.711 22.9232 42.6517 22.9194C42.2494 22.8929 41.8513 22.8635 41.4601 22.83C41.4188 22.8264 41.3785 22.8224 41.3374 22.8188C40.948 22.7846 40.5644 22.7471 40.1888 22.7058C40.1641 22.7031 40.1386 22.7008 40.1138 22.698C39.7453 22.6569 39.3867 22.6116 39.034 22.5639C38.9545 22.5531 38.8751 22.5424 38.7963 22.5313C38.4407 22.4811 38.0918 22.4283 37.7556 22.3712C37.7115 22.3637 37.6705 22.3553 37.6268 22.3477C37.3376 22.2974 37.0572 22.2442 36.7846 22.1889C36.6139 22.1542 36.4523 22.1168 36.2885 22.0801C36.0725 22.0317 35.8521 21.9846 35.649 21.9326C33.4834 21.3791 32.4323 20.7184 32.4326 20.0625L32.426 36.9797C32.4258 37.6355 33.4768 38.2963 35.6425 38.8498C35.7243 38.8706 35.8071 38.8913 35.8911 38.9116C36.0146 38.9416 36.151 38.9679 36.2791 38.9966C36.4439 39.0336 36.6061 39.0711 36.778 39.106C36.8215 39.1148 36.8605 39.1249 36.9045 39.1337C37.1389 39.1802 37.3828 39.2236 37.629 39.2663C37.6691 39.2733 37.7067 39.2811 37.7472 39.288C37.7552 39.2893 37.7624 39.2908 37.7704 39.2922C38.0303 39.3361 38.2963 39.378 38.5679 39.4178C38.6397 39.4284 38.7147 39.4376 38.7871 39.4479C38.8678 39.4593 38.9491 39.4703 39.0308 39.4813C39.1313 39.4949 39.2293 39.5095 39.3311 39.5225C39.5747 39.5537 39.822 39.5834 40.0728 39.6114C40.0841 39.6127 40.0958 39.6137 40.1071 39.615C40.1319 39.6177 40.1573 39.62 40.1822 39.6228C40.3858 39.6451 40.5906 39.6671 40.7986 39.6874C40.9742 39.7045 41.1528 39.7202 41.3312 39.7359C41.3721 39.7394 41.4122 39.7434 41.4532 39.747C41.4778 39.7491 41.5019 39.7515 41.5266 39.7536C41.7679 39.774 42.0115 39.793 42.2571 39.8108C42.3854 39.8201 42.5157 39.8279 42.645 39.8364C42.7043 39.8403 42.7631 39.8445 42.8227 39.8482C42.8772 39.8517 42.9308 39.8557 42.9855 39.859C43.226 39.8735 43.4681 39.8868 43.7115 39.8988C43.815 39.9039 43.9195 39.9079 44.0235 39.9126C44.0842 39.9153 44.1446 39.918 44.2054 39.9206C44.2819 39.9238 44.3577 39.9277 44.4344 39.9307C44.6643 39.9395 44.8952 39.9473 45.1268 39.954C45.2294 39.9569 45.3325 39.9589 45.4352 39.9614C45.486 39.9626 45.5366 39.9639 45.5875 39.965C45.6589 39.9667 45.7301 39.9689 45.8017 39.9702C46.0179 39.9743 46.2346 39.9776 46.4517 39.9798C46.5882 39.9813 46.7249 39.9817 46.8616 39.9823C46.8975 39.9825 46.9334 39.9828 46.9693 39.9829C47.0063 39.983 47.0432 39.9835 47.0801 39.9836C47.2865 39.9839 47.493 39.9834 47.6994 39.9819C47.9139 39.9805 48.1282 39.9781 48.3424 39.9747C48.3437 39.9747 48.3448 39.9747 48.346 39.9747C48.5675 39.9712 48.7887 39.9667 49.0095 39.9612C49.2387 39.9554 49.4671 39.948 49.6952 39.94C49.7212 39.9391 49.7472 39.9386 49.7731 39.9377C49.7878 39.9372 49.8027 39.9368 49.8175 39.9363C50.2377 39.9209 50.6557 39.9017 51.0701 39.8788C51.0824 39.8781 51.0942 39.877 51.1065 39.8763C51.586 39.8495 52.0609 39.8178 52.5291 39.7807C52.5335 39.7803 52.5382 39.7802 52.5427 39.7797C52.5707 39.7776 52.5971 39.7743 52.625 39.772C53.1133 39.7324 53.592 39.6864 54.063 39.6356C54.1179 39.6297 54.1761 39.6257 54.2307 39.6197C54.385 39.6026 54.5319 39.5816 54.6838 39.5632C54.8893 39.5383 55.0948 39.5139 55.2957 39.4869C55.3565 39.4787 55.4206 39.4721 55.4809 39.4637C55.7761 39.4227 56.0662 39.3791 56.3505 39.333C56.451 39.3167 56.5502 39.3002 56.648 39.2835C56.9923 39.2247 57.3202 39.1633 57.6315 39.0996C57.6323 39.0995 57.6332 39.0992 57.634 39.099C57.6376 39.0983 57.6406 39.0975 57.6442 39.0968C57.9125 39.0417 58.1691 38.985 58.4125 38.9267C58.496 38.9066 58.5708 38.8855 58.6514 38.8651C58.7153 38.849 58.7784 38.8328 58.8406 38.8164C58.9074 38.7987 58.9798 38.7817 59.0445 38.7638C59.2292 38.7127 59.4051 38.6606 59.5721 38.6075C59.6041 38.5974 59.6321 38.5867 59.6635 38.5765C59.6986 38.5651 59.7312 38.5534 59.7656 38.5419C59.8492 38.5137 59.936 38.486 60.0148 38.4574C60.1495 38.4085 60.2769 38.3591 60.3973 38.309C60.4199 38.2995 60.4391 38.2899 60.4613 38.2803C60.4847 38.2704 60.506 38.2602 60.5288 38.2502C60.5968 38.2202 60.6673 38.1904 60.7303 38.1602C60.8328 38.1108 60.9286 38.0611 61.0177 38.0108C61.0389 37.9988 61.056 37.9866 61.0765 37.9747C61.0954 37.9636 61.1125 37.9526 61.1306 37.9414C61.1757 37.914 61.2236 37.8867 61.2647 37.859C61.3411 37.8076 61.4105 37.7557 61.4732 37.7036C61.4909 37.6888 61.5038 37.6738 61.5204 37.659C61.5345 37.6465 61.5469 37.6341 61.5601 37.6215C61.5873 37.5957 61.6182 37.5701 61.6422 37.5442C61.6934 37.4886 61.7371 37.4327 61.7728 37.3767C61.7817 37.3629 61.7855 37.3489 61.7934 37.3351C61.8017 37.3204 61.8077 37.3059 61.815 37.2912C61.8301 37.2608 61.8494 37.2305 61.8599 37.2C61.8817 37.1373 61.8938 37.0744 61.8964 37.0114C61.8967 37.0034 61.8968 36.9954 61.8968 36.9874L61.9034 20.0703C61.9034 20.1719 61.8715 20.2736 61.8213 20.3745Z" fill="#764DF3"/>
<path d="M58.6786 18.1994C63.7547 19.4967 62.712 21.3848 56.3502 22.4158C49.9943 23.4458 40.7184 23.2298 35.6422 21.9326C30.5662 20.6353 31.6135 18.7484 37.9694 17.7184C44.3312 16.6874 53.6025 16.9021 58.6786 18.1994Z" fill="#A081FF"/>
<mask id="path-22-outside-1_433_922" maskUnits="userSpaceOnUse" x="61.2987" y="44.0446" width="119.403" height="42.3151" fill="black">
<rect fill="white" x="61.2987" y="44.0446" width="119.403" height="42.3151"/>
<path d="M76.3434 79.8243C74.7774 80.0625 73.3836 80.048 72.1619 79.7807C70.9561 79.5109 69.9711 78.9891 69.207 78.2152C68.4563 77.4231 67.9829 76.3784 67.787 75.0812C67.6962 74.48 67.6682 73.8126 67.703 73.079C67.8647 70.4002 68.7943 68.252 70.4917 66.6343C72.1892 65.0167 74.4536 63.9925 77.285 63.5617C78.2657 63.4126 79.1228 63.355 79.8561 63.3891C80.6052 63.4208 81.3323 63.5206 82.0373 63.6885L81.7259 68.8581C80.3126 68.3934 78.8546 68.2753 77.3519 68.5039C76.1497 68.6868 75.2341 69.0526 74.605 69.6015C73.9894 70.1321 73.6422 70.9941 73.5636 72.1875C73.5448 72.3846 73.5407 72.5713 73.5511 72.7478C73.5616 72.9242 73.5788 73.0915 73.6027 73.2497C73.715 73.9933 74.0469 74.4769 74.5985 74.7004C75.1635 74.9058 75.9759 74.9279 77.0357 74.7667C78.5385 74.5381 80.0384 73.97 81.5357 73.0625L81.2243 78.2322C80.4875 78.6032 79.7343 78.9201 78.9649 79.1828C78.1979 79.4613 77.3241 79.6751 76.3434 79.8243ZM90.0615 77.7375C88.7011 77.9445 87.4794 77.9442 86.3963 77.7367C85.3289 77.5269 84.4508 77.0697 83.7619 76.3653C83.0864 75.6427 82.6495 74.6248 82.4511 73.3117C82.3436 72.5998 82.3166 71.7785 82.3702 70.8479C82.4899 68.8552 82.8909 67.2243 83.573 65.9553C84.2685 64.6681 85.2424 63.6703 86.4947 62.9619C87.7445 62.2377 89.2632 61.7396 91.0506 61.4677C92.4426 61.256 93.6722 61.2551 94.7396 61.4649C95.8045 61.659 96.6735 62.1094 97.3466 62.8162C98.0197 63.523 98.4543 64.5251 98.6502 65.8224C98.7602 66.5501 98.7907 67.3951 98.7419 68.3574C98.6198 70.3343 98.2188 71.9651 97.5391 73.2499C96.8594 74.5348 95.8946 75.5393 94.6447 76.2635C93.4083 76.9695 91.8806 77.4608 90.0615 77.7375ZM90.3706 72.7139C91.209 72.5864 91.8162 72.2674 92.1922 71.7571C92.5816 71.2285 92.8113 70.3924 92.8813 69.2489C92.8992 68.9387 92.906 68.6625 92.9018 68.4204C92.911 68.1601 92.9001 67.9271 92.869 67.7214C92.7854 67.1677 92.5845 66.8017 92.2663 66.6236C91.9457 66.4296 91.4374 66.3855 90.7414 66.4914C89.9031 66.6189 89.2892 66.947 88.8998 67.4755C88.5238 67.9859 88.3008 68.8128 88.2308 69.9563C88.2129 70.2666 88.2073 70.5506 88.2139 70.8086C88.2181 71.0507 88.2357 71.2746 88.2668 71.4803C88.3481 72.0182 88.549 72.3841 88.8695 72.5781C89.1901 72.7721 89.6905 72.8174 90.3706 72.7139ZM99.4862 76.0611L100.405 60.2876L105.221 59.5549L109.138 65.0767L109.492 58.9052L115.234 58.0317L114.316 73.8052L109.475 74.5415L105.582 69.0162L105.228 75.1876L99.4862 76.0611ZM119.068 73.0823L119.732 61.5715L115.841 62.1635L116.095 57.9008L129.62 55.8434L129.365 60.1061L125.474 60.6981L124.81 72.2089L119.068 73.0823ZM127.025 71.8719L133.828 55.2033L139.783 54.2974L144.749 69.1758L139.054 70.042L138.126 67.2701L134.425 67.8332L133.17 70.9371L127.025 71.8719ZM135.281 63.6974L137.606 63.3437L136.619 60.5078L135.281 63.6974ZM153.271 68.1222C151.705 68.3604 150.311 68.3458 149.089 68.0785C147.884 67.8088 146.899 67.287 146.135 66.5131C145.384 65.721 144.91 64.6763 144.715 63.379C144.624 62.7778 144.596 62.1105 144.631 61.3769C144.792 58.6981 145.722 56.5499 147.419 54.9322C149.117 53.3145 151.381 52.2903 154.213 51.8596C155.193 51.7104 156.05 51.6529 156.784 51.687C157.533 51.7187 158.26 51.8185 158.965 51.9864L158.653 57.156C157.24 56.6912 155.782 56.5732 154.279 56.8018C153.077 56.9846 152.162 57.3505 151.533 57.8993C150.917 58.43 150.57 59.292 150.491 60.4854C150.472 60.6824 150.468 60.8692 150.479 61.0456C150.489 61.222 150.506 61.3894 150.53 61.5476C150.643 62.2911 150.974 62.7747 151.526 62.9983C152.091 63.2037 152.903 63.2257 153.963 63.0645C155.466 62.8359 156.966 62.2679 158.463 61.3604L158.152 66.53C157.415 66.9011 156.662 67.2179 155.892 67.4806C155.125 67.7591 154.252 67.973 153.271 68.1222ZM162.398 66.4911L163.062 54.9803L159.171 55.5722L159.425 51.3095L172.949 49.2522L172.695 53.5149L168.804 54.1068L168.14 65.6176L162.398 66.4911Z"/>
</mask>
<path d="M76.3434 79.8243C74.7774 80.0625 73.3836 80.048 72.1619 79.7807C70.9561 79.5109 69.9711 78.9891 69.207 78.2152C68.4563 77.4231 67.9829 76.3784 67.787 75.0812C67.6962 74.48 67.6682 73.8126 67.703 73.079C67.8647 70.4002 68.7943 68.252 70.4917 66.6343C72.1892 65.0167 74.4536 63.9925 77.285 63.5617C78.2657 63.4126 79.1228 63.355 79.8561 63.3891C80.6052 63.4208 81.3323 63.5206 82.0373 63.6885L81.7259 68.8581C80.3126 68.3934 78.8546 68.2753 77.3519 68.5039C76.1497 68.6868 75.2341 69.0526 74.605 69.6015C73.9894 70.1321 73.6422 70.9941 73.5636 72.1875C73.5448 72.3846 73.5407 72.5713 73.5511 72.7478C73.5616 72.9242 73.5788 73.0915 73.6027 73.2497C73.715 73.9933 74.0469 74.4769 74.5985 74.7004C75.1635 74.9058 75.9759 74.9279 77.0357 74.7667C78.5385 74.5381 80.0384 73.97 81.5357 73.0625L81.2243 78.2322C80.4875 78.6032 79.7343 78.9201 78.9649 79.1828C78.1979 79.4613 77.3241 79.6751 76.3434 79.8243ZM90.0615 77.7375C88.7011 77.9445 87.4794 77.9442 86.3963 77.7367C85.3289 77.5269 84.4508 77.0697 83.7619 76.3653C83.0864 75.6427 82.6495 74.6248 82.4511 73.3117C82.3436 72.5998 82.3166 71.7785 82.3702 70.8479C82.4899 68.8552 82.8909 67.2243 83.573 65.9553C84.2685 64.6681 85.2424 63.6703 86.4947 62.9619C87.7445 62.2377 89.2632 61.7396 91.0506 61.4677C92.4426 61.256 93.6722 61.2551 94.7396 61.4649C95.8045 61.659 96.6735 62.1094 97.3466 62.8162C98.0197 63.523 98.4543 64.5251 98.6502 65.8224C98.7602 66.5501 98.7907 67.3951 98.7419 68.3574C98.6198 70.3343 98.2188 71.9651 97.5391 73.2499C96.8594 74.5348 95.8946 75.5393 94.6447 76.2635C93.4083 76.9695 91.8806 77.4608 90.0615 77.7375ZM90.3706 72.7139C91.209 72.5864 91.8162 72.2674 92.1922 71.7571C92.5816 71.2285 92.8113 70.3924 92.8813 69.2489C92.8992 68.9387 92.906 68.6625 92.9018 68.4204C92.911 68.1601 92.9001 67.9271 92.869 67.7214C92.7854 67.1677 92.5845 66.8017 92.2663 66.6236C91.9457 66.4296 91.4374 66.3855 90.7414 66.4914C89.9031 66.6189 89.2892 66.947 88.8998 67.4755C88.5238 67.9859 88.3008 68.8128 88.2308 69.9563C88.2129 70.2666 88.2073 70.5506 88.2139 70.8086C88.2181 71.0507 88.2357 71.2746 88.2668 71.4803C88.3481 72.0182 88.549 72.3841 88.8695 72.5781C89.1901 72.7721 89.6905 72.8174 90.3706 72.7139ZM99.4862 76.0611L100.405 60.2876L105.221 59.5549L109.138 65.0767L109.492 58.9052L115.234 58.0317L114.316 73.8052L109.475 74.5415L105.582 69.0162L105.228 75.1876L99.4862 76.0611ZM119.068 73.0823L119.732 61.5715L115.841 62.1635L116.095 57.9008L129.62 55.8434L129.365 60.1061L125.474 60.6981L124.81 72.2089L119.068 73.0823ZM127.025 71.8719L133.828 55.2033L139.783 54.2974L144.749 69.1758L139.054 70.042L138.126 67.2701L134.425 67.8332L133.17 70.9371L127.025 71.8719ZM135.281 63.6974L137.606 63.3437L136.619 60.5078L135.281 63.6974ZM153.271 68.1222C151.705 68.3604 150.311 68.3458 149.089 68.0785C147.884 67.8088 146.899 67.287 146.135 66.5131C145.384 65.721 144.91 64.6763 144.715 63.379C144.624 62.7778 144.596 62.1105 144.631 61.3769C144.792 58.6981 145.722 56.5499 147.419 54.9322C149.117 53.3145 151.381 52.2903 154.213 51.8596C155.193 51.7104 156.05 51.6529 156.784 51.687C157.533 51.7187 158.26 51.8185 158.965 51.9864L158.653 57.156C157.24 56.6912 155.782 56.5732 154.279 56.8018C153.077 56.9846 152.162 57.3505 151.533 57.8993C150.917 58.43 150.57 59.292 150.491 60.4854C150.472 60.6824 150.468 60.8692 150.479 61.0456C150.489 61.222 150.506 61.3894 150.53 61.5476C150.643 62.2911 150.974 62.7747 151.526 62.9983C152.091 63.2037 152.903 63.2257 153.963 63.0645C155.466 62.8359 156.966 62.2679 158.463 61.3604L158.152 66.53C157.415 66.9011 156.662 67.2179 155.892 67.4806C155.125 67.7591 154.252 67.973 153.271 68.1222ZM162.398 66.4911L163.062 54.9803L159.171 55.5722L159.425 51.3095L172.949 49.2522L172.695 53.5149L168.804 54.1068L168.14 65.6176L162.398 66.4911Z" fill="#F0F0F0"/>
<path d="M72.1619 79.7807L71.2854 83.6849C71.2915 83.6862 71.2975 83.6876 71.3035 83.6889L72.1619 79.7807ZM69.207 78.2152L66.3033 80.9692C66.3221 80.989 66.3411 81.0086 66.3602 81.028L69.207 78.2152ZM67.703 73.079L63.7109 72.8418C63.7099 72.859 63.7089 72.8761 63.7081 72.8932L67.703 73.079ZM70.4917 66.6343L67.7346 63.7391L67.7346 63.7391L70.4917 66.6343ZM79.8561 63.3891L79.6664 67.3854C79.6719 67.3857 79.6775 67.3859 79.6831 67.3862L79.8561 63.3891ZM82.0373 63.6885L86.0294 63.9251C86.1461 61.987 84.8549 60.2462 82.9672 59.7966L82.0373 63.6885ZM81.7259 68.8581L80.4734 72.6588C81.652 73.0463 82.9441 72.8645 83.971 72.1666C84.998 71.4688 85.6434 70.3339 85.718 69.0948L81.7259 68.8581ZM74.605 69.6015L77.2139 72.6312C77.22 72.6259 77.2261 72.6206 77.2321 72.6153L74.605 69.6015ZM73.5636 72.1875L77.5449 72.5632C77.5486 72.5244 77.5517 72.4856 77.5543 72.4467L73.5636 72.1875ZM73.5511 72.7478L77.5435 72.5068L77.5435 72.5067L73.5511 72.7478ZM74.5985 74.7004L73.0933 78.4084C73.1383 78.4267 73.1837 78.4441 73.2294 78.4607L74.5985 74.7004ZM81.5357 73.0625L85.5278 73.2992C85.6172 71.8147 84.8762 70.404 83.6038 69.6363C82.3314 68.8686 80.7376 68.8706 79.4657 69.6416L81.5357 73.0625ZM81.2243 78.2322L83.0197 81.8052C84.2937 81.1637 85.1307 79.8925 85.2164 78.4688L81.2243 78.2322ZM78.9649 79.1828L77.6764 75.3967C77.6521 75.4051 77.6278 75.4136 77.6036 75.4224L78.9649 79.1828ZM76.3434 79.8243L75.7459 75.8692C74.5406 76.0525 73.6553 76.0114 73.0203 75.8724L72.1619 79.7807L71.3035 83.6889C73.1118 84.0846 75.0141 84.0725 76.9408 83.7794L76.3434 79.8243ZM72.1619 79.7807L73.0384 75.8764C72.476 75.7506 72.2089 75.5595 72.0538 75.4024L69.207 78.2152L66.3602 81.028C67.7334 82.4187 69.4362 83.2712 71.2854 83.6849L72.1619 79.7807ZM69.207 78.2152L72.1107 75.4613C72.0273 75.3733 71.8404 75.1347 71.7415 74.4796L67.787 75.0812L63.8325 75.6827C64.1254 77.6222 64.8852 79.4729 66.3033 80.9692L69.207 78.2152ZM67.787 75.0812L71.7415 74.4796C71.6971 74.1859 71.6731 73.7874 71.6979 73.2648L67.703 73.079L63.7081 72.8932C63.6633 73.8378 63.6952 74.774 63.8325 75.6827L67.787 75.0812ZM67.703 73.079L71.6951 73.3162C71.8053 71.4903 72.3907 70.3474 73.2489 69.5295L70.4917 66.6343L67.7346 63.7391C65.1979 66.1566 63.9241 69.3102 63.7109 72.8418L67.703 73.079ZM70.4917 66.6343L73.2489 69.5295C74.2308 68.5938 75.6796 67.852 77.8824 67.5169L77.285 63.5617L76.6876 59.6066C73.2276 60.133 70.1475 61.4395 67.7346 63.7391L70.4917 66.6343ZM77.285 63.5617L77.8824 67.5169C78.6869 67.3945 79.2693 67.367 79.6664 67.3854L79.8561 63.3891L80.0458 59.3928C78.9762 59.3431 77.8446 59.4306 76.6876 59.6066L77.285 63.5617ZM79.8561 63.3891L79.6831 67.3862C80.1859 67.4074 80.6591 67.4737 81.1073 67.5804L82.0373 63.6885L82.9672 59.7966C82.0055 59.5676 81.0246 59.4342 80.0291 59.3921L79.8561 63.3891ZM82.0373 63.6885L78.0451 63.4519L77.7337 68.6215L81.7259 68.8581L85.718 69.0948L86.0294 63.9251L82.0373 63.6885ZM81.7259 68.8581L82.9783 65.0575C80.9562 64.3925 78.8639 64.2279 76.7545 64.5488L77.3519 68.5039L77.9493 72.459C78.8454 72.3227 79.669 72.3942 80.4734 72.6588L81.7259 68.8581ZM77.3519 68.5039L76.7545 64.5488C75.125 64.7966 73.386 65.3591 71.9779 66.5876L74.605 69.6015L77.2321 72.6153C77.1513 72.6859 77.131 72.6756 77.2439 72.6304C77.3607 72.5838 77.5835 72.5147 77.9493 72.459L77.3519 68.5039ZM74.605 69.6015L71.9962 66.5718C70.2507 68.0762 69.6888 70.1684 69.5729 71.9283L73.5636 72.1875L77.5543 72.4467C77.5733 72.158 77.6153 72.0809 77.5924 72.1376C77.579 72.1709 77.5463 72.2424 77.4823 72.3349C77.4171 72.4292 77.3283 72.5326 77.2139 72.6312L74.605 69.6015ZM73.5636 72.1875L69.5823 71.8118C69.5462 72.19 69.5348 72.5841 69.5588 72.9888L73.5511 72.7478L77.5435 72.5067C77.5466 72.5585 77.5434 72.5792 77.5449 72.5632L73.5636 72.1875ZM73.5511 72.7478L69.5588 72.9888C69.5757 73.2736 69.6045 73.5619 69.6482 73.8513L73.6027 73.2497L77.5572 72.6482C77.5531 72.6211 77.5475 72.5748 77.5435 72.5068L73.5511 72.7478ZM73.6027 73.2497L69.6482 73.8513C69.9073 75.5669 70.8807 77.5115 73.0933 78.4084L74.5985 74.7004L76.1038 70.9925C76.5424 71.1703 76.9493 71.4892 77.2336 71.9033C77.4918 72.2795 77.5476 72.5849 77.5572 72.6482L73.6027 73.2497ZM74.5985 74.7004L73.2294 78.4607C74.741 79.0101 76.3555 78.9162 77.6332 78.7218L77.0357 74.7667L76.4383 70.8115C76.0739 70.867 75.8517 70.8748 75.7442 70.8719C75.6942 70.8705 75.6903 70.8673 75.7239 70.8729C75.7571 70.8784 75.8438 70.8952 75.9677 70.9402L74.5985 74.7004ZM77.0357 74.7667L77.6332 78.7218C79.7299 78.4028 81.7251 77.6233 83.6057 76.4835L81.5357 73.0625L79.4657 69.6416C78.3517 70.3167 77.347 70.6733 76.4383 70.8115L77.0357 74.7667ZM81.5357 73.0625L77.5436 72.8259L77.2322 77.9955L81.2243 78.2322L85.2164 78.4688L85.5278 73.2992L81.5357 73.0625ZM81.2243 78.2322L79.4289 74.6591C78.8536 74.9488 78.2697 75.1942 77.6764 75.3967L78.9649 79.1828L80.2535 82.9688C81.199 82.6459 82.1214 82.2576 83.0197 81.8052L81.2243 78.2322ZM78.9649 79.1828L77.6036 75.4224C77.1305 75.5942 76.5199 75.7514 75.7459 75.8692L76.3434 79.8243L76.9408 83.7794C78.1283 83.5988 79.2654 83.3283 80.3263 82.9431L78.9649 79.1828ZM86.3963 77.7367L85.6211 81.6622C85.6275 81.6635 85.6339 81.6648 85.6403 81.666L86.3963 77.7367ZM83.7619 76.3653L80.8394 79.0993C80.8599 79.1213 80.8807 79.143 80.9017 79.1645L83.7619 76.3653ZM82.3702 70.8479L78.378 70.6118L78.3775 70.6217L82.3702 70.8479ZM83.573 65.9553L80.0551 64.0558L80.0509 64.0635L83.573 65.9553ZM86.4947 62.9619L88.4607 66.4438C88.4728 66.437 88.4847 66.4301 88.4967 66.4232L86.4947 62.9619ZM94.7396 61.4649L93.9644 65.3905C93.9826 65.394 94.0008 65.3975 94.019 65.4008L94.7396 61.4649ZM97.3466 62.8162L94.4496 65.5772L94.4496 65.5772L97.3466 62.8162ZM98.7419 68.3574L102.734 68.6002C102.735 68.5855 102.735 68.5709 102.736 68.5562L98.7419 68.3574ZM97.5391 73.2499L94.0046 71.3814L97.5391 73.2499ZM94.6447 76.2635L96.6247 79.7375C96.6321 79.7333 96.6394 79.729 96.6468 79.7248L94.6447 76.2635ZM92.1922 71.7571L88.9735 69.3857L88.9735 69.3857L92.1922 71.7571ZM92.8813 69.2489L96.8732 69.4894C96.8735 69.4846 96.8738 69.4799 96.8741 69.4751L92.8813 69.2489ZM92.9018 68.4204L88.9049 68.2828C88.9024 68.3532 88.9018 68.4236 88.903 68.494L92.9018 68.4204ZM92.2663 66.6236L90.1936 70.0471C90.232 70.0703 90.2708 70.0929 90.31 70.1149L92.2663 66.6236ZM88.2308 69.9563L84.2389 69.7158C84.2386 69.7206 84.2383 69.7254 84.238 69.7302L88.2308 69.9563ZM88.2139 70.8086L92.2127 70.735C92.2125 70.7241 92.2122 70.7132 92.212 70.7022L88.2139 70.8086ZM90.0615 77.7375L89.4641 73.7824C88.4465 73.9372 87.6942 73.9113 87.1522 73.8075L86.3963 77.7367L85.6403 81.666C87.2646 81.9771 88.9558 81.9517 90.6589 81.6927L90.0615 77.7375ZM86.3963 77.7367L87.1714 73.8112C86.8112 73.7404 86.6877 73.6332 86.622 73.5661L83.7619 76.3653L80.9017 79.1645C82.214 80.5062 83.8467 81.3133 85.6211 81.6622L86.3963 77.7367ZM83.7619 76.3653L86.6844 73.6313C86.7202 73.6697 86.5237 73.4922 86.4056 72.7102L82.4511 73.3117L78.4966 73.9133C78.7752 75.7574 79.4526 77.6157 80.8394 79.0993L83.7619 76.3653ZM82.4511 73.3117L86.4056 72.7102C86.3495 72.3383 86.3209 71.8043 86.363 71.074L82.3702 70.8479L78.3775 70.6217C78.3123 71.7527 78.3377 72.8612 78.4966 73.9133L82.4511 73.3117ZM82.3702 70.8479L86.3624 71.0839C86.4599 69.4608 86.7725 68.4473 87.095 67.8472L83.573 65.9553L80.0509 64.0635C79.0093 66.0014 78.52 68.2496 78.378 70.6118L82.3702 70.8479ZM83.573 65.9553L87.0909 67.8549C87.4346 67.2188 87.8758 66.7747 88.4607 66.4438L86.4947 62.9619L84.5286 59.48C82.6091 60.5659 81.1025 62.1174 80.0551 64.0558L83.573 65.9553ZM86.4947 62.9619L88.4967 66.4232C89.2193 66.0045 90.2354 65.6378 91.648 65.4229L91.0506 61.4677L90.4532 57.5126C88.291 57.8415 86.2698 58.4709 84.4926 59.5006L86.4947 62.9619ZM91.0506 61.4677L91.648 65.4229C92.7112 65.2611 93.4603 65.2913 93.9644 65.3905L94.7396 61.4649L95.5148 57.5394C93.8842 57.2188 92.174 57.2508 90.4532 57.5126L91.0506 61.4677ZM94.7396 61.4649L94.019 65.4008C94.3473 65.4606 94.4225 65.5488 94.4496 65.5772L97.3466 62.8162L100.244 60.0553C98.9245 58.67 97.2617 57.8574 95.4601 57.5291L94.7396 61.4649ZM97.3466 62.8162L94.4496 65.5772C94.3921 65.5168 94.581 65.6642 94.6957 66.4239L98.6502 65.8224L102.605 65.2208C102.328 63.386 101.647 61.5293 100.244 60.0553L97.3466 62.8162ZM98.6502 65.8224L94.6957 66.4239C94.7556 66.8203 94.7868 67.3869 94.7476 68.1586L98.7419 68.3574L102.736 68.5562C102.795 67.4034 102.765 66.2799 102.605 65.2208L98.6502 65.8224ZM98.7419 68.3574L94.7501 68.1146C94.6511 69.7177 94.34 70.7476 94.0046 71.3814L97.5391 73.2499L101.074 75.1184C102.098 73.1826 102.588 70.9508 102.734 68.6002L98.7419 68.3574ZM97.5391 73.2499L94.0046 71.3814C93.674 72.0064 93.2383 72.4571 92.6427 72.8022L94.6447 76.2635L96.6468 79.7248C98.5508 78.6215 100.045 77.0631 101.074 75.1184L97.5391 73.2499ZM94.6447 76.2635L92.6647 72.7895C91.9606 73.1916 90.9323 73.5591 89.4641 73.7824L90.0615 77.7375L90.6589 81.6927C92.8289 81.3626 94.856 80.7473 96.6247 79.7375L94.6447 76.2635ZM90.3706 72.7139L90.9681 76.669C92.489 76.4377 94.2151 75.7515 95.4109 74.1284L92.1922 71.7571L88.9735 69.3857C89.1741 69.1135 89.41 68.9363 89.5982 68.8375C89.7691 68.7477 89.8528 68.7467 89.7732 68.7588L90.3706 72.7139ZM92.1922 71.7571L95.4109 74.1284C96.4859 72.6692 96.7869 70.8988 96.8732 69.4894L92.8813 69.2489L88.8894 69.0084C88.8662 69.3866 88.8228 69.5949 88.8002 69.677C88.7901 69.7136 88.7907 69.7011 88.8127 69.6527C88.8349 69.6038 88.8838 69.5075 88.9735 69.3857L92.1922 71.7571ZM92.8813 69.2489L96.8741 69.4751C96.8962 69.0914 96.9069 68.7122 96.9006 68.3469L92.9018 68.4204L88.903 68.494C88.9051 68.6129 88.9022 68.786 88.8885 69.0228L92.8813 69.2489ZM92.9018 68.4204L96.8987 68.558C96.9145 68.1093 96.8994 67.6221 96.8235 67.1198L92.869 67.7214L88.9145 68.3229C88.9072 68.2747 88.9057 68.2464 88.9055 68.2418C88.9053 68.2369 88.9061 68.2498 88.9049 68.2828L92.9018 68.4204ZM92.869 67.7214L96.8235 67.1198C96.6561 66.0116 96.0927 64.1795 94.2225 63.1322L92.2663 66.6236L90.31 70.1149C89.0762 69.4239 88.9146 68.3237 88.9145 68.3229L92.869 67.7214ZM92.2663 66.6236L94.339 63.2C92.7668 62.2486 91.056 62.3975 90.144 62.5362L90.7414 66.4914L91.3389 70.4465C91.4826 70.4246 91.4505 70.4441 91.2954 70.4307C91.1484 70.418 90.711 70.3601 90.1936 70.0471L92.2663 66.6236ZM90.7414 66.4914L90.144 62.5362C88.5771 62.7746 86.8693 63.4914 85.6811 65.1042L88.8998 67.4755L92.1185 69.8469C91.938 70.0918 91.7208 70.2615 91.534 70.3613C91.3633 70.4525 91.2739 70.4564 91.3389 70.4465L90.7414 66.4914ZM88.8998 67.4755L85.6811 65.1042C84.6082 66.5604 84.3231 68.3401 84.2389 69.7158L88.2308 69.9563L92.2227 70.1969C92.2342 70.0095 92.2505 69.8595 92.2678 69.7427C92.2853 69.6254 92.3022 69.5526 92.3118 69.5168C92.3217 69.4804 92.3202 69.4963 92.296 69.5504C92.2717 69.6047 92.2178 69.712 92.1185 69.8469L88.8998 67.4755ZM88.2308 69.9563L84.238 69.7302C84.215 70.1296 84.2059 70.5265 84.2158 70.9149L88.2139 70.8086L92.212 70.7022C92.2087 70.5748 92.2108 70.4035 92.2236 70.1825L88.2308 69.9563ZM88.2139 70.8086L84.2151 70.8821C84.2219 71.2731 84.251 71.6757 84.3123 72.0818L88.2668 71.4803L92.2213 70.8787C92.2205 70.8734 92.2143 70.8283 92.2127 70.735L88.2139 70.8086ZM88.2668 71.4803L84.3123 72.0818C84.4884 73.2475 85.0684 74.9557 86.7969 76.0016L88.8695 72.5781L90.9422 69.1546C92.0295 69.8126 92.2077 70.7888 92.2213 70.8787L88.2668 71.4803ZM88.8695 72.5781L86.7969 76.0016C88.3564 76.9454 90.0448 76.8095 90.9681 76.669L90.3706 72.7139L89.7732 68.7588C89.6433 68.7785 89.686 68.7584 89.8494 68.7732C90.0079 68.7875 90.4374 68.8491 90.9422 69.1546L88.8695 72.5781ZM99.4862 76.0611L95.4936 75.8324C95.4235 77.0365 95.9002 78.2075 96.7909 79.0194C97.6817 79.8313 98.8915 80.1976 100.084 80.0162L99.4862 76.0611ZM100.405 60.2876L99.8073 56.3324C97.9382 56.6168 96.522 58.1711 96.4121 60.0589L100.405 60.2876ZM105.221 59.5549L108.484 57.2377C107.61 56.0061 106.117 55.3726 104.624 55.5997L105.221 59.5549ZM109.138 65.0767L105.875 67.3938C106.858 68.7792 108.609 69.3915 110.242 68.9207C111.875 68.4499 113.033 66.9988 113.131 65.302L109.138 65.0767ZM109.492 58.9052L108.895 54.9501C107.024 55.2346 105.608 56.7907 105.499 58.6798L109.492 58.9052ZM115.234 58.0317L119.227 58.2604C119.297 57.0563 118.82 55.8853 117.929 55.0734C117.039 54.2615 115.829 53.8952 114.637 54.0766L115.234 58.0317ZM114.316 73.8052L114.913 77.7604C116.782 77.4761 118.198 75.9217 118.308 74.0339L114.316 73.8052ZM109.475 74.5415L106.205 76.8484C107.078 78.0864 108.575 78.7245 110.073 78.4967L109.475 74.5415ZM105.582 69.0162L108.852 66.7093C107.873 65.3189 106.12 64.7015 104.484 65.1704C102.849 65.6392 101.687 67.0917 101.59 68.7908L105.582 69.0162ZM105.228 75.1876L105.826 79.1428C107.696 78.8582 109.113 77.3021 109.221 75.413L105.228 75.1876ZM99.4862 76.0611L103.479 76.2897L104.397 60.5162L100.405 60.2876L96.4121 60.0589L95.4936 75.8324L99.4862 76.0611ZM100.405 60.2876L101.002 64.2427L105.819 63.51L105.221 59.5549L104.624 55.5997L99.8073 56.3324L100.405 60.2876ZM105.221 59.5549L101.959 61.8721L105.875 67.3938L109.138 65.0767L112.4 62.7595L108.484 57.2377L105.221 59.5549ZM109.138 65.0767L113.131 65.302L113.485 59.1305L109.492 58.9052L105.499 58.6798L105.145 64.8513L109.138 65.0767ZM109.492 58.9052L110.09 62.8603L115.832 61.9869L115.234 58.0317L114.637 54.0766L108.895 54.9501L109.492 58.9052ZM115.234 58.0317L111.241 57.8031L110.323 73.5766L114.316 73.8052L118.308 74.0339L119.227 58.2604L115.234 58.0317ZM114.316 73.8052L113.718 69.8501L108.878 70.5864L109.475 74.5415L110.073 78.4967L114.913 77.7604L114.316 73.8052ZM109.475 74.5415L112.745 72.2347L108.852 66.7093L105.582 69.0162L102.313 71.323L106.205 76.8484L109.475 74.5415ZM105.582 69.0162L101.59 68.7908L101.235 74.9623L105.228 75.1876L109.221 75.413L109.575 69.2415L105.582 69.0162ZM105.228 75.1876L104.631 71.2325L98.8888 72.1059L99.4862 76.0611L100.084 80.0162L105.826 79.1428L105.228 75.1876ZM119.068 73.0823L115.075 72.8558C115.006 74.0595 115.483 75.2299 116.373 76.0414C117.264 76.8528 118.474 77.2188 119.665 77.0375L119.068 73.0823ZM119.732 61.5715L123.725 61.7981C123.794 60.5943 123.317 59.424 122.427 58.6125C121.536 57.8011 120.327 57.4351 119.135 57.6164L119.732 61.5715ZM115.841 62.1635L111.849 61.9292C111.777 63.1342 112.253 64.3067 113.144 65.1199C114.034 65.9331 115.245 66.3001 116.438 66.1186L115.841 62.1635ZM116.095 57.9008L115.498 53.9456C113.631 54.2296 112.215 55.781 112.103 57.6665L116.095 57.9008ZM129.62 55.8434L133.612 56.0777C133.684 54.8727 133.208 53.7002 132.317 52.887C131.426 52.0738 130.215 51.7068 129.022 51.8883L129.62 55.8434ZM129.365 60.1061L129.963 64.0613C131.83 63.7773 133.245 62.2259 133.358 60.3404L129.365 60.1061ZM125.474 60.6981L124.877 56.7429C123.007 57.0274 121.59 58.5829 121.481 60.4715L125.474 60.6981ZM124.81 72.2089L125.407 76.164C127.277 75.8796 128.694 74.3241 128.803 72.4355L124.81 72.2089ZM119.068 73.0823L123.061 73.3089L123.725 61.7981L119.732 61.5715L115.739 61.345L115.075 72.8558L119.068 73.0823ZM119.732 61.5715L119.135 57.6164L115.244 58.2083L115.841 62.1635L116.438 66.1186L120.33 65.5267L119.732 61.5715ZM115.841 62.1635L119.833 62.3977L120.087 58.135L116.095 57.9008L112.103 57.6665L111.849 61.9292L115.841 62.1635ZM116.095 57.9008L116.693 61.8559L130.217 59.7986L129.62 55.8434L129.022 51.8883L115.498 53.9456L116.095 57.9008ZM129.62 55.8434L125.627 55.6092L125.373 59.8719L129.365 60.1061L133.358 60.3404L133.612 56.0777L129.62 55.8434ZM129.365 60.1061L128.768 56.151L124.877 56.7429L125.474 60.6981L126.072 64.6532L129.963 64.0613L129.365 60.1061ZM125.474 60.6981L121.481 60.4715L120.817 71.9823L124.81 72.2089L128.803 72.4355L129.467 60.9246L125.474 60.6981ZM124.81 72.2089L124.212 68.2537L118.47 69.1272L119.068 73.0823L119.665 77.0375L125.407 76.164L124.81 72.2089ZM127.025 71.8719L123.322 70.363C122.778 71.6961 122.992 73.218 123.881 74.3484C124.771 75.4788 126.199 76.0435 127.622 75.8271L127.025 71.8719ZM133.828 55.2033L133.23 51.2482C131.837 51.4601 130.658 52.3893 130.125 53.6944L133.828 55.2033ZM139.783 54.2974L143.577 53.027C142.961 51.1827 141.108 50.0498 139.186 50.3422L139.783 54.2974ZM144.749 69.1758L145.346 73.1309C146.514 72.9533 147.543 72.269 148.16 71.2613C148.776 70.2535 148.916 69.0252 148.543 67.9054L144.749 69.1758ZM139.054 70.042L135.262 71.3163C135.879 73.1585 137.731 74.2894 139.652 73.9971L139.054 70.042ZM138.126 67.2701L141.918 65.9958C141.301 64.1536 139.45 63.0227 137.529 63.315L138.126 67.2701ZM134.425 67.8332L133.827 63.878C132.429 64.0907 131.247 65.0255 130.717 66.3369L134.425 67.8332ZM133.17 70.9371L133.768 74.8923C135.165 74.6796 136.348 73.7448 136.878 72.4334L133.17 70.9371ZM135.281 63.6974L131.593 62.1519C131.033 63.4861 131.237 65.0179 132.125 66.1583C133.013 67.2987 134.448 67.87 135.878 67.6525L135.281 63.6974ZM137.606 63.3437L138.203 67.2988C139.379 67.1199 140.415 66.4268 141.03 65.4075C141.644 64.3883 141.774 63.1487 141.383 62.0254L137.606 63.3437ZM136.619 60.5078L140.396 59.1895C139.852 57.6253 138.4 56.5594 136.745 56.509C135.089 56.4587 133.573 57.4342 132.932 58.9624L136.619 60.5078ZM127.025 71.8719L130.727 73.3808L137.53 56.7122L133.828 55.2033L130.125 53.6944L123.322 70.363L127.025 71.8719ZM133.828 55.2033L134.425 59.1584L140.38 58.2525L139.783 54.2974L139.186 50.3422L133.23 51.2482L133.828 55.2033ZM139.783 54.2974L135.989 55.5677L140.955 70.4461L144.749 69.1758L148.543 67.9054L143.577 53.027L139.783 54.2974ZM144.749 69.1758L144.151 65.2206L138.457 66.0869L139.054 70.042L139.652 73.9971L145.346 73.1309L144.749 69.1758ZM139.054 70.042L142.847 68.7677L141.918 65.9958L138.126 67.2701L134.334 68.5444L135.262 71.3163L139.054 70.042ZM138.126 67.2701L137.529 63.315L133.827 63.878L134.425 67.8332L135.022 71.7883L138.723 71.2252L138.126 67.2701ZM134.425 67.8332L130.717 66.3369L129.462 69.4408L133.17 70.9371L136.878 72.4334L138.132 69.3294L134.425 67.8332ZM133.17 70.9371L132.573 66.982L126.427 67.9168L127.025 71.8719L127.622 75.8271L133.768 74.8923L133.17 70.9371ZM135.281 63.6974L135.878 67.6525L138.203 67.2988L137.606 63.3437L137.008 59.3886L134.683 59.7423L135.281 63.6974ZM137.606 63.3437L141.383 62.0254L140.396 59.1895L136.619 60.5078L132.842 61.8261L133.828 64.662L137.606 63.3437ZM136.619 60.5078L132.932 58.9624L131.593 62.1519L135.281 63.6974L138.968 65.2429L140.307 62.0533L136.619 60.5078ZM149.089 68.0785L148.213 71.9828C148.219 71.9841 148.225 71.9854 148.231 71.9868L149.089 68.0785ZM146.135 66.5131L143.231 69.2671C143.25 69.2869 143.269 69.3065 143.288 69.3259L146.135 66.5131ZM144.631 61.3769L140.638 61.1397C140.637 61.1568 140.636 61.1739 140.636 61.1911L144.631 61.3769ZM147.419 54.9322L144.662 52.037L144.662 52.037L147.419 54.9322ZM156.784 51.687L156.594 55.6833C156.599 55.6835 156.605 55.6838 156.611 55.684L156.784 51.687ZM158.965 51.9864L162.957 52.223C163.074 50.2849 161.782 48.544 159.895 48.0945L158.965 51.9864ZM158.653 57.156L157.401 60.9566C158.579 61.3442 159.872 61.1624 160.899 60.4645C161.926 59.7666 162.571 58.6318 162.646 57.3926L158.653 57.156ZM151.533 57.8993L154.141 60.929C154.147 60.9238 154.154 60.9185 154.16 60.9132L151.533 57.8993ZM150.491 60.4854L154.472 60.861C154.476 60.8222 154.479 60.7834 154.482 60.7445L150.491 60.4854ZM150.479 61.0456L154.471 60.8046L154.471 60.8046L150.479 61.0456ZM151.526 62.9983L150.021 66.7063C150.066 66.7245 150.111 66.742 150.157 66.7586L151.526 62.9983ZM158.463 61.3604L162.455 61.597C162.545 60.1126 161.804 58.7018 160.531 57.9341C159.259 57.1664 157.665 57.1685 156.393 57.9394L158.463 61.3604ZM158.152 66.53L159.947 70.1031C161.221 69.4615 162.058 68.1904 162.144 66.7667L158.152 66.53ZM155.892 67.4806L154.604 63.6946C154.58 63.7029 154.555 63.7115 154.531 63.7203L155.892 67.4806ZM153.271 68.1222L152.673 64.167C151.468 64.3504 150.583 64.3092 149.948 64.1703L149.089 68.0785L148.231 71.9868C150.039 72.3825 151.942 72.3704 153.868 72.0773L153.271 68.1222ZM149.089 68.0785L149.966 64.1743C149.404 64.0485 149.136 63.8574 148.981 63.7003L146.135 66.5131L143.288 69.3259C144.661 70.7166 146.364 71.5691 148.213 71.9828L149.089 68.0785ZM146.135 66.5131L149.038 63.7591C148.955 63.6712 148.768 63.4326 148.669 62.7775L144.715 63.379L140.76 63.9806C141.053 65.92 141.813 67.7708 143.231 69.2671L146.135 66.5131ZM144.715 63.379L148.669 62.7775C148.625 62.4838 148.601 62.0853 148.625 61.5627L144.631 61.3769L140.636 61.1911C140.591 62.1356 140.623 63.0719 140.76 63.9806L144.715 63.379ZM144.631 61.3769L148.623 61.6141C148.733 59.7881 149.318 58.6453 150.176 57.8274L147.419 54.9322L144.662 52.037C142.125 54.4544 140.852 57.608 140.638 61.1397L144.631 61.3769ZM147.419 54.9322L150.176 57.8274C151.158 56.8916 152.607 56.1498 154.81 55.8147L154.213 51.8596L153.615 47.9045C150.155 48.4308 147.075 49.7374 144.662 52.037L147.419 54.9322ZM154.213 51.8596L154.81 55.8147C155.614 55.6924 156.197 55.6648 156.594 55.6833L156.784 51.687L156.973 47.6907C155.904 47.6409 154.772 47.7285 153.615 47.9045L154.213 51.8596ZM156.784 51.687L156.611 55.684C157.113 55.7053 157.587 55.7715 158.035 55.8783L158.965 51.9864L159.895 48.0945C158.933 47.8654 157.952 47.7321 156.957 47.6899L156.784 51.687ZM158.965 51.9864L154.973 51.7497L154.661 56.9194L158.653 57.156L162.646 57.3926L162.957 52.223L158.965 51.9864ZM158.653 57.156L159.906 53.3553C157.884 52.6904 155.791 52.5257 153.682 52.8466L154.279 56.8018L154.877 60.7569C155.773 60.6206 156.597 60.6921 157.401 60.9566L158.653 57.156ZM154.279 56.8018L153.682 52.8466C152.053 53.0945 150.314 53.657 148.905 54.8855L151.533 57.8993L154.16 60.9132C154.079 60.9837 154.058 60.9734 154.171 60.9283C154.288 60.8816 154.511 60.8125 154.877 60.7569L154.279 56.8018ZM151.533 57.8993L148.924 54.8697C147.178 56.3741 146.616 58.4663 146.5 60.2262L150.491 60.4854L154.482 60.7445C154.501 60.4558 154.543 60.3787 154.52 60.4355C154.507 60.4688 154.474 60.5402 154.41 60.6328C154.345 60.727 154.256 60.8304 154.141 60.929L151.533 57.8993ZM150.491 60.4854L146.51 60.1097C146.474 60.4878 146.462 60.882 146.486 61.2866L150.479 61.0456L154.471 60.8046C154.474 60.8564 154.471 60.8771 154.472 60.861L150.491 60.4854ZM150.479 61.0456L146.486 61.2866C146.503 61.5714 146.532 61.8598 146.576 62.1491L150.53 61.5476L154.485 60.946C154.481 60.919 154.475 60.8727 154.471 60.8046L150.479 61.0456ZM150.53 61.5476L146.576 62.1491C146.835 63.8648 147.808 65.8094 150.021 66.7063L151.526 62.9983L153.031 59.2903C153.47 59.4682 153.877 59.7871 154.161 60.2011C154.419 60.5774 154.475 60.8828 154.485 60.946L150.53 61.5476ZM151.526 62.9983L150.157 66.7586C151.669 67.308 153.283 67.214 154.561 67.0197L153.963 63.0645L153.366 59.1094C153.001 59.1648 152.779 59.1727 152.672 59.1697C152.622 59.1684 152.618 59.1652 152.651 59.1707C152.685 59.1762 152.771 59.193 152.895 59.2381L151.526 62.9983ZM153.963 63.0645L154.561 67.0197C156.657 66.7007 158.653 65.9212 160.533 64.7814L158.463 61.3604L156.393 57.9394C155.279 58.6146 154.275 58.9712 153.366 59.1094L153.963 63.0645ZM158.463 61.3604L154.471 61.1238L154.16 66.2934L158.152 66.53L162.144 66.7667L162.455 61.597L158.463 61.3604ZM158.152 66.53L156.356 62.957C155.781 63.2467 155.197 63.4921 154.604 63.6946L155.892 67.4806L157.181 71.2666C158.127 70.9438 159.049 70.5554 159.947 70.1031L158.152 66.53ZM155.892 67.4806L154.531 63.7203C154.058 63.8921 153.447 64.0493 152.673 64.167L153.271 68.1222L153.868 72.0773C155.056 71.8967 156.193 71.6262 157.254 71.241L155.892 67.4806ZM162.398 66.4911L158.405 66.2645C158.335 67.4683 158.812 68.6386 159.703 69.4501C160.594 70.2615 161.803 70.6275 162.995 70.4462L162.398 66.4911ZM163.062 54.9803L167.055 55.2068C167.124 54.0031 166.647 52.8327 165.756 52.0212C164.866 51.2098 163.656 50.8438 162.464 51.0251L163.062 54.9803ZM159.171 55.5722L155.178 55.338C155.106 56.5429 155.582 57.7154 156.473 58.5286C157.364 59.3418 158.575 59.7088 159.768 59.5273L159.171 55.5722ZM159.425 51.3095L158.827 47.3544C156.96 47.6384 155.545 49.1897 155.433 51.0752L159.425 51.3095ZM172.949 49.2522L176.941 49.4864C177.013 48.2814 176.538 47.1089 175.647 46.2957C174.756 45.4825 173.545 45.1155 172.352 45.297L172.949 49.2522ZM172.695 53.5149L173.292 57.47C175.159 57.186 176.575 55.6347 176.687 53.7491L172.695 53.5149ZM168.804 54.1068L168.206 50.1517C166.336 50.4361 164.92 51.9916 164.811 53.8802L168.804 54.1068ZM168.14 65.6176L168.737 69.5727C170.607 69.2883 172.023 67.7328 172.132 65.8442L168.14 65.6176ZM162.398 66.4911L166.39 66.7176L167.055 55.2068L163.062 54.9803L159.069 54.7537L158.405 66.2645L162.398 66.4911ZM163.062 54.9803L162.464 51.0251L158.573 51.6171L159.171 55.5722L159.768 59.5273L163.659 58.9354L163.062 54.9803ZM159.171 55.5722L163.163 55.8064L163.417 51.5437L159.425 51.3095L155.433 51.0752L155.178 55.338L159.171 55.5722ZM159.425 51.3095L160.022 55.2646L173.547 53.2073L172.949 49.2522L172.352 45.297L158.827 47.3544L159.425 51.3095ZM172.949 49.2522L168.957 49.0179L168.703 53.2806L172.695 53.5149L176.687 53.7491L176.941 49.4864L172.949 49.2522ZM172.695 53.5149L172.098 49.5597L168.206 50.1517L168.804 54.1068L169.401 58.0619L173.292 57.47L172.695 53.5149ZM168.804 54.1068L164.811 53.8802L164.147 65.391L168.14 65.6176L172.132 65.8442L172.797 54.3334L168.804 54.1068ZM168.14 65.6176L167.542 61.6625L161.8 62.5359L162.398 66.4911L162.995 70.4462L168.737 69.5727L168.14 65.6176Z" fill="#F0F0F0" mask="url(#path-22-outside-1_433_922)"/>
<mask id="path-24-outside-2_433_922" maskUnits="userSpaceOnUse" x="63.5747" y="46.3229" width="114.851" height="37.7584" fill="black">
<rect fill="white" x="63.5747" y="46.3229" width="114.851" height="37.7584"/>
<path d="M76.3434 79.8243C74.7774 80.0625 73.3836 80.048 72.1619 79.7807C70.9561 79.5109 69.9711 78.9891 69.207 78.2152C68.4563 77.4231 67.9829 76.3784 67.787 75.0812C67.6962 74.48 67.6682 73.8126 67.703 73.079C67.8647 70.4002 68.7943 68.252 70.4917 66.6343C72.1892 65.0167 74.4536 63.9925 77.285 63.5617C78.2657 63.4126 79.1228 63.355 79.8561 63.3891C80.6052 63.4208 81.3323 63.5206 82.0373 63.6885L81.7259 68.8581C80.3126 68.3934 78.8546 68.2753 77.3519 68.5039C76.1497 68.6868 75.2341 69.0526 74.605 69.6015C73.9894 70.1321 73.6422 70.9941 73.5636 72.1875C73.5448 72.3846 73.5407 72.5713 73.5511 72.7478C73.5616 72.9242 73.5788 73.0915 73.6027 73.2497C73.715 73.9933 74.0469 74.4769 74.5985 74.7004C75.1635 74.9058 75.9759 74.9279 77.0357 74.7667C78.5385 74.5381 80.0384 73.97 81.5357 73.0625L81.2243 78.2322C80.4875 78.6032 79.7343 78.9201 78.9649 79.1828C78.1979 79.4613 77.3241 79.6751 76.3434 79.8243ZM90.0615 77.7375C88.7011 77.9445 87.4794 77.9442 86.3963 77.7367C85.3289 77.5269 84.4508 77.0697 83.7619 76.3653C83.0864 75.6427 82.6495 74.6248 82.4511 73.3117C82.3436 72.5998 82.3166 71.7785 82.3702 70.8479C82.4899 68.8552 82.8909 67.2243 83.573 65.9553C84.2685 64.6681 85.2424 63.6703 86.4947 62.9619C87.7445 62.2377 89.2632 61.7396 91.0506 61.4677C92.4426 61.256 93.6722 61.2551 94.7396 61.4649C95.8045 61.659 96.6735 62.1094 97.3466 62.8162C98.0197 63.523 98.4543 64.5251 98.6502 65.8224C98.7602 66.5501 98.7907 67.3951 98.7419 68.3574C98.6198 70.3343 98.2188 71.9651 97.5391 73.2499C96.8594 74.5348 95.8946 75.5393 94.6447 76.2635C93.4083 76.9695 91.8806 77.4608 90.0615 77.7375ZM90.3706 72.7139C91.209 72.5864 91.8162 72.2674 92.1922 71.7571C92.5816 71.2285 92.8113 70.3924 92.8813 69.2489C92.8992 68.9387 92.906 68.6625 92.9018 68.4204C92.911 68.1601 92.9001 67.9271 92.869 67.7214C92.7854 67.1677 92.5845 66.8017 92.2663 66.6236C91.9457 66.4296 91.4374 66.3855 90.7414 66.4914C89.9031 66.6189 89.2892 66.947 88.8998 67.4755C88.5238 67.9859 88.3008 68.8128 88.2308 69.9563C88.2129 70.2666 88.2073 70.5506 88.2139 70.8086C88.2181 71.0507 88.2357 71.2746 88.2668 71.4803C88.3481 72.0182 88.549 72.3841 88.8695 72.5781C89.1901 72.7721 89.6905 72.8174 90.3706 72.7139ZM99.4862 76.0611L100.405 60.2876L105.221 59.5549L109.138 65.0767L109.492 58.9052L115.234 58.0317L114.316 73.8052L109.475 74.5415L105.582 69.0162L105.228 75.1876L99.4862 76.0611ZM119.068 73.0823L119.732 61.5715L115.841 62.1635L116.095 57.9008L129.62 55.8434L129.365 60.1061L125.474 60.6981L124.81 72.2089L119.068 73.0823ZM127.025 71.8719L133.828 55.2033L139.783 54.2974L144.749 69.1758L139.054 70.042L138.126 67.2701L134.425 67.8332L133.17 70.9371L127.025 71.8719ZM135.281 63.6974L137.606 63.3437L136.619 60.5078L135.281 63.6974ZM153.271 68.1222C151.705 68.3604 150.311 68.3458 149.089 68.0785C147.884 67.8088 146.899 67.287 146.135 66.5131C145.384 65.721 144.91 64.6763 144.715 63.379C144.624 62.7778 144.596 62.1105 144.631 61.3769C144.792 58.6981 145.722 56.5499 147.419 54.9322C149.117 53.3145 151.381 52.2903 154.213 51.8596C155.193 51.7104 156.05 51.6529 156.784 51.687C157.533 51.7187 158.26 51.8185 158.965 51.9864L158.653 57.156C157.24 56.6912 155.782 56.5732 154.279 56.8018C153.077 56.9846 152.162 57.3505 151.533 57.8993C150.917 58.43 150.57 59.292 150.491 60.4854C150.472 60.6824 150.468 60.8692 150.479 61.0456C150.489 61.222 150.506 61.3894 150.53 61.5476C150.643 62.2911 150.974 62.7747 151.526 62.9983C152.091 63.2037 152.903 63.2257 153.963 63.0645C155.466 62.8359 156.966 62.2679 158.463 61.3604L158.152 66.53C157.415 66.9011 156.662 67.2179 155.892 67.4806C155.125 67.7591 154.252 67.973 153.271 68.1222ZM162.398 66.4911L163.062 54.9803L159.171 55.5722L159.425 51.3095L172.949 49.2522L172.695 53.5149L168.804 54.1068L168.14 65.6176L162.398 66.4911Z"/>
</mask>
<path d="M76.3434 79.8243C74.7774 80.0625 73.3836 80.048 72.1619 79.7807C70.9561 79.5109 69.9711 78.9891 69.207 78.2152C68.4563 77.4231 67.9829 76.3784 67.787 75.0812C67.6962 74.48 67.6682 73.8126 67.703 73.079C67.8647 70.4002 68.7943 68.252 70.4917 66.6343C72.1892 65.0167 74.4536 63.9925 77.285 63.5617C78.2657 63.4126 79.1228 63.355 79.8561 63.3891C80.6052 63.4208 81.3323 63.5206 82.0373 63.6885L81.7259 68.8581C80.3126 68.3934 78.8546 68.2753 77.3519 68.5039C76.1497 68.6868 75.2341 69.0526 74.605 69.6015C73.9894 70.1321 73.6422 70.9941 73.5636 72.1875C73.5448 72.3846 73.5407 72.5713 73.5511 72.7478C73.5616 72.9242 73.5788 73.0915 73.6027 73.2497C73.715 73.9933 74.0469 74.4769 74.5985 74.7004C75.1635 74.9058 75.9759 74.9279 77.0357 74.7667C78.5385 74.5381 80.0384 73.97 81.5357 73.0625L81.2243 78.2322C80.4875 78.6032 79.7343 78.9201 78.9649 79.1828C78.1979 79.4613 77.3241 79.6751 76.3434 79.8243ZM90.0615 77.7375C88.7011 77.9445 87.4794 77.9442 86.3963 77.7367C85.3289 77.5269 84.4508 77.0697 83.7619 76.3653C83.0864 75.6427 82.6495 74.6248 82.4511 73.3117C82.3436 72.5998 82.3166 71.7785 82.3702 70.8479C82.4899 68.8552 82.8909 67.2243 83.573 65.9553C84.2685 64.6681 85.2424 63.6703 86.4947 62.9619C87.7445 62.2377 89.2632 61.7396 91.0506 61.4677C92.4426 61.256 93.6722 61.2551 94.7396 61.4649C95.8045 61.659 96.6735 62.1094 97.3466 62.8162C98.0197 63.523 98.4543 64.5251 98.6502 65.8224C98.7602 66.5501 98.7907 67.3951 98.7419 68.3574C98.6198 70.3343 98.2188 71.9651 97.5391 73.2499C96.8594 74.5348 95.8946 75.5393 94.6447 76.2635C93.4083 76.9695 91.8806 77.4608 90.0615 77.7375ZM90.3706 72.7139C91.209 72.5864 91.8162 72.2674 92.1922 71.7571C92.5816 71.2285 92.8113 70.3924 92.8813 69.2489C92.8992 68.9387 92.906 68.6625 92.9018 68.4204C92.911 68.1601 92.9001 67.9271 92.869 67.7214C92.7854 67.1677 92.5845 66.8017 92.2663 66.6236C91.9457 66.4296 91.4374 66.3855 90.7414 66.4914C89.9031 66.6189 89.2892 66.947 88.8998 67.4755C88.5238 67.9859 88.3008 68.8128 88.2308 69.9563C88.2129 70.2666 88.2073 70.5506 88.2139 70.8086C88.2181 71.0507 88.2357 71.2746 88.2668 71.4803C88.3481 72.0182 88.549 72.3841 88.8695 72.5781C89.1901 72.7721 89.6905 72.8174 90.3706 72.7139ZM99.4862 76.0611L100.405 60.2876L105.221 59.5549L109.138 65.0767L109.492 58.9052L115.234 58.0317L114.316 73.8052L109.475 74.5415L105.582 69.0162L105.228 75.1876L99.4862 76.0611ZM119.068 73.0823L119.732 61.5715L115.841 62.1635L116.095 57.9008L129.62 55.8434L129.365 60.1061L125.474 60.6981L124.81 72.2089L119.068 73.0823ZM127.025 71.8719L133.828 55.2033L139.783 54.2974L144.749 69.1758L139.054 70.042L138.126 67.2701L134.425 67.8332L133.17 70.9371L127.025 71.8719ZM135.281 63.6974L137.606 63.3437L136.619 60.5078L135.281 63.6974ZM153.271 68.1222C151.705 68.3604 150.311 68.3458 149.089 68.0785C147.884 67.8088 146.899 67.287 146.135 66.5131C145.384 65.721 144.91 64.6763 144.715 63.379C144.624 62.7778 144.596 62.1105 144.631 61.3769C144.792 58.6981 145.722 56.5499 147.419 54.9322C149.117 53.3145 151.381 52.2903 154.213 51.8596C155.193 51.7104 156.05 51.6529 156.784 51.687C157.533 51.7187 158.26 51.8185 158.965 51.9864L158.653 57.156C157.24 56.6912 155.782 56.5732 154.279 56.8018C153.077 56.9846 152.162 57.3505 151.533 57.8993C150.917 58.43 150.57 59.292 150.491 60.4854C150.472 60.6824 150.468 60.8692 150.479 61.0456C150.489 61.222 150.506 61.3894 150.53 61.5476C150.643 62.2911 150.974 62.7747 151.526 62.9983C152.091 63.2037 152.903 63.2257 153.963 63.0645C155.466 62.8359 156.966 62.2679 158.463 61.3604L158.152 66.53C157.415 66.9011 156.662 67.2179 155.892 67.4806C155.125 67.7591 154.252 67.973 153.271 68.1222ZM162.398 66.4911L163.062 54.9803L159.171 55.5722L159.425 51.3095L172.949 49.2522L172.695 53.5149L168.804 54.1068L168.14 65.6176L162.398 66.4911Z" fill="#F0F0F0"/>
<path d="M72.1619 79.7807L71.7237 81.7328L71.7327 81.7348L72.1619 79.7807ZM69.207 78.2152L67.7552 79.5922C67.7645 79.6021 67.774 79.6119 67.7836 79.6216L69.207 78.2152ZM67.703 73.079L65.707 72.9604C65.7064 72.969 65.706 72.9775 65.7056 72.9861L67.703 73.079ZM70.4917 66.6343L69.1132 65.1867L69.1132 65.1867L70.4917 66.6343ZM79.8561 63.3891L79.7612 65.3873L79.7696 65.3876L79.8561 63.3891ZM82.0373 63.6885L84.0333 63.8068C84.0917 62.8377 83.4461 61.9673 82.5022 61.7426L82.0373 63.6885ZM81.7259 68.8581L81.0997 70.7584C81.6889 70.9522 82.335 70.8613 82.8485 70.5124C83.3619 70.1634 83.6846 69.596 83.7219 68.9764L81.7259 68.8581ZM74.605 69.6015L75.9095 71.1163L75.9186 71.1084L74.605 69.6015ZM73.5636 72.1875L75.5543 72.3753C75.5561 72.3559 75.5577 72.3365 75.5589 72.3171L73.5636 72.1875ZM73.5511 72.7478L75.5473 72.6273L75.5473 72.6273L73.5511 72.7478ZM74.5985 74.7004L73.8459 76.5544C73.8684 76.5636 73.8911 76.5723 73.9139 76.5806L74.5985 74.7004ZM81.5357 73.0625L83.5318 73.1809C83.5765 72.4386 83.206 71.7333 82.5698 71.3494C81.9336 70.9656 81.1367 70.9666 80.5007 71.3521L81.5357 73.0625ZM81.2243 78.2322L82.122 80.0187C82.759 79.6979 83.1775 79.0623 83.2204 78.3505L81.2243 78.2322ZM78.9649 79.1828L78.3207 77.2898C78.3085 77.2939 78.2964 77.2982 78.2843 77.3026L78.9649 79.1828ZM76.3434 79.8243L76.0446 77.8467C74.659 78.0575 73.5194 78.0297 72.5911 77.8265L72.1619 79.7807L71.7327 81.7348C73.2477 82.0663 74.8958 82.0675 76.6421 81.8019L76.3434 79.8243ZM72.1619 79.7807L72.6002 77.8285C71.7161 77.6308 71.09 77.2743 70.6304 76.8088L69.207 78.2152L67.7836 79.6216C68.8523 80.7039 70.1962 81.3911 71.7237 81.7328L72.1619 79.7807ZM69.207 78.2152L70.6588 76.8383C70.2418 76.3982 69.9117 75.7566 69.7642 74.7804L67.787 75.0812L65.8097 75.3819C66.0542 77.0003 66.6707 78.448 67.7552 79.5922L69.207 78.2152ZM67.787 75.0812L69.7642 74.7804C69.6966 74.3329 69.6706 73.8 69.7004 73.1719L67.703 73.079L65.7056 72.9861C65.6657 73.8252 65.6957 74.627 65.8097 75.3819L67.787 75.0812ZM67.703 73.079L69.6991 73.1976C69.835 70.9453 70.5925 69.2997 71.8703 68.0819L70.4917 66.6343L69.1132 65.1867C66.9961 67.2043 65.8944 69.8552 65.707 72.9604L67.703 73.079ZM70.4917 66.6343L71.8703 68.0819C73.21 66.8052 75.0666 65.9222 77.5837 65.5393L77.285 63.5617L76.9863 61.5842C73.8406 62.0627 71.1683 63.2281 69.1132 65.1867L70.4917 66.6343ZM77.285 63.5617L77.5837 65.5393C78.4763 65.4035 79.196 65.361 79.7612 65.3873L79.8561 63.3891L79.9509 61.391C79.0495 61.349 78.0552 61.4216 76.9863 61.5842L77.285 63.5617ZM79.8561 63.3891L79.7696 65.3876C80.3956 65.4141 80.9957 65.4971 81.5723 65.6345L82.0373 63.6885L82.5022 61.7426C81.6689 61.5441 80.8149 61.4275 79.9426 61.3906L79.8561 63.3891ZM82.0373 63.6885L80.0412 63.5702L79.7298 68.7398L81.7259 68.8581L83.7219 68.9764L84.0333 63.8068L82.0373 63.6885ZM81.7259 68.8581L82.3521 66.9578C80.6344 66.393 78.8592 66.2516 77.0532 66.5263L77.3519 68.5039L77.6506 70.4815C78.85 70.299 79.9908 70.3938 81.0997 70.7584L81.7259 68.8581ZM77.3519 68.5039L77.0532 66.5263C75.6374 66.7417 74.3101 67.2059 73.2915 68.0946L74.605 69.6015L75.9186 71.1084C76.1582 70.8994 76.6621 70.6318 77.6506 70.4815L77.3519 68.5039ZM74.605 69.6015L73.3006 68.0866C72.12 69.1042 71.6655 70.5813 71.5682 72.0579L73.5636 72.1875L75.5589 72.3171C75.6189 71.407 75.8587 71.16 75.9094 71.1163L74.605 69.6015ZM73.5636 72.1875L71.5729 71.9997C71.5455 72.2873 71.5377 72.5777 71.5549 72.8683L73.5511 72.7478L75.5473 72.6273C75.5436 72.5649 75.5441 72.4819 75.5543 72.3753L73.5636 72.1875ZM73.5511 72.7478L71.5549 72.8683C71.5686 73.0989 71.5916 73.3267 71.6254 73.5505L73.6027 73.2497L75.5799 72.9489C75.5659 72.8563 75.5546 72.7495 75.5473 72.6273L73.5511 72.7478ZM73.6027 73.2497L71.6254 73.5505C71.8112 74.7801 72.4638 75.9942 73.8459 76.5544L74.5985 74.7004L75.3511 72.8465C75.3831 72.8594 75.4282 72.8832 75.4763 72.9216C75.5246 72.9603 75.5607 73.0017 75.5847 73.0367C75.6309 73.1039 75.6032 73.1032 75.5799 72.9489L73.6027 73.2497ZM74.5985 74.7004L73.9139 76.5806C74.9523 76.958 76.1657 76.922 77.3344 76.7442L77.0357 74.7667L76.737 72.7891C75.7862 72.9337 75.3748 72.8537 75.2831 72.8203L74.5985 74.7004ZM77.0357 74.7667L77.3344 76.7442C79.1342 76.4705 80.8818 75.7967 82.5707 74.773L81.5357 73.0625L80.5007 71.3521C79.1951 72.1434 77.9427 72.6057 76.737 72.7891L77.0357 74.7667ZM81.5357 73.0625L79.5396 72.9442L79.2282 78.1138L81.2243 78.2322L83.2204 78.3505L83.5318 73.1809L81.5357 73.0625ZM81.2243 78.2322L80.3266 76.4456C79.6705 76.776 79.002 77.0571 78.3207 77.2898L78.9649 79.1828L79.6092 81.0758C80.4667 80.783 81.3044 80.4304 82.122 80.0187L81.2243 78.2322ZM78.9649 79.1828L78.2843 77.3026C77.6642 77.5277 76.922 77.7133 76.0446 77.8467L76.3434 79.8243L76.6421 81.8019C77.7262 81.637 78.7317 81.3948 79.6456 81.0629L78.9649 79.1828ZM86.3963 77.7367L86.0087 79.6995L86.0183 79.7014L86.3963 77.7367ZM83.7619 76.3653L82.3006 77.7323C82.3109 77.7433 82.3213 77.7542 82.3318 77.7649L83.7619 76.3653ZM82.3702 70.8479L80.3741 70.7298L80.3738 70.7348L82.3702 70.8479ZM83.573 65.9553L81.814 65.0056L81.812 65.0094L83.573 65.9553ZM86.4947 62.9619L87.4777 64.7028C87.4837 64.6994 87.4897 64.696 87.4957 64.6925L86.4947 62.9619ZM94.7396 61.4649L94.352 63.4277C94.3611 63.4295 94.3702 63.4312 94.3793 63.4329L94.7396 61.4649ZM97.3466 62.8162L95.8981 64.1967L95.8981 64.1967L97.3466 62.8162ZM98.7419 68.3574L100.738 68.4788C100.738 68.4715 100.739 68.4641 100.739 68.4568L98.7419 68.3574ZM97.5391 73.2499L95.7719 72.3157L97.5391 73.2499ZM94.6447 76.2635L95.6347 78.0005L95.6457 77.9941L94.6447 76.2635ZM92.1922 71.7571L90.5828 70.5714L90.5828 70.5714L92.1922 71.7571ZM92.8813 69.2489L94.8773 69.3692L94.8777 69.362L92.8813 69.2489ZM92.9018 68.4204L90.9033 68.3516C90.9021 68.3868 90.9018 68.422 90.9024 68.4572L92.9018 68.4204ZM92.2663 66.6236L91.23 68.3353C91.2492 68.3469 91.2686 68.3582 91.2882 68.3692L92.2663 66.6236ZM88.2308 69.9563L86.2348 69.8361L86.2344 69.8433L88.2308 69.9563ZM88.2139 70.8086L90.2133 70.7718C90.2132 70.7663 90.2131 70.7609 90.2129 70.7554L88.2139 70.8086ZM90.0615 77.7375L89.7628 75.76C88.5738 75.9408 87.5868 75.9277 86.7742 75.7721L86.3963 77.7367L86.0183 79.7014C87.372 79.9606 88.8285 79.9481 90.3602 79.7151L90.0615 77.7375ZM86.3963 77.7367L86.7839 75.774C86.0701 75.6336 85.5692 75.3515 85.192 74.9657L83.7619 76.3653L82.3318 77.7649C83.3324 78.7879 84.5878 79.4201 86.0087 79.6995L86.3963 77.7367ZM83.7619 76.3653L85.2231 74.9983C84.9033 74.6562 84.5866 74.0585 84.4284 73.0109L82.4511 73.3117L80.4739 73.6125C80.7123 75.1911 81.2695 76.6292 82.3006 77.7323L83.7619 76.3653ZM82.4511 73.3117L84.4284 73.0109C84.3465 72.4691 84.3188 71.7914 84.3666 70.9609L82.3702 70.8479L80.3738 70.7348C80.3145 71.7656 80.3406 72.7305 80.4739 73.6125L82.4511 73.3117ZM82.3702 70.8479L84.3663 70.9659C84.4749 69.158 84.8317 67.8358 85.334 66.9012L83.573 65.9553L81.812 65.0094C80.9501 66.6129 80.505 68.5524 80.3741 70.7298L82.3702 70.8479ZM83.573 65.9553L85.3319 66.9051C85.8516 65.9434 86.5591 65.2225 87.4777 64.7028L86.4947 62.9619L85.5116 61.221C83.9257 62.1181 82.6855 63.3928 81.814 65.0056L83.573 65.9553ZM86.4947 62.9619L87.4957 64.6925C88.4819 64.1211 89.7493 63.6887 91.3493 63.4453L91.0506 61.4677L90.7519 59.4902C88.7771 59.7906 87.0072 60.3543 85.4937 61.2313L86.4947 62.9619ZM91.0506 61.4677L91.3493 63.4453C92.5769 63.2586 93.5663 63.2732 94.352 63.4277L94.7396 61.4649L95.1272 59.5022C93.7782 59.2369 92.3083 59.2534 90.7519 59.4902L91.0506 61.4677ZM94.7396 61.4649L94.3793 63.4329C95.0759 63.5598 95.548 63.8291 95.8981 64.1967L97.3466 62.8162L98.7952 61.4358C97.799 60.3897 96.5331 59.7582 95.0998 59.497L94.7396 61.4649ZM97.3466 62.8162L95.8981 64.1967C96.2059 64.5199 96.5176 65.0946 96.673 66.1231L98.6502 65.8224L100.627 65.5216C100.391 63.9555 99.8336 62.5261 98.7952 61.4358L97.3466 62.8162ZM98.6502 65.8224L96.673 66.1231C96.7579 66.6852 96.7888 67.391 96.7448 68.258L98.7419 68.3574L100.739 68.4568C100.793 67.3993 100.762 66.415 100.627 65.5216L98.6502 65.8224ZM98.7419 68.3574L96.746 68.236C96.6354 70.026 96.2794 71.3563 95.7719 72.3157L97.5391 73.2499L99.3064 74.1842C100.158 72.5739 100.604 70.6425 100.738 68.4788L98.7419 68.3574ZM97.5391 73.2499L95.7719 72.3157C95.2667 73.2706 94.5665 73.9982 93.6437 74.5328L94.6447 76.2635L95.6457 77.9941C97.2227 77.0804 98.4521 75.7989 99.3064 74.1842L97.5391 73.2499ZM94.6447 76.2635L93.6547 74.5265C92.6844 75.0805 91.4064 75.5099 89.7628 75.76L90.0615 77.7375L90.3602 79.7151C92.3547 79.4117 94.1322 78.8584 95.6347 78.0005L94.6447 76.2635ZM90.3706 72.7139L90.6694 74.6915C91.849 74.512 93.0156 74.0094 93.8015 72.9427L92.1922 71.7571L90.5828 70.5714C90.5828 70.5715 90.5828 70.5715 90.5827 70.5716C90.5825 70.5718 90.5814 70.573 90.5787 70.5753C90.5737 70.5795 90.5584 70.5915 90.5265 70.6083C90.4602 70.6431 90.3213 70.6984 90.0719 70.7363L90.3706 72.7139ZM92.1922 71.7571L93.8015 72.9427C94.5338 71.9489 94.7991 70.6456 94.8772 69.3692L92.8813 69.2489L90.8853 69.1287C90.8235 70.1393 90.6294 70.5081 90.5828 70.5714L92.1922 71.7571ZM92.8813 69.2489L94.8777 69.362C94.8977 69.015 94.9065 68.6874 94.9012 68.3836L92.9018 68.4204L90.9024 68.4572C90.9055 68.6377 90.9007 68.8624 90.8849 69.1358L92.8813 69.2489ZM92.9018 68.4204L94.9002 68.4892C94.9128 68.1347 94.8997 67.7746 94.8463 67.4206L92.869 67.7214L90.8918 68.0222C90.9004 68.0796 90.9092 68.1854 90.9033 68.3516L92.9018 68.4204ZM92.869 67.7214L94.8463 67.4206C94.7208 66.5896 94.3386 65.4906 93.2444 64.8779L92.2663 66.6236L91.2882 68.3692C91.0758 68.2503 90.9556 68.0923 90.9026 67.9959C90.8586 67.9157 90.8738 67.9036 90.8918 68.0222L92.869 67.7214ZM92.2663 66.6236L93.3026 64.9118C92.3562 64.3391 91.2467 64.3915 90.4427 64.5138L90.7414 66.4914L91.0402 68.4689C91.159 68.4509 91.2544 68.4416 91.3287 68.4378C91.4035 68.4339 91.4491 68.436 91.47 68.4379C91.4914 68.4397 91.4772 68.4404 91.437 68.4288C91.396 68.4171 91.3213 68.3906 91.23 68.3353L92.2663 66.6236ZM90.7414 66.4914L90.4427 64.5138C89.2401 64.6967 88.0792 65.2192 87.2904 66.2899L88.8998 67.4755L90.5091 68.6612C90.5162 68.6515 90.533 68.6293 90.5931 68.5972C90.6613 68.5608 90.7981 68.5058 91.0402 68.4689L90.7414 66.4914ZM88.8998 67.4755L87.2904 66.2899C86.566 67.2731 86.3119 68.5764 86.2348 69.8361L88.2308 69.9563L90.2267 70.0766C90.2561 69.5976 90.3144 69.2454 90.3812 68.9976C90.4493 68.7452 90.5106 68.6592 90.5091 68.6612L88.8998 67.4755ZM88.2308 69.9563L86.2344 69.8433C86.214 70.1981 86.2066 70.5386 86.2149 70.8618L88.2139 70.8086L90.2129 70.7554C90.208 70.5627 90.2119 70.335 90.2272 70.0694L88.2308 69.9563ZM88.2139 70.8086L86.2145 70.8454C86.22 71.1619 86.2433 71.4752 86.2896 71.781L88.2668 71.4803L90.2441 71.1795C90.2281 71.074 90.2162 70.9395 90.2133 70.7718L88.2139 70.8086ZM88.2668 71.4803L86.2896 71.781C86.4182 72.6328 86.8087 73.6699 87.8332 74.2899L88.8695 72.5781L89.9059 70.8663C90.0792 70.9713 90.1825 71.1049 90.2314 71.1939C90.2726 71.269 90.2596 71.2825 90.2441 71.1795L88.2668 71.4803ZM88.8695 72.5781L87.8332 74.2899C88.7733 74.8588 89.8677 74.8134 90.6694 74.6915L90.3706 72.7139L90.0719 70.7363C89.9584 70.7536 89.8677 70.7623 89.7978 70.7657C89.7274 70.7692 89.6854 70.767 89.6673 70.7654C89.649 70.7637 89.6644 70.7635 89.7048 70.7752C89.746 70.7872 89.8182 70.8133 89.9059 70.8663L88.8695 72.5781ZM99.4862 76.0611L97.4899 75.9468C97.4549 76.5488 97.6932 77.1343 98.1386 77.5402C98.584 77.9462 99.1889 78.1293 99.7849 78.0386L99.4862 76.0611ZM100.405 60.2876L100.106 58.31C99.1714 58.4522 98.4634 59.2293 98.4084 60.1732L100.405 60.2876ZM105.221 59.5549L106.853 58.3963C106.416 57.7805 105.669 57.4637 104.923 57.5773L105.221 59.5549ZM109.138 65.0767L107.507 66.2352C107.998 66.9279 108.874 67.2341 109.69 66.9987C110.506 66.7633 111.086 66.0377 111.134 65.1893L109.138 65.0767ZM109.492 58.9052L109.193 56.9276C108.258 57.0699 107.55 57.8479 107.496 58.7925L109.492 58.9052ZM115.234 58.0317L117.23 58.1461C117.265 57.544 117.027 56.9585 116.582 56.5526C116.136 56.1466 115.531 55.9635 114.935 56.0542L115.234 58.0317ZM114.316 73.8052L114.614 75.7828C115.549 75.6406 116.257 74.8635 116.312 73.9196L114.316 73.8052ZM109.475 74.5415L107.84 75.695C108.277 76.314 109.025 76.633 109.774 76.5191L109.475 74.5415ZM105.582 69.0162L107.217 67.8627C106.728 67.1675 105.851 66.8588 105.033 67.0933C104.215 67.3277 103.635 68.0539 103.586 68.9035L105.582 69.0162ZM105.228 75.1876L105.527 77.1652C106.462 77.0229 107.17 76.2449 107.225 75.3003L105.228 75.1876ZM99.4862 76.0611L101.483 76.1754L102.401 60.4019L100.405 60.2876L98.4084 60.1732L97.4899 75.9468L99.4862 76.0611ZM100.405 60.2876L100.703 62.2651L105.52 61.5324L105.221 59.5549L104.923 57.5773L100.106 58.31L100.405 60.2876ZM105.221 59.5549L103.59 60.7135L107.507 66.2352L109.138 65.0767L110.769 63.9181L106.853 58.3963L105.221 59.5549ZM109.138 65.0767L111.134 65.1893L111.489 59.0179L109.492 58.9052L107.496 58.7925L107.142 64.964L109.138 65.0767ZM109.492 58.9052L109.791 60.8828L115.533 60.0093L115.234 58.0317L114.935 56.0542L109.193 56.9276L109.492 58.9052ZM115.234 58.0317L113.238 57.9174L112.319 73.6909L114.316 73.8052L116.312 73.9196L117.23 58.1461L115.234 58.0317ZM114.316 73.8052L114.017 71.8277L109.177 72.564L109.475 74.5415L109.774 76.5191L114.614 75.7828L114.316 73.8052ZM109.475 74.5415L111.11 73.3881L107.217 67.8627L105.582 69.0162L103.948 70.1696L107.84 75.695L109.475 74.5415ZM105.582 69.0162L103.586 68.9035L103.232 75.0749L105.228 75.1876L107.225 75.3003L107.579 69.1288L105.582 69.0162ZM105.228 75.1876L104.929 73.2101L99.1875 74.0835L99.4862 76.0611L99.7849 78.0386L105.527 77.1652L105.228 75.1876ZM119.068 73.0823L117.072 72.969C117.037 73.5709 117.275 74.1561 117.721 74.5618C118.166 74.9676 118.771 75.1506 119.367 75.0599L119.068 73.0823ZM119.732 61.5715L121.729 61.6848C121.763 61.0829 121.525 60.4977 121.079 60.092C120.634 59.6863 120.029 59.5033 119.433 59.594L119.732 61.5715ZM115.841 62.1635L113.845 62.0463C113.809 62.6488 114.047 63.2351 114.492 63.6417C114.938 64.0483 115.543 64.2318 116.14 64.141L115.841 62.1635ZM116.095 57.9008L115.796 55.9232C114.863 56.0652 114.155 56.8409 114.099 57.7836L116.095 57.9008ZM129.62 55.8434L131.616 55.9606C131.652 55.3581 131.414 54.7718 130.968 54.3652C130.523 53.9586 129.917 53.7751 129.321 53.8659L129.62 55.8434ZM129.365 60.1061L129.664 62.0837C130.598 61.9417 131.305 61.166 131.361 60.2233L129.365 60.1061ZM125.474 60.6981L125.175 58.7205C124.24 58.8627 123.532 59.6405 123.478 60.5848L125.474 60.6981ZM124.81 72.2089L125.109 74.1864C126.044 74.0442 126.752 73.2665 126.806 72.3222L124.81 72.2089ZM119.068 73.0823L121.064 73.1956L121.729 61.6848L119.732 61.5715L117.736 61.4582L117.072 72.969L119.068 73.0823ZM119.732 61.5715L119.433 59.594L115.542 60.1859L115.841 62.1635L116.14 64.141L120.031 63.5491L119.732 61.5715ZM115.841 62.1635L117.837 62.2806L118.091 58.0179L116.095 57.9008L114.099 57.7836L113.845 62.0463L115.841 62.1635ZM116.095 57.9008L116.394 59.8783L129.918 57.821L129.62 55.8434L129.321 53.8659L115.796 55.9232L116.095 57.9008ZM129.62 55.8434L127.623 55.7263L127.369 59.989L129.365 60.1061L131.361 60.2233L131.616 55.9606L129.62 55.8434ZM129.365 60.1061L129.067 58.1286L125.175 58.7205L125.474 60.6981L125.773 62.6756L129.664 62.0837L129.365 60.1061ZM125.474 60.6981L123.478 60.5848L122.813 72.0956L124.81 72.2089L126.806 72.3222L127.47 60.8114L125.474 60.6981ZM124.81 72.2089L124.511 70.2313L118.769 71.1048L119.068 73.0823L119.367 75.0599L125.109 74.1864L124.81 72.2089ZM127.025 71.8719L125.174 71.1175C124.902 71.784 125.008 72.545 125.453 73.1102C125.898 73.6754 126.612 73.9577 127.324 73.8495L127.025 71.8719ZM133.828 55.2033L133.529 53.2257C132.832 53.3317 132.243 53.7963 131.976 54.4489L133.828 55.2033ZM139.783 54.2974L141.68 53.6622C141.372 52.74 140.446 52.1736 139.484 52.3198L139.783 54.2974ZM144.749 69.1758L145.048 71.1533C145.631 71.0645 146.146 70.7224 146.454 70.2185C146.763 69.7146 146.833 69.1005 146.646 68.5406L144.749 69.1758ZM139.054 70.042L137.158 70.6792C137.467 71.6003 138.393 72.1657 139.353 72.0196L139.054 70.042ZM138.126 67.2701L140.022 66.6329C139.714 65.7118 138.788 65.1464 137.827 65.2925L138.126 67.2701ZM134.425 67.8332L134.126 65.8556C133.427 65.9619 132.836 66.4293 132.571 67.085L134.425 67.8332ZM133.17 70.9371L133.469 72.9147C134.168 72.8084 134.759 72.341 135.024 71.6853L133.17 70.9371ZM135.281 63.6974L133.437 62.9247C133.157 63.5917 133.259 64.3577 133.703 64.9279C134.147 65.4981 134.864 65.7837 135.579 65.675L135.281 63.6974ZM137.606 63.3437L137.904 65.3213C138.492 65.2318 139.01 64.8852 139.318 64.3756C139.625 63.866 139.69 63.2462 139.494 62.6846L137.606 63.3437ZM136.619 60.5078L138.508 59.8487C138.236 59.0666 137.51 58.5336 136.682 58.5084C135.854 58.4832 135.096 58.971 134.775 59.7351L136.619 60.5078ZM127.025 71.8719L128.876 72.6264L135.679 55.9578L133.828 55.2033L131.976 54.4489L125.174 71.1175L127.025 71.8719ZM133.828 55.2033L134.126 57.1809L140.082 56.2749L139.783 54.2974L139.484 52.3198L133.529 53.2257L133.828 55.2033ZM139.783 54.2974L137.886 54.9325L142.852 69.8109L144.749 69.1758L146.646 68.5406L141.68 53.6622L139.783 54.2974ZM144.749 69.1758L144.45 67.1982L138.756 68.0644L139.054 70.042L139.353 72.0196L145.048 71.1533L144.749 69.1758ZM139.054 70.042L140.951 69.4048L140.022 66.6329L138.126 67.2701L136.23 67.9073L137.158 70.6792L139.054 70.042ZM138.126 67.2701L137.827 65.2925L134.126 65.8556L134.425 67.8332L134.723 69.8107L138.425 69.2477L138.126 67.2701ZM134.425 67.8332L132.571 67.085L131.316 70.189L133.17 70.9371L135.024 71.6853L136.278 68.5813L134.425 67.8332ZM133.17 70.9371L132.871 68.9596L126.726 69.8944L127.025 71.8719L127.324 73.8495L133.469 72.9147L133.17 70.9371ZM135.281 63.6974L135.579 65.675L137.904 65.3213L137.606 63.3437L137.307 61.3661L134.982 61.7198L135.281 63.6974ZM137.606 63.3437L139.494 62.6846L138.508 59.8487L136.619 60.5078L134.73 61.167L135.717 64.0028L137.606 63.3437ZM136.619 60.5078L134.775 59.7351L133.437 62.9247L135.281 63.6974L137.124 64.4701L138.463 61.2806L136.619 60.5078ZM149.089 68.0785L148.651 70.0307L148.66 70.0326L149.089 68.0785ZM146.135 66.5131L144.683 67.8901C144.692 67.9 144.702 67.9098 144.711 67.9195L146.135 66.5131ZM144.631 61.3769L142.634 61.2583C142.634 61.2668 142.634 61.2754 142.633 61.284L144.631 61.3769ZM147.419 54.9322L146.041 53.4846L146.041 53.4846L147.419 54.9322ZM156.784 51.687L156.689 53.6852L156.697 53.6855L156.784 51.687ZM158.965 51.9864L160.961 52.1047C161.019 51.1356 160.374 50.2652 159.43 50.0404L158.965 51.9864ZM158.653 57.156L158.027 59.0563C158.616 59.2501 159.263 59.1592 159.776 58.8102C160.289 58.4613 160.612 57.8939 160.649 57.2743L158.653 57.156ZM151.533 57.8993L152.837 59.4142L152.846 59.4063L151.533 57.8993ZM150.491 60.4854L152.482 60.6732C152.484 60.6538 152.485 60.6344 152.486 60.615L150.491 60.4854ZM150.479 61.0456L152.475 60.9251L152.475 60.9251L150.479 61.0456ZM151.526 62.9983L150.773 64.8523C150.796 64.8614 150.819 64.8701 150.841 64.8784L151.526 62.9983ZM158.463 61.3604L160.459 61.4787C160.504 60.7365 160.133 60.0311 159.497 59.6473C158.861 59.2634 158.064 59.2644 157.428 59.6499L158.463 61.3604ZM158.152 66.53L159.05 68.3166C159.687 67.9958 160.105 67.3602 160.148 66.6483L158.152 66.53ZM155.892 67.4806L155.248 65.5876C155.236 65.5918 155.224 65.596 155.212 65.6004L155.892 67.4806ZM153.271 68.1222L152.972 66.1446C151.587 66.3554 150.447 66.3275 149.519 66.1244L149.089 68.0785L148.66 70.0326C150.175 70.3641 151.823 70.3654 153.57 70.0997L153.271 68.1222ZM149.089 68.0785L149.528 66.1264C148.644 65.9286 148.018 65.5722 147.558 65.1067L146.135 66.5131L144.711 67.9195C145.78 69.0018 147.124 69.6889 148.651 70.0306L149.089 68.0785ZM146.135 66.5131L147.586 65.1361C147.169 64.6961 146.839 64.0544 146.692 63.0782L144.715 63.379L142.737 63.6798C142.982 65.2982 143.598 66.7459 144.683 67.8901L146.135 66.5131ZM144.715 63.379L146.692 63.0782C146.624 62.6308 146.598 62.0979 146.628 61.4698L144.631 61.3769L142.633 61.284C142.593 62.123 142.623 62.9249 142.737 63.6798L144.715 63.379ZM144.631 61.3769L146.627 61.4955C146.763 59.2431 147.52 57.5976 148.798 56.3798L147.419 54.9322L146.041 53.4846C143.924 55.5022 142.822 58.1531 142.634 61.2583L144.631 61.3769ZM147.419 54.9322L148.798 56.3798C150.138 55.1031 151.994 54.2201 154.511 53.8372L154.213 51.8596L153.914 49.882C150.768 50.3606 148.096 51.526 146.041 53.4846L147.419 54.9322ZM154.213 51.8596L154.511 53.8372C155.404 53.7014 156.124 53.6589 156.689 53.6851L156.784 51.687L156.878 49.6888C155.977 49.6469 154.983 49.7195 153.914 49.882L154.213 51.8596ZM156.784 51.687L156.697 53.6855C157.323 53.712 157.923 53.795 158.5 53.9323L158.965 51.9864L159.43 50.0404C158.596 49.842 157.742 49.7254 156.87 49.6885L156.784 51.687ZM158.965 51.9864L156.969 51.8681L156.657 57.0377L158.653 57.156L160.649 57.2743L160.961 52.1047L158.965 51.9864ZM158.653 57.156L159.28 55.2557C157.562 54.6908 155.787 54.5495 153.981 54.8242L154.279 56.8018L154.578 58.7793C155.778 58.5969 156.918 58.6917 158.027 59.0563L158.653 57.156ZM154.279 56.8018L153.981 54.8242C152.565 55.0396 151.238 55.5037 150.219 56.3924L151.533 57.8993L152.846 59.4063C153.086 59.1972 153.59 58.9297 154.578 58.7793L154.279 56.8018ZM151.533 57.8993L150.228 56.3845C149.048 57.402 148.593 58.8791 148.496 60.3558L150.491 60.4854L152.486 60.615C152.546 59.7048 152.786 59.4579 152.837 59.4142L151.533 57.8993ZM150.491 60.4854L148.5 60.2975C148.473 60.5851 148.465 60.8756 148.482 61.1661L150.479 61.0456L152.475 60.9251C152.471 60.8628 152.472 60.7797 152.482 60.6732L150.491 60.4854ZM150.479 61.0456L148.482 61.1661C148.496 61.3967 148.519 61.6246 148.553 61.8483L150.53 61.5476L152.507 61.2468C152.493 61.1542 152.482 61.0474 152.475 60.9251L150.479 61.0456ZM150.53 61.5476L148.553 61.8483C148.739 63.078 149.391 64.292 150.773 64.8523L151.526 62.9983L152.279 61.1443C152.311 61.1573 152.356 61.181 152.404 61.2195C152.452 61.2582 152.488 61.2996 152.512 61.3345C152.558 61.4018 152.531 61.4011 152.507 61.2468L150.53 61.5476ZM151.526 62.9983L150.841 64.8784C151.88 65.2558 153.093 65.2199 154.262 65.0421L153.963 63.0645L153.665 61.087C152.714 61.2316 152.302 61.1515 152.211 61.1182L151.526 62.9983ZM153.963 63.0645L154.262 65.0421C156.062 64.7683 157.809 64.0946 159.498 63.0709L158.463 61.3604L157.428 59.6499C156.123 60.4412 154.87 60.9036 153.665 61.087L153.963 63.0645ZM158.463 61.3604L156.467 61.2421L156.156 66.4117L158.152 66.53L160.148 66.6483L160.459 61.4787L158.463 61.3604ZM158.152 66.53L157.254 64.7435C156.598 65.0739 155.93 65.355 155.248 65.5876L155.892 67.4806L156.537 69.3736C157.394 69.0809 158.232 68.7282 159.05 68.3166L158.152 66.53ZM155.892 67.4806L155.212 65.6004C154.592 65.8256 153.849 66.0111 152.972 66.1446L153.271 68.1222L153.57 70.0997C154.654 69.9348 155.659 69.6927 156.573 69.3608L155.892 67.4806ZM162.398 66.4911L160.401 66.3778C160.366 66.9797 160.605 67.5649 161.05 67.9706C161.496 68.3763 162.1 68.5593 162.696 68.4686L162.398 66.4911ZM163.062 54.9803L165.058 55.0936C165.093 54.4917 164.854 53.9065 164.409 53.5008C163.964 53.095 163.359 52.912 162.763 53.0027L163.062 54.9803ZM159.171 55.5722L157.174 55.4551C157.139 56.0576 157.376 56.6438 157.822 57.0504C158.267 57.457 158.873 57.6405 159.469 57.5498L159.171 55.5722ZM159.425 51.3095L159.126 49.3319C158.193 49.4739 157.485 50.2496 157.429 51.1924L159.425 51.3095ZM172.949 49.2522L174.945 49.3693C174.981 48.7668 174.743 48.1806 174.298 47.774C173.852 47.3673 173.247 47.1839 172.651 47.2746L172.949 49.2522ZM172.695 53.5149L172.994 55.4924C173.927 55.3504 174.635 54.5748 174.691 53.632L172.695 53.5149ZM168.804 54.1068L168.505 52.1292C167.57 52.2715 166.862 53.0492 166.807 53.9935L168.804 54.1068ZM168.14 65.6176L168.438 67.5952C169.373 67.453 170.081 66.6752 170.136 65.7309L168.14 65.6176ZM162.398 66.4911L164.394 66.6044L165.058 55.0936L163.062 54.9803L161.065 54.867L160.401 66.3778L162.398 66.4911ZM163.062 54.9803L162.763 53.0027L158.872 53.5946L159.171 55.5722L159.469 57.5498L163.361 56.9578L163.062 54.9803ZM159.171 55.5722L161.167 55.6893L161.421 51.4266L159.425 51.3095L157.429 51.1924L157.174 55.4551L159.171 55.5722ZM159.425 51.3095L159.724 53.2871L173.248 51.2297L172.949 49.2522L172.651 47.2746L159.126 49.3319L159.425 51.3095ZM172.949 49.2522L170.953 49.135L170.699 53.3978L172.695 53.5149L174.691 53.632L174.945 49.3693L172.949 49.2522ZM172.695 53.5149L172.396 51.5373L168.505 52.1292L168.804 54.1068L169.102 56.0844L172.994 55.4924L172.695 53.5149ZM168.804 54.1068L166.807 53.9935L166.143 65.5043L168.14 65.6176L170.136 65.7309L170.8 54.2201L168.804 54.1068ZM168.14 65.6176L167.841 63.64L162.099 64.5135L162.398 66.4911L162.696 68.4686L168.438 67.5952L168.14 65.6176Z" fill="#7F4FE9" mask="url(#path-24-outside-2_433_922)"/>
</g>
<defs>
<clipPath id="clip0_433_922">
<rect width="200" height="113" fill="white"/>
</clipPath>
</defs>
</svg>
