<svg width="200" height="113" viewBox="0 0 200 113" fill="none" xmlns="http://www.w3.org/2000/svg">
<g clip-path="url(#clip0_736_45)">
<path d="M200 18.8691L199.974 87.4009L147.32 95.9339L147.346 27.4021L200 18.8691Z" fill="#42AD2D"/>
<path d="M147.346 27.4019L147.32 95.9336L105.307 85.1968L105.334 16.665L147.346 27.4019Z" fill="#FF1900"/>
<path d="M200 18.8691L199.974 86.5378L147.32 95.0708L147.346 27.4021L200 18.8691Z" fill="#58BC44"/>
<path d="M147.346 27.4019L147.32 95.0706L105.307 84.3337L105.334 16.665L147.346 27.4019Z" fill="#D2220B"/>
<path d="M200 18.8697L147.346 27.4026L105.334 16.6658L157.988 8.13281L200 18.8697Z" fill="#6FC55C"/>
<path d="M167.122 3.30806C167.115 3.32259 167.109 3.33713 167.101 3.35166C167.046 3.44782 166.967 3.54338 166.867 3.63811C166.854 3.6507 166.841 3.66329 166.827 3.67579C166.721 3.77094 166.59 3.86498 166.438 3.95776C166.42 3.969 166.402 3.98032 166.383 3.99147C166.224 4.08468 166.041 4.17636 165.837 4.26643C165.813 4.27665 165.792 4.28705 165.768 4.29727C165.559 4.38642 165.326 4.47345 165.072 4.55862C165.038 4.57003 165.006 4.58161 164.971 4.59293C164.719 4.67523 164.442 4.75499 164.148 4.83273C164.086 4.84921 164.022 4.86552 163.958 4.88174C163.641 4.96193 163.308 5.04026 162.945 5.11453C162.944 5.1147 162.944 5.11495 162.943 5.11512C162.542 5.19725 162.113 5.2755 161.658 5.34935C161.316 5.40478 160.961 5.45497 160.603 5.50322C160.402 5.53026 160.196 5.55476 159.991 5.57952C159.786 5.60436 159.58 5.62938 159.37 5.65202C158.903 5.7023 158.429 5.74801 157.945 5.78722C157.908 5.79026 157.872 5.79431 157.834 5.79727C157.368 5.8342 156.894 5.8658 156.416 5.89258C155.976 5.91726 155.531 5.93788 155.084 5.95401C155.054 5.95511 155.024 5.9557 154.994 5.95672C154.094 5.98798 153.184 6.00226 152.277 5.99931C152.241 5.99922 152.205 5.99888 152.169 5.99871C151.744 5.99669 151.321 5.99094 150.9 5.98156C150.845 5.98038 150.791 5.97894 150.737 5.97767C150.328 5.9677 149.92 5.9541 149.516 5.9372C149.454 5.93458 149.391 5.93179 149.329 5.929C148.926 5.91101 148.526 5.88971 148.13 5.86479C148.071 5.86107 148.012 5.85684 147.952 5.85296C147.55 5.82651 147.152 5.7971 146.761 5.76356C146.72 5.76001 146.679 5.75604 146.638 5.7524C146.249 5.71818 145.865 5.68066 145.49 5.63943C145.465 5.63673 145.439 5.63436 145.415 5.63157C145.046 5.59051 144.688 5.54522 144.335 5.49747C144.255 5.48674 144.176 5.47601 144.097 5.46486C143.741 5.41467 143.393 5.36186 143.056 5.30482C143.012 5.2973 142.971 5.28893 142.928 5.28125C142.638 5.23097 142.358 5.17782 142.085 5.12247C141.915 5.08783 141.753 5.0504 141.589 5.01373C141.373 4.96531 141.153 4.91816 140.95 4.86619C138.784 4.31273 137.733 3.65196 137.733 2.99609L137.727 19.9133C137.727 20.569 138.778 21.2299 140.943 21.7834C141.025 21.8042 141.108 21.8249 141.192 21.8452C141.315 21.8752 141.452 21.9015 141.58 21.9302C141.745 21.9672 141.907 22.0047 142.079 22.0396C142.122 22.0484 142.161 22.0585 142.205 22.0673C142.44 22.1137 142.684 22.1572 142.93 22.1999C142.97 22.2069 143.007 22.2147 143.048 22.2216C143.056 22.2229 143.063 22.2244 143.071 22.2258C143.331 22.2697 143.597 22.3116 143.869 22.3514C143.94 22.362 144.015 22.3712 144.088 22.3815C144.169 22.3929 144.25 22.4039 144.332 22.4149C144.432 22.4285 144.53 22.4431 144.632 22.4561C144.875 22.4873 145.123 22.517 145.374 22.545C145.385 22.5463 145.397 22.5473 145.408 22.5486C145.433 22.5513 145.458 22.5536 145.483 22.5564C145.687 22.5787 145.891 22.6007 146.099 22.621C146.275 22.6381 146.454 22.6538 146.632 22.6695C146.673 22.673 146.713 22.677 146.754 22.6806C146.779 22.6827 146.803 22.6851 146.827 22.6872C147.069 22.7076 147.312 22.7266 147.558 22.7444C147.686 22.7536 147.816 22.7615 147.946 22.77C148.005 22.7739 148.064 22.7781 148.123 22.7818C148.178 22.7852 148.232 22.7893 148.286 22.7926C148.527 22.8071 148.769 22.8204 149.012 22.8324C149.116 22.8375 149.22 22.8415 149.324 22.8462C149.385 22.8489 149.445 22.8516 149.506 22.8542C149.583 22.8574 149.658 22.8613 149.735 22.8643C149.965 22.8731 150.196 22.8809 150.428 22.8876C150.53 22.8905 150.633 22.8925 150.736 22.895C150.787 22.8962 150.837 22.8975 150.888 22.8986C150.96 22.9003 151.031 22.9024 151.102 22.9038C151.319 22.9079 151.535 22.9112 151.752 22.9134C151.889 22.9149 152.026 22.9153 152.162 22.9159C152.198 22.9161 152.234 22.9164 152.27 22.9165C152.307 22.9166 152.344 22.9171 152.381 22.9171C152.587 22.9175 152.794 22.917 153 22.9155C153.215 22.9141 153.429 22.9117 153.643 22.9083C153.644 22.9083 153.646 22.9083 153.647 22.9083C153.868 22.9048 154.09 22.9003 154.31 22.8948C154.539 22.889 154.768 22.8816 154.996 22.8736C155.022 22.8727 155.048 22.8722 155.074 22.8713C155.089 22.8708 155.104 22.8704 155.118 22.8699C155.539 22.8545 155.956 22.8353 156.371 22.8124C156.383 22.8117 156.395 22.8106 156.407 22.8099C156.887 22.7831 157.362 22.7514 157.83 22.7143C157.834 22.7139 157.839 22.7138 157.843 22.7133C157.872 22.7111 157.898 22.7078 157.926 22.7056C158.414 22.666 158.893 22.62 159.364 22.5692C159.419 22.5633 159.477 22.5593 159.532 22.5533C159.686 22.5362 159.833 22.5152 159.985 22.4968C160.19 22.4719 160.396 22.4475 160.596 22.4205C160.657 22.4123 160.721 22.4057 160.782 22.3973C161.077 22.3563 161.367 22.3127 161.651 22.2666C161.752 22.2503 161.851 22.2338 161.949 22.2171C162.293 22.1583 162.621 22.0969 162.932 22.0332C162.933 22.0331 162.934 22.0328 162.935 22.0326C162.938 22.0319 162.941 22.0311 162.945 22.0303C163.213 21.9753 163.47 21.9186 163.713 21.8603C163.797 21.8402 163.872 21.8191 163.952 21.7987C164.016 21.7826 164.079 21.7664 164.141 21.75C164.208 21.7323 164.281 21.7153 164.345 21.6974C164.53 21.6463 164.706 21.5942 164.873 21.5411C164.905 21.531 164.933 21.5203 164.964 21.5101C164.999 21.4987 165.032 21.487 165.066 21.4755C165.15 21.4473 165.237 21.4196 165.316 21.391C165.45 21.3421 165.578 21.2927 165.698 21.2426C165.721 21.2331 165.74 21.2235 165.762 21.2139C165.785 21.204 165.807 21.1938 165.83 21.1838C165.898 21.1538 165.968 21.124 166.031 21.0938C166.134 21.0444 166.229 20.9947 166.319 20.9444C166.34 20.9324 166.357 20.9202 166.377 20.9083C166.396 20.8972 166.413 20.8862 166.431 20.875C166.476 20.8476 166.524 20.8203 166.565 20.7926C166.642 20.7412 166.711 20.6893 166.774 20.6372C166.792 20.6224 166.805 20.6074 166.821 20.5926C166.835 20.5801 166.848 20.5677 166.861 20.5551C166.888 20.5293 166.919 20.5037 166.943 20.4778C166.994 20.4222 167.038 20.3663 167.074 20.3103C167.082 20.2965 167.086 20.2825 167.094 20.2687C167.103 20.254 167.108 20.2395 167.116 20.2248C167.131 20.1944 167.15 20.164 167.161 20.1335C167.182 20.0708 167.195 20.008 167.197 19.945C167.197 19.937 167.198 19.929 167.198 19.921L167.204 3.00387C167.204 3.10552 167.172 3.20717 167.122 3.30806Z" fill="#54B840"/>
<path d="M163.986 1.13295C169.062 2.43024 168.019 4.31843 161.658 5.34938C155.302 6.37941 146.026 6.16343 140.95 4.86622C135.873 3.56902 136.921 1.68202 143.277 0.651994C149.639 -0.37896 158.91 -0.164337 163.986 1.13295Z" fill="#74C565"/>
<path d="M147.346 27.4023L147.32 95.9341L94.666 104.467L94.6925 35.9353L147.346 27.4023Z" fill="#42AD2D"/>
<path d="M94.6926 35.9351L94.6662 104.467L52.6538 93.73L52.6802 25.1982L94.6926 35.9351Z" fill="#FF1900"/>
<path d="M147.346 27.4023L147.32 95.071L94.666 103.604L94.6925 35.9353L147.346 27.4023Z" fill="#58BC44"/>
<path d="M94.6926 35.9351L94.6662 103.604L52.6538 92.8669L52.6802 25.1982L94.6926 35.9351Z" fill="#D2220B"/>
<path d="M147.353 27.4019L94.6992 35.9349L52.6868 25.198L105.34 16.665L147.353 27.4019Z" fill="#6FC55C"/>
<path d="M114.468 11.8413C114.461 11.8558 114.455 11.8703 114.447 11.8849C114.392 11.981 114.314 12.0766 114.214 12.1713C114.2 12.1839 114.188 12.1965 114.174 12.209C114.067 12.3041 113.937 12.3982 113.784 12.491C113.766 12.5022 113.748 12.5135 113.729 12.5247C113.571 12.6179 113.387 12.7096 113.183 12.7996C113.16 12.8099 113.138 12.8203 113.114 12.8305C112.905 12.9196 112.672 13.0067 112.419 13.0918C112.385 13.1032 112.352 13.1148 112.317 13.1261C112.065 13.2084 111.788 13.2882 111.494 13.3659C111.432 13.3824 111.368 13.3987 111.304 13.4149C110.987 13.4951 110.654 13.5735 110.292 13.6477C110.291 13.6479 110.29 13.6482 110.289 13.6483C109.888 13.7305 109.46 13.8087 109.004 13.8826C108.662 13.938 108.307 13.9882 107.949 14.0364C107.748 14.0635 107.543 14.088 107.337 14.1127C107.132 14.1376 106.926 14.1626 106.716 14.1852C106.25 14.2355 105.775 14.2812 105.291 14.3204C105.254 14.3235 105.218 14.3275 105.18 14.3305C104.714 14.3674 104.24 14.399 103.763 14.4258C103.322 14.4505 102.877 14.4711 102.43 14.4872C102.4 14.4883 102.37 14.4889 102.34 14.4899C101.44 14.5212 100.53 14.5355 99.623 14.5325C99.5868 14.5324 99.5508 14.5321 99.5148 14.5319C99.0907 14.5299 98.6674 14.5241 98.2459 14.5148C98.1916 14.5136 98.1373 14.5121 98.083 14.5109C97.6737 14.5009 97.2665 14.4873 96.8623 14.4704C96.7998 14.4678 96.7374 14.465 96.6751 14.4622C96.2719 14.4442 95.8719 14.4229 95.4765 14.398C95.4169 14.3943 95.358 14.39 95.2986 14.3862C94.8964 14.3597 94.4982 14.3303 94.107 14.2968C94.0658 14.2932 94.0254 14.2892 93.9844 14.2856C93.595 14.2514 93.2114 14.2139 92.8358 14.1726C92.811 14.1699 92.7855 14.1676 92.7608 14.1648C92.3923 14.1237 92.0337 14.0784 91.681 14.0307C91.6015 14.0199 91.522 14.0092 91.4433 13.9981C91.0876 13.9479 90.7388 13.8951 90.4026 13.838C90.3585 13.8305 90.3175 13.8221 90.2738 13.8144C89.9846 13.7642 89.7042 13.711 89.4316 13.6557C89.2608 13.621 89.0993 13.5836 88.9355 13.5469C88.7195 13.4985 88.4991 13.4514 88.296 13.3994C86.1304 12.8459 85.0793 12.1852 85.0796 11.5293L85.073 28.4465C85.0727 29.1022 86.1237 29.7631 88.2894 30.3166C88.3713 30.3374 88.4541 30.3581 88.5381 30.3784C88.6616 30.4084 88.798 30.4347 88.9261 30.4634C89.0908 30.5004 89.2531 30.5379 89.4249 30.5728C89.4685 30.5816 89.5075 30.5917 89.5515 30.6005C89.7858 30.647 90.0298 30.6904 90.276 30.7331C90.3161 30.7401 90.3537 30.7479 90.3942 30.7548C90.4022 30.7561 90.4094 30.7576 90.4173 30.759C90.6772 30.8029 90.9432 30.8448 91.2149 30.8846C91.2867 30.8952 91.3616 30.9044 91.4341 30.9147C91.5148 30.9261 91.5961 30.9371 91.6778 30.9481C91.7782 30.9617 91.8763 30.9763 91.978 30.9893C92.2216 31.0205 92.469 31.0502 92.7198 31.0782C92.731 31.0795 92.7428 31.0805 92.7541 31.0818C92.7789 31.0845 92.8043 31.0868 92.8291 31.0896C93.0328 31.1119 93.2376 31.1339 93.4456 31.1542C93.6212 31.1713 93.7998 31.187 93.9782 31.2027C94.0191 31.2062 94.0591 31.2102 94.1001 31.2138C94.1248 31.2159 94.1489 31.2183 94.1736 31.2204C94.4149 31.2408 94.6585 31.2598 94.9041 31.2776C95.0324 31.2869 95.1627 31.2947 95.292 31.3032C95.3513 31.3071 95.4101 31.3113 95.4696 31.315C95.5242 31.3185 95.5778 31.3225 95.6325 31.3258C95.873 31.3403 96.115 31.3536 96.3585 31.3656C96.4619 31.3707 96.5665 31.3747 96.6705 31.3794C96.7312 31.3821 96.7916 31.3848 96.8524 31.3874C96.9288 31.3906 97.0047 31.3945 97.0814 31.3975C97.3113 31.4063 97.5421 31.4141 97.7738 31.4208C97.8763 31.4237 97.9795 31.4257 98.0822 31.4282C98.133 31.4294 98.1836 31.4307 98.2344 31.4318C98.3059 31.4335 98.3771 31.4356 98.4486 31.437C98.6649 31.4411 98.8816 31.4444 99.0987 31.4466C99.2351 31.4481 99.3719 31.4485 99.5085 31.4491C99.5445 31.4493 99.5804 31.4496 99.6163 31.4497C99.6533 31.4498 99.6902 31.4503 99.7271 31.4504C99.9335 31.4507 100.14 31.4502 100.346 31.4487C100.561 31.4473 100.775 31.4449 100.989 31.4415C100.991 31.4415 100.992 31.4415 100.993 31.4415C101.215 31.438 101.436 31.4335 101.656 31.428C101.886 31.4222 102.114 31.4148 102.342 31.4068C102.368 31.4059 102.394 31.4054 102.42 31.4045C102.435 31.404 102.45 31.4036 102.464 31.4031C102.885 31.3877 103.303 31.3685 103.717 31.3456C103.729 31.3449 103.741 31.3438 103.753 31.3431C104.233 31.3163 104.708 31.2846 105.176 31.2475C105.18 31.2471 105.185 31.247 105.19 31.2465C105.218 31.2443 105.244 31.2411 105.272 31.2388C105.76 31.1992 106.239 31.1532 106.71 31.1024C106.765 31.0965 106.823 31.0925 106.878 31.0865C107.032 31.0694 107.179 31.0484 107.331 31.03C107.536 31.0051 107.742 30.9807 107.943 30.9537C108.003 30.9455 108.068 30.9389 108.128 30.9305C108.423 30.8895 108.713 30.8459 108.997 30.7998C109.098 30.7835 109.197 30.767 109.295 30.7503C109.639 30.6915 109.967 30.6301 110.278 30.5664C110.279 30.5663 110.28 30.566 110.281 30.5658C110.285 30.5651 110.288 30.5643 110.291 30.5636C110.559 30.5085 110.816 30.4518 111.059 30.3935C111.143 30.3734 111.218 30.3523 111.298 30.3319C111.362 30.3158 111.425 30.2996 111.488 30.2832C111.554 30.2655 111.627 30.2485 111.691 30.2306C111.876 30.1795 112.052 30.1274 112.219 30.0743C112.251 30.0642 112.279 30.0535 112.31 30.0433C112.346 30.0319 112.378 30.0202 112.413 30.0087C112.496 29.9805 112.583 29.9528 112.662 29.9242C112.796 29.8753 112.924 29.8259 113.044 29.7758C113.067 29.7663 113.086 29.7567 113.108 29.7471C113.132 29.7372 113.153 29.727 113.176 29.717C113.244 29.687 113.314 29.6572 113.377 29.627C113.48 29.5776 113.576 29.5279 113.665 29.4776C113.686 29.4656 113.703 29.4534 113.723 29.4415C113.742 29.4304 113.759 29.4194 113.778 29.4082C113.823 29.3808 113.871 29.3535 113.912 29.3258C113.988 29.2744 114.057 29.2225 114.12 29.1704C114.138 29.1556 114.151 29.1406 114.167 29.1258C114.181 29.1133 114.194 29.1009 114.207 29.0883C114.234 29.0625 114.265 29.0369 114.289 29.011C114.34 28.9554 114.384 28.8995 114.42 28.8435C114.429 28.8297 114.432 28.8157 114.44 28.8019C114.449 28.7872 114.455 28.7727 114.462 28.758C114.477 28.7276 114.496 28.6973 114.507 28.6667C114.529 28.6041 114.541 28.5412 114.543 28.4782C114.544 28.4702 114.544 28.4622 114.544 28.4542L114.55 11.5371C114.55 11.6387 114.518 11.7404 114.468 11.8413Z" fill="#54B840"/>
<path d="M111.332 9.66616C116.408 10.9634 115.366 12.8516 109.004 13.8826C102.648 14.9126 93.3722 14.6966 88.296 13.3994C83.22 12.1021 84.2673 10.2152 90.6232 9.1852C96.985 8.15424 106.256 8.36887 111.332 9.66616Z" fill="#74C565"/>
<path d="M94.6925 35.9355L94.6661 104.467L42.0125 113L42.0388 44.4685L94.6925 35.9355Z" fill="#42AD2D"/>
<path d="M42.0388 44.4683L42.0125 113L0 102.263L0.0264387 33.7314L42.0388 44.4683Z" fill="#2D9009"/>
<path d="M94.6925 35.9355L94.6661 103.604L42.0125 112.137L42.0388 44.4685L94.6925 35.9355Z" fill="#58BC44"/>
<path d="M42.0388 44.4683L42.0125 112.137L0 101.4L0.0264387 33.7314L42.0388 44.4683Z" fill="#38A611"/>
<path d="M94.6925 35.9351L42.0388 44.4681L0.0263672 33.7312L52.6801 25.1982L94.6925 35.9351Z" fill="#6FC55C"/>
<path d="M61.8213 20.3745C61.814 20.389 61.808 20.4035 61.7998 20.4181C61.745 20.5142 61.6667 20.6098 61.5666 20.7045C61.5534 20.7171 61.5407 20.7297 61.5266 20.7422C61.4199 20.8373 61.2895 20.9314 61.1374 21.0242C61.1189 21.0354 61.1015 21.0467 61.0825 21.0579C60.9236 21.1511 60.7405 21.2428 60.5359 21.3328C60.5127 21.3431 60.4908 21.3535 60.467 21.3637C60.2584 21.4528 60.0249 21.5399 59.7716 21.625C59.7376 21.6364 59.7051 21.648 59.6704 21.6593C59.418 21.7416 59.1415 21.8214 58.8473 21.8991C58.785 21.9156 58.7213 21.9319 58.657 21.9481C58.34 22.0283 58.0071 22.1067 57.6447 22.1809C57.6437 22.1811 57.6428 22.1814 57.6418 22.1815C57.241 22.2637 56.8127 22.3419 56.357 22.4158C56.0148 22.4712 55.6604 22.5214 55.3023 22.5696C55.1015 22.5967 54.8957 22.6212 54.6905 22.6459C54.4848 22.6708 54.2791 22.6958 54.0693 22.7184C53.6026 22.7687 53.128 22.8144 52.6443 22.8536C52.6069 22.8567 52.5709 22.8607 52.5334 22.8637C52.067 22.9006 51.5935 22.9322 51.1156 22.959C50.6749 22.9837 50.2302 23.0043 49.783 23.0204C49.7533 23.0215 49.7233 23.0221 49.6935 23.0231C48.7931 23.0544 47.8834 23.0687 46.976 23.0657C46.9399 23.0656 46.9038 23.0653 46.8678 23.0651C46.4437 23.0631 46.0204 23.0573 45.5989 23.048C45.5446 23.0468 45.4904 23.0453 45.4361 23.0441C45.0268 23.0341 44.6195 23.0205 44.2153 23.0036C44.1529 23.001 44.0905 22.9982 44.0282 22.9954C43.6249 22.9774 43.2249 22.9561 42.8295 22.9312C42.77 22.9275 42.711 22.9232 42.6517 22.9194C42.2494 22.8929 41.8513 22.8635 41.4601 22.83C41.4188 22.8264 41.3785 22.8224 41.3374 22.8188C40.948 22.7846 40.5644 22.7471 40.1888 22.7058C40.1641 22.7031 40.1386 22.7008 40.1138 22.698C39.7453 22.6569 39.3867 22.6116 39.034 22.5639C38.9545 22.5531 38.8751 22.5424 38.7963 22.5313C38.4407 22.4811 38.0918 22.4283 37.7556 22.3712C37.7115 22.3637 37.6705 22.3553 37.6268 22.3477C37.3376 22.2974 37.0572 22.2442 36.7846 22.1889C36.6139 22.1542 36.4523 22.1168 36.2885 22.0801C36.0725 22.0317 35.8521 21.9846 35.649 21.9326C33.4834 21.3791 32.4323 20.7184 32.4326 20.0625L32.426 36.9797C32.4258 37.6355 33.4768 38.2963 35.6425 38.8498C35.7243 38.8706 35.8071 38.8913 35.8911 38.9116C36.0146 38.9416 36.151 38.9679 36.2791 38.9966C36.4439 39.0336 36.6061 39.0711 36.778 39.106C36.8215 39.1148 36.8605 39.1249 36.9045 39.1337C37.1389 39.1802 37.3828 39.2236 37.629 39.2663C37.6691 39.2733 37.7067 39.2811 37.7472 39.288C37.7552 39.2893 37.7624 39.2908 37.7704 39.2922C38.0303 39.3361 38.2963 39.378 38.5679 39.4178C38.6397 39.4284 38.7147 39.4376 38.7871 39.4479C38.8678 39.4593 38.9491 39.4703 39.0308 39.4813C39.1313 39.4949 39.2293 39.5095 39.3311 39.5225C39.5747 39.5537 39.822 39.5834 40.0728 39.6114C40.0841 39.6127 40.0958 39.6137 40.1071 39.615C40.1319 39.6177 40.1573 39.62 40.1822 39.6228C40.3858 39.6451 40.5906 39.6671 40.7986 39.6874C40.9742 39.7045 41.1528 39.7202 41.3312 39.7359C41.3721 39.7394 41.4122 39.7434 41.4532 39.747C41.4778 39.7491 41.5019 39.7515 41.5266 39.7536C41.7679 39.774 42.0115 39.793 42.2571 39.8108C42.3854 39.8201 42.5157 39.8279 42.645 39.8364C42.7043 39.8403 42.7631 39.8445 42.8227 39.8482C42.8772 39.8517 42.9308 39.8557 42.9855 39.859C43.226 39.8735 43.4681 39.8868 43.7115 39.8988C43.815 39.9039 43.9195 39.9079 44.0235 39.9126C44.0842 39.9153 44.1446 39.918 44.2054 39.9206C44.2819 39.9238 44.3577 39.9277 44.4344 39.9307C44.6643 39.9395 44.8952 39.9473 45.1268 39.954C45.2294 39.9569 45.3325 39.9589 45.4352 39.9614C45.486 39.9626 45.5366 39.9639 45.5875 39.965C45.6589 39.9667 45.7301 39.9689 45.8017 39.9702C46.0179 39.9743 46.2346 39.9776 46.4517 39.9798C46.5882 39.9813 46.7249 39.9817 46.8616 39.9823C46.8975 39.9825 46.9334 39.9828 46.9693 39.9829C47.0063 39.983 47.0432 39.9835 47.0801 39.9836C47.2865 39.9839 47.493 39.9834 47.6994 39.9819C47.9139 39.9805 48.1282 39.9781 48.3424 39.9747C48.3437 39.9747 48.3448 39.9747 48.346 39.9747C48.5675 39.9712 48.7887 39.9667 49.0095 39.9612C49.2387 39.9554 49.4671 39.948 49.6952 39.94C49.7212 39.9391 49.7472 39.9386 49.7731 39.9377C49.7878 39.9372 49.8027 39.9368 49.8175 39.9363C50.2377 39.9209 50.6557 39.9017 51.0701 39.8788C51.0824 39.8781 51.0942 39.877 51.1065 39.8763C51.586 39.8495 52.0609 39.8178 52.5291 39.7807C52.5335 39.7803 52.5382 39.7802 52.5427 39.7797C52.5707 39.7776 52.5971 39.7743 52.625 39.772C53.1133 39.7324 53.592 39.6864 54.063 39.6356C54.1179 39.6297 54.1761 39.6257 54.2307 39.6197C54.385 39.6026 54.5319 39.5816 54.6838 39.5632C54.8893 39.5383 55.0948 39.5139 55.2957 39.4869C55.3565 39.4787 55.4206 39.4721 55.4809 39.4637C55.7761 39.4227 56.0662 39.3791 56.3505 39.333C56.451 39.3167 56.5502 39.3002 56.648 39.2835C56.9923 39.2247 57.3202 39.1633 57.6315 39.0996C57.6323 39.0995 57.6332 39.0992 57.634 39.099C57.6376 39.0983 57.6406 39.0975 57.6442 39.0968C57.9125 39.0417 58.1691 38.985 58.4125 38.9267C58.496 38.9066 58.5708 38.8855 58.6514 38.8651C58.7153 38.849 58.7784 38.8328 58.8406 38.8164C58.9074 38.7987 58.9798 38.7817 59.0445 38.7638C59.2292 38.7127 59.4051 38.6606 59.5721 38.6075C59.6041 38.5974 59.6321 38.5867 59.6635 38.5765C59.6986 38.5651 59.7312 38.5534 59.7656 38.5419C59.8492 38.5137 59.936 38.486 60.0148 38.4574C60.1495 38.4085 60.2769 38.3591 60.3973 38.309C60.4199 38.2995 60.4391 38.2899 60.4613 38.2803C60.4847 38.2704 60.506 38.2602 60.5288 38.2502C60.5968 38.2202 60.6673 38.1904 60.7303 38.1602C60.8328 38.1108 60.9286 38.0611 61.0177 38.0108C61.0389 37.9988 61.056 37.9866 61.0765 37.9747C61.0954 37.9636 61.1125 37.9526 61.1306 37.9414C61.1757 37.914 61.2236 37.8867 61.2647 37.859C61.3411 37.8076 61.4105 37.7557 61.4732 37.7036C61.4909 37.6888 61.5038 37.6738 61.5204 37.659C61.5345 37.6465 61.5469 37.6341 61.5601 37.6215C61.5873 37.5957 61.6182 37.5701 61.6422 37.5442C61.6934 37.4886 61.7371 37.4327 61.7728 37.3767C61.7817 37.3629 61.7855 37.3489 61.7934 37.3351C61.8017 37.3204 61.8077 37.3059 61.815 37.2912C61.8301 37.2608 61.8494 37.2305 61.8599 37.2C61.8817 37.1373 61.8938 37.0744 61.8964 37.0114C61.8967 37.0034 61.8968 36.9954 61.8968 36.9874L61.9034 20.0703C61.9034 20.1719 61.8715 20.2736 61.8213 20.3745Z" fill="#54B840"/>
<path d="M58.6786 18.1994C63.7547 19.4967 62.7121 21.3848 56.3503 22.4158C49.9944 23.4458 40.7184 23.2298 35.6423 21.9326C30.5661 20.6354 31.6136 18.7484 37.9695 17.7184C44.3313 16.6874 53.6026 16.9021 58.6786 18.1994Z" fill="#74C565"/>
<mask id="path-22-outside-1_736_45" maskUnits="userSpaceOnUse" x="75.3101" y="45.9293" width="87.7671" height="37.5027" fill="black">
<rect fill="white" x="75.3101" y="45.9293" width="87.7671" height="37.5027"/>
<path d="M87.9741 77.2587C86.8985 77.4223 85.8651 77.4905 84.8739 77.4633C83.8961 77.4178 83.0804 77.2668 82.4268 77.0101L82.6796 72.5777C83.4147 72.8381 84.2352 73.0208 85.1411 73.1258C86.0627 73.2283 86.8874 73.2243 87.615 73.1136C88.1212 73.0366 88.515 72.9119 88.7964 72.7397C89.0754 72.5516 89.1958 72.3309 89.1576 72.0778C89.1194 71.8247 88.8601 71.6618 88.3799 71.5892C87.8997 71.5166 87.273 71.3854 86.5 71.1954C85.4231 70.9223 84.5922 70.5632 84.0071 70.1181C83.4197 69.6572 83.0615 68.9996 82.9324 68.1453C82.8679 67.7181 82.8564 67.2667 82.8978 66.7911C83.002 65.1245 83.5888 63.8133 84.6581 62.8576C85.7249 61.8861 87.4764 61.2151 89.9123 60.8446C90.4185 60.7676 90.9781 60.7229 91.5911 60.7106C92.2018 60.6824 92.8002 60.6804 93.3864 60.7045C93.9726 60.7286 94.4729 60.7739 94.8875 60.8403L94.6145 65.3001C93.7845 65.0541 93.0356 64.9172 92.368 64.8893C91.7161 64.8589 91.1371 64.8823 90.6309 64.9593C90.3462 65.0026 90.056 65.0629 89.7602 65.1403C89.4644 65.2176 89.213 65.3206 89.0059 65.4492C88.8146 65.5754 88.7333 65.7335 88.762 65.9233C88.7906 66.1132 88.9794 66.2382 89.3283 66.2984C89.6907 66.3404 90.2366 66.4192 90.966 66.5348C92.3545 66.7282 93.3472 67.087 93.9442 67.6112C94.557 68.1329 94.9279 68.821 95.0569 69.6753C95.0928 69.9126 95.114 70.1602 95.1206 70.4182C95.1272 70.6761 95.1204 70.9523 95.1001 71.2467C95.0403 72.243 94.7647 73.1508 94.2736 73.9699C93.7982 74.7867 93.0526 75.4747 92.0367 76.0338C91.0209 76.5929 89.6666 77.0012 87.9741 77.2587ZM99.0798 75.3266L99.744 63.8158L95.8528 64.4077L96.107 60.145L109.631 58.0877L109.377 62.3504L105.486 62.9423L104.822 74.4531L99.0798 75.3266ZM107.037 74.1162L113.839 57.4475L119.795 56.5416L124.761 71.42L119.066 72.2862L118.138 69.5143L114.436 70.0774L113.182 73.1814L107.037 74.1162ZM115.292 65.9416L117.618 65.5879L116.631 62.7521L115.292 65.9416ZM133.283 70.3664C131.717 70.6046 130.323 70.5901 129.101 70.3227C127.896 70.053 126.911 69.5312 126.146 68.7573C125.396 67.9652 124.922 66.9205 124.726 65.6233C124.636 65.0221 124.608 64.3547 124.642 63.6211C124.804 60.9423 125.734 58.7941 127.431 57.1764C129.129 55.5587 131.393 54.5346 134.224 54.1038C135.205 53.9547 136.062 53.8971 136.795 53.9312C137.545 53.9629 138.272 54.0627 138.977 54.2306L138.665 59.4002C137.252 58.9355 135.794 58.8174 134.291 59.046C133.089 59.2289 132.174 59.5947 131.544 60.1436C130.929 60.6742 130.582 61.5362 130.503 62.7296C130.484 62.9267 130.48 63.1134 130.491 63.2898C130.501 63.4663 130.518 63.6336 130.542 63.7918C130.654 64.5354 130.986 65.0189 131.538 65.2425C132.103 65.4479 132.915 65.47 133.975 65.3088C135.478 65.0802 136.978 64.5121 138.475 63.6046L138.164 68.7743C137.427 69.1453 136.674 69.4622 135.904 69.7249C135.137 70.0034 134.263 70.2172 133.283 70.3664ZM139.349 69.2009L140.267 53.4274L146.009 52.5539L145.753 56.9626L149.355 52.045L155.832 51.0597L150.24 58.392L155.388 66.761L149.314 67.685L146.494 62.6761L145.319 64.2143L145.091 68.3274L139.349 69.2009Z"/>
</mask>
<path d="M87.9741 77.2587C86.8985 77.4223 85.8651 77.4905 84.8739 77.4633C83.8961 77.4178 83.0804 77.2668 82.4268 77.0101L82.6796 72.5777C83.4147 72.8381 84.2352 73.0208 85.1411 73.1258C86.0627 73.2283 86.8874 73.2243 87.615 73.1136C88.1212 73.0366 88.515 72.9119 88.7964 72.7397C89.0754 72.5516 89.1958 72.3309 89.1576 72.0778C89.1194 71.8247 88.8601 71.6618 88.3799 71.5892C87.8997 71.5166 87.273 71.3854 86.5 71.1954C85.4231 70.9223 84.5922 70.5632 84.0071 70.1181C83.4197 69.6572 83.0615 68.9996 82.9324 68.1453C82.8679 67.7181 82.8564 67.2667 82.8978 66.7911C83.002 65.1245 83.5888 63.8133 84.6581 62.8576C85.7249 61.8861 87.4764 61.2151 89.9123 60.8446C90.4185 60.7676 90.9781 60.7229 91.5911 60.7106C92.2018 60.6824 92.8002 60.6804 93.3864 60.7045C93.9726 60.7286 94.4729 60.7739 94.8875 60.8403L94.6145 65.3001C93.7845 65.0541 93.0356 64.9172 92.368 64.8893C91.7161 64.8589 91.1371 64.8823 90.6309 64.9593C90.3462 65.0026 90.056 65.0629 89.7602 65.1403C89.4644 65.2176 89.213 65.3206 89.0059 65.4492C88.8146 65.5754 88.7333 65.7335 88.762 65.9233C88.7906 66.1132 88.9794 66.2382 89.3283 66.2984C89.6907 66.3404 90.2366 66.4192 90.966 66.5348C92.3545 66.7282 93.3472 67.087 93.9442 67.6112C94.557 68.1329 94.9279 68.821 95.0569 69.6753C95.0928 69.9126 95.114 70.1602 95.1206 70.4182C95.1272 70.6761 95.1204 70.9523 95.1001 71.2467C95.0403 72.243 94.7647 73.1508 94.2736 73.9699C93.7982 74.7867 93.0526 75.4747 92.0367 76.0338C91.0209 76.5929 89.6666 77.0012 87.9741 77.2587ZM99.0798 75.3266L99.744 63.8158L95.8528 64.4077L96.107 60.145L109.631 58.0877L109.377 62.3504L105.486 62.9423L104.822 74.4531L99.0798 75.3266ZM107.037 74.1162L113.839 57.4475L119.795 56.5416L124.761 71.42L119.066 72.2862L118.138 69.5143L114.436 70.0774L113.182 73.1814L107.037 74.1162ZM115.292 65.9416L117.618 65.5879L116.631 62.7521L115.292 65.9416ZM133.283 70.3664C131.717 70.6046 130.323 70.5901 129.101 70.3227C127.896 70.053 126.911 69.5312 126.146 68.7573C125.396 67.9652 124.922 66.9205 124.726 65.6233C124.636 65.0221 124.608 64.3547 124.642 63.6211C124.804 60.9423 125.734 58.7941 127.431 57.1764C129.129 55.5587 131.393 54.5346 134.224 54.1038C135.205 53.9547 136.062 53.8971 136.795 53.9312C137.545 53.9629 138.272 54.0627 138.977 54.2306L138.665 59.4002C137.252 58.9355 135.794 58.8174 134.291 59.046C133.089 59.2289 132.174 59.5947 131.544 60.1436C130.929 60.6742 130.582 61.5362 130.503 62.7296C130.484 62.9267 130.48 63.1134 130.491 63.2898C130.501 63.4663 130.518 63.6336 130.542 63.7918C130.654 64.5354 130.986 65.0189 131.538 65.2425C132.103 65.4479 132.915 65.47 133.975 65.3088C135.478 65.0802 136.978 64.5121 138.475 63.6046L138.164 68.7743C137.427 69.1453 136.674 69.4622 135.904 69.7249C135.137 70.0034 134.263 70.2172 133.283 70.3664ZM139.349 69.2009L140.267 53.4274L146.009 52.5539L145.753 56.9626L149.355 52.045L155.832 51.0597L150.24 58.392L155.388 66.761L149.314 67.685L146.494 62.6761L145.319 64.2143L145.091 68.3274L139.349 69.2009Z" fill="#F0F0F0"/>
<path d="M84.8739 77.4633L84.6842 81.4596C84.7095 81.4608 84.7347 81.4617 84.76 81.4624L84.8739 77.4633ZM82.4268 77.0101L78.4339 76.7862C78.3355 78.5112 79.3552 80.1034 80.9624 80.7344L82.4268 77.0101ZM82.6796 72.5777L84.018 68.8064C82.8314 68.3861 81.5157 68.5495 80.4669 69.2474C79.418 69.9453 78.7585 71.0962 78.6867 72.3538L82.6796 72.5777ZM85.1411 73.1258L84.6769 77.0998C84.6829 77.1005 84.689 77.1012 84.695 77.1019L85.1411 73.1258ZM88.7964 72.7397L90.8816 76.1514C90.9315 76.1209 90.9807 76.0892 91.0292 76.0565L88.7964 72.7397ZM88.3799 71.5892L88.9814 67.6335L88.9814 67.6335L88.3799 71.5892ZM86.5 71.1954L85.5133 75.0734C85.523 75.0759 85.5328 75.0783 85.5425 75.0807L86.5 71.1954ZM84.0071 70.1181L81.5369 73.2669C81.5526 73.2791 81.5683 73.2913 81.5841 73.3033L84.0071 70.1181ZM82.8978 66.7911L86.8821 67.1344C86.8849 67.1019 86.8873 67.0695 86.8894 67.037L82.8978 66.7911ZM84.6581 62.8576L87.3211 65.8397C87.3303 65.8315 87.3395 65.8232 87.3487 65.8148L84.6581 62.8576ZM91.5911 60.7106L91.6676 64.7104C91.7022 64.7097 91.7367 64.7085 91.7713 64.7069L91.5911 60.7106ZM93.3864 60.7045L93.218 64.7017L93.218 64.7017L93.3864 60.7045ZM94.8875 60.8403L98.8794 61.0808C99.0051 59.0276 97.5539 57.2152 95.5237 56.89L94.8875 60.8403ZM94.6145 65.3001L93.475 69.136C94.6439 69.4824 95.9075 69.2762 96.9068 68.576C97.9061 67.8759 98.5319 66.7582 98.6064 65.5406L94.6145 65.3001ZM92.368 64.8893L92.1782 68.8856C92.1845 68.8858 92.1907 68.8861 92.197 68.8864L92.368 64.8893ZM89.7602 65.1403L88.7521 61.2699L88.7521 61.2699L89.7602 65.1403ZM89.0059 65.4492L86.899 62.0509C86.8678 62.0702 86.8369 62.09 86.8063 62.1102L89.0059 65.4492ZM89.3283 66.2984L88.6446 70.2408C88.7175 70.2534 88.7907 70.2639 88.8642 70.2725L89.3283 66.2984ZM90.966 66.5348L90.3363 70.4862C90.361 70.4901 90.3858 70.4938 90.4106 70.4972L90.966 66.5348ZM93.9442 67.6112L91.3041 70.6189C91.3194 70.6323 91.3347 70.6456 91.3501 70.6587L93.9442 67.6112ZM95.1001 71.2467L91.1102 70.9759C91.1094 70.9875 91.1086 70.9991 91.1079 71.0106L95.1001 71.2467ZM94.2736 73.9699L90.8443 71.9148C90.8354 71.9297 90.8265 71.9447 90.8177 71.9598L94.2736 73.9699ZM92.0367 76.0338L93.962 79.5384L93.962 79.5384L92.0367 76.0338ZM87.9741 77.2587L87.3767 73.3036C86.514 73.4348 85.7194 73.4843 84.9878 73.4642L84.8739 77.4633L84.76 81.4624C86.0108 81.4968 87.283 81.4099 88.5715 81.2138L87.9741 77.2587ZM84.8739 77.4633L85.0636 73.467C84.3642 73.4344 84.0124 73.3335 83.8911 73.2859L82.4268 77.0101L80.9624 80.7344C82.1485 81.2 83.4281 81.4012 84.6842 81.4596L84.8739 77.4633ZM82.4268 77.0101L86.4197 77.2341L86.6725 72.8016L82.6796 72.5777L78.6867 72.3538L78.4339 76.7862L82.4268 77.0101ZM82.6796 72.5777L81.3412 76.349C82.402 76.7248 83.5217 76.966 84.6769 77.0998L85.1411 73.1258L85.6052 69.1517C84.9487 69.0757 84.4275 68.9515 84.018 68.8064L82.6796 72.5777ZM85.1411 73.1258L84.695 77.1019C85.8782 77.2335 87.0634 77.2435 88.2124 77.0687L87.615 73.1136L87.0176 69.1584C86.7114 69.205 86.2473 69.2231 85.5872 69.1497L85.1411 73.1258ZM87.615 73.1136L88.2124 77.0687C88.9855 76.9511 89.9646 76.7128 90.8816 76.1514L88.7964 72.7397L86.7112 69.3279C86.9063 69.2085 87.0485 69.1604 87.087 69.1482C87.1283 69.1351 87.112 69.1441 87.0176 69.1584L87.615 73.1136ZM88.7964 72.7397L91.0292 76.0565C92.1122 75.3264 93.4564 73.7556 93.1121 71.4763L89.1576 72.0778L85.2031 72.6794C85.0943 71.9593 85.2187 71.192 85.5861 70.5189C85.9194 69.9081 86.3439 69.5709 86.5636 69.4228L88.7964 72.7397ZM89.1576 72.0778L93.1121 71.4763C92.8849 69.972 91.9661 68.9441 91.0641 68.3774C90.2769 67.8828 89.482 67.7092 88.9814 67.6335L88.3799 71.5892L87.7784 75.5449C87.758 75.5418 87.3329 75.486 86.8049 75.1543C86.1621 74.7504 85.3921 73.9305 85.2031 72.6794L89.1576 72.0778ZM88.3799 71.5892L88.9814 67.6335C88.6719 67.5867 88.1769 67.487 87.4575 67.3102L86.5 71.1954L85.5425 75.0807C86.3692 75.2838 87.1275 75.4465 87.7784 75.5449L88.3799 71.5892ZM86.5 71.1954L87.4867 67.3175C87.1099 67.2219 86.8409 67.1273 86.6584 67.0485C86.4741 66.9688 86.4144 66.9209 86.4302 66.9329L84.0071 70.1181L81.5841 73.3033C82.7574 74.1959 84.1564 74.7292 85.5133 75.0734L86.5 71.1954ZM84.0071 70.1181L86.4774 66.9693C86.6123 67.0752 86.73 67.2151 86.8102 67.3622C86.8853 67.5002 86.8923 67.5795 86.8869 67.5437L82.9324 68.1453L78.9779 68.7468C79.2336 70.4395 80.0232 72.0791 81.5369 73.2669L84.0071 70.1181ZM82.9324 68.1453L86.8869 67.5437C86.8743 67.4599 86.8653 67.3275 86.8821 67.1344L82.8978 66.7911L78.9135 66.4478C78.8475 67.206 78.8616 67.9764 78.9779 68.7468L82.9324 68.1453ZM82.8978 66.7911L86.8894 67.037C86.9396 66.2347 87.1666 65.9779 87.3211 65.8397L84.6581 62.8576L81.995 59.8755C80.011 61.6488 79.0645 64.0142 78.9062 66.5452L82.8978 66.7911ZM84.6581 62.8576L87.3487 65.8148C87.5484 65.6329 88.3627 65.1263 90.5097 64.7997L89.9123 60.8446L89.3149 56.8894C86.59 57.3039 83.9014 58.1393 81.9674 59.9004L84.6581 62.8576ZM89.9123 60.8446L90.5097 64.7997C90.8137 64.7535 91.1961 64.7199 91.6676 64.7104L91.5911 60.7106L91.5147 56.7107C90.7601 56.7259 90.0233 56.7817 89.3149 56.8894L89.9123 60.8446ZM91.5911 60.7106L91.7713 64.7069C92.2707 64.6839 92.7527 64.6826 93.218 64.7017L93.3864 60.7045L93.5547 56.7073C92.8477 56.6782 92.1329 56.6809 91.411 56.7142L91.5911 60.7106ZM93.3864 60.7045L93.218 64.7017C93.7038 64.7217 94.0388 64.7566 94.2512 64.7906L94.8875 60.8403L95.5237 56.89C94.9071 56.7912 94.2413 56.7355 93.5547 56.7073L93.3864 60.7045ZM94.8875 60.8403L90.8956 60.5998L90.6226 65.0596L94.6145 65.3001L98.6064 65.5406L98.8794 61.0808L94.8875 60.8403ZM94.6145 65.3001L95.754 61.4641C94.6964 61.1507 93.6149 60.9371 92.5389 60.8921L92.368 64.8893L92.197 68.8864C92.4563 68.8972 92.8726 68.9575 93.475 69.136L94.6145 65.3001ZM92.368 64.8893L92.5577 60.8929C91.7107 60.8536 90.8596 60.8785 90.0335 61.0041L90.6309 64.9593L91.2284 68.9144C91.4146 68.8861 91.7216 68.8643 92.1782 68.8856L92.368 64.8893ZM90.6309 64.9593L90.0335 61.0041C89.6024 61.0697 89.175 61.1592 88.7521 61.2699L89.7602 65.1403L90.7683 69.0107C90.937 68.9666 91.09 68.9355 91.2284 68.9144L90.6309 64.9593ZM89.7602 65.1403L88.7521 61.2699C88.1626 61.4241 87.5205 61.665 86.899 62.0509L89.0059 65.4492L91.1128 68.8476C91.0068 68.9134 90.9196 68.9541 90.8621 68.9776C90.8048 69.0011 90.7711 69.01 90.7683 69.0107L89.7602 65.1403ZM89.0059 65.4492L86.8063 62.1102C86.2987 62.4451 85.6796 62.9913 85.2458 63.8344C84.7886 64.7229 84.6783 65.6696 84.8075 66.5249L88.762 65.9233L92.7165 65.3218C92.817 65.9872 92.7329 66.7599 92.3571 67.4904C92.0045 68.1755 91.5217 68.5796 91.2055 68.7883L89.0059 65.4492ZM88.762 65.9233L84.8075 66.5249C85.0212 67.9399 85.864 68.9324 86.7149 69.4959C87.4568 69.9873 88.1992 70.164 88.6446 70.2408L89.3283 66.2984L90.0121 62.356C90.1085 62.3726 90.5821 62.4567 91.1352 62.823C91.7973 63.2615 92.5314 64.0965 92.7165 65.3218L88.762 65.9233ZM89.3283 66.2984L88.8642 70.2725C89.14 70.3044 89.6182 70.3723 90.3363 70.4862L90.966 66.5348L91.5957 62.5835C90.8549 62.466 90.2413 62.3764 89.7925 62.3244L89.3283 66.2984ZM90.966 66.5348L90.4106 70.4972C90.9132 70.5672 91.2234 70.6516 91.3896 70.7117C91.5621 70.774 91.4816 70.7747 91.3041 70.6189L93.9442 67.6112L96.5842 64.6034C95.1034 63.3032 93.166 62.8015 91.5215 62.5724L90.966 66.5348ZM93.9442 67.6112L91.3501 70.6587C91.2908 70.6082 91.2181 70.5254 91.1614 70.4201C91.1067 70.3188 91.0995 70.2573 91.1024 70.2768L95.0569 69.6753L99.0114 69.0737C98.7498 67.3418 97.9404 65.7575 96.5382 64.5636L93.9442 67.6112ZM95.0569 69.6753L91.1024 70.2768C91.1117 70.3385 91.1199 70.4202 91.1225 70.5245L95.1206 70.4182L99.1187 70.3118C99.1081 69.9003 99.0738 69.4867 99.0114 69.0737L95.0569 69.6753ZM95.1206 70.4182L91.1225 70.5245C91.1255 70.6404 91.123 70.7896 91.1102 70.9759L95.1001 71.2467L99.0901 71.5174C99.1177 71.1149 99.1289 70.7118 99.1187 70.3118L95.1206 70.4182ZM95.1001 71.2467L91.1079 71.0106C91.0849 71.3943 90.9891 71.6733 90.8443 71.9148L94.2736 73.9699L97.7028 76.0251C98.5404 74.6283 98.9956 73.0917 99.0923 71.4827L95.1001 71.2467ZM94.2736 73.9699L90.8177 71.9598C90.7825 72.0203 90.6354 72.2408 90.1114 72.5292L92.0367 76.0338L93.962 79.5384C95.4699 78.7085 96.814 77.5531 97.7294 75.9801L94.2736 73.9699ZM92.0367 76.0338L90.1114 72.5292C89.6553 72.7803 88.8047 73.0864 87.3767 73.3036L87.9741 77.2587L88.5715 81.2138C90.5286 80.9161 92.3865 80.4056 93.962 79.5384L92.0367 76.0338ZM99.0798 75.3266L95.0871 75.1C95.0176 76.3038 95.4945 77.4741 96.3852 78.2856C97.2759 79.097 98.4854 79.463 99.6772 79.2817L99.0798 75.3266ZM99.744 63.8158L103.737 64.0423C103.806 62.8386 103.329 61.6682 102.439 60.8567C101.548 60.0453 100.338 59.6793 99.1466 59.8606L99.744 63.8158ZM95.8528 64.4077L91.8605 64.1735C91.7887 65.3784 92.2645 66.5509 93.1554 67.3641C94.0463 68.1773 95.2571 68.5443 96.4502 68.3628L95.8528 64.4077ZM96.107 60.145L95.5096 56.1899C93.6426 56.4739 92.2272 58.0252 92.1147 59.9107L96.107 60.145ZM109.631 58.0877L113.624 58.3219C113.696 57.1169 113.22 55.9444 112.329 55.1312C111.438 54.318 110.227 53.951 109.034 54.1325L109.631 58.0877ZM109.377 62.3504L109.975 66.3055C111.842 66.0215 113.257 64.4702 113.37 62.5846L109.377 62.3504ZM105.486 62.9423L104.889 58.9872C103.019 59.2716 101.602 60.8271 101.493 62.7157L105.486 62.9423ZM104.822 74.4531L105.419 78.4082C107.289 78.1238 108.705 76.5683 108.814 74.6797L104.822 74.4531ZM99.0798 75.3266L103.073 75.5531L103.737 64.0423L99.744 63.8158L95.7513 63.5892L95.0871 75.1L99.0798 75.3266ZM99.744 63.8158L99.1466 59.8606L95.2554 60.4526L95.8528 64.4077L96.4502 68.3628L100.341 67.7709L99.744 63.8158ZM95.8528 64.4077L99.8451 64.6419L100.099 60.3792L96.107 60.145L92.1147 59.9107L91.8605 64.1735L95.8528 64.4077ZM96.107 60.145L96.7044 64.1001L110.229 62.0428L109.631 58.0877L109.034 54.1325L95.5096 56.1899L96.107 60.145ZM109.631 58.0877L105.639 57.8534L105.385 62.1161L109.377 62.3504L113.37 62.5846L113.624 58.3219L109.631 58.0877ZM109.377 62.3504L108.78 58.3952L104.889 58.9872L105.486 62.9423L106.083 66.8974L109.975 66.3055L109.377 62.3504ZM105.486 62.9423L101.493 62.7157L100.829 74.2265L104.822 74.4531L108.814 74.6797L109.479 63.1689L105.486 62.9423ZM104.822 74.4531L104.224 70.498L98.4824 71.3714L99.0798 75.3266L99.6772 79.2817L105.419 78.4082L104.822 74.4531ZM107.037 74.1162L103.334 72.6073C102.79 73.9403 103.004 75.4622 103.893 76.5927C104.783 77.7231 106.211 78.2877 107.634 78.0713L107.037 74.1162ZM113.839 57.4475L113.242 53.4924C111.849 53.7043 110.67 54.6335 110.137 55.9386L113.839 57.4475ZM119.795 56.5416L123.589 55.2713C122.973 53.4269 121.12 52.294 119.198 52.5865L119.795 56.5416ZM124.761 71.42L125.358 75.3751C126.526 75.1976 127.555 74.5133 128.172 73.5055C128.788 72.4977 128.928 71.2695 128.554 70.1497L124.761 71.42ZM119.066 72.2862L115.274 73.5606C115.891 75.4028 117.743 76.5336 119.664 76.2414L119.066 72.2862ZM118.138 69.5143L121.93 68.24C121.313 66.3978 119.461 65.267 117.54 65.5592L118.138 69.5143ZM114.436 70.0774L113.839 66.1223C112.441 66.3349 111.259 67.2697 110.729 68.5811L114.436 70.0774ZM113.182 73.1814L113.779 77.1365C115.177 76.9239 116.36 75.9891 116.89 74.6776L113.182 73.1814ZM115.292 65.9416L111.605 64.3962C111.045 65.7303 111.248 67.2622 112.137 68.4026C113.025 69.5429 114.46 70.1143 115.89 69.8968L115.292 65.9416ZM117.618 65.5879L118.215 69.5431C119.391 69.3642 120.427 68.671 121.042 67.6518C121.656 66.6325 121.786 65.393 121.395 64.2696L117.618 65.5879ZM116.631 62.7521L120.408 61.4338C119.864 59.8695 118.412 58.8037 116.757 58.7533C115.101 58.7029 113.585 59.6784 112.944 61.2066L116.631 62.7521ZM107.037 74.1162L110.739 75.6251L117.542 58.9565L113.839 57.4475L110.137 55.9386L103.334 72.6073L107.037 74.1162ZM113.839 57.4475L114.437 61.4027L120.392 60.4967L119.795 56.5416L119.198 52.5865L113.242 53.4924L113.839 57.4475ZM119.795 56.5416L116.001 57.8119L120.967 72.6903L124.761 71.42L128.554 70.1497L123.589 55.2713L119.795 56.5416ZM124.761 71.42L124.163 67.4649L118.469 68.3311L119.066 72.2862L119.664 76.2414L125.358 75.3751L124.761 71.42ZM119.066 72.2862L122.859 71.0119L121.93 68.24L118.138 69.5143L114.346 70.7887L115.274 73.5606L119.066 72.2862ZM118.138 69.5143L117.54 65.5592L113.839 66.1223L114.436 70.0774L115.034 74.0325L118.735 73.4695L118.138 69.5143ZM114.436 70.0774L110.729 68.5811L109.474 71.6851L113.182 73.1814L116.89 74.6776L118.144 71.5737L114.436 70.0774ZM113.182 73.1814L112.585 69.2262L106.439 70.161L107.037 74.1162L107.634 78.0713L113.779 77.1365L113.182 73.1814ZM115.292 65.9416L115.89 69.8968L118.215 69.5431L117.618 65.5879L117.02 61.6328L114.695 61.9865L115.292 65.9416ZM117.618 65.5879L121.395 64.2696L120.408 61.4338L116.631 62.7521L112.854 64.0703L113.84 66.9062L117.618 65.5879ZM116.631 62.7521L112.944 61.2066L111.605 64.3962L115.292 65.9416L118.98 67.4871L120.318 64.2975L116.631 62.7521ZM129.101 70.3227L128.225 74.227C128.231 74.2283 128.237 74.2297 128.243 74.231L129.101 70.3227ZM126.146 68.7573L123.243 71.5113C123.261 71.5311 123.28 71.5507 123.3 71.5701L126.146 68.7573ZM124.642 63.6211L120.65 63.3839C120.649 63.401 120.648 63.4182 120.648 63.4353L124.642 63.6211ZM127.431 57.1764L124.674 54.2812L124.674 54.2812L127.431 57.1764ZM136.795 53.9312L136.606 57.9275C136.611 57.9278 136.617 57.928 136.622 57.9283L136.795 53.9312ZM138.977 54.2306L142.969 54.4672C143.086 52.5291 141.794 50.7883 139.907 50.3387L138.977 54.2306ZM138.665 59.4002L137.413 63.2009C138.591 63.5884 139.883 63.4066 140.91 62.7087C141.937 62.0109 142.583 60.876 142.657 59.6369L138.665 59.4002ZM131.544 60.1436L134.153 63.1732C134.159 63.168 134.165 63.1627 134.172 63.1574L131.544 60.1436ZM130.503 62.7296L134.484 63.1053C134.488 63.0665 134.491 63.0276 134.494 62.9888L130.503 62.7296ZM130.491 63.2898L134.483 63.0489L134.483 63.0488L130.491 63.2898ZM131.538 65.2425L130.033 68.9505C130.078 68.9688 130.123 68.9862 130.169 69.0028L131.538 65.2425ZM138.475 63.6046L142.467 63.8413C142.557 62.3568 141.816 60.9461 140.543 60.1784C139.271 59.4107 137.677 59.4127 136.405 60.1837L138.475 63.6046ZM138.164 68.7743L139.959 72.3473C141.233 71.7058 142.07 70.4346 142.156 69.0109L138.164 68.7743ZM135.904 69.7249L134.616 65.9388C134.591 65.9472 134.567 65.9557 134.543 65.9645L135.904 69.7249ZM133.283 70.3664L132.685 66.4113C131.48 66.5946 130.595 66.5535 129.96 66.4145L129.101 70.3227L128.243 74.231C130.051 74.6267 131.954 74.6146 133.88 74.3215L133.283 70.3664ZM129.101 70.3227L129.978 66.4185C129.415 66.2927 129.148 66.1016 128.993 65.9445L126.146 68.7573L123.3 71.5701C124.673 72.9608 126.376 73.8133 128.225 74.227L129.101 70.3227ZM126.146 68.7573L129.05 66.0034C128.967 65.9154 128.78 65.6768 128.681 65.0217L124.726 65.6233L120.772 66.2248C121.065 68.1643 121.825 70.015 123.243 71.5113L126.146 68.7573ZM124.726 65.6233L128.681 65.0217C128.637 64.728 128.612 64.3295 128.637 63.8069L124.642 63.6211L120.648 63.4353C120.603 64.3798 120.635 65.3161 120.772 66.2248L124.726 65.6233ZM124.642 63.6211L128.635 63.8583C128.745 62.0324 129.33 60.8895 130.188 60.0716L127.431 57.1764L124.674 54.2812C122.137 56.6987 120.864 59.8523 120.65 63.3839L124.642 63.6211ZM127.431 57.1764L130.188 60.0716C131.17 59.1359 132.619 58.3941 134.822 58.059L134.224 54.1038L133.627 50.1487C130.167 50.675 127.087 51.9816 124.674 54.2812L127.431 57.1764ZM134.224 54.1038L134.822 58.059C135.626 57.9366 136.209 57.9091 136.606 57.9275L136.795 53.9312L136.985 49.9349C135.916 49.8852 134.784 49.9727 133.627 50.1487L134.224 54.1038ZM136.795 53.9312L136.622 57.9283C137.125 57.9495 137.599 58.0158 138.047 58.1225L138.977 54.2306L139.907 50.3387C138.945 50.1097 137.964 49.9763 136.969 49.9342L136.795 53.9312ZM138.977 54.2306L134.985 53.994L134.673 59.1636L138.665 59.4002L142.657 59.6369L142.969 54.4672L138.977 54.2306ZM138.665 59.4002L139.918 55.5996C137.896 54.9346 135.803 54.77 133.694 55.0909L134.291 59.046L134.889 63.0011C135.785 62.8648 136.608 62.9363 137.413 63.2009L138.665 59.4002ZM134.291 59.046L133.694 55.0909C132.064 55.3387 130.325 55.9012 128.917 57.1297L131.544 60.1436L134.172 63.1574C134.091 63.228 134.07 63.2177 134.183 63.1725C134.3 63.1259 134.523 63.0568 134.889 63.0011L134.291 59.046ZM131.544 60.1436L128.936 57.1139C127.19 58.6183 126.628 60.7105 126.512 62.4704L130.503 62.7296L134.494 62.9888C134.513 62.7001 134.555 62.623 134.532 62.6797C134.518 62.713 134.486 62.7845 134.422 62.877C134.357 62.9713 134.268 63.0746 134.153 63.1732L131.544 60.1436ZM130.503 62.7296L126.522 62.3539C126.486 62.732 126.474 63.1262 126.498 63.5309L130.491 63.2898L134.483 63.0488C134.486 63.1006 134.483 63.1213 134.484 63.1053L130.503 62.7296ZM130.491 63.2898L126.498 63.5308C126.515 63.8157 126.544 64.104 126.588 64.3934L130.542 63.7918L134.497 63.1902C134.492 63.1632 134.487 63.1169 134.483 63.0489L130.491 63.2898ZM130.542 63.7918L126.588 64.3934C126.847 66.109 127.82 68.0536 130.033 68.9505L131.538 65.2425L133.043 61.5346C133.482 61.7124 133.889 62.0313 134.173 62.4454C134.431 62.8216 134.487 63.127 134.497 63.1902L130.542 63.7918ZM131.538 65.2425L130.169 69.0028C131.68 69.5522 133.295 69.4583 134.573 69.2639L133.975 65.3088L133.378 61.3536C133.013 61.4091 132.791 61.4169 132.684 61.414C132.634 61.4126 132.63 61.4094 132.663 61.415C132.697 61.4205 132.783 61.4373 132.907 61.4823L131.538 65.2425ZM133.975 65.3088L134.573 69.2639C136.669 68.9449 138.665 68.1654 140.545 67.0256L138.475 63.6046L136.405 60.1837C135.291 60.8588 134.286 61.2154 133.378 61.3536L133.975 65.3088ZM138.475 63.6046L134.483 63.368L134.172 68.5376L138.164 68.7743L142.156 69.0109L142.467 63.8413L138.475 63.6046ZM138.164 68.7743L136.368 65.2012C135.793 65.4909 135.209 65.7363 134.616 65.9388L135.904 69.7249L137.193 73.5109C138.138 73.188 139.061 72.7997 139.959 72.3473L138.164 68.7743ZM135.904 69.7249L134.543 65.9645C134.07 66.1363 133.459 66.2935 132.685 66.4113L133.283 70.3664L133.88 74.3215C135.068 74.1409 136.205 73.8704 137.266 73.4852L135.904 69.7249ZM139.349 69.2009L135.356 68.9723C135.286 70.1764 135.763 71.3473 136.653 72.1592C137.544 72.9711 138.754 73.3374 139.946 73.156L139.349 69.2009ZM140.267 53.4274L139.67 49.4723C137.801 49.7566 136.384 51.3109 136.275 53.1987L140.267 53.4274ZM146.009 52.5539L150.002 52.7823C150.072 51.5783 149.595 50.4074 148.704 49.5955C147.814 48.7837 146.604 48.4175 145.412 48.5988L146.009 52.5539ZM145.753 56.9626L141.76 56.7343C141.657 58.5043 142.731 60.1298 144.399 60.7283C146.066 61.3269 147.93 60.7558 148.978 59.325L145.753 56.9626ZM149.355 52.045L148.757 48.0899C147.705 48.25 146.759 48.8233 146.129 49.6827L149.355 52.045ZM155.832 51.0597L159.011 53.4841C160 52.1873 160.104 50.4209 159.274 49.0188C158.444 47.6167 156.846 46.8594 155.235 47.1045L155.832 51.0597ZM150.24 58.392L147.062 55.9676C146.058 57.284 145.967 59.082 146.834 60.4909L150.24 58.392ZM155.388 66.761L155.986 70.7161C157.312 70.5143 158.45 69.6604 159.015 68.4425C159.581 67.2245 159.498 65.8048 158.795 64.6621L155.388 66.761ZM149.314 67.685L145.829 69.6506C146.644 71.0981 148.269 71.89 149.911 71.6401L149.314 67.685ZM146.494 62.6761L149.98 60.7105C149.32 59.539 148.116 58.778 146.775 58.685C145.434 58.592 144.135 59.1795 143.318 60.2486L146.494 62.6761ZM145.319 64.2143L142.142 61.7869C141.655 62.425 141.37 63.1949 141.326 63.9966L145.319 64.2143ZM145.091 68.3274L145.688 72.2826C147.561 71.9976 148.979 70.4374 149.084 68.5452L145.091 68.3274ZM139.349 69.2009L143.341 69.4296L144.26 53.656L140.267 53.4274L136.275 53.1987L135.356 68.9723L139.349 69.2009ZM140.267 53.4274L140.865 57.3825L146.606 56.5091L146.009 52.5539L145.412 48.5988L139.67 49.4723L140.267 53.4274ZM146.009 52.5539L142.016 52.3256L141.76 56.7343L145.753 56.9626L149.745 57.191L150.002 52.7823L146.009 52.5539ZM145.753 56.9626L148.978 59.325L152.58 54.4074L149.355 52.045L146.129 49.6827L142.527 54.6003L145.753 56.9626ZM149.355 52.045L149.952 56.0002L156.429 55.0148L155.832 51.0597L155.235 47.1045L148.757 48.0899L149.355 52.045ZM155.832 51.0597L152.653 48.6353L147.062 55.9676L150.24 58.392L153.419 60.8164L159.011 53.4841L155.832 51.0597ZM150.24 58.392L146.834 60.4909L151.981 68.8599L155.388 66.761L158.795 64.6621L153.647 56.2931L150.24 58.392ZM155.388 66.761L154.791 62.8059L148.717 63.7299L149.314 67.685L149.911 71.6401L155.986 70.7161L155.388 66.761ZM149.314 67.685L152.799 65.7194L149.98 60.7105L146.494 62.6761L143.009 64.6417L145.829 69.6506L149.314 67.685ZM146.494 62.6761L143.318 60.2486L142.142 61.7869L145.319 64.2143L148.495 66.6418L149.671 65.1036L146.494 62.6761ZM145.319 64.2143L141.326 63.9966L141.097 68.1097L145.091 68.3274L149.084 68.5452L149.312 64.4321L145.319 64.2143ZM145.091 68.3274L144.493 64.3723L138.751 65.2458L139.349 69.2009L139.946 73.156L145.688 72.2826L145.091 68.3274Z" fill="#F0F0F0" mask="url(#path-22-outside-1_736_45)"/>
<mask id="path-24-outside-2_736_45" maskUnits="userSpaceOnUse" x="77.5861" y="48.2076" width="83.2152" height="32.946" fill="black">
<rect fill="white" x="77.5861" y="48.2076" width="83.2152" height="32.946"/>
<path d="M87.9741 77.2587C86.8985 77.4223 85.8651 77.4905 84.8739 77.4633C83.8961 77.4178 83.0804 77.2668 82.4268 77.0101L82.6796 72.5777C83.4147 72.8381 84.2352 73.0208 85.1411 73.1258C86.0627 73.2283 86.8874 73.2243 87.615 73.1136C88.1212 73.0366 88.515 72.9119 88.7964 72.7397C89.0754 72.5516 89.1958 72.3309 89.1576 72.0778C89.1194 71.8247 88.8601 71.6618 88.3799 71.5892C87.8997 71.5166 87.273 71.3854 86.5 71.1954C85.4231 70.9223 84.5922 70.5632 84.0071 70.1181C83.4197 69.6572 83.0615 68.9996 82.9324 68.1453C82.8679 67.7181 82.8564 67.2667 82.8978 66.7911C83.002 65.1245 83.5888 63.8133 84.6581 62.8576C85.7249 61.8861 87.4764 61.2151 89.9123 60.8446C90.4185 60.7676 90.9781 60.7229 91.5911 60.7106C92.2018 60.6824 92.8002 60.6804 93.3864 60.7045C93.9726 60.7286 94.4729 60.7739 94.8875 60.8403L94.6145 65.3001C93.7845 65.0541 93.0356 64.9172 92.368 64.8893C91.7161 64.8589 91.1371 64.8823 90.6309 64.9593C90.3462 65.0026 90.056 65.0629 89.7602 65.1403C89.4644 65.2176 89.213 65.3206 89.0059 65.4492C88.8146 65.5754 88.7333 65.7335 88.762 65.9233C88.7906 66.1132 88.9794 66.2382 89.3283 66.2984C89.6907 66.3404 90.2366 66.4192 90.966 66.5348C92.3545 66.7282 93.3472 67.087 93.9442 67.6112C94.557 68.1329 94.9279 68.821 95.0569 69.6753C95.0928 69.9126 95.114 70.1602 95.1206 70.4182C95.1272 70.6761 95.1204 70.9523 95.1001 71.2467C95.0403 72.243 94.7647 73.1508 94.2736 73.9699C93.7982 74.7867 93.0526 75.4747 92.0367 76.0338C91.0209 76.5929 89.6666 77.0012 87.9741 77.2587ZM99.0798 75.3266L99.744 63.8158L95.8528 64.4077L96.107 60.145L109.631 58.0877L109.377 62.3504L105.486 62.9423L104.822 74.4531L99.0798 75.3266ZM107.037 74.1162L113.839 57.4475L119.795 56.5416L124.761 71.42L119.066 72.2862L118.138 69.5143L114.436 70.0774L113.182 73.1814L107.037 74.1162ZM115.292 65.9416L117.618 65.5879L116.631 62.7521L115.292 65.9416ZM133.283 70.3664C131.717 70.6046 130.323 70.5901 129.101 70.3227C127.896 70.053 126.911 69.5312 126.146 68.7573C125.396 67.9652 124.922 66.9205 124.726 65.6233C124.636 65.0221 124.608 64.3547 124.642 63.6211C124.804 60.9423 125.734 58.7941 127.431 57.1764C129.129 55.5587 131.393 54.5346 134.224 54.1038C135.205 53.9547 136.062 53.8971 136.795 53.9312C137.545 53.9629 138.272 54.0627 138.977 54.2306L138.665 59.4002C137.252 58.9355 135.794 58.8174 134.291 59.046C133.089 59.2289 132.174 59.5947 131.544 60.1436C130.929 60.6742 130.582 61.5362 130.503 62.7296C130.484 62.9267 130.48 63.1134 130.491 63.2898C130.501 63.4663 130.518 63.6336 130.542 63.7918C130.654 64.5354 130.986 65.0189 131.538 65.2425C132.103 65.4479 132.915 65.47 133.975 65.3088C135.478 65.0802 136.978 64.5121 138.475 63.6046L138.164 68.7743C137.427 69.1453 136.674 69.4622 135.904 69.7249C135.137 70.0034 134.263 70.2172 133.283 70.3664ZM139.349 69.2009L140.267 53.4274L146.009 52.5539L145.753 56.9626L149.355 52.045L155.832 51.0597L150.24 58.392L155.388 66.761L149.314 67.685L146.494 62.6761L145.319 64.2143L145.091 68.3274L139.349 69.2009Z"/>
</mask>
<path d="M87.9741 77.2587C86.8985 77.4223 85.8651 77.4905 84.8739 77.4633C83.8961 77.4178 83.0804 77.2668 82.4268 77.0101L82.6796 72.5777C83.4147 72.8381 84.2352 73.0208 85.1411 73.1258C86.0627 73.2283 86.8874 73.2243 87.615 73.1136C88.1212 73.0366 88.515 72.9119 88.7964 72.7397C89.0754 72.5516 89.1958 72.3309 89.1576 72.0778C89.1194 71.8247 88.8601 71.6618 88.3799 71.5892C87.8997 71.5166 87.273 71.3854 86.5 71.1954C85.4231 70.9223 84.5922 70.5632 84.0071 70.1181C83.4197 69.6572 83.0615 68.9996 82.9324 68.1453C82.8679 67.7181 82.8564 67.2667 82.8978 66.7911C83.002 65.1245 83.5888 63.8133 84.6581 62.8576C85.7249 61.8861 87.4764 61.2151 89.9123 60.8446C90.4185 60.7676 90.9781 60.7229 91.5911 60.7106C92.2018 60.6824 92.8002 60.6804 93.3864 60.7045C93.9726 60.7286 94.4729 60.7739 94.8875 60.8403L94.6145 65.3001C93.7845 65.0541 93.0356 64.9172 92.368 64.8893C91.7161 64.8589 91.1371 64.8823 90.6309 64.9593C90.3462 65.0026 90.056 65.0629 89.7602 65.1403C89.4644 65.2176 89.213 65.3206 89.0059 65.4492C88.8146 65.5754 88.7333 65.7335 88.762 65.9233C88.7906 66.1132 88.9794 66.2382 89.3283 66.2984C89.6907 66.3404 90.2366 66.4192 90.966 66.5348C92.3545 66.7282 93.3472 67.087 93.9442 67.6112C94.557 68.1329 94.9279 68.821 95.0569 69.6753C95.0928 69.9126 95.114 70.1602 95.1206 70.4182C95.1272 70.6761 95.1204 70.9523 95.1001 71.2467C95.0403 72.243 94.7647 73.1508 94.2736 73.9699C93.7982 74.7867 93.0526 75.4747 92.0367 76.0338C91.0209 76.5929 89.6666 77.0012 87.9741 77.2587ZM99.0798 75.3266L99.744 63.8158L95.8528 64.4077L96.107 60.145L109.631 58.0877L109.377 62.3504L105.486 62.9423L104.822 74.4531L99.0798 75.3266ZM107.037 74.1162L113.839 57.4475L119.795 56.5416L124.761 71.42L119.066 72.2862L118.138 69.5143L114.436 70.0774L113.182 73.1814L107.037 74.1162ZM115.292 65.9416L117.618 65.5879L116.631 62.7521L115.292 65.9416ZM133.283 70.3664C131.717 70.6046 130.323 70.5901 129.101 70.3227C127.896 70.053 126.911 69.5312 126.146 68.7573C125.396 67.9652 124.922 66.9205 124.726 65.6233C124.636 65.0221 124.608 64.3547 124.642 63.6211C124.804 60.9423 125.734 58.7941 127.431 57.1764C129.129 55.5587 131.393 54.5346 134.224 54.1038C135.205 53.9547 136.062 53.8971 136.795 53.9312C137.545 53.9629 138.272 54.0627 138.977 54.2306L138.665 59.4002C137.252 58.9355 135.794 58.8174 134.291 59.046C133.089 59.2289 132.174 59.5947 131.544 60.1436C130.929 60.6742 130.582 61.5362 130.503 62.7296C130.484 62.9267 130.48 63.1134 130.491 63.2898C130.501 63.4663 130.518 63.6336 130.542 63.7918C130.654 64.5354 130.986 65.0189 131.538 65.2425C132.103 65.4479 132.915 65.47 133.975 65.3088C135.478 65.0802 136.978 64.5121 138.475 63.6046L138.164 68.7743C137.427 69.1453 136.674 69.4622 135.904 69.7249C135.137 70.0034 134.263 70.2172 133.283 70.3664ZM139.349 69.2009L140.267 53.4274L146.009 52.5539L145.753 56.9626L149.355 52.045L155.832 51.0597L150.24 58.392L155.388 66.761L149.314 67.685L146.494 62.6761L145.319 64.2143L145.091 68.3274L139.349 69.2009Z" fill="#F0F0F0"/>
<path d="M84.8739 77.4633L84.779 79.4614C84.7917 79.462 84.8043 79.4625 84.817 79.4628L84.8739 77.4633ZM82.4268 77.0101L80.4303 76.8982C80.3811 77.7607 80.891 78.5568 81.6946 78.8723L82.4268 77.0101ZM82.6796 72.5777L83.3488 70.6921C82.7555 70.4819 82.0977 70.5636 81.5732 70.9126C81.0488 71.2615 80.719 71.837 80.6832 72.4658L82.6796 72.5777ZM85.1411 73.1258L84.909 75.1128L84.918 75.1138L85.1411 73.1258ZM88.7964 72.7397L89.839 74.4455C89.8639 74.4303 89.8885 74.4144 89.9128 74.3981L88.7964 72.7397ZM88.3799 71.5892L88.6807 69.6114L88.6807 69.6114L88.3799 71.5892ZM86.5 71.1954L86.0067 73.1344C86.0115 73.1357 86.0164 73.1369 86.0213 73.1381L86.5 71.1954ZM84.0071 70.1181L82.772 71.6925C82.7798 71.6986 82.7877 71.7047 82.7956 71.7107L84.0071 70.1181ZM82.8978 66.7911L84.8899 66.9627C84.8914 66.9465 84.8926 66.9303 84.8936 66.914L82.8978 66.7911ZM84.6581 62.8576L85.9896 64.3487C85.9942 64.3445 85.9988 64.3404 86.0034 64.3362L84.6581 62.8576ZM91.5911 60.7106L91.6294 62.7105C91.6467 62.7101 91.6639 62.7095 91.6812 62.7087L91.5911 60.7106ZM93.3864 60.7045L93.3022 62.7031L93.3022 62.7031L93.3864 60.7045ZM94.8875 60.8403L96.8834 60.9606C96.9463 59.9339 96.2207 59.0277 95.2056 58.8651L94.8875 60.8403ZM94.6145 65.3001L94.0448 67.218C94.6292 67.3912 95.261 67.2881 95.7607 66.9381C96.2603 66.588 96.5732 66.0291 96.6105 65.4203L94.6145 65.3001ZM92.368 64.8893L92.2731 66.8874L92.2825 66.8878L92.368 64.8893ZM89.7602 65.1403L89.2562 63.2051L89.2562 63.2051L89.7602 65.1403ZM89.0059 65.4492L87.9525 63.7501C87.9369 63.7597 87.9214 63.7696 87.9061 63.7797L89.0059 65.4492ZM89.3283 66.2984L88.9865 68.2696C89.0229 68.2759 89.0595 68.2812 89.0963 68.2854L89.3283 66.2984ZM90.966 66.5348L90.6511 68.5105C90.6635 68.5124 90.6759 68.5143 90.6883 68.516L90.966 66.5348ZM93.9442 67.6112L92.6242 69.1151C92.6318 69.1217 92.6394 69.1284 92.6471 69.1349L93.9442 67.6112ZM95.1001 71.2467L93.1051 71.1113C93.1047 71.1171 93.1044 71.1229 93.104 71.1286L95.1001 71.2467ZM94.2736 73.9699L92.5589 72.9424C92.5545 72.9498 92.55 72.9573 92.5457 72.9649L94.2736 73.9699ZM92.0367 76.0338L92.9994 77.7861L92.9994 77.7861L92.0367 76.0338ZM87.9741 77.2587L87.6754 75.2811C86.7062 75.4286 85.7922 75.4874 84.9308 75.4637L84.8739 77.4633L84.817 79.4628C85.9379 79.4936 87.0907 79.4161 88.2728 79.2363L87.9741 77.2587ZM84.8739 77.4633L84.9688 75.4651C84.1302 75.4261 83.5464 75.3001 83.1589 75.148L82.4268 77.0101L81.6946 78.8723C82.6145 79.2334 83.6621 79.4095 84.779 79.4614L84.8739 77.4633ZM82.4268 77.0101L84.4232 77.1221L84.676 72.6897L82.6796 72.5777L80.6832 72.4658L80.4303 76.8982L82.4268 77.0101ZM82.6796 72.5777L82.0104 74.4634C82.9084 74.7814 83.8785 74.9934 84.909 75.1128L85.1411 73.1258L85.3731 71.1387C84.592 71.0482 83.9211 70.8948 83.3488 70.6921L82.6796 72.5777ZM85.1411 73.1258L84.918 75.1138C85.9704 75.2309 86.9754 75.2339 87.9137 75.0911L87.615 73.1136L87.3163 71.136C86.7994 71.2146 86.155 71.2257 85.3641 71.1377L85.1411 73.1258ZM87.615 73.1136L87.9137 75.0911C88.5533 74.9939 89.2398 74.8124 89.839 74.4455L88.7964 72.7397L87.7538 71.0338C87.781 71.0171 87.7677 71.0302 87.6885 71.0553C87.6107 71.0799 87.49 71.1096 87.3163 71.136L87.615 73.1136ZM88.7964 72.7397L89.9128 74.3981C90.5938 73.939 91.3261 73.0433 91.1349 71.777L89.1576 72.0778L87.1803 72.3786C87.1355 72.0819 87.1874 71.7574 87.341 71.476C87.4776 71.2258 87.6399 71.1082 87.68 71.0812L88.7964 72.7397ZM89.1576 72.0778L91.1349 71.777C91.0117 70.9616 90.5151 70.3957 89.9993 70.0716C89.5409 69.7836 89.051 69.6673 88.6807 69.6114L88.3799 71.5892L88.0791 73.5671C88.189 73.5837 88.0689 73.5852 87.8697 73.46C87.757 73.3892 87.6013 73.2664 87.4607 73.0697C87.3144 72.8652 87.2178 72.6267 87.1803 72.3786L89.1576 72.0778ZM88.3799 71.5892L88.6807 69.6114C88.2858 69.5517 87.725 69.4362 86.9788 69.2528L86.5 71.1954L86.0213 73.1381C86.8211 73.3346 87.5136 73.4816 88.0791 73.5671L88.3799 71.5892ZM86.5 71.1954L86.9933 69.2565C86.0565 69.0188 85.5096 68.7468 85.2187 68.5255L84.0071 70.1181L82.7956 71.7107C83.6748 72.3796 84.7898 72.8257 86.0067 73.1344L86.5 71.1954ZM84.0071 70.1181L85.2423 68.5437C85.118 68.4462 84.9754 68.2796 84.9097 67.8445L82.9324 68.1453L80.9552 68.4461C81.1475 69.7195 81.7214 70.8682 82.772 71.6925L84.0071 70.1181ZM82.9324 68.1453L84.9097 67.8445C84.8711 67.589 84.8608 67.2971 84.8899 66.9627L82.8978 66.7911L80.9057 66.6195C80.8519 67.2364 80.8647 67.8472 80.9552 68.4461L82.9324 68.1453ZM82.8978 66.7911L84.8936 66.914C84.9708 65.6796 85.3777 64.8956 85.9896 64.3487L84.6581 62.8576L83.3265 61.3666C81.7999 62.731 81.0333 64.5693 80.902 66.6682L82.8978 66.7911ZM84.6581 62.8576L86.0034 64.3362C86.6367 63.7595 87.9195 63.1707 90.211 62.8221L89.9123 60.8446L89.6136 58.867C87.0332 59.2595 84.8132 60.0127 83.3127 61.379L84.6581 62.8576ZM89.9123 60.8446L90.211 62.8221C90.6161 62.7605 91.0871 62.7214 91.6294 62.7105L91.5911 60.7106L91.5529 58.7107C90.8691 58.7244 90.2209 58.7746 89.6136 58.867L89.9123 60.8446ZM91.5911 60.7106L91.6812 62.7087C92.2362 62.6832 92.7764 62.6815 93.3022 62.7031L93.3864 60.7045L93.4706 58.7059C92.824 58.6793 92.1674 58.6816 91.5011 58.7124L91.5911 60.7106ZM93.3864 60.7045L93.3022 62.7031C93.8382 62.7252 94.2558 62.7652 94.5694 62.8154L94.8875 60.8403L95.2056 58.8651C94.69 58.7825 94.1069 58.7321 93.4706 58.7059L93.3864 60.7045ZM94.8875 60.8403L92.8915 60.72L92.6186 65.1798L94.6145 65.3001L96.6105 65.4203L96.8834 60.9606L94.8875 60.8403ZM94.6145 65.3001L95.1843 63.3821C94.2404 63.1024 93.3253 62.9271 92.4534 62.8907L92.368 64.8893L92.2825 66.8878C92.746 66.9072 93.3285 67.0058 94.0448 67.218L94.6145 65.3001ZM92.368 64.8893L92.4628 62.8911C91.7134 62.8562 90.9984 62.8804 90.3322 62.9817L90.6309 64.9593L90.9296 66.9368C91.2758 66.8842 91.7189 66.8616 92.2731 66.8874L92.368 64.8893ZM90.6309 64.9593L90.3322 62.9817C89.9743 63.0362 89.6155 63.1111 89.2562 63.2051L89.7602 65.1403L90.2643 67.0755C90.4965 67.0148 90.7181 66.969 90.9296 66.9368L90.6309 64.9593ZM89.7602 65.1403L89.2562 63.2051C88.8135 63.3209 88.3667 63.4928 87.9525 63.7501L89.0059 65.4492L90.0593 67.1484C90.0593 67.1485 90.1154 67.1144 90.2643 67.0755L89.7602 65.1403ZM89.0059 65.4492L87.9061 63.7797C87.6045 63.9787 87.2609 64.2873 87.0236 64.7484C86.7747 65.2322 86.7129 65.749 86.7847 66.2241L88.762 65.9233L90.7392 65.6225C90.7823 65.9078 90.7469 66.2507 90.5792 66.5764C90.4233 66.8795 90.216 67.046 90.1057 67.1187L89.0059 65.4492ZM88.762 65.9233L86.7847 66.2241C86.8987 66.9791 87.3474 67.5147 87.82 67.8277C88.2381 68.1046 88.6766 68.2161 88.9865 68.2696L89.3283 66.2984L89.6702 64.3272C89.6312 64.3205 89.8008 64.3393 90.0301 64.4912C90.314 64.6792 90.6538 65.0574 90.7392 65.6225L88.762 65.9233ZM89.3283 66.2984L89.0963 68.2854C89.4153 68.3224 89.9274 68.3958 90.6511 68.5105L90.966 66.5348L91.2809 64.5591C90.5457 64.4426 89.966 64.3584 89.5604 64.3114L89.3283 66.2984ZM90.966 66.5348L90.6883 68.516C91.9487 68.6916 92.4691 68.9789 92.6242 69.1151L93.9442 67.6112L95.2642 66.1073C94.2253 65.1951 92.7602 64.7648 91.2437 64.5536L90.966 66.5348ZM93.9442 67.6112L92.6471 69.1349C92.8653 69.3206 93.0169 69.5606 93.0797 69.9761L95.0569 69.6753L97.0342 69.3745C96.8389 68.0814 96.2487 66.9452 95.2412 66.0874L93.9442 67.6112ZM95.0569 69.6753L93.0797 69.9761C93.1023 70.1255 93.1169 70.2902 93.1216 70.4713L95.1206 70.4182L97.1196 70.365C97.1111 70.0303 97.0833 69.6997 97.0342 69.3745L95.0569 69.6753ZM95.1206 70.4182L93.1216 70.4713C93.1264 70.6582 93.1217 70.8709 93.1051 71.1113L95.1001 71.2467L97.0951 71.382C97.1191 71.0336 97.1281 70.694 97.1196 70.365L95.1206 70.4182ZM95.1001 71.2467L93.104 71.1286C93.0626 71.8187 92.8769 72.412 92.5589 72.9424L94.2736 73.9699L95.9882 74.9975C96.6525 73.8895 97.0179 72.6673 97.0962 71.3647L95.1001 71.2467ZM94.2736 73.9699L92.5457 72.9649C92.2904 73.4035 91.844 73.8577 91.0741 74.2815L92.0367 76.0338L92.9994 77.7861C94.2612 77.0916 95.3061 76.1699 96.0015 74.975L94.2736 73.9699ZM92.0367 76.0338L91.0741 74.2815C90.3381 74.6866 89.2357 75.0438 87.6754 75.2811L87.9741 77.2587L88.2728 79.2363C90.0976 78.9587 91.7037 78.4993 92.9994 77.7861L92.0367 76.0338ZM99.0798 75.3266L97.0834 75.2133C97.0487 75.8152 97.2872 76.4004 97.7325 76.8061C98.1779 77.2118 98.7826 77.3948 99.3785 77.3041L99.0798 75.3266ZM99.744 63.8158L101.74 63.9291C101.775 63.3272 101.537 62.742 101.091 62.3363C100.646 61.9305 100.041 61.7475 99.4453 61.8382L99.744 63.8158ZM95.8528 64.4077L93.8567 64.2906C93.8207 64.8931 94.0587 65.4793 94.5041 65.8859C94.9496 66.2925 95.5549 66.476 96.1515 66.3853L95.8528 64.4077ZM96.107 60.145L95.8083 58.1674C94.8748 58.3094 94.1671 59.0851 94.1109 60.0279L96.107 60.145ZM109.631 58.0877L111.628 58.2048C111.663 57.6023 111.426 57.0161 110.98 56.6095C110.535 56.2028 109.929 56.0193 109.333 56.1101L109.631 58.0877ZM109.377 62.3504L109.676 64.3279C110.609 64.1859 111.317 63.4103 111.373 62.4675L109.377 62.3504ZM105.486 62.9423L105.187 60.9647C104.252 61.107 103.544 61.8847 103.49 62.829L105.486 62.9423ZM104.822 74.4531L105.12 76.4307C106.055 76.2885 106.764 75.5107 106.818 74.5664L104.822 74.4531ZM99.0798 75.3266L101.076 75.4399L101.74 63.9291L99.744 63.8158L97.7477 63.7025L97.0834 75.2133L99.0798 75.3266ZM99.744 63.8158L99.4453 61.8382L95.5541 62.4301L95.8528 64.4077L96.1515 66.3853L100.043 65.7933L99.744 63.8158ZM95.8528 64.4077L97.849 64.5248L98.1031 60.2621L96.107 60.145L94.1109 60.0279L93.8567 64.2906L95.8528 64.4077ZM96.107 60.145L96.4057 62.1226L109.93 60.0652L109.631 58.0877L109.333 56.1101L95.8083 58.1674L96.107 60.145ZM109.631 58.0877L107.635 57.9705L107.381 62.2333L109.377 62.3504L111.373 62.4675L111.628 58.2048L109.631 58.0877ZM109.377 62.3504L109.079 60.3728L105.187 60.9647L105.486 62.9423L105.785 64.9199L109.676 64.3279L109.377 62.3504ZM105.486 62.9423L103.49 62.829L102.825 74.3398L104.822 74.4531L106.818 74.5664L107.482 63.0556L105.486 62.9423ZM104.822 74.4531L104.523 72.4755L98.7811 73.349L99.0798 75.3266L99.3785 77.3041L105.12 76.4307L104.822 74.4531ZM107.037 74.1162L105.185 73.3617C104.913 74.0282 105.02 74.7892 105.465 75.3544C105.91 75.9196 106.624 76.202 107.335 76.0937L107.037 74.1162ZM113.839 57.4475L113.541 55.47C112.844 55.5759 112.255 56.0405 111.988 56.6931L113.839 57.4475ZM119.795 56.5416L121.692 55.9064C121.384 54.9843 120.458 54.4178 119.496 54.564L119.795 56.5416ZM124.761 71.42L125.06 73.3976C125.643 73.3088 126.158 72.9666 126.466 72.4627C126.774 71.9589 126.845 71.3447 126.658 70.7848L124.761 71.42ZM119.066 72.2862L117.17 72.9234C117.479 73.8445 118.405 74.4099 119.365 74.2638L119.066 72.2862ZM118.138 69.5143L120.034 68.8772C119.726 67.9561 118.8 67.3907 117.839 67.5368L118.138 69.5143ZM114.436 70.0774L114.138 68.0998C113.439 68.2061 112.848 68.6735 112.583 69.3293L114.436 70.0774ZM113.182 73.1814L113.481 75.1589C114.18 75.0526 114.771 74.5852 115.036 73.9295L113.182 73.1814ZM115.292 65.9416L113.449 65.1689C113.169 65.836 113.27 66.6019 113.715 67.1721C114.159 67.7423 114.876 68.028 115.591 67.9192L115.292 65.9416ZM117.618 65.5879L117.916 67.5655C118.504 67.476 119.022 67.1295 119.33 66.6198C119.637 66.1102 119.702 65.4904 119.506 64.9288L117.618 65.5879ZM116.631 62.7521L118.52 62.0929C118.248 61.3108 117.522 60.7779 116.694 60.7527C115.866 60.7275 115.108 61.2152 114.787 61.9793L116.631 62.7521ZM107.037 74.1162L108.888 74.8706L115.691 58.202L113.839 57.4475L111.988 56.6931L105.185 73.3617L107.037 74.1162ZM113.839 57.4475L114.138 59.4251L120.094 58.5192L119.795 56.5416L119.496 54.564L113.541 55.47L113.839 57.4475ZM119.795 56.5416L117.898 57.1768L122.864 72.0552L124.761 71.42L126.658 70.7848L121.692 55.9064L119.795 56.5416ZM124.761 71.42L124.462 69.4424L118.768 70.3087L119.066 72.2862L119.365 74.2638L125.06 73.3976L124.761 71.42ZM119.066 72.2862L120.962 71.6491L120.034 68.8772L118.138 69.5143L116.242 70.1515L117.17 72.9234L119.066 72.2862ZM118.138 69.5143L117.839 67.5368L114.138 68.0998L114.436 70.0774L114.735 72.055L118.437 71.4919L118.138 69.5143ZM114.436 70.0774L112.583 69.3293L111.328 72.4332L113.182 73.1814L115.036 73.9295L116.29 70.8255L114.436 70.0774ZM113.182 73.1814L112.883 71.2038L106.738 72.1386L107.037 74.1162L107.335 76.0937L113.481 75.1589L113.182 73.1814ZM115.292 65.9416L115.591 67.9192L117.916 67.5655L117.618 65.5879L117.319 63.6104L114.994 63.9641L115.292 65.9416ZM117.618 65.5879L119.506 64.9288L118.52 62.0929L116.631 62.7521L114.742 63.4112L115.729 66.2471L117.618 65.5879ZM116.631 62.7521L114.787 61.9793L113.449 65.1689L115.292 65.9416L117.136 66.7144L118.475 63.5248L116.631 62.7521ZM129.101 70.3227L128.663 72.2749L128.672 72.2769L129.101 70.3227ZM126.146 68.7573L124.695 70.1343C124.704 70.1442 124.713 70.154 124.723 70.1637L126.146 68.7573ZM124.642 63.6211L122.646 63.5025C122.646 63.5111 122.645 63.5196 122.645 63.5282L124.642 63.6211ZM127.431 57.1764L126.053 55.7288L126.053 55.7288L127.431 57.1764ZM136.795 53.9312L136.701 55.9294L136.709 55.9297L136.795 53.9312ZM138.977 54.2306L140.973 54.3489C141.031 53.3798 140.386 52.5094 139.442 52.2847L138.977 54.2306ZM138.665 59.4002L138.039 61.3005C138.628 61.4943 139.274 61.4034 139.788 61.0545C140.301 60.7055 140.624 60.1381 140.661 59.5185L138.665 59.4002ZM131.544 60.1436L132.849 61.6584L132.858 61.6505L131.544 60.1436ZM130.503 62.7296L132.494 62.9174C132.496 62.898 132.497 62.8786 132.498 62.8592L130.503 62.7296ZM130.491 63.2898L132.487 63.1693L132.487 63.1693L130.491 63.2898ZM131.538 65.2425L130.785 67.0965C130.808 67.1056 130.831 67.1144 130.853 67.1227L131.538 65.2425ZM138.475 63.6046L140.471 63.723C140.516 62.9807 140.145 62.2754 139.509 61.8915C138.873 61.5077 138.076 61.5087 137.44 61.8941L138.475 63.6046ZM138.164 68.7743L139.061 70.5608C139.698 70.24 140.117 69.6044 140.16 68.8926L138.164 68.7743ZM135.904 69.7249L135.26 67.8318C135.248 67.836 135.236 67.8403 135.224 67.8447L135.904 69.7249ZM133.283 70.3664L132.984 68.3888C131.598 68.5996 130.459 68.5718 129.531 68.3686L129.101 70.3227L128.672 72.2769C130.187 72.6084 131.835 72.6096 133.581 72.344L133.283 70.3664ZM129.101 70.3227L129.54 68.3706C128.655 68.1729 128.029 67.8164 127.57 67.3509L126.146 68.7573L124.723 70.1637C125.792 71.246 127.136 71.9332 128.663 72.2749L129.101 70.3227ZM126.146 68.7573L127.598 67.3804C127.181 66.9403 126.851 66.2987 126.704 65.3225L124.726 65.6233L122.749 65.924C122.994 67.5424 123.61 68.9901 124.695 70.1343L126.146 68.7573ZM124.726 65.6233L126.704 65.3225C126.636 64.875 126.61 64.3421 126.64 63.714L124.642 63.6211L122.645 63.5282C122.605 64.3673 122.635 65.1691 122.749 65.924L124.726 65.6233ZM124.642 63.6211L126.638 63.7397C126.774 61.4874 127.532 59.8418 128.81 58.624L127.431 57.1764L126.053 55.7288C123.936 57.7464 122.834 60.3973 122.646 63.5025L124.642 63.6211ZM127.431 57.1764L128.81 58.624C130.149 57.3473 132.006 56.4643 134.523 56.0814L134.224 54.1038L133.926 52.1263C130.78 52.6048 128.108 53.7702 126.053 55.7288L127.431 57.1764ZM134.224 54.1038L134.523 56.0814C135.416 55.9456 136.135 55.9031 136.701 55.9294L136.795 53.9312L136.89 51.9331C135.989 51.8911 134.995 51.9637 133.926 52.1263L134.224 54.1038ZM136.795 53.9312L136.709 55.9297C137.335 55.9562 137.935 56.0392 138.512 56.1765L138.977 54.2306L139.442 52.2847C138.608 52.0862 137.754 51.9696 136.882 51.9327L136.795 53.9312ZM138.977 54.2306L136.981 54.1123L136.669 59.2819L138.665 59.4002L140.661 59.5185L140.973 54.3489L138.977 54.2306ZM138.665 59.4002L139.292 57.4999C137.574 56.935 135.799 56.7937 133.993 57.0684L134.291 59.046L134.59 61.0236C135.789 60.8411 136.93 60.9359 138.039 61.3005L138.665 59.4002ZM134.291 59.046L133.993 57.0684C132.577 57.2838 131.249 57.748 130.231 58.6367L131.544 60.1436L132.858 61.6505C133.098 61.4415 133.602 61.1739 134.59 61.0236L134.291 59.046ZM131.544 60.1436L130.24 58.6287C129.059 59.6463 128.605 61.1233 128.508 62.6L130.503 62.7296L132.498 62.8592C132.558 61.9491 132.798 61.7021 132.849 61.6584L131.544 60.1436ZM130.503 62.7296L128.512 62.5418C128.485 62.8294 128.477 63.1198 128.494 63.4104L130.491 63.2898L132.487 63.1693C132.483 63.107 132.484 63.024 132.494 62.9174L130.503 62.7296ZM130.491 63.2898L128.494 63.4103C128.508 63.641 128.531 63.8688 128.565 64.0926L130.542 63.7918L132.519 63.491C132.505 63.3984 132.494 63.2916 132.487 63.1693L130.491 63.2898ZM130.542 63.7918L128.565 64.0926C128.751 65.3222 129.403 66.5363 130.785 67.0965L131.538 65.2425L132.291 63.3886C132.322 63.4015 132.368 63.4252 132.416 63.4637C132.464 63.5024 132.5 63.5438 132.524 63.5788C132.57 63.646 132.543 63.6453 132.519 63.491L130.542 63.7918ZM131.538 65.2425L130.853 67.1227C131.892 67.5001 133.105 67.4641 134.274 67.2863L133.975 65.3088L133.676 63.3312C132.726 63.4758 132.314 63.3957 132.222 63.3624L131.538 65.2425ZM133.975 65.3088L134.274 67.2863C136.074 67.0126 137.821 66.3388 139.51 65.3151L138.475 63.6046L137.44 61.8941C136.134 62.6855 134.882 63.1478 133.676 63.3312L133.975 65.3088ZM138.475 63.6046L136.479 63.4863L136.168 68.6559L138.164 68.7743L140.16 68.8926L140.471 63.723L138.475 63.6046ZM138.164 68.7743L137.266 66.9877C136.61 67.3181 135.941 67.5992 135.26 67.8318L135.904 69.7249L136.549 71.6179C137.406 71.3251 138.244 70.9725 139.061 70.5608L138.164 68.7743ZM135.904 69.7249L135.224 67.8447C134.604 68.0698 133.861 68.2554 132.984 68.3888L133.283 70.3664L133.581 72.344C134.666 72.1791 135.671 71.9369 136.585 71.605L135.904 69.7249ZM139.349 69.2009L137.352 69.0866C137.317 69.6886 137.556 70.2741 138.001 70.6801C138.446 71.086 139.051 71.2692 139.647 71.1785L139.349 69.2009ZM140.267 53.4274L139.968 51.4498C139.034 51.592 138.326 52.3692 138.271 53.3131L140.267 53.4274ZM146.009 52.5539L148.005 52.6681C148.04 52.0661 147.802 51.4807 147.357 51.0747C146.911 50.6688 146.306 50.4857 145.71 50.5764L146.009 52.5539ZM145.753 56.9626L143.756 56.8484C143.705 57.7334 144.242 58.5462 145.076 58.8455C145.909 59.1448 146.841 58.8592 147.365 58.1438L145.753 56.9626ZM149.355 52.045L149.056 50.0675C148.53 50.1475 148.057 50.4341 147.742 50.8638L149.355 52.045ZM155.832 51.0597L157.422 52.2719C157.916 51.6235 157.968 50.7403 157.553 50.0392C157.138 49.3382 156.339 48.9595 155.533 49.0821L155.832 51.0597ZM150.24 58.392L148.651 57.1798C148.149 57.838 148.104 58.737 148.537 59.4414L150.24 58.392ZM155.388 66.761L155.687 68.7386C156.35 68.6376 156.919 68.2107 157.202 67.6017C157.484 66.9927 157.443 66.2829 157.092 65.7115L155.388 66.761ZM149.314 67.685L147.571 68.6678C147.979 69.3915 148.791 69.7875 149.613 69.6626L149.314 67.685ZM146.494 62.6761L148.237 61.6933C147.907 61.1075 147.305 60.7271 146.635 60.6806C145.964 60.6341 145.314 60.9278 144.906 61.4623L146.494 62.6761ZM145.319 64.2143L143.731 63.0006C143.487 63.3197 143.344 63.7046 143.322 64.1055L145.319 64.2143ZM145.091 68.3274L145.389 70.305C146.326 70.1625 147.035 69.3824 147.087 68.4363L145.091 68.3274ZM139.349 69.2009L141.345 69.3152L142.263 53.5417L140.267 53.4274L138.271 53.3131L137.352 69.0866L139.349 69.2009ZM140.267 53.4274L140.566 55.405L146.308 54.5315L146.009 52.5539L145.71 50.5764L139.968 51.4498L140.267 53.4274ZM146.009 52.5539L144.013 52.4397L143.756 56.8484L145.753 56.9626L147.749 57.0768L148.005 52.6681L146.009 52.5539ZM145.753 56.9626L147.365 58.1438L150.967 53.2262L149.355 52.045L147.742 50.8638L144.14 55.7815L145.753 56.9626ZM149.355 52.045L149.653 54.0226L156.131 53.0372L155.832 51.0597L155.533 49.0821L149.056 50.0675L149.355 52.045ZM155.832 51.0597L154.243 49.8475L148.651 57.1798L150.24 58.392L151.83 59.6042L157.422 52.2719L155.832 51.0597ZM150.24 58.392L148.537 59.4414L153.685 67.8105L155.388 66.761L157.092 65.7115L151.944 57.3425L150.24 58.392ZM155.388 66.761L155.089 64.7834L149.015 65.7074L149.314 67.685L149.613 69.6626L155.687 68.7386L155.388 66.761ZM149.314 67.685L151.057 66.7022L148.237 61.6933L146.494 62.6761L144.752 63.6589L147.571 68.6678L149.314 67.685ZM146.494 62.6761L144.906 61.4623L143.731 63.0006L145.319 64.2143L146.907 65.4281L148.083 63.8898L146.494 62.6761ZM145.319 64.2143L143.322 64.1055L143.094 68.2186L145.091 68.3274L147.087 68.4363L147.315 64.3232L145.319 64.2143ZM145.091 68.3274L144.792 66.3499L139.05 67.2233L139.349 69.2009L139.647 71.1785L145.389 70.305L145.091 68.3274Z" fill="#58BC44" mask="url(#path-24-outside-2_736_45)"/>
</g>
<defs>
<clipPath id="clip0_736_45">
<rect width="200" height="113" fill="white"/>
</clipPath>
</defs>
</svg>
