<svg width="200" height="110" viewBox="0 0 200 110" fill="none" xmlns="http://www.w3.org/2000/svg">
<g clip-path="url(#clip0_433_997)">
<path d="M200 18.3682L199.974 85.0804L147.32 93.3869L147.346 26.6746L200 18.3682Z" fill="#DDB61F"/>
<path d="M147.346 26.6744L147.32 93.3868L105.307 82.9349L105.334 16.2227L147.346 26.6744Z" fill="#CFAB2C"/>
<path d="M200 18.3682L199.974 84.2403L147.32 92.5468L147.346 26.6746L200 18.3682Z" fill="#EBCB3D"/>
<path d="M147.346 26.6744L147.32 92.5466L105.307 82.0948L105.334 16.2227L147.346 26.6744Z" fill="#D5A700"/>
<path d="M200 18.3688L147.346 26.6752L105.334 16.2234L157.987 7.91699L200 18.3688Z" fill="#F4D759"/>
<path d="M167.122 3.22045C167.115 3.23457 167.109 3.24876 167.101 3.26288C167.046 3.35655 166.967 3.44956 166.867 3.54172C166.854 3.55399 166.841 3.56625 166.827 3.57844C166.721 3.67102 166.59 3.7626 166.438 3.85291C166.42 3.86383 166.402 3.87484 166.383 3.88576C166.224 3.9765 166.041 4.06572 165.837 4.15335C165.813 4.16326 165.792 4.17343 165.768 4.18334C165.559 4.27013 165.326 4.3549 165.072 4.43782C165.038 4.44891 165.006 4.46025 164.971 4.47126C164.719 4.55141 164.442 4.62903 164.148 4.70473C164.086 4.72069 164.022 4.73666 163.958 4.75245C163.641 4.8305 163.308 4.90678 162.945 4.97904C162.944 4.97921 162.944 4.97946 162.943 4.97963C162.542 5.05961 162.113 5.13572 161.658 5.20764C161.316 5.26166 160.961 5.31047 160.603 5.35744C160.402 5.38382 160.196 5.40759 159.991 5.43171C159.786 5.4559 159.58 5.48027 159.37 5.50228C158.903 5.55117 158.429 5.5957 157.945 5.63384C157.908 5.63678 157.872 5.64073 157.834 5.64367C157.368 5.67963 156.894 5.71038 156.416 5.73643C155.976 5.76045 155.531 5.78053 155.084 5.79624C155.054 5.79734 155.024 5.79792 154.994 5.79893C154.094 5.82943 153.184 5.84321 152.277 5.84044C152.241 5.84035 152.205 5.84001 152.169 5.83985C151.744 5.83791 151.321 5.83229 150.9 5.82313C150.845 5.82195 150.791 5.82061 150.737 5.81935C150.328 5.8096 149.92 5.79641 149.516 5.77994C149.454 5.77734 149.391 5.77465 149.329 5.77196C148.926 5.7544 148.526 5.73374 148.13 5.70946C148.071 5.70584 148.012 5.70173 147.952 5.69795C147.55 5.67224 147.152 5.64359 146.761 5.61091C146.72 5.60746 146.679 5.6036 146.638 5.60007C146.249 5.56672 145.865 5.53025 145.49 5.4901C145.465 5.48749 145.439 5.48514 145.415 5.48245C145.046 5.44254 144.688 5.39835 144.335 5.35189C144.255 5.34139 144.176 5.33097 144.097 5.32014C143.741 5.27124 143.393 5.21991 143.056 5.16437C143.012 5.15706 142.971 5.14891 142.928 5.14144C142.638 5.09254 142.358 5.04079 142.085 4.98685C141.915 4.95308 141.753 4.9167 141.589 4.88099C141.373 4.83386 141.153 4.78791 140.95 4.73741C138.784 4.19863 137.733 3.55542 137.733 2.91699L137.727 19.385C137.727 20.0234 138.778 20.6667 140.943 21.2055C141.025 21.2258 141.108 21.2459 141.192 21.2657C141.315 21.2949 141.452 21.3205 141.58 21.3485C141.745 21.3844 141.907 21.4209 142.079 21.4549C142.122 21.4636 142.161 21.4734 142.205 21.4819C142.44 21.5271 142.684 21.5694 142.93 21.611C142.97 21.6178 143.007 21.6254 143.048 21.6321C143.056 21.6334 143.063 21.6349 143.071 21.6362C143.331 21.679 143.597 21.7197 143.869 21.7585C143.94 21.7688 144.015 21.7778 144.088 21.7878C144.169 21.7989 144.25 21.8096 144.332 21.8204C144.432 21.8336 144.53 21.8478 144.632 21.8604C144.875 21.8908 145.123 21.9197 145.374 21.947C145.385 21.9482 145.397 21.9492 145.408 21.9505C145.433 21.9532 145.458 21.9555 145.483 21.9581C145.687 21.9799 145.891 22.0012 146.099 22.021C146.275 22.0377 146.454 22.0529 146.632 22.0682C146.673 22.0717 146.713 22.0755 146.754 22.079C146.779 22.081 146.803 22.0834 146.827 22.0855C147.069 22.1053 147.312 22.1239 147.558 22.1411C147.686 22.1501 147.816 22.1578 147.946 22.1661C148.005 22.1699 148.064 22.1739 148.123 22.1775C148.178 22.1809 148.232 22.1848 148.286 22.188C148.527 22.2021 148.769 22.2151 149.012 22.2267C149.116 22.2317 149.22 22.2356 149.324 22.2401C149.385 22.2428 149.445 22.2454 149.506 22.2479C149.583 22.251 149.658 22.2548 149.735 22.2577C149.965 22.2664 150.196 22.274 150.428 22.2804C150.53 22.2833 150.633 22.2852 150.736 22.2876C150.787 22.2888 150.837 22.2901 150.888 22.2912C150.96 22.2927 151.031 22.2949 151.102 22.2962C151.319 22.3002 151.535 22.3034 151.752 22.3056C151.889 22.307 152.026 22.3074 152.162 22.3081C152.198 22.3082 152.234 22.3086 152.27 22.3087C152.307 22.3087 152.344 22.3092 152.381 22.3093C152.587 22.3097 152.794 22.3092 153 22.3078C153.215 22.3064 153.429 22.304 153.643 22.3008C153.644 22.3008 153.646 22.3008 153.647 22.3008C153.868 22.2974 154.09 22.293 154.31 22.2876C154.539 22.2819 154.768 22.2747 154.996 22.267C155.022 22.2661 155.048 22.2656 155.074 22.2647C155.089 22.2642 155.104 22.2639 155.118 22.2634C155.539 22.2483 155.956 22.2297 156.371 22.2073C156.383 22.2067 156.395 22.2057 156.407 22.205C156.887 22.1788 157.362 22.1479 157.83 22.1119C157.834 22.1116 157.839 22.1114 157.843 22.111C157.872 22.1089 157.898 22.1057 157.926 22.1035C158.414 22.065 158.893 22.0201 159.364 21.9707C159.419 21.965 159.477 21.9612 159.532 21.9553C159.686 21.9387 159.833 21.9182 159.985 21.9003C160.19 21.8761 160.396 21.8523 160.596 21.826C160.657 21.818 160.721 21.8116 160.782 21.8035C161.077 21.7635 161.367 21.7211 161.651 21.6762C161.752 21.6603 161.851 21.6443 161.949 21.628C162.293 21.5708 162.621 21.511 162.932 21.4489C162.933 21.4488 162.934 21.4485 162.935 21.4483C162.938 21.4476 162.941 21.4468 162.945 21.4462C163.213 21.3926 163.47 21.3374 163.713 21.2806C163.797 21.2611 163.872 21.2405 163.952 21.2207C164.016 21.205 164.079 21.1892 164.141 21.1732C164.208 21.1561 164.281 21.1395 164.345 21.122C164.53 21.0723 164.706 21.0216 164.873 20.9699C164.905 20.96 164.933 20.9497 164.964 20.9397C164.999 20.9286 165.032 20.9173 165.066 20.906C165.15 20.8786 165.237 20.8516 165.316 20.8238C165.45 20.7762 165.578 20.7281 165.698 20.6794C165.721 20.6702 165.74 20.6607 165.762 20.6516C165.785 20.6418 165.807 20.632 165.83 20.6222C165.898 20.5931 165.968 20.5641 166.031 20.5346C166.134 20.4866 166.229 20.4381 166.319 20.3892C166.34 20.3775 166.357 20.3657 166.377 20.3541C166.396 20.3433 166.413 20.3325 166.431 20.3216C166.476 20.2949 166.524 20.2684 166.565 20.2414C166.642 20.1913 166.711 20.1408 166.774 20.0901C166.792 20.0757 166.805 20.0612 166.821 20.0467C166.835 20.0346 166.848 20.0225 166.861 20.0102C166.888 19.9851 166.919 19.9601 166.943 19.9349C166.994 19.8808 167.038 19.8265 167.074 19.7719C167.082 19.7584 167.086 19.7449 167.094 19.7313C167.103 19.7171 167.108 19.703 167.116 19.6887C167.131 19.6591 167.15 19.6295 167.161 19.5999C167.182 19.5389 167.195 19.4776 167.197 19.4164C167.197 19.4086 167.198 19.4008 167.198 19.393L167.204 2.92506C167.204 3.02394 167.172 3.12224 167.122 3.22045Z" fill="#E7C52E"/>
<path d="M163.986 1.10301C169.062 2.36583 168.019 4.20389 161.658 5.20752C155.302 6.21023 146.026 6.00003 140.95 4.73713C135.874 3.47431 136.921 1.63742 143.277 0.634713C149.639 -0.368921 158.91 -0.159893 163.986 1.10301Z" fill="#F4DA64"/>
<path d="M147.346 26.6748L147.32 93.3871L94.6663 101.694L94.6927 34.9813L147.346 26.6748Z" fill="#DDB61F"/>
<path d="M94.6926 34.9811L94.6662 101.693L52.6538 91.2415L52.6802 24.5293L94.6926 34.9811Z" fill="#CFAB2C"/>
<path d="M147.346 26.6748L147.32 92.547L94.6663 100.853L94.6927 34.9813L147.346 26.6748Z" fill="#EBCB3D"/>
<path d="M94.6926 34.9811L94.6662 100.853L52.6538 90.4014L52.6802 24.5293L94.6926 34.9811Z" fill="#D5A700"/>
<path d="M147.346 26.6754L94.6926 34.9819L52.6802 24.5301L105.334 16.2236L147.346 26.6754Z" fill="#F4D759"/>
<path d="M114.468 11.5271C114.461 11.5412 114.455 11.5554 114.447 11.5695C114.392 11.6632 114.314 11.7562 114.214 11.8484C114.201 11.8606 114.188 11.8729 114.174 11.8851C114.067 11.9777 113.937 12.0692 113.785 12.1596C113.766 12.1705 113.749 12.1815 113.73 12.1924C113.571 12.2831 113.388 12.3724 113.183 12.46C113.16 12.4699 113.138 12.4801 113.114 12.49C112.906 12.5768 112.672 12.6615 112.419 12.7445C112.385 12.7555 112.352 12.7669 112.318 12.7779C112.065 12.858 111.789 12.9357 111.495 13.0114C111.432 13.0273 111.368 13.0433 111.304 13.0591C110.987 13.1371 110.654 13.2134 110.292 13.2857C110.291 13.2858 110.29 13.2861 110.289 13.2863C109.888 13.3662 109.46 13.4424 109.004 13.5143C108.662 13.5683 108.308 13.6171 107.95 13.6641C107.749 13.6905 107.543 13.7142 107.338 13.7383C107.132 13.7625 106.926 13.7869 106.717 13.8089C106.25 13.8578 105.775 13.9023 105.292 13.9405C105.254 13.9434 105.218 13.9474 105.181 13.9503C104.714 13.9863 104.241 14.017 103.763 14.0431C103.322 14.0671 102.877 14.0872 102.43 14.1029C102.401 14.104 102.37 14.1046 102.341 14.1056C101.44 14.1361 100.531 14.1498 99.6232 14.1471C99.5871 14.147 99.5511 14.1467 99.515 14.1465C99.0909 14.1446 98.6676 14.1389 98.2461 14.1298C98.1918 14.1286 98.1376 14.1272 98.0833 14.126C97.674 14.1162 97.2667 14.1031 96.8626 14.0866C96.8001 14.084 96.7377 14.0813 96.6754 14.0786C96.2721 14.061 95.8721 14.0404 95.4767 14.0161C95.4172 14.0125 95.3582 14.0084 95.2989 14.0046C94.8967 13.9789 94.4985 13.9502 94.1073 13.9175C94.066 13.9141 94.0257 13.9102 93.9846 13.9067C93.5953 13.8734 93.2117 13.8369 92.836 13.7967C92.8113 13.7941 92.7858 13.7918 92.761 13.7891C92.3926 13.7492 92.034 13.705 91.6812 13.6585C91.6018 13.648 91.5223 13.6376 91.4435 13.6268C91.0879 13.5779 90.739 13.5265 90.4028 13.471C90.3587 13.4637 90.3177 13.4556 90.274 13.4481C89.9849 13.3992 89.7044 13.3474 89.4318 13.2935C89.2611 13.2597 89.0995 13.2233 88.9357 13.1876C88.7198 13.1405 88.4993 13.0945 88.2962 13.0441C86.1306 12.5053 85.0796 11.8621 85.0798 11.2236L85.0732 27.6917C85.073 28.33 86.124 28.9733 88.2897 29.5121C88.3715 29.5324 88.4544 29.5525 88.5383 29.5723C88.6618 29.6015 88.7982 29.6271 88.9263 29.6551C89.0911 29.6911 89.2533 29.7275 89.4252 29.7615C89.4687 29.7702 89.5077 29.78 89.5517 29.7885C89.7861 29.8337 90.03 29.8761 90.2762 29.9176C90.3164 29.9244 90.3539 29.932 90.3944 29.9387C90.4024 29.9401 90.4097 29.9416 90.4176 29.9428C90.6775 29.9856 90.9435 30.0264 91.2151 30.0652C91.2869 30.0754 91.3619 30.0844 91.4344 30.0945C91.515 30.1056 91.5964 30.1162 91.678 30.127C91.7785 30.1402 91.8765 30.1545 91.9783 30.1671C92.2219 30.1974 92.4693 30.2263 92.72 30.2536C92.7313 30.2549 92.743 30.2559 92.7544 30.2571C92.7791 30.2598 92.8045 30.2621 92.8294 30.2648C93.0331 30.2865 93.2378 30.3079 93.4458 30.3276C93.6215 30.3443 93.8 30.3596 93.9785 30.3748C94.0193 30.3784 94.0594 30.3822 94.1004 30.3856C94.1251 30.3876 94.1491 30.39 94.1738 30.3922C94.4151 30.412 94.6587 30.4305 94.9043 30.4478C95.0326 30.4568 95.1629 30.4644 95.2922 30.4727C95.3515 30.4765 95.4104 30.4805 95.4699 30.4841C95.5245 30.4875 95.578 30.4915 95.6327 30.4946C95.8732 30.5088 96.1153 30.5217 96.3587 30.5334C96.4622 30.5383 96.5668 30.5423 96.6707 30.5467C96.7315 30.5494 96.7918 30.552 96.8526 30.5546C96.9291 30.5577 97.0049 30.5614 97.0816 30.5644C97.3115 30.573 97.5424 30.5806 97.774 30.5871C97.8766 30.5899 97.9797 30.5919 98.0824 30.5943C98.1332 30.5955 98.1838 30.5967 98.2347 30.5978C98.3062 30.5993 98.3773 30.6015 98.4489 30.6029C98.6651 30.6069 98.8818 30.61 99.0989 30.6123C99.2354 30.6136 99.3721 30.614 99.5088 30.6147C99.5447 30.6149 99.5806 30.6152 99.6166 30.6153C99.6535 30.6154 99.6904 30.6159 99.7274 30.616C99.9337 30.6163 100.14 30.6158 100.347 30.6145C100.561 30.613 100.775 30.6107 100.99 30.6074C100.991 30.6074 100.992 30.6074 100.993 30.6074C101.215 30.604 101.436 30.5997 101.657 30.5942C101.886 30.5886 102.114 30.5813 102.342 30.5736C102.368 30.5728 102.394 30.5723 102.42 30.5714C102.435 30.5708 102.45 30.5705 102.465 30.57C102.885 30.555 103.303 30.5363 103.717 30.514C103.73 30.5133 103.741 30.5123 103.754 30.5116C104.233 30.4855 104.708 30.4546 105.176 30.4185C105.181 30.4182 105.185 30.418 105.19 30.4177C105.218 30.4155 105.244 30.4123 105.272 30.4101C105.761 30.3717 106.239 30.3268 106.71 30.2774C106.765 30.2717 106.823 30.2678 106.878 30.2619C107.032 30.2453 107.179 30.2248 107.331 30.2069C107.536 30.1828 107.742 30.1589 107.943 30.1326C108.004 30.1246 108.068 30.1183 108.128 30.1101C108.423 30.0701 108.713 30.0277 108.998 29.9828C109.098 29.967 109.197 29.9509 109.295 29.9346C109.64 29.8774 109.967 29.8177 110.279 29.7556C110.28 29.7554 110.28 29.7552 110.281 29.755C110.285 29.7542 110.288 29.7535 110.291 29.7528C110.56 29.6992 110.816 29.644 111.06 29.5872C111.143 29.5677 111.218 29.5471 111.299 29.5273C111.363 29.5116 111.426 29.4958 111.488 29.4798C111.555 29.4627 111.627 29.4461 111.692 29.4287C111.876 29.3789 112.052 29.3282 112.219 29.2765C112.251 29.2666 112.279 29.2564 112.311 29.2464C112.346 29.2353 112.378 29.2239 112.413 29.2127C112.496 29.1853 112.583 29.1582 112.662 29.1304C112.797 29.0829 112.924 29.0347 113.044 28.986C113.067 28.9768 113.086 28.9674 113.108 28.9582C113.132 28.9485 113.153 28.9386 113.176 28.9289C113.244 28.8997 113.315 28.8707 113.377 28.8412C113.48 28.7932 113.576 28.7447 113.665 28.6958C113.686 28.6841 113.703 28.6723 113.724 28.6607C113.743 28.6499 113.76 28.6391 113.778 28.6283C113.823 28.6016 113.871 28.575 113.912 28.548C113.988 28.498 114.058 28.4475 114.12 28.3967C114.138 28.3824 114.151 28.3678 114.168 28.3534C114.182 28.3412 114.194 28.3291 114.207 28.3168C114.235 28.2917 114.265 28.2668 114.289 28.2416C114.341 28.1874 114.384 28.1331 114.42 28.0786C114.429 28.065 114.433 28.0515 114.441 28.038C114.449 28.0237 114.455 28.0096 114.462 27.9953C114.477 27.9657 114.497 27.9362 114.507 27.9065C114.529 27.8455 114.541 27.7843 114.544 27.723C114.544 27.7152 114.544 27.7074 114.544 27.6997L114.551 11.2317C114.551 11.3306 114.519 11.4289 114.468 11.5271Z" fill="#E7C52E"/>
<path d="M111.332 9.40965C116.408 10.6725 115.366 12.5105 109.004 13.5142C102.648 14.5169 93.3722 14.3067 88.296 13.0438C83.22 11.781 84.2673 9.94406 90.6232 8.94135C96.985 7.93772 106.256 8.14675 111.332 9.40965Z" fill="#F4DA64"/>
<path d="M94.6925 34.9814L94.6661 101.694L42.0125 110L42.0388 43.2878L94.6925 34.9814Z" fill="#DDB61F"/>
<path d="M42.0388 43.2877L42.0125 110L0 99.5483L0.0264387 32.8359L42.0388 43.2877Z" fill="#CFAB2C"/>
<path d="M94.6925 34.9814L94.6661 100.854L42.0125 109.16L42.0388 43.2878L94.6925 34.9814Z" fill="#EBCB3D"/>
<path d="M42.0388 43.2877L42.0125 109.16L0 98.7081L0.0264387 32.8359L42.0388 43.2877Z" fill="#D5A700"/>
<path d="M94.6925 34.9821L42.0388 43.2885L0.0263672 32.8367L52.6801 24.5303L94.6925 34.9821Z" fill="#F4D759"/>
<path d="M61.8147 19.8337C61.8074 19.8478 61.8014 19.862 61.7932 19.8762C61.7384 19.9698 61.6601 20.0628 61.56 20.155C61.5468 20.1673 61.5341 20.1795 61.52 20.1917C61.4133 20.2843 61.2829 20.3759 61.1308 20.4662C61.1123 20.4771 61.0949 20.4881 61.0759 20.499C60.917 20.5898 60.7339 20.679 60.5294 20.7666C60.5061 20.7765 60.4842 20.7867 60.4604 20.7966C60.2518 20.8834 60.0183 20.9682 59.765 21.0511C59.7311 21.0622 59.6986 21.0735 59.6638 21.0845C59.4114 21.1647 59.1349 21.2423 58.8407 21.318C58.7784 21.334 58.7147 21.3499 58.6504 21.3657C58.3334 21.4438 58.0005 21.5201 57.6381 21.5923C57.6371 21.5925 57.6362 21.5927 57.6352 21.5929C57.2344 21.6729 56.8061 21.749 56.3504 21.8209C56.0082 21.8749 55.6538 21.9238 55.2957 21.9707C55.0949 21.9971 54.8891 22.0209 54.6839 22.045C54.4782 22.0692 54.2726 22.0935 54.0627 22.1156C53.596 22.1645 53.1214 22.209 52.6377 22.2471C52.6003 22.2501 52.5643 22.254 52.5268 22.257C52.0604 22.2929 51.5869 22.3237 51.109 22.3497C50.6683 22.3737 50.2236 22.3938 49.7765 22.4095C49.7467 22.4106 49.7167 22.4112 49.6869 22.4122C48.7865 22.4427 47.8768 22.4565 46.9694 22.4537C46.9333 22.4536 46.8972 22.4533 46.8612 22.4531C46.4371 22.4512 46.0138 22.4456 45.5923 22.4364C45.538 22.4352 45.4838 22.4339 45.4295 22.4326C45.0202 22.4229 44.6129 22.4097 44.2087 22.3932C44.1463 22.3906 44.0839 22.3879 44.0216 22.3852C43.6183 22.3677 43.2183 22.347 42.8229 22.3227C42.7634 22.3191 42.7044 22.315 42.6451 22.3112C42.2429 22.2855 41.8447 22.2569 41.4535 22.2242C41.4122 22.2207 41.3719 22.2169 41.3308 22.2134C40.9415 22.18 40.5578 22.1435 40.1822 22.1034C40.1575 22.1008 40.132 22.0984 40.1072 22.0957C39.7388 22.0558 39.3801 22.0116 39.0274 21.9652C38.9479 21.9547 38.8685 21.9443 38.7897 21.9334C38.4341 21.8845 38.0852 21.8332 37.749 21.7777C37.7049 21.7703 37.6639 21.7622 37.6202 21.7547C37.3311 21.7058 37.0506 21.6541 36.778 21.6001C36.6073 21.5664 36.4457 21.53 36.2819 21.4943C36.066 21.4471 35.8455 21.4012 35.6424 21.3507C33.4768 20.8119 32.4257 20.1687 32.426 19.5303L32.4194 35.9983C32.4192 36.6367 33.4702 37.28 35.6359 37.8187C35.7177 37.8391 35.8006 37.8592 35.8845 37.879C36.008 37.9081 36.1444 37.9338 36.2725 37.9617C36.4373 37.9977 36.5995 38.0342 36.7714 38.0682C36.8149 38.0768 36.8539 38.0867 36.8979 38.0951C37.1323 38.1403 37.3762 38.1827 37.6224 38.2243C37.6626 38.2311 37.7001 38.2386 37.7406 38.2454C37.7486 38.2467 37.7558 38.2482 37.7638 38.2495C38.0237 38.2922 38.2897 38.333 38.5613 38.3718C38.6331 38.3821 38.7081 38.391 38.7806 38.4011C38.8612 38.4122 38.9426 38.4229 39.0242 38.4336C39.1247 38.4468 39.2227 38.4611 39.3245 38.4737C39.5681 38.504 39.8155 38.5329 40.0662 38.5603C40.0775 38.5615 40.0892 38.5625 40.1006 38.5638C40.1253 38.5665 40.1507 38.5687 40.1756 38.5714C40.3793 38.5932 40.584 38.6145 40.792 38.6343C40.9676 38.651 41.1462 38.6662 41.3247 38.6815C41.3655 38.685 41.4056 38.6888 41.4466 38.6922C41.4712 38.6943 41.4953 38.6967 41.52 38.6988C41.7613 38.7186 42.0049 38.7372 42.2505 38.7544C42.3788 38.7634 42.5091 38.771 42.6384 38.7794C42.6977 38.7831 42.7566 38.7872 42.8161 38.7908C42.8706 38.7941 42.9242 38.7981 42.9789 38.8013C43.2194 38.8154 43.4615 38.8283 43.7049 38.84C43.8084 38.845 43.913 38.8489 44.0169 38.8534C44.0776 38.8561 44.138 38.8587 44.1988 38.8612C44.2753 38.8643 44.3511 38.8681 44.4278 38.871C44.6577 38.8797 44.8886 38.8872 45.1202 38.8937C45.2228 38.8966 45.3259 38.8985 45.4286 38.9009C45.4794 38.9021 45.53 38.9034 45.5809 38.9045C45.6524 38.906 45.7235 38.9082 45.7951 38.9095C46.0113 38.9135 46.228 38.9166 46.4451 38.9189C46.5816 38.9203 46.7183 38.9207 46.855 38.9213C46.8909 38.9215 46.9268 38.9218 46.9628 38.9219C46.9997 38.922 47.0366 38.9225 47.0736 38.9226C47.2799 38.9229 47.4864 38.9224 47.6928 38.9211C47.9073 38.9197 48.1216 38.9173 48.3358 38.914C48.3371 38.914 48.3382 38.914 48.3394 38.914C48.5609 38.9107 48.7821 38.9063 49.0029 38.9008C49.2321 38.8952 49.4605 38.888 49.6886 38.8803C49.7146 38.8794 49.7406 38.8789 49.7665 38.878C49.7813 38.8775 49.7962 38.8772 49.8109 38.8767C50.2311 38.8616 50.6491 38.843 51.0635 38.8206C51.0758 38.8199 51.0876 38.8189 51.0999 38.8183C51.5794 38.7921 52.0543 38.7612 52.5225 38.7252C52.5269 38.7248 52.5316 38.7247 52.5361 38.7243C52.5641 38.7221 52.5905 38.719 52.6184 38.7168C53.1067 38.6783 53.5854 38.6334 54.0564 38.584C54.1113 38.5783 54.1695 38.5744 54.2241 38.5686C54.3784 38.5519 54.5253 38.5314 54.6772 38.5135C54.8827 38.4894 55.0882 38.4656 55.2891 38.4393C55.3499 38.4313 55.414 38.4249 55.4743 38.4168C55.7695 38.3768 56.0596 38.3343 56.3439 38.2895C56.4444 38.2736 56.5436 38.2575 56.6414 38.2412C56.9857 38.184 57.3136 38.1243 57.6249 38.0622C57.6257 38.062 57.6266 38.0618 57.6274 38.0616C57.631 38.0609 57.6341 38.0601 57.6376 38.0594C57.9059 38.0058 58.1625 37.9506 58.4059 37.8938C58.4894 37.8744 58.5642 37.8538 58.6448 37.834C58.7087 37.8182 58.7719 37.8024 58.834 37.7865C58.9008 37.7693 58.9733 37.7528 59.0379 37.7353C59.2227 37.6856 59.3985 37.6348 59.5655 37.5832C59.5975 37.5733 59.6255 37.563 59.6569 37.553C59.692 37.5419 59.7247 37.5306 59.759 37.5193C59.8426 37.4919 59.9294 37.4649 60.0082 37.4371C60.1429 37.3895 60.2704 37.3414 60.3907 37.2926C60.4133 37.2835 60.4325 37.274 60.4547 37.2648C60.4781 37.2551 60.4994 37.2453 60.5222 37.2355C60.5902 37.2064 60.6607 37.1774 60.7237 37.1479C60.8262 37.0998 60.922 37.0514 61.0111 37.0025C61.0323 36.9908 61.0495 36.9789 61.0699 36.9673C61.0888 36.9566 61.1059 36.9457 61.1241 36.9349C61.1691 36.9082 61.217 36.8816 61.2581 36.8547C61.3345 36.8046 61.4039 36.7541 61.4666 36.7034C61.4843 36.689 61.4972 36.6745 61.5138 36.66C61.5279 36.6478 61.5403 36.6357 61.5536 36.6235C61.5808 36.5984 61.6117 36.5734 61.6356 36.5482C61.6868 36.4941 61.7305 36.4397 61.7662 36.3852C61.7751 36.3717 61.7789 36.3582 61.7868 36.3446C61.7951 36.3303 61.8011 36.3162 61.8084 36.3019C61.8235 36.2724 61.8428 36.2428 61.8533 36.2131C61.8751 36.1522 61.8872 36.0909 61.8898 36.0297C61.8901 36.0218 61.8902 36.014 61.8902 36.0063L61.8968 19.5383C61.8968 19.6372 61.8649 19.7355 61.8147 19.8337Z" fill="#E7C52E"/>
<path d="M58.6786 17.7163C63.7547 18.9791 62.712 20.8172 56.3502 21.8208C49.9943 22.8235 40.7184 22.6133 35.6422 21.3504C30.5662 20.0876 31.6135 18.2507 37.9694 17.248C44.3312 16.2444 53.6025 16.4534 58.6786 17.7163Z" fill="#F4DA64"/>
<mask id="path-22-outside-1_433_997" maskUnits="userSpaceOnUse" x="65.3053" y="43.0531" width="114.495" height="41.4658" fill="black">
<rect fill="white" x="65.3053" y="43.0531" width="114.495" height="41.4658"/>
<path d="M72.7546 78.9033L73.6605 63.1345L82.2508 61.8352C83.3107 61.6749 84.2109 61.741 84.9512 62.0336C85.705 62.3079 86.3075 62.7589 86.7589 63.3865C87.2079 63.9982 87.4972 64.7312 87.627 65.5854C87.6631 65.8226 87.6845 66.0702 87.6913 66.3281C87.7115 66.5678 87.7104 66.8268 87.688 67.1053C87.6189 68.2485 87.3523 69.3164 86.8881 70.309C86.4373 71.2834 85.7612 72.1057 84.8596 72.7761C83.9739 73.444 82.835 73.8833 81.4428 74.0939L78.6901 74.5102L78.4973 78.0347L72.7546 78.9033ZM78.958 69.8821L80.3581 69.6703C80.8169 69.601 81.1694 69.4182 81.4157 69.122C81.6779 68.8235 81.8228 68.4455 81.8504 67.9883C81.869 67.7913 81.8675 67.6216 81.8459 67.4792C81.7474 66.8307 81.3421 66.5602 80.6302 66.6679L79.1352 66.894L78.958 69.8821ZM87.8408 76.6215L88.7467 60.8527L97.337 59.5534C98.8241 59.3285 100.041 59.5651 100.989 60.2632C101.952 60.959 102.532 61.9475 102.726 63.2288C102.791 63.6559 102.811 64.106 102.786 64.5791C102.736 65.6384 102.446 66.6047 101.915 67.4779C101.398 68.3329 100.696 69.0944 99.8104 69.7623C100.095 69.9297 100.293 70.1668 100.404 70.4736L101.96 74.4859L95.9802 75.3904L94.6817 72.1158C94.5679 71.7932 94.3529 71.6558 94.0365 71.7036L93.7992 71.7395L93.5835 75.7529L87.8408 76.6215ZM94.0908 67.1078L95.4909 66.8961C96.4243 66.7549 96.91 66.2769 96.948 65.462C96.9518 65.3805 96.9489 65.3082 96.9393 65.2449C96.9455 65.1792 96.9438 65.1148 96.9342 65.0515C96.8501 64.4978 96.4442 64.276 95.7165 64.3861L94.2215 64.6122L94.0908 67.1078ZM110.719 73.4038C109.359 73.6096 108.137 73.6084 107.053 73.4001C105.986 73.1894 105.107 72.7316 104.417 72.0269C103.741 71.3039 103.303 70.2859 103.104 68.973C102.995 68.2611 102.968 67.44 103.021 66.5097C103.139 64.5176 103.539 62.8875 104.22 61.6193C104.914 60.333 105.888 59.3362 107.14 58.629C108.389 57.906 109.908 57.4093 111.696 57.139C113.088 56.9284 114.318 56.9285 115.386 57.1391C116.451 57.334 117.321 57.785 117.994 58.4922C118.668 59.1994 119.104 60.2015 119.301 61.4987C119.411 62.2263 119.443 63.0711 119.394 64.0331C119.274 66.0094 118.874 67.6395 118.195 68.9235C117.517 70.2074 116.552 71.2109 115.303 71.9339C114.067 72.6387 112.539 73.1287 110.719 73.4038ZM111.025 68.3817C111.863 68.2549 112.47 67.9365 112.846 67.4266C113.235 66.8985 113.464 66.0628 113.533 64.9197C113.551 64.6095 113.557 64.3334 113.553 64.0914C113.562 63.8311 113.551 63.5982 113.52 63.3925C113.436 62.8389 113.234 62.4728 112.916 62.2945C112.595 62.1002 112.087 62.0558 111.391 62.1611C110.552 62.2879 109.938 62.6154 109.549 63.1435C109.173 63.6534 108.951 64.4799 108.882 65.6231C108.864 65.9333 108.859 66.2173 108.866 66.4751C108.87 66.7172 108.888 66.9411 108.919 67.1467C109.001 67.6845 109.202 68.0505 109.523 68.2448C109.844 68.439 110.344 68.4846 111.025 68.3817ZM123.124 71.5277C122.444 71.6306 121.789 71.6891 121.16 71.7034C120.547 71.7152 119.94 71.6614 119.339 71.5419L119.611 66.6218C119.999 66.725 120.421 66.7826 120.875 66.7947C121.328 66.791 121.784 66.7544 122.243 66.685C123.049 66.563 123.581 66.3369 123.839 66.0067C124.112 65.6741 124.275 65.1479 124.327 64.4279L124.848 55.3924L130.591 54.5238L129.974 65.0059C129.912 66.1966 129.642 67.2407 129.163 68.1384C128.698 69.0179 127.975 69.7422 126.993 70.3114C126.027 70.8782 124.738 71.2836 123.124 71.5277ZM131.222 70.0601L132.128 54.2913L144.349 52.4429L144.099 56.7043L137.62 57.6841L137.544 59.1034L143.121 58.26L142.868 62.6673L137.292 63.5108L137.192 64.9337L143.67 63.9538L143.443 68.2117L131.222 70.0601ZM153.011 67.0073C151.445 67.2442 150.051 67.2285 148.828 66.9603C147.622 66.6896 146.637 66.1671 145.872 65.3928C145.12 64.6003 144.646 63.5555 144.449 62.2584C144.357 61.6573 144.329 60.99 144.363 60.2567C144.523 57.5787 145.451 55.4318 147.147 53.8159C148.844 52.2 151.108 51.1779 153.94 50.7496C154.921 50.6012 155.778 50.5444 156.511 50.5791C157.261 50.6114 157.988 50.7118 158.693 50.8802L158.386 56.0482C156.972 55.5825 155.514 55.4632 154.011 55.6905C152.808 55.8724 151.893 56.2374 151.264 56.7856C150.649 57.3156 150.302 58.1771 150.224 59.3702C150.206 59.5672 150.202 59.7539 150.212 59.9303C150.223 60.1067 150.24 60.2739 150.264 60.4321C150.377 61.1756 150.71 61.6593 151.262 61.8833C151.827 62.0891 152.64 62.1118 153.699 61.9515C155.202 61.7242 156.702 61.1575 158.199 60.2515L157.892 65.4195C157.155 65.7899 156.402 66.106 155.633 66.368C154.866 66.6459 153.992 66.859 153.011 67.0073ZM162.139 65.384L162.794 53.8767L158.902 54.4653L159.153 50.2038L172.679 48.158L172.428 52.4195L168.536 53.0081L167.881 64.5154L162.139 65.384Z"/>
</mask>
<path d="M72.7546 78.9033L73.6605 63.1345L82.2508 61.8352C83.3107 61.6749 84.2109 61.741 84.9512 62.0336C85.705 62.3079 86.3075 62.7589 86.7589 63.3865C87.2079 63.9982 87.4972 64.7312 87.627 65.5854C87.6631 65.8226 87.6845 66.0702 87.6913 66.3281C87.7115 66.5678 87.7104 66.8268 87.688 67.1053C87.6189 68.2485 87.3523 69.3164 86.8881 70.309C86.4373 71.2834 85.7612 72.1057 84.8596 72.7761C83.9739 73.444 82.835 73.8833 81.4428 74.0939L78.6901 74.5102L78.4973 78.0347L72.7546 78.9033ZM78.958 69.8821L80.3581 69.6703C80.8169 69.601 81.1694 69.4182 81.4157 69.122C81.6779 68.8235 81.8228 68.4455 81.8504 67.9883C81.869 67.7913 81.8675 67.6216 81.8459 67.4792C81.7474 66.8307 81.3421 66.5602 80.6302 66.6679L79.1352 66.894L78.958 69.8821ZM87.8408 76.6215L88.7467 60.8527L97.337 59.5534C98.8241 59.3285 100.041 59.5651 100.989 60.2632C101.952 60.959 102.532 61.9475 102.726 63.2288C102.791 63.6559 102.811 64.106 102.786 64.5791C102.736 65.6384 102.446 66.6047 101.915 67.4779C101.398 68.3329 100.696 69.0944 99.8104 69.7623C100.095 69.9297 100.293 70.1668 100.404 70.4736L101.96 74.4859L95.9802 75.3904L94.6817 72.1158C94.5679 71.7932 94.3529 71.6558 94.0365 71.7036L93.7992 71.7395L93.5835 75.7529L87.8408 76.6215ZM94.0908 67.1078L95.4909 66.8961C96.4243 66.7549 96.91 66.2769 96.948 65.462C96.9518 65.3805 96.9489 65.3082 96.9393 65.2449C96.9455 65.1792 96.9438 65.1148 96.9342 65.0515C96.8501 64.4978 96.4442 64.276 95.7165 64.3861L94.2215 64.6122L94.0908 67.1078ZM110.719 73.4038C109.359 73.6096 108.137 73.6084 107.053 73.4001C105.986 73.1894 105.107 72.7316 104.417 72.0269C103.741 71.3039 103.303 70.2859 103.104 68.973C102.995 68.2611 102.968 67.44 103.021 66.5097C103.139 64.5176 103.539 62.8875 104.22 61.6193C104.914 60.333 105.888 59.3362 107.14 58.629C108.389 57.906 109.908 57.4093 111.696 57.139C113.088 56.9284 114.318 56.9285 115.386 57.1391C116.451 57.334 117.321 57.785 117.994 58.4922C118.668 59.1994 119.104 60.2015 119.301 61.4987C119.411 62.2263 119.443 63.0711 119.394 64.0331C119.274 66.0094 118.874 67.6395 118.195 68.9235C117.517 70.2074 116.552 71.2109 115.303 71.9339C114.067 72.6387 112.539 73.1287 110.719 73.4038ZM111.025 68.3817C111.863 68.2549 112.47 67.9365 112.846 67.4266C113.235 66.8985 113.464 66.0628 113.533 64.9197C113.551 64.6095 113.557 64.3334 113.553 64.0914C113.562 63.8311 113.551 63.5982 113.52 63.3925C113.436 62.8389 113.234 62.4728 112.916 62.2945C112.595 62.1002 112.087 62.0558 111.391 62.1611C110.552 62.2879 109.938 62.6154 109.549 63.1435C109.173 63.6534 108.951 64.4799 108.882 65.6231C108.864 65.9333 108.859 66.2173 108.866 66.4751C108.87 66.7172 108.888 66.9411 108.919 67.1467C109.001 67.6845 109.202 68.0505 109.523 68.2448C109.844 68.439 110.344 68.4846 111.025 68.3817ZM123.124 71.5277C122.444 71.6306 121.789 71.6891 121.16 71.7034C120.547 71.7152 119.94 71.6614 119.339 71.5419L119.611 66.6218C119.999 66.725 120.421 66.7826 120.875 66.7947C121.328 66.791 121.784 66.7544 122.243 66.685C123.049 66.563 123.581 66.3369 123.839 66.0067C124.112 65.6741 124.275 65.1479 124.327 64.4279L124.848 55.3924L130.591 54.5238L129.974 65.0059C129.912 66.1966 129.642 67.2407 129.163 68.1384C128.698 69.0179 127.975 69.7422 126.993 70.3114C126.027 70.8782 124.738 71.2836 123.124 71.5277ZM131.222 70.0601L132.128 54.2913L144.349 52.4429L144.099 56.7043L137.62 57.6841L137.544 59.1034L143.121 58.26L142.868 62.6673L137.292 63.5108L137.192 64.9337L143.67 63.9538L143.443 68.2117L131.222 70.0601ZM153.011 67.0073C151.445 67.2442 150.051 67.2285 148.828 66.9603C147.622 66.6896 146.637 66.1671 145.872 65.3928C145.12 64.6003 144.646 63.5555 144.449 62.2584C144.357 61.6573 144.329 60.99 144.363 60.2567C144.523 57.5787 145.451 55.4318 147.147 53.8159C148.844 52.2 151.108 51.1779 153.94 50.7496C154.921 50.6012 155.778 50.5444 156.511 50.5791C157.261 50.6114 157.988 50.7118 158.693 50.8802L158.386 56.0482C156.972 55.5825 155.514 55.4632 154.011 55.6905C152.808 55.8724 151.893 56.2374 151.264 56.7856C150.649 57.3156 150.302 58.1771 150.224 59.3702C150.206 59.5672 150.202 59.7539 150.212 59.9303C150.223 60.1067 150.24 60.2739 150.264 60.4321C150.377 61.1756 150.71 61.6593 151.262 61.8833C151.827 62.0891 152.64 62.1118 153.699 61.9515C155.202 61.7242 156.702 61.1575 158.199 60.2515L157.892 65.4195C157.155 65.7899 156.402 66.106 155.633 66.368C154.866 66.6459 153.992 66.859 153.011 67.0073ZM162.139 65.384L162.794 53.8767L158.902 54.4653L159.153 50.2038L172.679 48.158L172.428 52.4195L168.536 53.0081L167.881 64.5154L162.139 65.384Z" fill="#F0F0F0"/>
<path d="M72.7546 78.9033L68.7608 78.6714C68.6916 79.8752 69.1693 81.0462 70.061 81.8587C70.9526 82.6711 72.163 83.0382 73.3554 82.8579L72.7546 78.9033ZM73.6605 63.1345L73.0597 59.1798C71.1903 59.4626 69.7751 61.0154 69.6667 62.9026L73.6605 63.1345ZM84.9512 62.0336L83.4827 65.753C83.5165 65.7664 83.5506 65.7793 83.5848 65.7918L84.9512 62.0336ZM86.7589 63.3865L83.5116 65.7202C83.5191 65.7306 83.5266 65.741 83.5342 65.7513L86.7589 63.3865ZM87.6913 66.3281L83.6923 66.4312C83.6943 66.5082 83.6986 66.5851 83.7051 66.6619L87.6913 66.3281ZM87.688 67.1053L83.7005 66.7819C83.6984 66.8084 83.6965 66.835 83.6949 66.8616L87.688 67.1053ZM86.8881 70.309L83.2641 68.6131C83.2617 68.6181 83.2594 68.6231 83.2571 68.6281L86.8881 70.309ZM84.8596 72.7761L82.471 69.5662C82.4638 69.5716 82.4566 69.577 82.4493 69.5824L84.8596 72.7761ZM78.6901 74.5102L78.0893 70.5556C76.2159 70.8389 74.7992 72.3976 74.6957 74.2893L78.6901 74.5102ZM78.4973 78.0347L79.098 81.9893C80.9714 81.706 82.3882 80.1473 82.4917 78.2556L78.4973 78.0347ZM78.958 69.8821L74.9646 69.6429C74.8932 70.8478 75.3698 72.0209 76.2617 72.835C77.1535 73.6491 78.3652 74.0173 79.5588 73.8367L78.958 69.8821ZM81.4157 69.122L78.4086 66.4824C78.3851 66.5092 78.3619 66.5363 78.3391 66.5637L81.4157 69.122ZM81.8504 67.9883L77.8677 67.6095C77.8635 67.6544 77.86 67.6995 77.8573 67.7446L81.8504 67.9883ZM79.1352 66.894L78.5345 62.9394C76.6679 63.2217 75.2536 64.7705 75.1419 66.6548L79.1352 66.894ZM72.7546 78.9033L76.7484 79.1351L77.6543 63.3663L73.6605 63.1345L69.6667 62.9026L68.7608 78.6714L72.7546 78.9033ZM73.6605 63.1345L74.2613 67.0891L82.8516 65.7898L82.2508 61.8352L81.65 57.8806L73.0597 59.1798L73.6605 63.1345ZM82.2508 61.8352L82.8516 65.7898C83.4468 65.6998 83.5889 65.795 83.4827 65.753L84.9512 62.0336L86.4197 58.3141C84.8328 57.687 83.1747 57.65 81.65 57.8806L82.2508 61.8352ZM84.9512 62.0336L83.5848 65.7918C83.6027 65.7983 83.6078 65.8015 83.6031 65.799C83.5983 65.7964 83.5872 65.79 83.5725 65.779C83.5577 65.7679 83.5436 65.7555 83.5315 65.7431C83.5195 65.7308 83.513 65.7222 83.5116 65.7202L86.7589 63.3865L90.0062 61.0527C89.0668 59.7466 87.797 58.8139 86.3176 58.2754L84.9512 62.0336ZM86.7589 63.3865L83.5342 65.7513C83.5503 65.7733 83.6257 65.8789 83.672 66.1836L87.627 65.5854L91.582 64.9872C91.3688 63.5834 90.8655 62.2231 89.9836 61.0216L86.7589 63.3865ZM87.627 65.5854L83.672 66.1836C83.6814 66.2452 83.6895 66.3268 83.6923 66.4312L87.6913 66.3281L91.6903 66.225C91.6794 65.8136 91.6448 65.4001 91.582 64.9872L87.627 65.5854ZM87.6913 66.3281L83.7051 66.6619C83.7042 66.6512 83.7081 66.688 83.7005 66.7819L87.688 67.1053L91.6755 67.4288C91.7128 66.9657 91.7189 66.4843 91.6775 65.9943L87.6913 66.3281ZM87.688 67.1053L83.6949 66.8616C83.6548 67.5248 83.5052 68.0973 83.2641 68.6131L86.8881 70.309L90.5121 72.0049C91.1993 70.5355 91.583 68.9723 91.6811 67.349L87.688 67.1053ZM86.8881 70.309L83.2571 68.6281C83.0995 68.9686 82.8631 69.2747 82.471 69.5662L84.8596 72.7761L87.2482 75.986C88.6593 74.9367 89.7751 73.5981 90.5191 71.9899L86.8881 70.309ZM84.8596 72.7761L82.4493 69.5824C82.218 69.7569 81.7498 70.0019 80.842 70.1393L81.4428 74.0939L82.0436 78.0485C83.9201 77.7647 85.7298 77.1312 87.2699 75.9697L84.8596 72.7761ZM81.4428 74.0939L80.842 70.1393L78.0893 70.5556L78.6901 74.5102L79.2909 78.4648L82.0436 78.0485L81.4428 74.0939ZM78.6901 74.5102L74.6957 74.2893L74.5029 77.8137L78.4973 78.0347L82.4917 78.2556L82.6845 74.7312L78.6901 74.5102ZM78.4973 78.0347L77.8965 74.0801L72.1538 74.9486L72.7546 78.9033L73.3554 82.8579L79.098 81.9893L78.4973 78.0347ZM78.958 69.8821L79.5588 73.8367L80.9589 73.625L80.3581 69.6703L79.7573 65.7157L78.3572 65.9275L78.958 69.8821ZM80.3581 69.6703L80.9589 73.625C82.1786 73.4405 83.4974 72.8766 84.4923 71.6803L81.4157 69.122L78.3391 66.5637C78.5673 66.2893 78.8413 66.0766 79.1233 65.9304C79.3955 65.7893 79.6245 65.7358 79.7573 65.7157L80.3581 69.6703ZM81.4157 69.122L84.4229 71.7616C85.3577 70.6969 85.7709 69.4337 85.8435 68.232L81.8504 67.9883L77.8573 67.7446C77.8649 67.6186 77.894 67.4197 77.9855 67.1811C78.0793 66.9365 78.2215 66.6955 78.4086 66.4824L81.4157 69.122ZM81.8504 67.9883L85.833 68.3671C85.8718 67.9565 85.8861 67.4417 85.8009 66.881L81.8459 67.4792L77.8909 68.0774C77.8688 67.9319 77.8636 67.8182 77.863 67.7462C77.8624 67.6732 77.8662 67.626 77.8677 67.6095L81.8504 67.9883ZM81.8459 67.4792L85.8009 66.881C85.6439 65.8474 85.1194 64.4194 83.6876 63.4638C82.3353 62.5613 80.9086 62.5803 80.0295 62.7133L80.6302 66.6679L81.231 70.6225C81.0637 70.6478 80.1956 70.7482 79.2485 70.1161C78.2219 69.4309 77.9494 68.4624 77.8909 68.0774L81.8459 67.4792ZM80.6302 66.6679L80.0295 62.7133L78.5345 62.9394L79.1352 66.894L79.736 70.8486L81.231 70.6225L80.6302 66.6679ZM79.1352 66.894L75.1419 66.6548L74.9646 69.6429L78.958 69.8821L82.9514 70.1213L83.1286 67.1332L79.1352 66.894ZM87.8408 76.6215L83.847 76.3897C83.7779 77.5934 84.2556 78.7644 85.1472 79.5769C86.0389 80.3893 87.2493 80.7565 88.4416 80.5761L87.8408 76.6215ZM88.7467 60.8527L88.1459 56.8981C86.2766 57.1808 84.8613 58.7336 84.7529 60.6209L88.7467 60.8527ZM100.989 60.2632L98.6172 63.4826C98.6275 63.4901 98.6377 63.4976 98.648 63.505L100.989 60.2632ZM102.786 64.5791L98.7909 64.3637C98.7905 64.3725 98.79 64.3813 98.7896 64.3901L102.786 64.5791ZM101.915 67.4779L98.4964 65.3989L98.4922 65.4057L101.915 67.4779ZM99.8104 69.7623L97.4001 66.5687C96.3338 67.3728 95.7398 68.6563 95.8166 69.9898C95.8934 71.3234 96.631 72.531 97.7826 73.2088L99.8104 69.7623ZM100.404 70.4736L96.6435 71.8357C96.6535 71.8631 96.6638 71.8904 96.6743 71.9176L100.404 70.4736ZM101.96 74.4859L102.561 78.4406C103.761 78.2591 104.813 77.5426 105.422 76.4928C106.03 75.443 106.129 74.1736 105.69 73.0419L101.96 74.4859ZM95.9802 75.3904L92.2616 76.8625C92.9483 78.5942 94.7393 79.6236 96.581 79.345L95.9802 75.3904ZM94.6817 72.1158L90.9089 73.4434C90.926 73.4919 90.9441 73.5401 90.963 73.5879L94.6817 72.1158ZM93.7992 71.7395L93.1984 67.7849C91.3235 68.0685 89.9063 69.6293 89.8045 71.5225L93.7992 71.7395ZM93.5835 75.7529L94.1843 79.7075C96.0591 79.424 97.4764 77.8632 97.5781 75.97L93.5835 75.7529ZM94.0908 67.1078L90.0959 66.8963C90.033 68.0968 90.5137 69.2623 91.4047 70.07C92.2958 70.8778 93.5028 71.2423 94.6916 71.0625L94.0908 67.1078ZM96.948 65.462L100.944 65.651L100.944 65.651L96.948 65.462ZM96.9393 65.2449L92.9567 64.8661C92.9259 65.1916 92.9352 65.5197 92.9843 65.8431L96.9393 65.2449ZM94.2215 64.6122L93.6207 60.6576C91.7438 60.9415 90.3258 62.5053 90.2265 64.4007L94.2215 64.6122ZM87.8408 76.6215L91.8346 76.8533L92.7405 61.0845L88.7467 60.8527L84.7529 60.6209L83.847 76.3897L87.8408 76.6215ZM88.7467 60.8527L89.3475 64.8073L97.9378 63.508L97.337 59.5534L96.7362 55.5988L88.1459 56.8981L88.7467 60.8527ZM97.337 59.5534L97.9378 63.508C98.3224 63.4499 98.5288 63.4736 98.6043 63.4883C98.6624 63.4996 98.647 63.5045 98.6172 63.4826L100.989 60.2632L103.361 57.0439C101.338 55.5538 98.9663 55.2615 96.7362 55.5988L97.337 59.5534ZM100.989 60.2632L98.648 63.505C98.6771 63.526 98.6883 63.5382 98.6899 63.5399C98.6912 63.5413 98.6918 63.542 98.6942 63.5461C98.6959 63.5489 98.74 63.6222 98.7711 63.827L102.726 63.2288L106.681 62.6306C106.341 60.3941 105.248 58.4067 103.33 57.0215L100.989 60.2632ZM102.726 63.2288L98.7711 63.827C98.7914 63.9605 98.803 64.1365 98.7909 64.3637L102.786 64.5791L106.78 64.7945C106.819 64.0755 106.791 63.3514 106.681 62.6306L102.726 63.2288ZM102.786 64.5791L98.7896 64.3901C98.7701 64.807 98.6664 65.1192 98.4964 65.3989L101.915 67.4779L105.334 69.5569C106.226 68.0901 106.702 66.4698 106.782 64.7681L102.786 64.5791ZM101.915 67.4779L98.4922 65.4057C98.2654 65.7805 97.9246 66.1731 97.4001 66.5687L99.8104 69.7623L102.221 72.956C103.468 72.0156 104.53 70.8852 105.338 69.55L101.915 67.4779ZM99.8104 69.7623L97.7826 73.2088C97.5561 73.0755 97.3161 72.8846 97.1011 72.6269C96.8857 72.3688 96.7372 72.0938 96.6435 71.8357L100.404 70.4736L104.164 69.1114C103.732 67.9194 102.915 66.9499 101.838 66.3159L99.8104 69.7623ZM100.404 70.4736L96.6743 71.9176L98.2306 75.93L101.96 74.4859L105.69 73.0419L104.134 69.0295L100.404 70.4736ZM101.96 74.4859L101.359 70.5313L95.3795 71.4358L95.9802 75.3904L96.581 79.345L102.561 78.4406L101.96 74.4859ZM95.9802 75.3904L99.6989 73.9183L98.4003 70.6437L94.6817 72.1158L90.963 73.5879L92.2616 76.8625L95.9802 75.3904ZM94.6817 72.1158L98.4544 70.7882C98.2013 70.0703 97.6688 69.0915 96.5873 68.4007C95.4711 67.6877 94.2999 67.6183 93.4357 67.749L94.0365 71.7036L94.6372 75.6583C94.0894 75.7411 93.184 75.7165 92.2828 75.1409C91.4164 74.5875 91.0483 73.8386 90.9089 73.4434L94.6817 72.1158ZM94.0365 71.7036L93.4357 67.749L93.1984 67.7849L93.7992 71.7395L94.3999 75.6942L94.6372 75.6583L94.0365 71.7036ZM93.7992 71.7395L89.8045 71.5225L89.5889 75.5359L93.5835 75.7529L97.5781 75.97L97.7938 71.9566L93.7992 71.7395ZM93.5835 75.7529L92.9827 71.7983L87.24 72.6669L87.8408 76.6215L88.4416 80.5761L94.1843 79.7075L93.5835 75.7529ZM94.0908 67.1078L94.6916 71.0625L96.0917 70.8507L95.4909 66.8961L94.8901 62.9414L93.49 63.1532L94.0908 67.1078ZM95.4909 66.8961L96.0917 70.8507C97.0789 70.7014 98.327 70.3019 99.3624 69.2829C100.459 68.2035 100.888 66.8546 100.944 65.651L96.948 65.462L92.952 65.273C92.9701 64.8844 93.1369 64.1819 93.748 63.5804C94.2977 63.0395 94.8362 62.9496 94.8901 62.9414L95.4909 66.8961ZM96.948 65.462L100.944 65.651C100.957 65.3743 100.953 65.0299 100.894 64.6467L96.9393 65.2449L92.9843 65.8431C92.9453 65.5864 92.9467 65.3868 92.952 65.2731L96.948 65.462ZM96.9393 65.2449L100.922 65.6237C100.958 65.2426 100.949 64.8497 100.889 64.4533L96.9342 65.0515L92.9792 65.6497C92.9382 65.3798 92.9331 65.1159 92.9567 64.8661L96.9393 65.2449ZM96.9342 65.0515L100.889 64.4533C100.704 63.2327 100.018 61.7991 98.4834 60.9605C97.1764 60.2463 95.8689 60.3176 95.1157 60.4315L95.7165 64.3861L96.3172 68.3407C96.2918 68.3446 95.551 68.4717 94.65 67.9793C93.5211 67.3625 93.0805 66.3166 92.9792 65.6497L96.9342 65.0515ZM95.7165 64.3861L95.1157 60.4315L93.6207 60.6576L94.2215 64.6122L94.8222 68.5669L96.3172 68.3407L95.7165 64.3861ZM94.2215 64.6122L90.2265 64.4007L90.0959 66.8963L94.0908 67.1078L98.0857 67.3194L98.2164 64.8238L94.2215 64.6122ZM107.053 73.4001L106.281 77.324C106.288 77.3252 106.294 77.3265 106.3 77.3277L107.053 73.4001ZM104.417 72.0269L101.496 74.7578C101.517 74.7798 101.538 74.8015 101.559 74.823L104.417 72.0269ZM103.021 66.5097L99.0273 66.2704L99.0268 66.2803L103.021 66.5097ZM104.22 61.6193L100.699 59.7174L100.695 59.7251L104.22 61.6193ZM107.14 58.629L109.109 62.1116C109.121 62.1048 109.133 62.098 109.145 62.0911L107.14 58.629ZM115.386 57.1391L114.613 61.063C114.632 61.0666 114.65 61.0701 114.668 61.0734L115.386 57.1391ZM117.994 58.4922L115.099 61.2501L115.099 61.2501L117.994 58.4922ZM119.394 64.0331L123.387 64.2791C123.388 64.2644 123.389 64.2498 123.39 64.2351L119.394 64.0331ZM118.195 68.9235L114.658 67.0526L118.195 68.9235ZM115.303 71.9339L117.286 75.4086C117.293 75.4044 117.301 75.4002 117.308 75.3959L115.303 71.9339ZM112.846 67.4266L109.624 65.0533L109.624 65.0533L112.846 67.4266ZM113.533 64.9197L117.526 65.1634C117.527 65.1586 117.527 65.1538 117.527 65.149L113.533 64.9197ZM113.553 64.0914L109.555 63.9505C109.553 64.0209 109.552 64.0913 109.553 64.1617L113.553 64.0914ZM112.916 62.2945L110.845 65.7154C110.884 65.7387 110.923 65.7613 110.962 65.7833L112.916 62.2945ZM108.882 65.6231L104.889 65.3794C104.889 65.3842 104.888 65.389 104.888 65.3938L108.882 65.6231ZM108.866 66.4751L112.866 66.4049C112.865 66.3939 112.865 66.383 112.865 66.3721L108.866 66.4751ZM110.719 73.4038L110.119 69.4492C109.101 69.6031 108.348 69.5766 107.806 69.4724L107.053 73.4001L106.3 77.3277C107.925 77.6401 109.617 77.6161 111.32 77.3585L110.719 73.4038ZM107.053 73.4001L107.826 69.4762C107.465 69.4051 107.342 69.2979 107.276 69.2307L104.417 72.0269L101.559 74.823C102.872 76.1654 104.506 76.9737 106.281 77.324L107.053 73.4001ZM104.417 72.0269L107.338 69.2959C107.374 69.3343 107.177 69.1567 107.059 68.3748L103.104 68.973L99.1486 69.5712C99.4287 71.4151 100.108 73.2734 101.496 74.7578L104.417 72.0269ZM103.104 68.973L107.059 68.3748C107.002 68.003 106.973 67.469 107.015 66.739L103.021 66.5097L99.0268 66.2803C98.9625 67.411 98.9888 68.5193 99.1486 69.5712L103.104 68.973ZM103.021 66.5097L107.014 66.7489C107.11 65.1263 107.422 64.1133 107.744 63.5136L104.22 61.6193L100.695 59.7251C99.655 61.6617 99.1674 63.9089 99.0273 66.2704L103.021 66.5097ZM104.22 61.6193L107.74 63.5213C108.083 62.8856 108.524 62.442 109.109 62.1116L107.14 58.629L105.17 55.1464C103.251 56.2305 101.746 57.7804 100.699 59.7174L104.22 61.6193ZM107.14 58.629L109.145 62.0911C109.868 61.6731 110.884 61.3073 112.296 61.0936L111.696 57.139L111.095 53.1843C108.932 53.5114 106.911 54.139 105.134 55.167L107.14 58.629ZM111.696 57.139L112.296 61.0936C113.36 60.9327 114.109 60.9635 114.613 61.063L115.386 57.1391L116.158 53.2152C114.527 52.8934 112.816 52.924 111.095 53.1843L111.696 57.139ZM115.386 57.1391L114.668 61.0734C114.996 61.1335 115.072 61.2217 115.099 61.2501L117.994 58.4922L120.89 55.7343C119.569 54.3484 117.905 53.5345 116.103 53.2048L115.386 57.1391ZM117.994 58.4922L115.099 61.2501C115.041 61.1897 115.23 61.3372 115.346 62.0968L119.301 61.4987L123.256 60.9005C122.977 59.0659 122.295 57.2091 120.89 55.7343L117.994 58.4922ZM119.301 61.4987L115.346 62.0968C115.406 62.4932 115.438 63.0596 115.399 63.8311L119.394 64.0331L123.39 64.2351C123.447 63.0826 123.417 61.9594 123.256 60.9005L119.301 61.4987ZM119.394 64.0331L115.402 63.7872C115.304 65.3898 114.993 66.4191 114.658 67.0526L118.195 68.9235L121.732 70.7944C122.755 68.8599 123.244 66.629 123.387 64.2791L119.394 64.0331ZM118.195 68.9235L114.658 67.0526C114.328 67.6771 113.893 68.1273 113.297 68.4719L115.303 71.9339L117.308 75.3959C119.212 74.2945 120.705 72.7377 121.732 70.7944L118.195 68.9235ZM115.303 71.9339L113.319 68.4592C112.615 68.8606 111.587 69.2271 110.119 69.4492L110.719 73.4038L111.32 77.3585C113.491 77.0302 115.518 76.4168 117.286 75.4086L115.303 71.9339ZM111.025 68.3817L111.625 72.3364C113.147 72.1063 114.873 71.4217 116.067 69.8L112.846 67.4266L109.624 65.0533C109.825 64.7813 110.061 64.6043 110.249 64.5057C110.42 64.416 110.503 64.4151 110.424 64.4271L111.025 68.3817ZM112.846 67.4266L116.067 69.8C117.141 68.342 117.441 66.5723 117.526 65.1634L113.533 64.9197L109.54 64.676C109.517 65.0541 109.474 65.2623 109.451 65.3443C109.441 65.3809 109.442 65.3685 109.464 65.32C109.486 65.2712 109.535 65.1749 109.624 65.0533L112.846 67.4266ZM113.533 64.9197L117.527 65.149C117.549 64.7654 117.559 64.3863 117.553 64.0211L113.553 64.0914L109.553 64.1617C109.555 64.2806 109.553 64.4537 109.539 64.6903L113.533 64.9197ZM113.553 64.0914L117.551 64.2322C117.566 63.7836 117.551 63.2965 117.475 62.7943L113.52 63.3925L109.565 63.9907C109.557 63.9425 109.556 63.9142 109.556 63.9096C109.555 63.9047 109.556 63.9176 109.555 63.9505L113.553 64.0914ZM113.52 63.3925L117.475 62.7943C117.306 61.6862 116.741 59.8541 114.87 58.8056L112.916 62.2945L110.962 65.7833C109.727 65.0916 109.565 63.9915 109.565 63.9907L113.52 63.3925ZM112.916 62.2945L114.986 58.8735C113.413 57.921 111.702 58.0685 110.79 58.2064L111.391 62.1611L111.991 66.1157C112.135 66.0939 112.103 66.1134 111.948 66.0999C111.801 66.087 111.363 66.0288 110.845 65.7154L112.916 62.2945ZM111.391 62.1611L110.79 58.2064C109.223 58.4435 107.515 59.1587 106.328 60.7701L109.549 63.1435L112.771 65.5168C112.59 65.7616 112.373 65.931 112.186 66.0307C112.016 66.1217 111.926 66.1255 111.991 66.1157L111.391 62.1611ZM109.549 63.1435L106.328 60.7701C105.256 62.2251 104.972 64.0041 104.889 65.3794L108.882 65.6231L112.875 65.8668C112.886 65.6795 112.903 65.5296 112.92 65.4129C112.937 65.2955 112.954 65.2228 112.964 65.187C112.974 65.1506 112.972 65.1666 112.948 65.2206C112.924 65.2748 112.87 65.3821 112.771 65.5168L109.549 63.1435ZM108.882 65.6231L104.888 65.3938C104.865 65.7931 104.857 66.1899 104.867 66.5782L108.866 66.4751L112.865 66.3721C112.861 66.2446 112.863 66.0734 112.876 65.8525L108.882 65.6231ZM108.866 66.4751L104.866 66.5454C104.873 66.9363 104.903 67.3389 104.964 67.7449L108.919 67.1467L112.874 66.5485C112.874 66.5432 112.867 66.4981 112.866 66.4049L108.866 66.4751ZM108.919 67.1467L104.964 67.7449C105.141 68.9104 105.723 70.6186 107.453 71.6657L109.523 68.2448L111.593 64.8238C112.682 65.4825 112.861 66.4586 112.874 66.5485L108.919 67.1467ZM109.523 68.2448L107.453 71.6657C109.013 72.6105 110.702 72.476 111.625 72.3364L111.025 68.3817L110.424 64.4271C110.294 64.4468 110.337 64.4267 110.5 64.4416C110.659 64.456 111.088 64.518 111.593 64.8238L109.523 68.2448ZM121.16 71.7034L121.24 75.7023L121.253 75.702L121.16 71.7034ZM119.339 71.5419L115.345 71.3185C115.235 73.3079 116.606 75.0757 118.561 75.4646L119.339 71.5419ZM119.611 66.6218L120.637 62.7567C119.474 62.4474 118.234 62.6778 117.261 63.3841C116.287 64.0903 115.683 65.1974 115.617 66.3985L119.611 66.6218ZM120.875 66.7947L120.772 70.7929C120.818 70.7941 120.864 70.7946 120.911 70.7942L120.875 66.7947ZM123.839 66.0067L120.746 63.4674C120.725 63.4938 120.704 63.5204 120.683 63.5472L123.839 66.0067ZM124.327 64.4279L128.317 64.721C128.318 64.7009 128.32 64.6807 128.321 64.6605L124.327 64.4279ZM124.848 55.3924L124.247 51.4378C122.378 51.7205 120.963 53.2729 120.854 55.1598L124.848 55.3924ZM130.591 54.5238L134.584 54.7612C134.655 53.5566 134.178 52.384 133.286 51.5703C132.395 50.7566 131.183 50.3887 129.99 50.5692L130.591 54.5238ZM129.974 65.0059L125.981 64.7686C125.98 64.7777 125.979 64.7868 125.979 64.7959L129.974 65.0059ZM129.163 68.1384L125.633 66.2553L125.627 66.2669L129.163 68.1384ZM126.993 70.3114L124.984 66.8512C124.978 66.8547 124.972 66.8582 124.966 66.8618L126.993 70.3114ZM123.124 71.5277L122.523 67.5731C121.996 67.6529 121.511 67.6947 121.067 67.7048L121.16 71.7034L121.253 75.702C122.067 75.6836 122.892 75.6083 123.725 75.4823L123.124 71.5277ZM121.16 71.7034L121.08 67.7045C120.755 67.7108 120.435 67.6824 120.117 67.6192L119.339 71.5419L118.561 75.4646C119.444 75.6403 120.339 75.7196 121.24 75.7022L121.16 71.7034ZM119.339 71.5419L123.333 71.7652L123.605 66.8452L119.611 66.6218L115.617 66.3985L115.345 71.3185L119.339 71.5419ZM119.611 66.6218L118.585 70.487C119.311 70.6801 120.046 70.7736 120.772 70.7929L120.875 66.7947L120.979 62.7965C120.795 62.7916 120.687 62.7699 120.637 62.7567L119.611 66.6218ZM120.875 66.7947L120.911 70.7942C121.557 70.7889 122.202 70.7367 122.843 70.6397L122.243 66.685L121.642 62.7304C121.365 62.7722 121.099 62.7931 120.84 62.7952L120.875 66.7947ZM122.243 66.685L122.843 70.6397C123.825 70.4912 125.732 70.0868 126.995 68.4662L123.839 66.0067L120.683 63.5472C121.1 63.0114 121.547 62.7992 121.68 62.7429C121.821 62.6831 121.837 62.7008 121.642 62.7304L122.243 66.685ZM123.839 66.0067L126.931 68.546C127.976 67.2733 128.241 65.7619 128.317 64.721L124.327 64.4279L120.337 64.1348C120.327 64.2799 120.313 64.2783 120.344 64.1786C120.375 64.0795 120.476 63.7962 120.746 63.4674L123.839 66.0067ZM124.327 64.4279L128.321 64.6605L128.842 55.625L124.848 55.3924L120.854 55.1598L120.333 64.1953L124.327 64.4279ZM124.848 55.3924L125.449 59.347L131.191 58.4785L130.591 54.5238L129.99 50.5692L124.247 51.4378L124.848 55.3924ZM130.591 54.5238L126.597 54.2865L125.981 64.7686L129.974 65.0059L133.968 65.2433L134.584 54.7612L130.591 54.5238ZM129.974 65.0059L125.979 64.7959C125.942 65.5012 125.793 65.9559 125.633 66.2553L129.163 68.1384L132.694 70.0215C133.491 68.5256 133.882 66.8919 133.969 65.2159L129.974 65.0059ZM129.163 68.1384L125.627 66.2669C125.559 66.3948 125.411 66.6038 124.984 66.8512L126.993 70.3114L129.002 73.7716C130.538 72.8805 131.837 71.6409 132.7 70.0099L129.163 68.1384ZM126.993 70.3114L124.966 66.8618C124.591 67.0818 123.844 67.3733 122.523 67.5731L123.124 71.5277L123.725 75.4823C125.631 75.1939 127.463 74.6746 129.02 73.761L126.993 70.3114ZM131.222 70.0601L127.229 69.8282C127.159 71.032 127.637 72.203 128.529 73.0155C129.42 73.8279 130.631 74.195 131.823 74.0147L131.222 70.0601ZM132.128 54.2913L131.528 50.3366C129.658 50.6194 128.243 52.1722 128.134 54.0594L132.128 54.2913ZM144.349 52.4429L148.343 52.6803C148.414 51.4757 147.937 50.3031 147.045 49.4894C146.153 48.6756 144.942 48.3077 143.749 48.4882L144.349 52.4429ZM144.099 56.7043L144.699 60.6589C146.567 60.3765 147.981 58.8267 148.092 56.9417L144.099 56.7043ZM137.62 57.6841L137.019 53.7295C135.144 54.0132 133.726 55.5748 133.625 57.4687L137.62 57.6841ZM137.544 59.1034L133.55 58.888C133.486 60.0891 133.966 61.2556 134.857 62.0643C135.748 62.873 136.956 63.2379 138.145 63.058L137.544 59.1034ZM143.121 58.26L147.115 58.4915C147.184 57.2878 146.706 56.1169 145.815 55.3045C144.923 54.4921 143.713 54.125 142.52 54.3053L143.121 58.26ZM142.868 62.6673L143.469 66.622C145.338 66.3392 146.754 64.7863 146.862 62.8989L142.868 62.6673ZM137.292 63.5108L136.691 59.5562C134.84 59.8361 133.431 61.3623 133.301 63.2296L137.292 63.5108ZM137.192 64.9337L133.202 64.6524C133.117 65.8639 133.587 67.0485 134.48 67.8723C135.373 68.6961 136.592 69.0699 137.793 68.8883L137.192 64.9337ZM143.67 63.9538L147.665 64.1693C147.729 62.9681 147.249 61.8016 146.358 60.9929C145.467 60.1842 144.259 59.8193 143.07 59.9992L143.67 63.9538ZM143.443 68.2117L144.044 72.1663C145.92 71.8826 147.337 70.3209 147.438 68.4271L143.443 68.2117ZM131.222 70.0601L135.216 70.2919L136.122 54.5231L132.128 54.2913L128.134 54.0594L127.229 69.8282L131.222 70.0601ZM132.128 54.2913L132.729 58.2459L144.95 56.3975L144.349 52.4429L143.749 48.4882L131.528 50.3366L132.128 54.2913ZM144.349 52.4429L140.356 52.2054L140.105 56.4669L144.099 56.7043L148.092 56.9417L148.343 52.6803L144.349 52.4429ZM144.099 56.7043L143.498 52.7497L137.019 53.7295L137.62 57.6841L138.221 61.6388L144.699 60.6589L144.099 56.7043ZM137.62 57.6841L133.625 57.4687L133.55 58.888L137.544 59.1034L141.539 59.3188L141.615 57.8996L137.62 57.6841ZM137.544 59.1034L138.145 63.058L143.722 62.2146L143.121 58.26L142.52 54.3053L136.944 55.1488L137.544 59.1034ZM143.121 58.26L139.127 58.0284L138.874 62.4358L142.868 62.6673L146.862 62.8989L147.115 58.4915L143.121 58.26ZM142.868 62.6673L142.267 58.7127L136.691 59.5562L137.292 63.5108L137.892 67.4654L143.469 66.622L142.868 62.6673ZM137.292 63.5108L133.301 63.2296L133.202 64.6524L137.192 64.9337L141.183 65.2149L141.282 63.792L137.292 63.5108ZM137.192 64.9337L137.793 68.8883L144.271 67.9084L143.67 63.9538L143.07 59.9992L136.591 60.979L137.192 64.9337ZM143.67 63.9538L139.676 63.7384L139.449 67.9962L143.443 68.2117L147.438 68.4271L147.665 64.1693L143.67 63.9538ZM143.443 68.2117L142.843 64.257L130.622 66.1054L131.222 70.0601L131.823 74.0147L144.044 72.1663L143.443 68.2117ZM148.828 66.9603L147.955 70.8628C147.961 70.8642 147.967 70.8655 147.973 70.8668L148.828 66.9603ZM145.872 65.3928L142.969 68.1438C142.988 68.1636 143.007 68.1832 143.026 68.2026L145.872 65.3928ZM144.363 60.2567L140.37 60.0163C140.369 60.0334 140.368 60.0506 140.367 60.0677L144.363 60.2567ZM147.147 53.8159L144.387 50.9192L144.387 50.9192L147.147 53.8159ZM156.511 50.5791L156.325 54.5742C156.33 54.5745 156.336 54.5748 156.341 54.575L156.511 50.5791ZM158.693 50.8802L162.687 51.12C162.802 49.1824 161.509 47.441 159.62 46.99L158.693 50.8802ZM158.386 56.0482L157.136 59.8469C158.315 60.2353 159.608 60.0546 160.634 59.3577C161.661 58.6609 162.306 57.5268 162.379 56.2881L158.386 56.0482ZM151.264 56.7856L153.876 59.8167C153.882 59.8114 153.888 59.8061 153.894 59.8008L151.264 56.7856ZM150.224 59.3702L154.207 59.749C154.211 59.7102 154.214 59.6714 154.216 59.6325L150.224 59.3702ZM150.212 59.9303L154.205 59.6926L154.205 59.6926L150.212 59.9303ZM151.262 61.8833L149.759 65.5891C149.804 65.6074 149.849 65.6249 149.895 65.6415L151.262 61.8833ZM158.199 60.2515L162.192 60.4913C162.281 59.0073 161.538 57.5963 160.265 56.8277C158.992 56.0592 157.398 56.0599 156.126 56.8296L158.199 60.2515ZM157.892 65.4195L159.691 68.9931C160.964 68.3528 161.801 67.0826 161.885 65.6593L157.892 65.4195ZM155.633 66.368L154.341 62.5819C154.316 62.5902 154.292 62.5988 154.268 62.6075L155.633 66.368ZM153.011 67.0073L152.41 63.0527C151.205 63.235 150.319 63.1931 149.684 63.0537L148.828 66.9603L147.973 70.8668C149.782 71.2639 151.685 71.2534 153.612 70.9619L153.011 67.0073ZM148.828 66.9603L149.702 63.0577C149.139 62.9315 148.872 62.7402 148.717 62.5831L145.872 65.3928L143.026 68.2026C144.401 69.5941 146.105 70.4478 147.955 70.8628L148.828 66.9603ZM145.872 65.3928L148.774 62.6419C148.69 62.5539 148.503 62.3152 148.404 61.6602L144.449 62.2584L140.494 62.8566C140.788 64.7958 141.55 66.6467 142.969 68.1438L145.872 65.3928ZM144.449 62.2584L148.404 61.6602C148.359 61.3665 148.335 60.9682 148.359 60.4457L144.363 60.2567L140.367 60.0677C140.323 61.0119 140.356 61.948 140.494 62.8566L144.449 62.2584ZM144.363 60.2567L148.356 60.4971C148.465 58.6717 149.05 57.5296 149.907 56.7126L147.147 53.8159L144.387 50.9192C141.852 53.334 140.58 56.4857 140.37 60.0163L144.363 60.2567ZM147.147 53.8159L149.907 56.7126C150.889 55.7779 152.337 55.0374 154.54 54.7042L153.94 50.7496L153.339 46.795C149.878 47.3184 146.799 48.6221 144.387 50.9192L147.147 53.8159ZM153.94 50.7496L154.54 54.7042C155.345 54.5825 155.928 54.5555 156.325 54.5742L156.511 50.5791L156.698 46.584C155.628 46.5334 154.496 46.62 153.339 46.795L153.94 50.7496ZM156.511 50.5791L156.341 54.575C156.844 54.5967 157.318 54.6633 157.766 54.7703L158.693 50.8802L159.62 46.99C158.658 46.7603 157.677 46.6261 156.681 46.5832L156.511 50.5791ZM158.693 50.8802L154.7 50.6404L154.393 55.8084L158.386 56.0482L162.379 56.2881L162.687 51.12L158.693 50.8802ZM158.386 56.0482L159.636 52.2496C157.613 51.5831 155.519 51.4168 153.41 51.7359L154.011 55.6905L154.611 59.6452C155.508 59.5096 156.331 59.5818 157.136 59.8469L158.386 56.0482ZM154.011 55.6905L153.41 51.7359C151.78 51.9824 150.041 52.5434 148.634 53.7704L151.264 56.7856L153.894 59.8008C153.813 59.8713 153.793 59.861 153.906 59.816C154.023 59.7694 154.246 59.7005 154.611 59.6452L154.011 55.6905ZM151.264 56.7856L148.652 53.7546C146.907 55.2572 146.347 57.3484 146.232 59.1078L150.224 59.3702L154.216 59.6325C154.235 59.3439 154.277 59.2668 154.254 59.3236C154.241 59.3569 154.208 59.4283 154.144 59.5207C154.079 59.6149 153.99 59.7182 153.876 59.8167L151.264 56.7856ZM150.224 59.3702L146.242 58.9914C146.206 59.3693 146.195 59.7634 146.219 60.168L150.212 59.9303L154.205 59.6926C154.209 59.7443 154.205 59.765 154.207 59.749L150.224 59.3702ZM150.212 59.9303L146.219 60.1679C146.236 60.4527 146.265 60.741 146.309 61.0303L150.264 60.4321L154.219 59.8339C154.215 59.8069 154.21 59.7606 154.205 59.6926L150.212 59.9303ZM150.264 60.4321L146.309 61.0303C146.57 62.7458 147.545 64.6906 149.759 65.5891L151.262 61.8833L152.764 58.1775C153.203 58.3556 153.61 58.6748 153.895 59.089C154.154 59.4653 154.21 59.7707 154.219 59.8339L150.264 60.4321ZM151.262 61.8833L149.895 65.6415C151.408 66.192 153.022 66.0994 154.3 65.9061L153.699 61.9515L153.099 57.9969C152.734 58.052 152.512 58.0596 152.404 58.0566C152.354 58.0552 152.35 58.052 152.384 58.0576C152.417 58.0631 152.504 58.08 152.628 58.1251L151.262 61.8833ZM153.699 61.9515L154.3 65.9061C156.397 65.5889 158.392 64.8113 160.272 63.6733L158.199 60.2515L156.126 56.8296C155.012 57.5037 154.007 57.8594 153.099 57.9969L153.699 61.9515ZM158.199 60.2515L154.206 60.0116L153.899 65.1797L157.892 65.4195L161.885 65.6593L162.192 60.4913L158.199 60.2515ZM157.892 65.4195L156.093 61.8459C155.518 62.1351 154.934 62.3799 154.341 62.5819L155.633 66.368L156.925 70.1541C157.87 69.8322 158.792 69.4446 159.691 68.9931L157.892 65.4195ZM155.633 66.368L154.268 62.6075C153.795 62.7789 153.184 62.9356 152.41 63.0527L153.011 67.0073L153.612 70.9619C154.799 70.7823 155.937 70.5128 156.997 70.1286L155.633 66.368ZM162.139 65.384L158.145 65.1543C158.076 66.3577 158.554 67.5281 159.446 68.3401C160.337 69.1521 161.547 69.5189 162.739 69.3386L162.139 65.384ZM162.794 53.8767L166.788 54.1064C166.856 52.903 166.378 51.7325 165.487 50.9206C164.595 50.1086 163.385 49.7417 162.193 49.922L162.794 53.8767ZM158.902 54.4653L154.909 54.2278C154.838 55.4325 155.315 56.605 156.206 57.4188C157.098 58.2325 158.309 58.6004 159.503 58.4199L158.902 54.4653ZM159.153 50.2038L158.552 46.2492C156.685 46.5316 155.27 48.0814 155.159 49.9664L159.153 50.2038ZM172.679 48.158L176.672 48.3955C176.743 47.1908 176.266 46.0183 175.375 45.2045C174.483 44.3908 173.271 44.0229 172.078 44.2034L172.679 48.158ZM172.428 52.4195L173.029 56.3741C174.896 56.0917 176.311 54.5419 176.422 52.6569L172.428 52.4195ZM168.536 53.0081L167.936 49.0535C166.066 49.3363 164.65 50.8902 164.543 52.7783L168.536 53.0081ZM167.881 64.5154L168.482 68.4701C170.352 68.1872 171.768 66.6333 171.875 64.7452L167.881 64.5154ZM162.139 65.384L166.133 65.6138L166.788 54.1064L162.794 53.8767L158.8 53.6469L158.145 65.1543L162.139 65.384ZM162.794 53.8767L162.193 49.922L158.301 50.5106L158.902 54.4653L159.503 58.4199L163.395 57.8313L162.794 53.8767ZM158.902 54.4653L162.895 54.7027L163.146 50.4413L159.153 50.2038L155.159 49.9664L154.909 54.2278L158.902 54.4653ZM159.153 50.2038L159.754 54.1585L173.28 52.1127L172.679 48.158L172.078 44.2034L158.552 46.2492L159.153 50.2038ZM172.679 48.158L168.685 47.9206L168.435 52.182L172.428 52.4195L176.422 52.6569L176.672 48.3955L172.679 48.158ZM172.428 52.4195L171.827 48.4648L167.936 49.0535L168.536 53.0081L169.137 56.9627L173.029 56.3741L172.428 52.4195ZM168.536 53.0081L164.543 52.7783L163.887 64.2857L167.881 64.5154L171.875 64.7452L172.53 53.2378L168.536 53.0081ZM167.881 64.5154L167.281 60.5608L161.538 61.4294L162.139 65.384L162.739 69.3386L168.482 68.4701L167.881 64.5154Z" fill="#F0F0F0" mask="url(#path-22-outside-1_433_997)"/>
<mask id="path-24-outside-2_433_997" maskUnits="userSpaceOnUse" x="67.5832" y="45.3295" width="109.94" height="36.913" fill="black">
<rect fill="white" x="67.5832" y="45.3295" width="109.94" height="36.913"/>
<path d="M72.7546 78.9033L73.6605 63.1345L82.2508 61.8352C83.3107 61.6749 84.2109 61.741 84.9512 62.0336C85.705 62.3079 86.3075 62.7589 86.7589 63.3865C87.2079 63.9982 87.4972 64.7312 87.627 65.5854C87.6631 65.8226 87.6845 66.0702 87.6913 66.3281C87.7115 66.5678 87.7104 66.8268 87.688 67.1053C87.6189 68.2485 87.3523 69.3164 86.8881 70.309C86.4373 71.2834 85.7612 72.1057 84.8596 72.7761C83.9739 73.444 82.835 73.8833 81.4428 74.0939L78.6901 74.5102L78.4973 78.0347L72.7546 78.9033ZM78.958 69.8821L80.3581 69.6703C80.8169 69.601 81.1694 69.4182 81.4157 69.122C81.6779 68.8235 81.8228 68.4455 81.8504 67.9883C81.869 67.7913 81.8675 67.6216 81.8459 67.4792C81.7474 66.8307 81.3421 66.5602 80.6302 66.6679L79.1352 66.894L78.958 69.8821ZM87.8408 76.6215L88.7467 60.8527L97.337 59.5534C98.8241 59.3285 100.041 59.5651 100.989 60.2632C101.952 60.959 102.532 61.9475 102.726 63.2288C102.791 63.6559 102.811 64.106 102.786 64.5791C102.736 65.6384 102.446 66.6047 101.915 67.4779C101.398 68.3329 100.696 69.0944 99.8104 69.7623C100.095 69.9297 100.293 70.1668 100.404 70.4736L101.96 74.4859L95.9802 75.3904L94.6817 72.1158C94.5679 71.7932 94.3529 71.6558 94.0365 71.7036L93.7992 71.7395L93.5835 75.7529L87.8408 76.6215ZM94.0908 67.1078L95.4909 66.8961C96.4243 66.7549 96.91 66.2769 96.948 65.462C96.9518 65.3805 96.9489 65.3082 96.9393 65.2449C96.9455 65.1792 96.9438 65.1148 96.9342 65.0515C96.8501 64.4978 96.4442 64.276 95.7165 64.3861L94.2215 64.6122L94.0908 67.1078ZM110.719 73.4038C109.359 73.6096 108.137 73.6084 107.053 73.4001C105.986 73.1894 105.107 72.7316 104.417 72.0269C103.741 71.3039 103.303 70.2859 103.104 68.973C102.995 68.2611 102.968 67.44 103.021 66.5097C103.139 64.5176 103.539 62.8875 104.22 61.6193C104.914 60.333 105.888 59.3362 107.14 58.629C108.389 57.906 109.908 57.4093 111.696 57.139C113.088 56.9284 114.318 56.9285 115.386 57.1391C116.451 57.334 117.321 57.785 117.994 58.4922C118.668 59.1994 119.104 60.2015 119.301 61.4987C119.411 62.2263 119.443 63.0711 119.394 64.0331C119.274 66.0094 118.874 67.6395 118.195 68.9235C117.517 70.2074 116.552 71.2109 115.303 71.9339C114.067 72.6387 112.539 73.1287 110.719 73.4038ZM111.025 68.3817C111.863 68.2549 112.47 67.9365 112.846 67.4266C113.235 66.8985 113.464 66.0628 113.533 64.9197C113.551 64.6095 113.557 64.3334 113.553 64.0914C113.562 63.8311 113.551 63.5982 113.52 63.3925C113.436 62.8389 113.234 62.4728 112.916 62.2945C112.595 62.1002 112.087 62.0558 111.391 62.1611C110.552 62.2879 109.938 62.6154 109.549 63.1435C109.173 63.6534 108.951 64.4799 108.882 65.6231C108.864 65.9333 108.859 66.2173 108.866 66.4751C108.87 66.7172 108.888 66.9411 108.919 67.1467C109.001 67.6845 109.202 68.0505 109.523 68.2448C109.844 68.439 110.344 68.4846 111.025 68.3817ZM123.124 71.5277C122.444 71.6306 121.789 71.6891 121.16 71.7034C120.547 71.7152 119.94 71.6614 119.339 71.5419L119.611 66.6218C119.999 66.725 120.421 66.7826 120.875 66.7947C121.328 66.791 121.784 66.7544 122.243 66.685C123.049 66.563 123.581 66.3369 123.839 66.0067C124.112 65.6741 124.275 65.1479 124.327 64.4279L124.848 55.3924L130.591 54.5238L129.974 65.0059C129.912 66.1966 129.642 67.2407 129.163 68.1384C128.698 69.0179 127.975 69.7422 126.993 70.3114C126.027 70.8782 124.738 71.2836 123.124 71.5277ZM131.222 70.0601L132.128 54.2913L144.349 52.4429L144.099 56.7043L137.62 57.6841L137.544 59.1034L143.121 58.26L142.868 62.6673L137.292 63.5108L137.192 64.9337L143.67 63.9538L143.443 68.2117L131.222 70.0601ZM153.011 67.0073C151.445 67.2442 150.051 67.2285 148.828 66.9603C147.622 66.6896 146.637 66.1671 145.872 65.3928C145.12 64.6003 144.646 63.5555 144.449 62.2584C144.357 61.6573 144.329 60.99 144.363 60.2567C144.523 57.5787 145.451 55.4318 147.147 53.8159C148.844 52.2 151.108 51.1779 153.94 50.7496C154.921 50.6012 155.778 50.5444 156.511 50.5791C157.261 50.6114 157.988 50.7118 158.693 50.8802L158.386 56.0482C156.972 55.5825 155.514 55.4632 154.011 55.6905C152.808 55.8724 151.893 56.2374 151.264 56.7856C150.649 57.3156 150.302 58.1771 150.224 59.3702C150.206 59.5672 150.202 59.7539 150.212 59.9303C150.223 60.1067 150.24 60.2739 150.264 60.4321C150.377 61.1756 150.71 61.6593 151.262 61.8833C151.827 62.0891 152.64 62.1118 153.699 61.9515C155.202 61.7242 156.702 61.1575 158.199 60.2515L157.892 65.4195C157.155 65.7899 156.402 66.106 155.633 66.368C154.866 66.6459 153.992 66.859 153.011 67.0073ZM162.139 65.384L162.794 53.8767L158.902 54.4653L159.153 50.2038L172.679 48.158L172.428 52.4195L168.536 53.0081L167.881 64.5154L162.139 65.384Z"/>
</mask>
<path d="M72.7546 78.9033L73.6605 63.1345L82.2508 61.8352C83.3107 61.6749 84.2109 61.741 84.9512 62.0336C85.705 62.3079 86.3075 62.7589 86.7589 63.3865C87.2079 63.9982 87.4972 64.7312 87.627 65.5854C87.6631 65.8226 87.6845 66.0702 87.6913 66.3281C87.7115 66.5678 87.7104 66.8268 87.688 67.1053C87.6189 68.2485 87.3523 69.3164 86.8881 70.309C86.4373 71.2834 85.7612 72.1057 84.8596 72.7761C83.9739 73.444 82.835 73.8833 81.4428 74.0939L78.6901 74.5102L78.4973 78.0347L72.7546 78.9033ZM78.958 69.8821L80.3581 69.6703C80.8169 69.601 81.1694 69.4182 81.4157 69.122C81.6779 68.8235 81.8228 68.4455 81.8504 67.9883C81.869 67.7913 81.8675 67.6216 81.8459 67.4792C81.7474 66.8307 81.3421 66.5602 80.6302 66.6679L79.1352 66.894L78.958 69.8821ZM87.8408 76.6215L88.7467 60.8527L97.337 59.5534C98.8241 59.3285 100.041 59.5651 100.989 60.2632C101.952 60.959 102.532 61.9475 102.726 63.2288C102.791 63.6559 102.811 64.106 102.786 64.5791C102.736 65.6384 102.446 66.6047 101.915 67.4779C101.398 68.3329 100.696 69.0944 99.8104 69.7623C100.095 69.9297 100.293 70.1668 100.404 70.4736L101.96 74.4859L95.9802 75.3904L94.6817 72.1158C94.5679 71.7932 94.3529 71.6558 94.0365 71.7036L93.7992 71.7395L93.5835 75.7529L87.8408 76.6215ZM94.0908 67.1078L95.4909 66.8961C96.4243 66.7549 96.91 66.2769 96.948 65.462C96.9518 65.3805 96.9489 65.3082 96.9393 65.2449C96.9455 65.1792 96.9438 65.1148 96.9342 65.0515C96.8501 64.4978 96.4442 64.276 95.7165 64.3861L94.2215 64.6122L94.0908 67.1078ZM110.719 73.4038C109.359 73.6096 108.137 73.6084 107.053 73.4001C105.986 73.1894 105.107 72.7316 104.417 72.0269C103.741 71.3039 103.303 70.2859 103.104 68.973C102.995 68.2611 102.968 67.44 103.021 66.5097C103.139 64.5176 103.539 62.8875 104.22 61.6193C104.914 60.333 105.888 59.3362 107.14 58.629C108.389 57.906 109.908 57.4093 111.696 57.139C113.088 56.9284 114.318 56.9285 115.386 57.1391C116.451 57.334 117.321 57.785 117.994 58.4922C118.668 59.1994 119.104 60.2015 119.301 61.4987C119.411 62.2263 119.443 63.0711 119.394 64.0331C119.274 66.0094 118.874 67.6395 118.195 68.9235C117.517 70.2074 116.552 71.2109 115.303 71.9339C114.067 72.6387 112.539 73.1287 110.719 73.4038ZM111.025 68.3817C111.863 68.2549 112.47 67.9365 112.846 67.4266C113.235 66.8985 113.464 66.0628 113.533 64.9197C113.551 64.6095 113.557 64.3334 113.553 64.0914C113.562 63.8311 113.551 63.5982 113.52 63.3925C113.436 62.8389 113.234 62.4728 112.916 62.2945C112.595 62.1002 112.087 62.0558 111.391 62.1611C110.552 62.2879 109.938 62.6154 109.549 63.1435C109.173 63.6534 108.951 64.4799 108.882 65.6231C108.864 65.9333 108.859 66.2173 108.866 66.4751C108.87 66.7172 108.888 66.9411 108.919 67.1467C109.001 67.6845 109.202 68.0505 109.523 68.2448C109.844 68.439 110.344 68.4846 111.025 68.3817ZM123.124 71.5277C122.444 71.6306 121.789 71.6891 121.16 71.7034C120.547 71.7152 119.94 71.6614 119.339 71.5419L119.611 66.6218C119.999 66.725 120.421 66.7826 120.875 66.7947C121.328 66.791 121.784 66.7544 122.243 66.685C123.049 66.563 123.581 66.3369 123.839 66.0067C124.112 65.6741 124.275 65.1479 124.327 64.4279L124.848 55.3924L130.591 54.5238L129.974 65.0059C129.912 66.1966 129.642 67.2407 129.163 68.1384C128.698 69.0179 127.975 69.7422 126.993 70.3114C126.027 70.8782 124.738 71.2836 123.124 71.5277ZM131.222 70.0601L132.128 54.2913L144.349 52.4429L144.099 56.7043L137.62 57.6841L137.544 59.1034L143.121 58.26L142.868 62.6673L137.292 63.5108L137.192 64.9337L143.67 63.9538L143.443 68.2117L131.222 70.0601ZM153.011 67.0073C151.445 67.2442 150.051 67.2285 148.828 66.9603C147.622 66.6896 146.637 66.1671 145.872 65.3928C145.12 64.6003 144.646 63.5555 144.449 62.2584C144.357 61.6573 144.329 60.99 144.363 60.2567C144.523 57.5787 145.451 55.4318 147.147 53.8159C148.844 52.2 151.108 51.1779 153.94 50.7496C154.921 50.6012 155.778 50.5444 156.511 50.5791C157.261 50.6114 157.988 50.7118 158.693 50.8802L158.386 56.0482C156.972 55.5825 155.514 55.4632 154.011 55.6905C152.808 55.8724 151.893 56.2374 151.264 56.7856C150.649 57.3156 150.302 58.1771 150.224 59.3702C150.206 59.5672 150.202 59.7539 150.212 59.9303C150.223 60.1067 150.24 60.2739 150.264 60.4321C150.377 61.1756 150.71 61.6593 151.262 61.8833C151.827 62.0891 152.64 62.1118 153.699 61.9515C155.202 61.7242 156.702 61.1575 158.199 60.2515L157.892 65.4195C157.155 65.7899 156.402 66.106 155.633 66.368C154.866 66.6459 153.992 66.859 153.011 67.0073ZM162.139 65.384L162.794 53.8767L158.902 54.4653L159.153 50.2038L172.679 48.158L172.428 52.4195L168.536 53.0081L167.881 64.5154L162.139 65.384Z" fill="#F0F0F0"/>
<path d="M72.7546 78.9033L70.7577 78.7873C70.7231 79.3892 70.962 79.9747 71.4078 80.381C71.8536 80.7872 72.4588 80.9707 73.055 80.8806L72.7546 78.9033ZM73.6605 63.1345L73.3601 61.1572C72.4254 61.2985 71.7178 62.0749 71.6636 63.0185L73.6605 63.1345ZM84.9512 62.0336L84.217 63.8933C84.2339 63.9 84.2509 63.9065 84.268 63.9127L84.9512 62.0336ZM86.7589 63.3865L85.1352 64.5533C85.139 64.5585 85.1428 64.5637 85.1465 64.5689L86.7589 63.3865ZM87.6913 66.3281L85.6918 66.3796C85.6928 66.4181 85.6949 66.4566 85.6982 66.495L87.6913 66.3281ZM87.688 67.1053L85.6943 66.9436C85.6932 66.9569 85.6922 66.9702 85.6914 66.9835L87.688 67.1053ZM86.8881 70.309L85.0761 69.461L85.0726 69.4685L86.8881 70.309ZM84.8596 72.7761L83.6653 71.1711L83.6545 71.1793L84.8596 72.7761ZM78.6901 74.5102L78.3897 72.5329C77.453 72.6746 76.7446 73.4539 76.6929 74.3997L78.6901 74.5102ZM78.4973 78.0347L78.7977 80.012C79.7344 79.8703 80.4427 79.091 80.4945 78.1452L78.4973 78.0347ZM78.958 69.8821L76.9613 69.7625C76.9256 70.3649 77.1639 70.9515 77.6099 71.3586C78.0558 71.7656 78.6616 71.9497 79.2584 71.8594L78.958 69.8821ZM81.4157 69.122L79.9122 67.8022C79.9004 67.8156 79.8888 67.8292 79.8774 67.8429L81.4157 69.122ZM81.8504 67.9883L79.8591 67.7989C79.8569 67.8213 79.8552 67.8439 79.8538 67.8664L81.8504 67.9883ZM79.1352 66.894L78.8348 64.9167C77.9015 65.0579 77.1944 65.8323 77.1385 66.7744L79.1352 66.894ZM72.7546 78.9033L74.7515 79.0192L75.6574 63.2504L73.6605 63.1345L71.6636 63.0185L70.7577 78.7873L72.7546 78.9033ZM73.6605 63.1345L73.9609 65.1118L82.5512 63.8125L82.2508 61.8352L81.9504 59.8579L73.3601 61.1572L73.6605 63.1345ZM82.2508 61.8352L82.5512 63.8125C83.3787 63.6873 83.8999 63.768 84.217 63.8933L84.9512 62.0336L85.6855 60.1738C84.5218 59.714 83.2427 59.6624 81.9504 59.8579L82.2508 61.8352ZM84.9512 62.0336L84.268 63.9127C84.6589 64.055 84.9279 64.2651 85.1352 64.5533L86.7589 63.3865L88.3826 62.2196C87.6872 61.2527 86.751 60.5609 85.6344 60.1545L84.9512 62.0336ZM86.7589 63.3865L85.1465 64.5689C85.3791 64.8857 85.5615 65.305 85.6495 65.8845L87.627 65.5854L89.6045 65.2863C89.433 64.1573 89.0367 63.1107 88.3713 62.204L86.7589 63.3865ZM87.627 65.5854L85.6495 65.8845C85.6722 66.0339 85.687 66.1985 85.6918 66.3796L87.6913 66.3281L89.6908 66.2766C89.682 65.9419 89.6539 65.6114 89.6045 65.2863L87.627 65.5854ZM87.6913 66.3281L85.6982 66.495C85.7078 66.6095 85.7092 66.7574 85.6943 66.9436L87.688 67.1053L89.6817 67.2671C89.7116 66.8963 89.7152 66.526 89.6844 66.1612L87.6913 66.3281ZM87.688 67.1053L85.6914 66.9835C85.6369 67.8866 85.4288 68.7069 85.0761 69.461L86.8881 70.309L88.7001 71.1569C89.2758 69.9259 89.601 68.6104 89.6845 67.2272L87.688 67.1053ZM86.8881 70.309L85.0726 69.4685C84.7684 70.126 84.3121 70.6902 83.6653 71.1711L84.8596 72.7761L86.0539 74.381C87.2102 73.5212 88.1062 72.4407 88.7036 71.1494L86.8881 70.309ZM84.8596 72.7761L83.6545 71.1793C83.0959 71.6005 82.2924 71.9426 81.1424 72.1166L81.4428 74.0939L81.7432 76.0712C83.3775 75.824 84.8519 75.2876 86.0648 74.3729L84.8596 72.7761ZM81.4428 74.0939L81.1424 72.1166L78.3897 72.5329L78.6901 74.5102L78.9905 76.4875L81.7432 76.0712L81.4428 74.0939ZM78.6901 74.5102L76.6929 74.3997L76.5001 77.9242L78.4973 78.0347L80.4945 78.1452L80.6873 74.6207L78.6901 74.5102ZM78.4973 78.0347L78.1969 76.0574L72.4542 76.926L72.7546 78.9033L73.055 80.8806L78.7977 80.012L78.4973 78.0347ZM78.958 69.8821L79.2584 71.8594L80.6585 71.6477L80.3581 69.6703L80.0577 67.693L78.6576 67.9048L78.958 69.8821ZM80.3581 69.6703L80.6585 71.6477C81.4977 71.5207 82.3334 71.1474 82.954 70.4012L81.4157 69.122L79.8774 67.8429C79.93 67.7797 79.9921 67.7332 80.045 67.7058C80.0929 67.6809 80.106 67.6857 80.0577 67.693L80.3581 69.6703ZM81.4157 69.122L82.9193 70.4418C83.5178 69.7602 83.7968 68.9396 83.8469 68.1101L81.8504 67.9883L79.8538 67.8664C79.8507 67.9177 79.8437 67.9227 79.8532 67.8979C79.8579 67.8859 79.8653 67.8698 79.8762 67.8516C79.8872 67.8333 79.8996 67.8166 79.9122 67.8022L81.4157 69.122ZM81.8504 67.9883L83.8417 68.1777C83.8704 67.8739 83.8768 67.5316 83.8234 67.1801L81.8459 67.4792L79.8684 67.7783C79.8655 67.7592 79.8642 67.7454 79.8636 67.7377C79.863 67.7299 79.8631 67.7271 79.8631 67.7297C79.8631 67.7323 79.8631 67.7393 79.8626 67.7511C79.862 67.763 79.861 67.7788 79.8591 67.7989L81.8504 67.9883ZM81.8459 67.4792L83.8234 67.1801C83.7202 66.5012 83.3951 65.6723 82.5779 65.1269C81.8004 64.608 80.9474 64.5972 80.3298 64.6906L80.6302 66.6679L80.9306 68.6452C81.025 68.6309 80.7305 68.7015 80.3583 68.453C79.9463 68.1781 79.873 67.8087 79.8684 67.7783L81.8459 67.4792ZM80.6302 66.6679L80.3298 64.6906L78.8348 64.9167L79.1352 66.894L79.4356 68.8713L80.9306 68.6452L80.6302 66.6679ZM79.1352 66.894L77.1385 66.7744L76.9613 69.7625L78.958 69.8821L80.9547 70.0017L81.1319 67.0136L79.1352 66.894ZM87.8408 76.6215L85.8439 76.5056C85.8093 77.1074 86.0482 77.693 86.494 78.0992C86.9398 78.5054 87.545 78.689 88.1412 78.5988L87.8408 76.6215ZM88.7467 60.8527L88.4463 58.8754C87.5116 59.0167 86.804 59.7931 86.7498 60.7368L88.7467 60.8527ZM100.989 60.2632L99.8031 61.8729C99.8083 61.8767 99.8134 61.8804 99.8185 61.8841L100.989 60.2632ZM102.786 64.5791L100.788 64.4714L100.788 64.4846L102.786 64.5791ZM101.915 67.4779L100.206 66.4384L100.204 66.4418L101.915 67.4779ZM99.8104 69.7623L98.6052 68.1655C98.0721 68.5676 97.7751 69.2093 97.8135 69.8761C97.8519 70.5429 98.2207 71.1467 98.7965 71.4856L99.8104 69.7623ZM100.404 70.4736L98.5237 71.1546C98.5287 71.1683 98.5338 71.182 98.5391 71.1956L100.404 70.4736ZM101.96 74.4859L102.261 76.4633C102.861 76.3725 103.387 76.0143 103.691 75.4894C103.995 74.9645 104.045 74.3298 103.825 73.7639L101.96 74.4859ZM95.9802 75.3904L94.1209 76.1265C94.4643 76.9923 95.3598 77.507 96.2806 77.3677L95.9802 75.3904ZM94.6817 72.1158L92.7953 72.7796C92.8039 72.8038 92.8129 72.8279 92.8224 72.8518L94.6817 72.1158ZM93.7992 71.7395L93.4988 69.7622C92.5613 69.904 91.8527 70.6844 91.8018 71.631L93.7992 71.7395ZM93.5835 75.7529L93.8839 77.7302C94.8213 77.5884 95.5299 76.808 95.5808 75.8614L93.5835 75.7529ZM94.0908 67.1078L92.0934 67.0021C92.0619 67.6023 92.3022 68.185 92.7478 68.5889C93.1933 68.9928 93.7968 69.175 94.3912 69.0851L94.0908 67.1078ZM96.948 65.462L98.946 65.5565L98.946 65.5565L96.948 65.462ZM96.9393 65.2449L94.948 65.0555C94.9326 65.2183 94.9372 65.3823 94.9618 65.544L96.9393 65.2449ZM94.2215 64.6122L93.9211 62.6349C92.9826 62.7769 92.2736 63.5588 92.224 64.5064L94.2215 64.6122ZM87.8408 76.6215L89.8377 76.7374L90.7436 60.9686L88.7467 60.8527L86.7498 60.7368L85.8439 76.5056L87.8408 76.6215ZM88.7467 60.8527L89.0471 62.83L97.6374 61.5307L97.337 59.5534L97.0366 57.5761L88.4463 58.8754L88.7467 60.8527ZM97.337 59.5534L97.6374 61.5307C98.753 61.362 99.393 61.5707 99.8031 61.8729L100.989 60.2632L102.175 58.6536C100.69 57.5595 98.8952 57.295 97.0366 57.5761L97.337 59.5534ZM100.989 60.2632L99.8185 61.8841C100.305 62.2351 100.627 62.7242 100.749 63.5279L102.726 63.2288L104.704 62.9297C104.436 61.1708 103.6 59.6829 102.16 58.6424L100.989 60.2632ZM102.726 63.2288L100.749 63.5279C100.791 63.8082 100.807 64.1213 100.788 64.4714L102.786 64.5791L104.783 64.6868C104.815 64.0908 104.791 63.5036 104.704 62.9297L102.726 63.2288ZM102.786 64.5791L100.788 64.4846C100.753 65.2227 100.556 65.862 100.206 66.4384L101.915 67.4779L103.625 68.5174C104.336 67.3474 104.719 66.0541 104.784 64.6736L102.786 64.5791ZM101.915 67.4779L100.204 66.4418C99.8315 67.0567 99.3104 67.6337 98.6052 68.1655L99.8104 69.7623L101.016 71.3591C102.082 70.555 102.964 69.609 103.627 68.514L101.915 67.4779ZM99.8104 69.7623L98.7965 71.4856C98.7544 71.4607 98.6946 71.4159 98.6366 71.3463C98.5783 71.2765 98.5427 71.207 98.5237 71.1546L100.404 70.4736L102.284 69.7925C102.012 69.0431 101.505 68.4398 100.824 68.0391L99.8104 69.7623ZM100.404 70.4736L98.5391 71.1956L100.095 75.208L101.96 74.4859L103.825 73.7639L102.269 69.7515L100.404 70.4736ZM101.96 74.4859L101.66 72.5086L95.6799 73.4131L95.9802 75.3904L96.2806 77.3677L102.261 76.4633L101.96 74.4859ZM95.9802 75.3904L97.8396 74.6544L96.541 71.3797L94.6817 72.1158L92.8224 72.8518L94.1209 76.1265L95.9802 75.3904ZM94.6817 72.1158L96.5681 71.452C96.4131 71.0124 96.1057 70.4655 95.5112 70.0857C94.8993 69.6949 94.2473 69.649 93.7361 69.7263L94.0365 71.7036L94.3368 73.681C94.1421 73.7104 93.7558 73.7093 93.3589 73.4558C92.9795 73.2135 92.8365 72.8965 92.7953 72.7796L94.6817 72.1158ZM94.0365 71.7036L93.7361 69.7263L93.4988 69.7622L93.7992 71.7395L94.0995 73.7168L94.3368 73.681L94.0365 71.7036ZM93.7992 71.7395L91.8018 71.631L91.5862 75.6444L93.5835 75.7529L95.5808 75.8614L95.7965 71.8481L93.7992 71.7395ZM93.5835 75.7529L93.2831 73.7756L87.5404 74.6442L87.8408 76.6215L88.1412 78.5988L93.8839 77.7302L93.5835 75.7529ZM94.0908 67.1078L94.3912 69.0851L95.7913 68.8734L95.4909 66.8961L95.1905 64.9188L93.7904 65.1305L94.0908 67.1078ZM95.4909 66.8961L95.7913 68.8734C96.5182 68.7634 97.3197 68.4863 97.9588 67.8573C98.6287 67.1981 98.9084 66.362 98.946 65.5565L96.948 65.462L94.95 65.3675C94.9493 65.383 94.9493 65.3381 94.9816 65.2583C95.0162 65.1729 95.0738 65.0826 95.1516 65.0061C95.305 64.8551 95.3969 64.8875 95.1905 64.9188L95.4909 66.8961ZM96.948 65.462L98.946 65.5565C98.9544 65.3774 98.9507 65.169 98.9168 64.9458L96.9393 65.2449L94.9618 65.544C94.9471 65.4473 94.9493 65.3837 94.95 65.3675L96.948 65.462ZM96.9393 65.2449L98.9306 65.4343C98.9518 65.2109 98.9466 64.9822 98.9117 64.7524L96.9342 65.0515L94.9567 65.3506C94.941 65.2473 94.9393 65.1476 94.948 65.0555L96.9393 65.2449ZM96.9342 65.0515L98.9117 64.7524C98.798 64.0037 98.3939 63.1899 97.5251 62.7152C96.7701 62.3027 95.9746 62.3243 95.4161 62.4088L95.7165 64.3861L96.0169 66.3634C96.1861 66.3378 95.9574 66.4153 95.6083 66.2246C95.4139 66.1184 95.2421 65.9591 95.12 65.7659C95.0048 65.5836 94.9682 65.4263 94.9567 65.3506L96.9342 65.0515ZM95.7165 64.3861L95.4161 62.4088L93.9211 62.6349L94.2215 64.6122L94.5219 66.5895L96.0169 66.3634L95.7165 64.3861ZM94.2215 64.6122L92.224 64.5064L92.0934 67.0021L94.0908 67.1078L96.0883 67.2136L96.2189 64.718L94.2215 64.6122ZM107.053 73.4001L106.667 75.362L106.677 75.3639L107.053 73.4001ZM104.417 72.0269L102.957 73.3923C102.967 73.4033 102.977 73.4142 102.988 73.4249L104.417 72.0269ZM103.021 66.5097L101.024 66.39L101.024 66.395L103.021 66.5097ZM104.22 61.6193L102.46 60.6684L102.458 60.6722L104.22 61.6193ZM107.14 58.629L108.124 60.3703C108.131 60.3669 108.136 60.3635 108.142 60.3601L107.14 58.629ZM115.386 57.1391L114.999 59.1011C115.009 59.1029 115.018 59.1046 115.027 59.1063L115.386 57.1391ZM117.994 58.4922L116.547 59.8712L116.547 59.8712L117.994 58.4922ZM119.394 64.0331L121.391 64.1561C121.391 64.1488 121.392 64.1415 121.392 64.1341L119.394 64.0331ZM118.195 68.9235L116.427 67.988L118.195 68.9235ZM115.303 71.9339L116.294 73.6713L116.305 73.6649L115.303 71.9339ZM112.846 67.4266L111.235 66.24L111.235 66.24L112.846 67.4266ZM113.533 64.9197L115.53 65.0415L115.53 65.0343L113.533 64.9197ZM113.553 64.0914L111.554 64.021C111.553 64.0561 111.552 64.0913 111.553 64.1265L113.553 64.0914ZM112.916 62.2945L111.881 64.0049C111.9 64.0166 111.919 64.0279 111.939 64.0389L112.916 62.2945ZM108.882 65.6231L106.885 65.5013L106.885 65.5085L108.882 65.6231ZM108.866 66.4751L110.866 66.44C110.866 66.4345 110.865 66.4291 110.865 66.4236L108.866 66.4751ZM110.719 73.4038L110.419 71.4265C109.23 71.6064 108.243 71.5925 107.43 71.4362L107.053 73.4001L106.677 75.3639C108.031 75.6242 109.488 75.6129 111.02 75.3812L110.719 73.4038ZM107.053 73.4001L107.439 71.4381C106.725 71.2972 106.224 71.0147 105.846 70.6288L104.417 72.0269L102.988 73.4249C103.99 74.4485 105.246 75.0815 106.667 75.362L107.053 73.4001ZM104.417 72.0269L105.878 70.6614C105.558 70.3191 105.24 69.7213 105.081 68.6739L103.104 68.973L101.126 69.2721C101.366 70.8505 101.924 72.2886 102.957 73.3923L104.417 72.0269ZM103.104 68.973L105.081 68.6739C104.999 68.1321 104.971 67.4545 105.018 66.6243L103.021 66.5097L101.024 66.395C100.965 67.4255 100.992 68.3902 101.126 69.2721L103.104 68.973ZM103.021 66.5097L105.017 66.6293C105.125 64.8219 105.48 63.5004 105.982 62.5665L104.22 61.6193L102.458 60.6722C101.597 62.2746 101.153 64.2133 101.024 66.39L103.021 66.5097ZM104.22 61.6193L105.98 62.5703C106.499 61.6093 107.206 60.8891 108.124 60.3703L107.14 58.629L106.155 56.8877C104.57 57.7833 103.33 59.0567 102.46 60.6684L104.22 61.6193ZM107.14 58.629L108.142 60.3601C109.128 59.7896 110.396 59.3583 111.996 59.1163L111.696 57.139L111.395 55.1616C109.42 55.4604 107.65 56.0225 106.137 56.898L107.14 58.629ZM111.696 57.139L111.996 59.1163C113.224 58.9306 114.213 58.946 114.999 59.1011L115.386 57.1391L115.772 55.1772C114.422 54.9109 112.952 54.9262 111.395 55.1616L111.696 57.139ZM115.386 57.1391L115.027 59.1063C115.724 59.2338 116.196 59.5034 116.547 59.8712L117.994 58.4922L119.442 57.1133C118.445 56.0667 117.178 55.4343 115.744 55.172L115.386 57.1391ZM117.994 58.4922L116.547 59.8712C116.855 60.1946 117.167 60.7694 117.323 61.7978L119.301 61.4987L121.278 61.1996C121.04 59.6337 120.482 58.2042 119.442 57.1133L117.994 58.4922ZM119.301 61.4987L117.323 61.7978C117.409 62.3597 117.44 63.0654 117.397 63.9321L119.394 64.0331L121.392 64.1341C121.445 63.0769 121.414 62.0929 121.278 61.1996L119.301 61.4987ZM119.394 64.0331L117.398 63.9102C117.289 65.6996 116.934 67.0293 116.427 67.988L118.195 68.9235L119.964 69.8589C120.815 68.2497 121.259 66.3192 121.391 64.1561L119.394 64.0331ZM118.195 68.9235L116.427 67.988C115.922 68.9423 115.223 69.6691 114.3 70.2029L115.303 71.9339L116.305 73.6649C117.882 72.7527 119.111 71.4726 119.964 69.8589L118.195 68.9235ZM115.303 71.9339L114.311 70.1966C113.341 70.7497 112.063 71.1779 110.419 71.4265L110.719 73.4038L111.02 75.3812C113.015 75.0795 114.792 74.5277 116.294 73.6713L115.303 71.9339ZM111.025 68.3817L111.325 70.359C112.505 70.1806 113.671 69.6791 114.457 68.6133L112.846 67.4266L111.235 66.24C111.235 66.2401 111.235 66.24 111.235 66.2402C111.235 66.2403 111.234 66.2415 111.231 66.2438C111.226 66.248 111.211 66.26 111.179 66.2768C111.113 66.3115 110.974 66.3667 110.724 66.4044L111.025 68.3817ZM112.846 67.4266L114.457 68.6133C115.188 67.6203 115.453 66.3176 115.53 65.0415L113.533 64.9197L111.537 64.7978C111.476 65.8081 111.282 66.1767 111.235 66.24L112.846 67.4266ZM113.533 64.9197L115.53 65.0343C115.55 64.6875 115.558 64.3599 115.553 64.0562L113.553 64.0914L111.553 64.1265C111.556 64.307 111.552 64.5316 111.536 64.805L113.533 64.9197ZM113.553 64.0914L115.552 64.1618C115.564 63.8074 115.551 63.4473 115.497 63.0934L113.52 63.3925L111.542 63.6916C111.551 63.749 111.56 63.8548 111.554 64.021L113.553 64.0914ZM113.52 63.3925L115.497 63.0934C115.371 62.2626 114.988 61.1635 113.893 60.55L112.916 62.2945L111.939 64.0389C111.726 63.9198 111.606 63.7618 111.553 63.6653C111.509 63.5851 111.524 63.573 111.542 63.6916L113.52 63.3925ZM112.916 62.2945L113.951 60.584C113.004 60.0106 111.894 60.0621 111.09 60.1838L111.391 62.1611L111.691 64.1384C111.81 64.1204 111.905 64.1112 111.98 64.1074C112.054 64.1037 112.1 64.1058 112.121 64.1077C112.142 64.1095 112.128 64.1102 112.088 64.0986C112.047 64.0868 111.972 64.0603 111.881 64.0049L112.916 62.2945ZM111.391 62.1611L111.09 60.1838C109.887 60.3657 108.727 60.887 107.938 61.9568L109.549 63.1435L111.16 64.3302C111.167 64.3205 111.184 64.2983 111.244 64.2662C111.312 64.2299 111.449 64.175 111.691 64.1384L111.391 62.1611ZM109.549 63.1435L107.938 61.9568C107.215 62.9393 106.962 64.242 106.885 65.5013L108.882 65.6231L110.879 65.745C110.908 65.2661 110.966 64.9141 111.032 64.6664C111.1 64.4141 111.161 64.3282 111.16 64.3302L109.549 63.1435ZM108.882 65.6231L106.885 65.5085C106.865 65.8632 106.858 66.2036 106.866 66.5267L108.866 66.4751L110.865 66.4236C110.86 66.2309 110.864 66.0033 110.879 65.7378L108.882 65.6231ZM108.866 66.4751L106.866 66.5103C106.872 66.8268 106.895 67.14 106.942 67.4458L108.919 67.1467L110.897 66.8476C110.881 66.7422 110.869 66.6076 110.866 66.44L108.866 66.4751ZM108.919 67.1467L106.942 67.4458C107.071 68.2975 107.463 69.3346 108.488 69.9552L109.523 68.2448L110.558 66.5343C110.732 66.6393 110.835 66.773 110.884 66.862C110.925 66.9371 110.912 66.9506 110.897 66.8476L108.919 67.1467ZM109.523 68.2448L108.488 69.9552C109.429 70.5248 110.523 70.4803 111.325 70.359L111.025 68.3817L110.724 66.4044C110.611 66.4216 110.52 66.4302 110.45 66.4336C110.38 66.437 110.338 66.4348 110.32 66.4331C110.301 66.4314 110.317 66.4312 110.357 66.443C110.398 66.455 110.471 66.4812 110.558 66.5343L109.523 68.2448ZM121.16 71.7034L121.2 73.7028L121.206 73.7027L121.16 71.7034ZM119.339 71.5419L117.342 71.4302C117.287 72.4249 117.973 73.3088 118.95 73.5032L119.339 71.5419ZM119.611 66.6218L120.124 64.6893C119.543 64.5346 118.923 64.6498 118.436 65.003C117.949 65.3561 117.647 65.9096 117.614 66.5102L119.611 66.6218ZM120.875 66.7947L120.824 68.7938C120.847 68.7944 120.87 68.7946 120.893 68.7945L120.875 66.7947ZM123.839 66.0067L122.293 64.7371C122.282 64.7502 122.271 64.7635 122.261 64.777L123.839 66.0067ZM124.327 64.4279L126.322 64.5745C126.323 64.5644 126.323 64.5543 126.324 64.5442L124.327 64.4279ZM124.848 55.3924L124.548 53.4151C123.613 53.5564 122.905 54.3326 122.851 55.2761L124.848 55.3924ZM130.591 54.5238L132.587 54.6425C132.623 54.0402 132.384 53.4539 131.938 53.0471C131.493 52.6402 130.887 52.4563 130.29 52.5465L130.591 54.5238ZM129.974 65.0059L127.977 64.8873L127.977 64.9009L129.974 65.0059ZM129.163 68.1384L127.398 67.1968L127.395 67.2026L129.163 68.1384ZM126.993 70.3114L125.989 68.5813L125.98 68.5866L126.993 70.3114ZM123.124 71.5277L122.823 69.5504C122.22 69.6417 121.65 69.6919 121.113 69.7041L121.16 71.7034L121.206 73.7027C121.928 73.6863 122.668 73.6195 123.424 73.505L123.124 71.5277ZM121.16 71.7034L121.12 69.7039C120.651 69.713 120.188 69.6719 119.728 69.5805L119.339 71.5419L118.95 73.5032C119.692 73.6509 120.443 73.7174 121.2 73.7028L121.16 71.7034ZM119.339 71.5419L121.336 71.6535L121.608 66.7335L119.611 66.6218L117.614 66.5102L117.342 71.4302L119.339 71.5419ZM119.611 66.6218L119.098 68.5544C119.655 68.7026 120.233 68.7781 120.824 68.7938L120.875 66.7947L120.927 64.7956C120.608 64.7871 120.343 64.7474 120.124 64.6893L119.611 66.6218ZM120.875 66.7947L120.893 68.7945C121.443 68.7899 121.993 68.7455 122.543 68.6624L122.243 66.685L121.942 64.7077C121.575 64.7633 121.213 64.7921 120.858 64.795L120.875 66.7947ZM122.243 66.685L122.543 68.6624C123.437 68.5271 124.657 68.2118 125.417 67.2364L123.839 66.0067L122.261 64.777C122.405 64.5916 122.53 64.555 122.463 64.5834C122.436 64.5949 122.382 64.6151 122.292 64.6386C122.202 64.6618 122.087 64.6858 121.942 64.7077L122.243 66.685ZM123.839 66.0067L125.385 67.2763C126.044 66.4737 126.258 65.4549 126.322 64.5745L124.327 64.4279L122.332 64.2814C122.314 64.5339 122.28 64.6889 122.255 64.7706C122.229 64.8526 122.226 64.8183 122.293 64.7371L123.839 66.0067ZM124.327 64.4279L126.324 64.5442L126.845 55.5087L124.848 55.3924L122.851 55.2761L122.33 64.3116L124.327 64.4279ZM124.848 55.3924L125.148 57.3697L130.891 56.5012L130.591 54.5238L130.29 52.5465L124.548 53.4151L124.848 55.3924ZM130.591 54.5238L128.594 54.4052L127.977 64.8873L129.974 65.0059L131.971 65.1246L132.587 54.6425L130.591 54.5238ZM129.974 65.0059L127.977 64.9009C127.927 65.8489 127.717 66.5983 127.398 67.1968L129.163 68.1384L130.929 69.08C131.567 67.8831 131.897 66.5442 131.972 65.1109L129.974 65.0059ZM129.163 68.1384L127.395 67.2026C127.129 67.7063 126.693 68.173 125.989 68.5813L126.993 70.3114L127.997 72.0415C129.256 71.3114 130.268 70.3294 130.932 69.0742L129.163 68.1384ZM126.993 70.3114L125.98 68.5866C125.309 68.98 124.291 69.3285 122.823 69.5504L123.124 71.5277L123.424 73.505C125.184 73.2388 126.745 72.7764 128.006 72.0362L126.993 70.3114ZM131.222 70.0601L129.226 69.9442C129.191 70.546 129.43 71.1315 129.876 71.5378C130.321 71.944 130.927 72.1276 131.523 72.0374L131.222 70.0601ZM132.128 54.2913L131.828 52.314C130.893 52.4553 130.186 53.2317 130.131 54.1754L132.128 54.2913ZM144.349 52.4429L146.346 52.5616C146.381 51.9593 146.143 51.373 145.697 50.9661C145.251 50.5592 144.646 50.3753 144.049 50.4655L144.349 52.4429ZM144.099 56.7043L144.399 58.6816C145.333 58.5404 146.04 57.7655 146.095 56.823L144.099 56.7043ZM137.62 57.6841L137.32 55.7068C136.382 55.8486 135.673 56.6295 135.623 57.5764L137.62 57.6841ZM137.544 59.1034L135.547 58.9957C135.515 59.5963 135.755 60.1795 136.201 60.5839C136.646 60.9882 137.25 61.1707 137.845 61.0807L137.544 59.1034ZM143.121 58.26L145.118 58.3757C145.153 57.7739 144.914 57.1884 144.468 56.7822C144.022 56.376 143.417 56.1925 142.821 56.2826L143.121 58.26ZM142.868 62.6673L143.169 64.6447C144.103 64.5033 144.811 63.7268 144.865 62.7831L142.868 62.6673ZM137.292 63.5108L136.991 61.5335C136.066 61.6735 135.361 62.4366 135.296 63.3702L137.292 63.5108ZM137.192 64.9337L135.197 64.7931C135.155 65.3988 135.39 65.9911 135.836 66.403C136.283 66.8149 136.892 67.0018 137.493 66.911L137.192 64.9337ZM143.67 63.9538L145.668 64.0615C145.7 63.461 145.46 62.8777 145.014 62.4734C144.569 62.069 143.965 61.8866 143.37 61.9765L143.67 63.9538ZM143.443 68.2117L143.744 70.189C144.682 70.0471 145.39 69.2663 145.441 68.3194L143.443 68.2117ZM131.222 70.0601L133.219 70.176L134.125 54.4072L132.128 54.2913L130.131 54.1754L129.226 69.9442L131.222 70.0601ZM132.128 54.2913L132.429 56.2686L144.65 54.4202L144.349 52.4429L144.049 50.4655L131.828 52.314L132.128 54.2913ZM144.349 52.4429L142.353 52.3241L142.102 56.5856L144.099 56.7043L146.095 56.823L146.346 52.5616L144.349 52.4429ZM144.099 56.7043L143.798 54.727L137.32 55.7068L137.62 57.6841L137.921 59.6614L144.399 58.6816L144.099 56.7043ZM137.62 57.6841L135.623 57.5764L135.547 58.9957L137.544 59.1034L139.542 59.2111L139.618 57.7918L137.62 57.6841ZM137.544 59.1034L137.845 61.0807L143.421 60.2373L143.121 58.26L142.821 56.2826L137.244 57.1261L137.544 59.1034ZM143.121 58.26L141.124 58.1442L140.871 62.5516L142.868 62.6673L144.865 62.7831L145.118 58.3757L143.121 58.26ZM142.868 62.6673L142.568 60.69L136.991 61.5335L137.292 63.5108L137.592 65.4881L143.169 64.6447L142.868 62.6673ZM137.292 63.5108L135.296 63.3702L135.197 64.7931L137.192 64.9337L139.188 65.0743L139.287 63.6514L137.292 63.5108ZM137.192 64.9337L137.493 66.911L143.971 65.9311L143.67 63.9538L143.37 61.9765L136.892 62.9563L137.192 64.9337ZM143.67 63.9538L141.673 63.8461L141.446 68.1039L143.443 68.2117L145.441 68.3194L145.668 64.0615L143.67 63.9538ZM143.443 68.2117L143.143 66.2343L130.922 68.0828L131.222 70.0601L131.523 72.0374L143.744 70.189L143.443 68.2117ZM148.828 66.9603L148.392 68.9116L148.401 68.9135L148.828 66.9603ZM145.872 65.3928L144.42 66.7683C144.43 66.7782 144.439 66.788 144.449 66.7977L145.872 65.3928ZM144.363 60.2567L142.366 60.1365C142.366 60.1451 142.365 60.1536 142.365 60.1622L144.363 60.2567ZM147.147 53.8159L145.767 52.3675L145.767 52.3675L147.147 53.8159ZM156.511 50.5791L156.418 52.5767L156.426 52.5771L156.511 50.5791ZM158.693 50.8802L160.69 51.0001C160.748 50.0313 160.101 49.1606 159.157 48.9351L158.693 50.8802ZM158.386 56.0482L157.761 57.9476C158.351 58.1418 158.997 58.0514 159.51 57.703C160.024 57.3546 160.346 56.7875 160.383 56.1682L158.386 56.0482ZM151.264 56.7856L152.57 58.3012L152.579 58.2932L151.264 56.7856ZM150.224 59.3702L152.216 59.5596C152.217 59.5402 152.219 59.5208 152.22 59.5013L150.224 59.3702ZM150.212 59.9303L152.209 59.8114L152.209 59.8114L150.212 59.9303ZM151.262 61.8833L150.51 63.7362C150.533 63.7454 150.555 63.7541 150.578 63.7624L151.262 61.8833ZM158.199 60.2515L160.196 60.3714C160.24 59.6294 159.869 58.9239 159.232 58.5396C158.595 58.1553 157.798 58.1557 157.162 58.5405L158.199 60.2515ZM157.892 65.4195L158.791 67.2063C159.428 66.8862 159.846 66.2511 159.889 65.5394L157.892 65.4195ZM155.633 66.368L154.987 64.475C154.975 64.4791 154.962 64.4834 154.95 64.4878L155.633 66.368ZM153.011 67.0073L152.711 65.03C151.325 65.2396 150.185 65.2108 149.256 65.007L148.828 66.9603L148.401 68.9135C149.916 69.2462 151.565 69.2488 153.311 68.9846L153.011 67.0073ZM148.828 66.9603L149.265 65.009C148.381 64.8106 147.754 64.4537 147.294 63.988L145.872 65.3928L144.449 66.7977C145.519 67.8806 146.864 68.5687 148.392 68.9115L148.828 66.9603ZM145.872 65.3928L147.323 64.0174C146.905 63.5771 146.574 62.9354 146.426 61.9593L144.449 62.2584L142.471 62.5575C142.717 64.1756 143.335 65.6235 144.42 66.7683L145.872 65.3928ZM144.449 62.2584L146.426 61.9593C146.358 61.5119 146.332 60.9791 146.361 60.3512L144.363 60.2567L142.365 60.1622C142.326 61.001 142.356 61.8027 142.471 62.5575L144.449 62.2584ZM144.363 60.2567L146.36 60.3769C146.494 58.1252 147.25 56.4807 148.527 55.2642L147.147 53.8159L145.767 52.3675C143.651 54.3829 142.551 57.0322 142.366 60.1365L144.363 60.2567ZM147.147 53.8159L148.527 55.2642C149.866 53.9889 151.723 53.1077 154.24 52.7269L153.94 50.7496L153.639 48.7723C150.493 49.2481 147.821 50.4111 145.767 52.3675L147.147 53.8159ZM153.94 50.7496L154.24 52.7269C155.133 52.5919 155.853 52.5499 156.418 52.5767L156.511 50.5791L156.605 48.5815C155.703 48.5389 154.708 48.6106 153.639 48.7723L153.94 50.7496ZM156.511 50.5791L156.426 52.5771C157.053 52.604 157.653 52.6875 158.23 52.8253L158.693 50.8802L159.157 48.9351C158.323 48.736 157.469 48.6188 156.596 48.5812L156.511 50.5791ZM158.693 50.8802L156.697 50.7603L156.389 55.9283L158.386 56.0482L160.383 56.1682L160.69 51.0001L158.693 50.8802ZM158.386 56.0482L159.011 54.1489C157.292 53.5828 155.517 53.44 153.71 53.7132L154.011 55.6905L154.311 57.6679C155.511 57.4864 156.652 57.5821 157.761 57.9476L158.386 56.0482ZM154.011 55.6905L153.71 53.7132C152.294 53.9274 150.967 54.3904 149.949 55.278L151.264 56.7856L152.579 58.2932C152.819 58.0845 153.322 57.8174 154.311 57.6679L154.011 55.6905ZM151.264 56.7856L149.958 55.2701C148.778 56.2864 148.324 57.7628 148.228 59.239L150.224 59.3702L152.22 59.5013C152.28 58.5915 152.519 58.3448 152.57 58.3011L151.264 56.7856ZM150.224 59.3702L148.233 59.1808C148.206 59.4682 148.198 59.7586 148.216 60.0491L150.212 59.9303L152.209 59.8114C152.205 59.7491 152.206 59.6661 152.216 59.5596L150.224 59.3702ZM150.212 59.9303L148.216 60.0491C148.23 60.2797 148.253 60.5075 148.287 60.7312L150.264 60.4321L152.242 60.133C152.228 60.0404 152.216 59.9336 152.209 59.8114L150.212 59.9303ZM150.264 60.4321L148.287 60.7312C148.474 61.9607 149.127 63.175 150.51 63.7362L151.262 61.8833L152.013 60.0304C152.045 60.0434 152.09 60.0671 152.138 60.1057C152.186 60.1443 152.223 60.1858 152.247 60.2207C152.293 60.288 152.265 60.2873 152.242 60.133L150.264 60.4321ZM151.262 61.8833L150.578 63.7624C151.617 64.1405 152.831 64.1056 154 63.9288L153.699 61.9515L153.399 59.9742C152.448 60.118 152.037 60.0376 151.945 60.0042L151.262 61.8833ZM153.699 61.9515L154 63.9288C155.8 63.6566 157.547 62.9844 159.236 61.9624L158.199 60.2515L157.162 58.5405C155.857 59.3306 154.605 59.7918 153.399 59.9742L153.699 61.9515ZM158.199 60.2515L156.202 60.1315L155.895 65.2996L157.892 65.4195L159.889 65.5394L160.196 60.3714L158.199 60.2515ZM157.892 65.4195L156.993 63.6327C156.337 63.9625 155.668 64.243 154.987 64.475L155.633 66.368L156.279 68.2611C157.136 67.9691 157.974 67.6172 158.791 67.2063L157.892 65.4195ZM155.633 66.368L154.95 64.4878C154.33 64.7124 153.588 64.8973 152.711 65.03L153.011 67.0073L153.311 68.9846C154.396 68.8206 155.401 68.5793 156.315 68.2483L155.633 66.368ZM162.139 65.384L160.142 65.2691C160.107 65.8709 160.346 66.4561 160.792 66.8621C161.238 67.268 161.843 67.4515 162.439 67.3613L162.139 65.384ZM162.794 53.8767L164.791 53.9915C164.825 53.3898 164.586 52.8046 164.14 52.3986C163.694 51.9926 163.089 51.8092 162.493 51.8993L162.794 53.8767ZM158.902 54.4653L156.905 54.3466C156.87 54.9489 157.108 55.5352 157.554 55.942C158 56.3489 158.606 56.5328 159.202 56.4426L158.902 54.4653ZM159.153 50.2038L158.852 48.2265C157.919 48.3677 157.212 49.1426 157.156 50.0851L159.153 50.2038ZM172.679 48.158L174.676 48.2767C174.711 47.6744 174.473 47.0881 174.027 46.6813C173.581 46.2744 172.975 46.0905 172.379 46.1807L172.679 48.158ZM172.428 52.4195L172.729 54.3968C173.662 54.2556 174.369 53.4807 174.425 52.5382L172.428 52.4195ZM168.536 53.0081L168.236 51.0308C167.301 51.1722 166.593 51.9492 166.539 52.8932L168.536 53.0081ZM167.881 64.5154L168.182 66.4928C169.117 66.3513 169.825 65.5744 169.878 64.6303L167.881 64.5154ZM162.139 65.384L164.136 65.4989L164.791 53.9915L162.794 53.8767L160.797 53.7618L160.142 65.2691L162.139 65.384ZM162.794 53.8767L162.493 51.8993L158.602 52.488L158.902 54.4653L159.202 56.4426L163.094 55.854L162.794 53.8767ZM158.902 54.4653L160.899 54.584L161.15 50.3226L159.153 50.2038L157.156 50.0851L156.905 54.3466L158.902 54.4653ZM159.153 50.2038L159.453 52.1812L172.979 50.1353L172.679 48.158L172.379 46.1807L158.852 48.2265L159.153 50.2038ZM172.679 48.158L170.682 48.0393L170.431 52.3007L172.428 52.4195L174.425 52.5382L174.676 48.2767L172.679 48.158ZM172.428 52.4195L172.128 50.4421L168.236 51.0308L168.536 53.0081L168.837 54.9854L172.729 54.3968L172.428 52.4195ZM168.536 53.0081L166.539 52.8932L165.884 64.4006L167.881 64.5154L169.878 64.6303L170.533 53.123L168.536 53.0081ZM167.881 64.5154L167.581 62.5381L161.838 63.4067L162.139 65.384L162.439 67.3613L168.182 66.4928L167.881 64.5154Z" fill="#EBCB3D" mask="url(#path-24-outside-2_433_997)"/>
</g>
<defs>
<clipPath id="clip0_433_997">
<rect width="200" height="110" fill="white"/>
</clipPath>
</defs>
</svg>
