<svg width="200" height="113" viewBox="0 0 200 113" fill="none" xmlns="http://www.w3.org/2000/svg">
<g clip-path="url(#clip0_433_946)">
<path d="M200 18.8691L199.974 87.4009L147.32 95.9339L147.346 27.4021L200 18.8691Z" fill="#0035C9"/>
<path d="M147.346 27.4019L147.32 95.9336L105.307 85.1968L105.334 16.665L147.346 27.4019Z" fill="#375ABD"/>
<path d="M200 18.8691L199.974 86.5378L147.32 95.0708L147.346 27.4021L200 18.8691Z" fill="#113AD1"/>
<path d="M147.346 27.4019L147.32 95.0706L105.307 84.3337L105.334 16.665L147.346 27.4019Z" fill="#103BC3"/>
<path d="M200 18.8697L147.346 27.4026L105.334 16.6658L157.988 8.13281L200 18.8697Z" fill="#275DF4"/>
<path d="M167.122 3.30806C167.115 3.32259 167.109 3.33713 167.101 3.35166C167.046 3.44782 166.967 3.54338 166.867 3.63811C166.854 3.6507 166.841 3.66329 166.827 3.67579C166.721 3.77094 166.59 3.86498 166.438 3.95776C166.42 3.969 166.402 3.98032 166.383 3.99147C166.224 4.08468 166.041 4.17636 165.837 4.26643C165.813 4.27665 165.792 4.28705 165.768 4.29727C165.559 4.38642 165.326 4.47345 165.072 4.55862C165.038 4.57003 165.006 4.58161 164.971 4.59293C164.719 4.67523 164.442 4.75499 164.148 4.83273C164.086 4.84921 164.022 4.86552 163.958 4.88174C163.641 4.96193 163.308 5.04026 162.945 5.11453C162.944 5.1147 162.944 5.11495 162.943 5.11512C162.542 5.19725 162.113 5.2755 161.658 5.34935C161.316 5.40478 160.961 5.45497 160.603 5.50322C160.402 5.53026 160.196 5.55476 159.991 5.57952C159.786 5.60436 159.58 5.62938 159.37 5.65202C158.903 5.7023 158.429 5.74801 157.945 5.78722C157.908 5.79026 157.872 5.79431 157.834 5.79727C157.368 5.8342 156.894 5.8658 156.416 5.89258C155.976 5.91726 155.531 5.93788 155.084 5.95401C155.054 5.95511 155.024 5.9557 154.994 5.95672C154.094 5.98798 153.184 6.00226 152.277 5.99931C152.241 5.99922 152.205 5.99888 152.169 5.99871C151.744 5.99669 151.321 5.99094 150.9 5.98156C150.845 5.98038 150.791 5.97894 150.737 5.97767C150.328 5.9677 149.92 5.9541 149.516 5.9372C149.454 5.93458 149.391 5.93179 149.329 5.929C148.926 5.91101 148.526 5.88971 148.13 5.86479C148.071 5.86107 148.012 5.85684 147.952 5.85296C147.55 5.82651 147.152 5.7971 146.761 5.76356C146.72 5.76001 146.679 5.75604 146.638 5.7524C146.249 5.71818 145.865 5.68066 145.49 5.63943C145.465 5.63673 145.439 5.63436 145.415 5.63157C145.046 5.59051 144.688 5.54522 144.335 5.49747C144.255 5.48674 144.176 5.47601 144.097 5.46486C143.741 5.41467 143.393 5.36186 143.056 5.30482C143.012 5.2973 142.971 5.28893 142.928 5.28125C142.638 5.23097 142.358 5.17782 142.085 5.12247C141.915 5.08783 141.753 5.0504 141.589 5.01373C141.373 4.96531 141.153 4.91816 140.95 4.86619C138.784 4.31273 137.733 3.65196 137.733 2.99609L137.727 19.9133C137.727 20.569 138.778 21.2299 140.943 21.7834C141.025 21.8042 141.108 21.8249 141.192 21.8452C141.315 21.8752 141.452 21.9015 141.58 21.9302C141.745 21.9672 141.907 22.0047 142.079 22.0396C142.122 22.0484 142.161 22.0585 142.205 22.0673C142.44 22.1137 142.684 22.1572 142.93 22.1999C142.97 22.2069 143.007 22.2147 143.048 22.2216C143.056 22.2229 143.063 22.2244 143.071 22.2258C143.331 22.2697 143.597 22.3116 143.869 22.3514C143.94 22.362 144.015 22.3712 144.088 22.3815C144.169 22.3929 144.25 22.4039 144.332 22.4149C144.432 22.4285 144.53 22.4431 144.632 22.4561C144.875 22.4873 145.123 22.517 145.374 22.545C145.385 22.5463 145.397 22.5473 145.408 22.5486C145.433 22.5513 145.458 22.5536 145.483 22.5564C145.687 22.5787 145.891 22.6007 146.099 22.621C146.275 22.6381 146.454 22.6538 146.632 22.6695C146.673 22.673 146.713 22.677 146.754 22.6806C146.779 22.6827 146.803 22.6851 146.827 22.6872C147.069 22.7076 147.312 22.7266 147.558 22.7444C147.686 22.7536 147.816 22.7615 147.946 22.77C148.005 22.7739 148.064 22.7781 148.123 22.7818C148.178 22.7852 148.232 22.7893 148.286 22.7926C148.527 22.8071 148.769 22.8204 149.012 22.8324C149.116 22.8375 149.22 22.8415 149.324 22.8462C149.385 22.8489 149.445 22.8516 149.506 22.8542C149.583 22.8574 149.658 22.8613 149.735 22.8643C149.965 22.8731 150.196 22.8809 150.428 22.8876C150.53 22.8905 150.633 22.8925 150.736 22.895C150.787 22.8962 150.837 22.8975 150.888 22.8986C150.96 22.9003 151.031 22.9024 151.102 22.9038C151.319 22.9079 151.535 22.9112 151.752 22.9134C151.889 22.9149 152.026 22.9153 152.162 22.9159C152.198 22.9161 152.234 22.9164 152.27 22.9165C152.307 22.9166 152.344 22.9171 152.381 22.9171C152.587 22.9175 152.794 22.917 153 22.9155C153.215 22.9141 153.429 22.9117 153.643 22.9083C153.644 22.9083 153.646 22.9083 153.647 22.9083C153.868 22.9048 154.09 22.9003 154.31 22.8948C154.539 22.889 154.768 22.8816 154.996 22.8736C155.022 22.8727 155.048 22.8722 155.074 22.8713C155.089 22.8708 155.104 22.8704 155.118 22.8699C155.539 22.8545 155.956 22.8353 156.371 22.8124C156.383 22.8117 156.395 22.8106 156.407 22.8099C156.887 22.7831 157.362 22.7514 157.83 22.7143C157.834 22.7139 157.839 22.7138 157.843 22.7133C157.872 22.7111 157.898 22.7078 157.926 22.7056C158.414 22.666 158.893 22.62 159.364 22.5692C159.419 22.5633 159.477 22.5593 159.532 22.5533C159.686 22.5362 159.833 22.5152 159.985 22.4968C160.19 22.4719 160.396 22.4475 160.596 22.4205C160.657 22.4123 160.721 22.4057 160.782 22.3973C161.077 22.3563 161.367 22.3127 161.651 22.2666C161.752 22.2503 161.851 22.2338 161.949 22.2171C162.293 22.1583 162.621 22.0969 162.932 22.0332C162.933 22.0331 162.934 22.0328 162.935 22.0326C162.938 22.0319 162.941 22.0311 162.945 22.0303C163.213 21.9753 163.47 21.9186 163.713 21.8603C163.797 21.8402 163.872 21.8191 163.952 21.7987C164.016 21.7826 164.079 21.7664 164.141 21.75C164.208 21.7323 164.281 21.7153 164.345 21.6974C164.53 21.6463 164.706 21.5942 164.873 21.5411C164.905 21.531 164.933 21.5203 164.964 21.5101C164.999 21.4987 165.032 21.487 165.066 21.4755C165.15 21.4473 165.237 21.4196 165.316 21.391C165.45 21.3421 165.578 21.2927 165.698 21.2426C165.721 21.2331 165.74 21.2235 165.762 21.2139C165.785 21.204 165.807 21.1938 165.83 21.1838C165.898 21.1538 165.968 21.124 166.031 21.0938C166.134 21.0444 166.229 20.9947 166.319 20.9444C166.34 20.9324 166.357 20.9202 166.377 20.9083C166.396 20.8972 166.413 20.8862 166.431 20.875C166.476 20.8476 166.524 20.8203 166.565 20.7926C166.642 20.7412 166.711 20.6893 166.774 20.6372C166.792 20.6224 166.805 20.6074 166.821 20.5926C166.835 20.5801 166.848 20.5677 166.861 20.5551C166.888 20.5293 166.919 20.5037 166.943 20.4778C166.994 20.4222 167.038 20.3663 167.074 20.3103C167.082 20.2965 167.086 20.2825 167.094 20.2687C167.103 20.254 167.108 20.2395 167.116 20.2248C167.131 20.1944 167.15 20.164 167.161 20.1335C167.182 20.0708 167.195 20.008 167.197 19.945C167.197 19.937 167.198 19.929 167.198 19.921L167.204 3.00387C167.204 3.10552 167.172 3.20717 167.122 3.30806Z" fill="#0E51E5"/>
<path d="M163.986 1.13295C169.062 2.43024 168.019 4.31843 161.658 5.34938C155.302 6.37941 146.026 6.16343 140.95 4.86622C135.873 3.56902 136.921 1.68202 143.277 0.651994C149.639 -0.37896 158.91 -0.164337 163.986 1.13295Z" fill="#3F7AFC"/>
<path d="M147.346 27.4023L147.32 95.9341L94.666 104.467L94.6925 35.9353L147.346 27.4023Z" fill="#0035C9"/>
<path d="M94.6926 35.9351L94.6662 104.467L52.6538 93.73L52.6802 25.1982L94.6926 35.9351Z" fill="#375ABD"/>
<path d="M147.346 27.4023L147.32 95.071L94.666 103.604L94.6925 35.9353L147.346 27.4023Z" fill="#113AD1"/>
<path d="M94.6926 35.9351L94.6662 103.604L52.6538 92.8669L52.6802 25.1982L94.6926 35.9351Z" fill="#103BC3"/>
<path d="M147.353 27.4019L94.6992 35.9349L52.6868 25.198L105.34 16.665L147.353 27.4019Z" fill="#275DF4"/>
<path d="M114.468 11.8413C114.461 11.8558 114.455 11.8703 114.447 11.8849C114.392 11.981 114.314 12.0766 114.214 12.1713C114.2 12.1839 114.188 12.1965 114.174 12.209C114.067 12.3041 113.937 12.3982 113.784 12.491C113.766 12.5022 113.748 12.5135 113.729 12.5247C113.571 12.6179 113.387 12.7096 113.183 12.7996C113.16 12.8099 113.138 12.8203 113.114 12.8305C112.905 12.9196 112.672 13.0067 112.419 13.0918C112.385 13.1032 112.352 13.1148 112.317 13.1261C112.065 13.2084 111.788 13.2882 111.494 13.3659C111.432 13.3824 111.368 13.3987 111.304 13.4149C110.987 13.4951 110.654 13.5735 110.292 13.6477C110.291 13.6479 110.29 13.6482 110.289 13.6483C109.888 13.7305 109.46 13.8087 109.004 13.8826C108.662 13.938 108.307 13.9882 107.949 14.0364C107.748 14.0635 107.543 14.088 107.337 14.1127C107.132 14.1376 106.926 14.1626 106.716 14.1852C106.25 14.2355 105.775 14.2812 105.291 14.3204C105.254 14.3235 105.218 14.3275 105.18 14.3305C104.714 14.3674 104.24 14.399 103.763 14.4258C103.322 14.4505 102.877 14.4711 102.43 14.4872C102.4 14.4883 102.37 14.4889 102.34 14.4899C101.44 14.5212 100.53 14.5355 99.623 14.5325C99.5868 14.5324 99.5508 14.5321 99.5148 14.5319C99.0907 14.5299 98.6674 14.5241 98.2459 14.5148C98.1916 14.5136 98.1373 14.5121 98.083 14.5109C97.6737 14.5009 97.2665 14.4873 96.8623 14.4704C96.7998 14.4678 96.7374 14.465 96.6751 14.4622C96.2719 14.4442 95.8719 14.4229 95.4765 14.398C95.4169 14.3943 95.358 14.39 95.2986 14.3862C94.8964 14.3597 94.4982 14.3303 94.107 14.2968C94.0658 14.2932 94.0254 14.2892 93.9844 14.2856C93.595 14.2514 93.2114 14.2139 92.8358 14.1726C92.811 14.1699 92.7855 14.1676 92.7608 14.1648C92.3923 14.1237 92.0337 14.0784 91.681 14.0307C91.6015 14.0199 91.522 14.0092 91.4433 13.9981C91.0876 13.9479 90.7388 13.8951 90.4026 13.838C90.3585 13.8305 90.3175 13.8221 90.2738 13.8144C89.9846 13.7642 89.7042 13.711 89.4316 13.6557C89.2608 13.621 89.0993 13.5836 88.9355 13.5469C88.7195 13.4985 88.4991 13.4514 88.296 13.3994C86.1304 12.8459 85.0793 12.1852 85.0796 11.5293L85.073 28.4465C85.0727 29.1022 86.1237 29.7631 88.2894 30.3166C88.3713 30.3374 88.4541 30.3581 88.5381 30.3784C88.6616 30.4084 88.798 30.4347 88.9261 30.4634C89.0908 30.5004 89.2531 30.5379 89.4249 30.5728C89.4685 30.5816 89.5075 30.5917 89.5515 30.6005C89.7858 30.647 90.0298 30.6904 90.276 30.7331C90.3161 30.7401 90.3537 30.7479 90.3942 30.7548C90.4022 30.7561 90.4094 30.7576 90.4173 30.759C90.6772 30.8029 90.9432 30.8448 91.2149 30.8846C91.2867 30.8952 91.3616 30.9044 91.4341 30.9147C91.5148 30.9261 91.5961 30.9371 91.6778 30.9481C91.7782 30.9617 91.8763 30.9763 91.978 30.9893C92.2216 31.0205 92.469 31.0502 92.7198 31.0782C92.731 31.0795 92.7428 31.0805 92.7541 31.0818C92.7789 31.0845 92.8043 31.0868 92.8291 31.0896C93.0328 31.1119 93.2376 31.1339 93.4456 31.1542C93.6212 31.1713 93.7998 31.187 93.9782 31.2027C94.0191 31.2062 94.0591 31.2102 94.1001 31.2138C94.1248 31.2159 94.1489 31.2183 94.1736 31.2204C94.4149 31.2408 94.6585 31.2598 94.9041 31.2776C95.0324 31.2869 95.1627 31.2947 95.292 31.3032C95.3513 31.3071 95.4101 31.3113 95.4696 31.315C95.5242 31.3185 95.5778 31.3225 95.6325 31.3258C95.873 31.3403 96.115 31.3536 96.3585 31.3656C96.4619 31.3707 96.5665 31.3747 96.6705 31.3794C96.7312 31.3821 96.7916 31.3848 96.8524 31.3874C96.9288 31.3906 97.0047 31.3945 97.0814 31.3975C97.3113 31.4063 97.5421 31.4141 97.7738 31.4208C97.8763 31.4237 97.9795 31.4257 98.0822 31.4282C98.133 31.4294 98.1836 31.4307 98.2344 31.4318C98.3059 31.4335 98.3771 31.4356 98.4486 31.437C98.6649 31.4411 98.8816 31.4444 99.0987 31.4466C99.2351 31.4481 99.3719 31.4485 99.5085 31.4491C99.5445 31.4493 99.5804 31.4496 99.6163 31.4497C99.6533 31.4498 99.6902 31.4503 99.7271 31.4504C99.9335 31.4507 100.14 31.4502 100.346 31.4487C100.561 31.4473 100.775 31.4449 100.989 31.4415C100.991 31.4415 100.992 31.4415 100.993 31.4415C101.215 31.438 101.436 31.4335 101.656 31.428C101.886 31.4222 102.114 31.4148 102.342 31.4068C102.368 31.4059 102.394 31.4054 102.42 31.4045C102.435 31.404 102.45 31.4036 102.464 31.4031C102.885 31.3877 103.303 31.3685 103.717 31.3456C103.729 31.3449 103.741 31.3438 103.753 31.3431C104.233 31.3163 104.708 31.2846 105.176 31.2475C105.18 31.2471 105.185 31.247 105.19 31.2465C105.218 31.2443 105.244 31.2411 105.272 31.2388C105.76 31.1992 106.239 31.1532 106.71 31.1024C106.765 31.0965 106.823 31.0925 106.878 31.0865C107.032 31.0694 107.179 31.0484 107.331 31.03C107.536 31.0051 107.742 30.9807 107.943 30.9537C108.003 30.9455 108.068 30.9389 108.128 30.9305C108.423 30.8895 108.713 30.8459 108.997 30.7998C109.098 30.7835 109.197 30.767 109.295 30.7503C109.639 30.6915 109.967 30.6301 110.278 30.5664C110.279 30.5663 110.28 30.566 110.281 30.5658C110.285 30.5651 110.288 30.5643 110.291 30.5636C110.559 30.5085 110.816 30.4518 111.059 30.3935C111.143 30.3734 111.218 30.3523 111.298 30.3319C111.362 30.3158 111.425 30.2996 111.488 30.2832C111.554 30.2655 111.627 30.2485 111.691 30.2306C111.876 30.1795 112.052 30.1274 112.219 30.0743C112.251 30.0642 112.279 30.0535 112.31 30.0433C112.346 30.0319 112.378 30.0202 112.413 30.0087C112.496 29.9805 112.583 29.9528 112.662 29.9242C112.796 29.8753 112.924 29.8259 113.044 29.7758C113.067 29.7663 113.086 29.7567 113.108 29.7471C113.132 29.7372 113.153 29.727 113.176 29.717C113.244 29.687 113.314 29.6572 113.377 29.627C113.48 29.5776 113.576 29.5279 113.665 29.4776C113.686 29.4656 113.703 29.4534 113.723 29.4415C113.742 29.4304 113.759 29.4194 113.778 29.4082C113.823 29.3808 113.871 29.3535 113.912 29.3258C113.988 29.2744 114.057 29.2225 114.12 29.1704C114.138 29.1556 114.151 29.1406 114.167 29.1258C114.181 29.1133 114.194 29.1009 114.207 29.0883C114.234 29.0625 114.265 29.0369 114.289 29.011C114.34 28.9554 114.384 28.8995 114.42 28.8435C114.429 28.8297 114.432 28.8157 114.44 28.8019C114.449 28.7872 114.455 28.7727 114.462 28.758C114.477 28.7276 114.496 28.6973 114.507 28.6667C114.529 28.6041 114.541 28.5412 114.543 28.4782C114.544 28.4702 114.544 28.4622 114.544 28.4542L114.55 11.5371C114.55 11.6387 114.518 11.7404 114.468 11.8413Z" fill="#0E51E5"/>
<path d="M111.332 9.66616C116.408 10.9634 115.366 12.8516 109.004 13.8826C102.648 14.9126 93.3722 14.6966 88.296 13.3994C83.22 12.1021 84.2673 10.2152 90.6232 9.1852C96.985 8.15424 106.256 8.36887 111.332 9.66616Z" fill="#3F7AFC"/>
<path d="M94.6925 35.9355L94.6661 104.467L42.0125 113L42.0388 44.4685L94.6925 35.9355Z" fill="#0035C9"/>
<path d="M42.0388 44.4683L42.0125 113L0 102.263L0.0264387 33.7314L42.0388 44.4683Z" fill="#16397F"/>
<path d="M94.6925 35.9355L94.6661 103.604L42.0125 112.137L42.0388 44.4685L94.6925 35.9355Z" fill="#113AD1"/>
<path d="M42.0388 44.4683L42.0125 112.137L0 101.4L0.0264387 33.7314L42.0388 44.4683Z" fill="#17398E"/>
<path d="M94.6925 35.9351L42.0388 44.4681L0.0263672 33.7312L52.6801 25.1982L94.6925 35.9351Z" fill="#275DF4"/>
<path d="M61.8213 20.3745C61.814 20.389 61.808 20.4035 61.7998 20.4181C61.745 20.5142 61.6667 20.6098 61.5666 20.7045C61.5534 20.7171 61.5407 20.7297 61.5266 20.7422C61.4199 20.8373 61.2895 20.9314 61.1374 21.0242C61.1189 21.0354 61.1015 21.0467 61.0825 21.0579C60.9236 21.1511 60.7405 21.2428 60.5359 21.3328C60.5127 21.3431 60.4908 21.3535 60.467 21.3637C60.2584 21.4528 60.0249 21.5399 59.7716 21.625C59.7376 21.6364 59.7051 21.648 59.6704 21.6593C59.418 21.7416 59.1415 21.8214 58.8473 21.8991C58.785 21.9156 58.7213 21.9319 58.657 21.9481C58.34 22.0283 58.0071 22.1067 57.6447 22.1809C57.6437 22.1811 57.6428 22.1814 57.6418 22.1815C57.241 22.2637 56.8127 22.3419 56.357 22.4158C56.0148 22.4712 55.6604 22.5214 55.3023 22.5696C55.1015 22.5967 54.8957 22.6212 54.6905 22.6459C54.4848 22.6708 54.2791 22.6958 54.0693 22.7184C53.6026 22.7687 53.128 22.8144 52.6443 22.8536C52.6069 22.8567 52.5709 22.8607 52.5334 22.8637C52.067 22.9006 51.5935 22.9322 51.1156 22.959C50.6749 22.9837 50.2302 23.0043 49.783 23.0204C49.7533 23.0215 49.7233 23.0221 49.6935 23.0231C48.7931 23.0544 47.8834 23.0687 46.976 23.0657C46.9399 23.0656 46.9038 23.0653 46.8678 23.0651C46.4437 23.0631 46.0204 23.0573 45.5989 23.048C45.5446 23.0468 45.4904 23.0453 45.4361 23.0441C45.0268 23.0341 44.6195 23.0205 44.2153 23.0036C44.1529 23.001 44.0905 22.9982 44.0282 22.9954C43.6249 22.9774 43.2249 22.9561 42.8295 22.9312C42.77 22.9275 42.711 22.9232 42.6517 22.9194C42.2494 22.8929 41.8513 22.8635 41.4601 22.83C41.4188 22.8264 41.3785 22.8224 41.3374 22.8188C40.948 22.7846 40.5644 22.7471 40.1888 22.7058C40.1641 22.7031 40.1386 22.7008 40.1138 22.698C39.7453 22.6569 39.3867 22.6116 39.034 22.5639C38.9545 22.5531 38.8751 22.5424 38.7963 22.5313C38.4407 22.4811 38.0918 22.4283 37.7556 22.3712C37.7115 22.3637 37.6705 22.3553 37.6268 22.3477C37.3376 22.2974 37.0572 22.2442 36.7846 22.1889C36.6139 22.1542 36.4523 22.1168 36.2885 22.0801C36.0725 22.0317 35.8521 21.9846 35.649 21.9326C33.4834 21.3791 32.4323 20.7184 32.4326 20.0625L32.426 36.9797C32.4258 37.6355 33.4768 38.2963 35.6425 38.8498C35.7243 38.8706 35.8071 38.8913 35.8911 38.9116C36.0146 38.9416 36.151 38.9679 36.2791 38.9966C36.4439 39.0336 36.6061 39.0711 36.778 39.106C36.8215 39.1148 36.8605 39.1249 36.9045 39.1337C37.1389 39.1802 37.3828 39.2236 37.629 39.2663C37.6691 39.2733 37.7067 39.2811 37.7472 39.288C37.7552 39.2893 37.7624 39.2908 37.7704 39.2922C38.0303 39.3361 38.2963 39.378 38.5679 39.4178C38.6397 39.4284 38.7147 39.4376 38.7871 39.4479C38.8678 39.4593 38.9491 39.4703 39.0308 39.4813C39.1313 39.4949 39.2293 39.5095 39.3311 39.5225C39.5747 39.5537 39.822 39.5834 40.0728 39.6114C40.0841 39.6127 40.0958 39.6137 40.1071 39.615C40.1319 39.6177 40.1573 39.62 40.1822 39.6228C40.3858 39.6451 40.5906 39.6671 40.7986 39.6874C40.9742 39.7045 41.1528 39.7202 41.3312 39.7359C41.3721 39.7394 41.4122 39.7434 41.4532 39.747C41.4778 39.7491 41.5019 39.7515 41.5266 39.7536C41.7679 39.774 42.0115 39.793 42.2571 39.8108C42.3854 39.8201 42.5157 39.8279 42.645 39.8364C42.7043 39.8403 42.7631 39.8445 42.8227 39.8482C42.8772 39.8517 42.9308 39.8557 42.9855 39.859C43.226 39.8735 43.4681 39.8868 43.7115 39.8988C43.815 39.9039 43.9195 39.9079 44.0235 39.9126C44.0842 39.9153 44.1446 39.918 44.2054 39.9206C44.2819 39.9238 44.3577 39.9277 44.4344 39.9307C44.6643 39.9395 44.8952 39.9473 45.1268 39.954C45.2294 39.9569 45.3325 39.9589 45.4352 39.9614C45.486 39.9626 45.5366 39.9639 45.5875 39.965C45.6589 39.9667 45.7301 39.9689 45.8017 39.9702C46.0179 39.9743 46.2346 39.9776 46.4517 39.9798C46.5882 39.9813 46.7249 39.9817 46.8616 39.9823C46.8975 39.9825 46.9334 39.9828 46.9693 39.9829C47.0063 39.983 47.0432 39.9835 47.0801 39.9836C47.2865 39.9839 47.493 39.9834 47.6994 39.9819C47.9139 39.9805 48.1282 39.9781 48.3424 39.9747C48.3437 39.9747 48.3448 39.9747 48.346 39.9747C48.5675 39.9712 48.7887 39.9667 49.0095 39.9612C49.2387 39.9554 49.4671 39.948 49.6952 39.94C49.7212 39.9391 49.7472 39.9386 49.7731 39.9377C49.7878 39.9372 49.8027 39.9368 49.8175 39.9363C50.2377 39.9209 50.6557 39.9017 51.0701 39.8788C51.0824 39.8781 51.0942 39.877 51.1065 39.8763C51.586 39.8495 52.0609 39.8178 52.5291 39.7807C52.5335 39.7803 52.5382 39.7802 52.5427 39.7797C52.5707 39.7776 52.5971 39.7743 52.625 39.772C53.1133 39.7324 53.592 39.6864 54.063 39.6356C54.1179 39.6297 54.1761 39.6257 54.2307 39.6197C54.385 39.6026 54.5319 39.5816 54.6838 39.5632C54.8893 39.5383 55.0948 39.5139 55.2957 39.4869C55.3565 39.4787 55.4206 39.4721 55.4809 39.4637C55.7761 39.4227 56.0662 39.3791 56.3505 39.333C56.451 39.3167 56.5502 39.3002 56.648 39.2835C56.9923 39.2247 57.3202 39.1633 57.6315 39.0996C57.6323 39.0995 57.6332 39.0992 57.634 39.099C57.6376 39.0983 57.6406 39.0975 57.6442 39.0968C57.9125 39.0417 58.1691 38.985 58.4125 38.9267C58.496 38.9066 58.5708 38.8855 58.6514 38.8651C58.7153 38.849 58.7784 38.8328 58.8406 38.8164C58.9074 38.7987 58.9798 38.7817 59.0445 38.7638C59.2292 38.7127 59.4051 38.6606 59.5721 38.6075C59.6041 38.5974 59.6321 38.5867 59.6635 38.5765C59.6986 38.5651 59.7312 38.5534 59.7656 38.5419C59.8492 38.5137 59.936 38.486 60.0148 38.4574C60.1495 38.4085 60.2769 38.3591 60.3973 38.309C60.4199 38.2995 60.4391 38.2899 60.4613 38.2803C60.4847 38.2704 60.506 38.2602 60.5288 38.2502C60.5968 38.2202 60.6673 38.1904 60.7303 38.1602C60.8328 38.1108 60.9286 38.0611 61.0177 38.0108C61.0389 37.9988 61.056 37.9866 61.0765 37.9747C61.0954 37.9636 61.1125 37.9526 61.1306 37.9414C61.1757 37.914 61.2236 37.8867 61.2647 37.859C61.3411 37.8076 61.4105 37.7557 61.4732 37.7036C61.4909 37.6888 61.5038 37.6738 61.5204 37.659C61.5345 37.6465 61.5469 37.6341 61.5601 37.6215C61.5873 37.5957 61.6182 37.5701 61.6422 37.5442C61.6934 37.4886 61.7371 37.4327 61.7728 37.3767C61.7817 37.3629 61.7855 37.3489 61.7934 37.3351C61.8017 37.3204 61.8077 37.3059 61.815 37.2912C61.8301 37.2608 61.8494 37.2305 61.8599 37.2C61.8817 37.1373 61.8938 37.0744 61.8964 37.0114C61.8967 37.0034 61.8968 36.9954 61.8968 36.9874L61.9034 20.0703C61.9034 20.1719 61.8715 20.2736 61.8213 20.3745Z" fill="#0E51E5"/>
<path d="M58.6786 18.1994C63.7547 19.4967 62.712 21.3848 56.3502 22.4158C49.9943 23.4458 40.7184 23.2298 35.6422 21.9326C30.5662 20.6353 31.6135 18.7484 37.9694 17.7184C44.3312 16.6874 53.6025 16.9021 58.6786 18.1994Z" fill="#3F7AFC"/>
<mask id="path-22-outside-1_433_946" maskUnits="userSpaceOnUse" x="63.2987" y="44.1949" width="118.415" height="42.1647" fill="black">
<rect fill="white" x="63.2987" y="44.1949" width="118.415" height="42.1647"/>
<path d="M78.1298 79.8568C75.8046 80.2105 73.9035 79.998 72.4266 79.2192C70.9656 78.4381 70.0905 77.0904 69.8013 75.1761C69.7535 74.8597 69.7192 74.525 69.6982 74.1722C69.6931 73.8169 69.7026 73.4513 69.7267 73.0754C69.8885 70.3966 70.7627 68.2568 72.3494 66.656C73.9519 65.0527 76.3429 64.0093 79.5223 63.5257C80.503 63.3765 81.3759 63.3165 82.1408 63.3458C82.9192 63.3569 83.6597 63.4384 84.3623 63.5905L84.0898 68.5357C83.3666 68.3544 82.634 68.2717 81.8921 68.2874C81.1477 68.2874 80.3801 68.3475 79.5892 68.4678C78.4819 68.6362 77.5584 69.0033 76.8186 69.569C76.0764 70.1189 75.666 70.9905 75.5873 72.1839C75.5459 72.6595 75.5562 73.103 75.6184 73.5144C75.714 74.1472 75.9798 74.568 76.4159 74.7768C76.8496 74.9698 77.5093 74.9989 78.3951 74.8641C78.9013 74.7871 79.3754 74.6584 79.8174 74.4778L79.8911 73.5198L77.3523 73.906L77.5645 70.3295L84.8487 69.2214L84.3577 77.38C83.6899 77.8862 82.8329 78.3726 81.7869 78.8392C80.7566 79.3035 79.5376 79.6426 78.1298 79.8568ZM85.2317 78.5337L92.0345 61.8651L97.99 60.9591L102.956 75.8375L97.2613 76.7038L96.3329 73.9319L92.6315 74.4949L91.377 77.5989L85.2317 78.5337ZM93.4874 70.3592L95.8127 70.0055L94.8261 67.1696L93.4874 70.3592ZM104.174 75.6522L105.093 59.8787L110.834 59.0052L110.182 70.2715L116.422 69.3223L116.156 73.8295L104.174 75.6522ZM117.011 73.6995L117.929 57.926L123.671 57.0525L123.019 68.3188L129.259 67.3696L128.993 71.8768L117.011 73.6995ZM129.847 71.7468L130.766 55.9733L142.985 54.1145L142.731 58.3772L136.254 59.3625L136.177 60.7822L141.753 59.934L141.496 64.3427L135.92 65.1909L135.82 66.6142L142.297 65.6289L142.067 69.888L129.847 71.7468ZM143.032 69.7412L143.95 53.9677L152.539 52.6611C154.026 52.4349 155.243 52.6706 156.19 53.3682C157.153 54.0633 157.731 55.0516 157.924 56.3331C157.989 56.7602 158.008 57.2104 157.983 57.6837C157.932 58.7433 157.641 59.71 157.11 60.5839C156.592 61.4395 155.89 62.2018 155.004 62.8706C155.288 63.0378 155.486 63.2748 155.597 63.5815L157.149 67.5937L151.17 68.5032L149.875 65.2288C149.761 64.9062 149.546 64.769 149.23 64.8171L148.993 64.8532L148.774 68.8678L143.032 69.7412ZM149.288 60.2201L150.688 60.0071C151.621 59.8652 152.107 59.3866 152.146 58.5715C152.15 58.49 152.147 58.4176 152.137 58.3544C152.143 58.2887 152.142 58.2242 152.132 58.1609C152.049 57.6072 151.643 57.3857 150.915 57.4964L149.421 57.7237L149.288 60.2201ZM161.985 66.858L162.309 61.1281L157.375 51.9255L163.189 51.0412L165.323 55.6931L168.029 50.3049L174.174 49.3701L168.051 60.2547L167.727 65.9846L161.985 66.858Z"/>
</mask>
<path d="M78.1298 79.8568C75.8046 80.2105 73.9035 79.998 72.4266 79.2192C70.9656 78.4381 70.0905 77.0904 69.8013 75.1761C69.7535 74.8597 69.7192 74.525 69.6982 74.1722C69.6931 73.8169 69.7026 73.4513 69.7267 73.0754C69.8885 70.3966 70.7627 68.2568 72.3494 66.656C73.9519 65.0527 76.3429 64.0093 79.5223 63.5257C80.503 63.3765 81.3759 63.3165 82.1408 63.3458C82.9192 63.3569 83.6597 63.4384 84.3623 63.5905L84.0898 68.5357C83.3666 68.3544 82.634 68.2717 81.8921 68.2874C81.1477 68.2874 80.3801 68.3475 79.5892 68.4678C78.4819 68.6362 77.5584 69.0033 76.8186 69.569C76.0764 70.1189 75.666 70.9905 75.5873 72.1839C75.5459 72.6595 75.5562 73.103 75.6184 73.5144C75.714 74.1472 75.9798 74.568 76.4159 74.7768C76.8496 74.9698 77.5093 74.9989 78.3951 74.8641C78.9013 74.7871 79.3754 74.6584 79.8174 74.4778L79.8911 73.5198L77.3523 73.906L77.5645 70.3295L84.8487 69.2214L84.3577 77.38C83.6899 77.8862 82.8329 78.3726 81.7869 78.8392C80.7566 79.3035 79.5376 79.6426 78.1298 79.8568ZM85.2317 78.5337L92.0345 61.8651L97.99 60.9591L102.956 75.8375L97.2613 76.7038L96.3329 73.9319L92.6315 74.4949L91.377 77.5989L85.2317 78.5337ZM93.4874 70.3592L95.8127 70.0055L94.8261 67.1696L93.4874 70.3592ZM104.174 75.6522L105.093 59.8787L110.834 59.0052L110.182 70.2715L116.422 69.3223L116.156 73.8295L104.174 75.6522ZM117.011 73.6995L117.929 57.926L123.671 57.0525L123.019 68.3188L129.259 67.3696L128.993 71.8768L117.011 73.6995ZM129.847 71.7468L130.766 55.9733L142.985 54.1145L142.731 58.3772L136.254 59.3625L136.177 60.7822L141.753 59.934L141.496 64.3427L135.92 65.1909L135.82 66.6142L142.297 65.6289L142.067 69.888L129.847 71.7468ZM143.032 69.7412L143.95 53.9677L152.539 52.6611C154.026 52.4349 155.243 52.6706 156.19 53.3682C157.153 54.0633 157.731 55.0516 157.924 56.3331C157.989 56.7602 158.008 57.2104 157.983 57.6837C157.932 58.7433 157.641 59.71 157.11 60.5839C156.592 61.4395 155.89 62.2018 155.004 62.8706C155.288 63.0378 155.486 63.2748 155.597 63.5815L157.149 67.5937L151.17 68.5032L149.875 65.2288C149.761 64.9062 149.546 64.769 149.23 64.8171L148.993 64.8532L148.774 68.8678L143.032 69.7412ZM149.288 60.2201L150.688 60.0071C151.621 59.8652 152.107 59.3866 152.146 58.5715C152.15 58.49 152.147 58.4176 152.137 58.3544C152.143 58.2887 152.142 58.2242 152.132 58.1609C152.049 57.6072 151.643 57.3857 150.915 57.4964L149.421 57.7237L149.288 60.2201ZM161.985 66.858L162.309 61.1281L157.375 51.9255L163.189 51.0412L165.323 55.6931L168.029 50.3049L174.174 49.3701L168.051 60.2547L167.727 65.9846L161.985 66.858Z" fill="#F0F0F0"/>
<path d="M72.4266 79.2192L70.5387 82.7479C70.5454 82.7515 70.5521 82.7551 70.5589 82.7587L72.4266 79.2192ZM69.6982 74.1722L65.6993 74.2338C65.7001 74.2936 65.7023 74.3534 65.7059 74.4132L69.6982 74.1722ZM69.7267 73.0754L73.7179 73.3278C73.7182 73.3227 73.7185 73.3176 73.7188 73.3126L69.7267 73.0754ZM72.3494 66.656L69.5226 63.8287C69.5186 63.8327 69.5147 63.8367 69.5107 63.8407L72.3494 66.656ZM82.1408 63.3458L81.9838 67.3435C82.0159 67.3447 82.0479 67.3456 82.08 67.346L82.1408 63.3458ZM84.3623 63.5905L88.3556 63.8067C88.4637 61.8446 87.1313 60.0958 85.2118 59.6803L84.3623 63.5905ZM84.0898 68.5357L83.1139 72.4164C84.2718 72.7067 85.4994 72.4641 86.4609 71.7551C87.4225 71.046 88.0174 69.9445 88.0831 68.7519L84.0898 68.5357ZM81.8921 68.2874L81.8878 72.288C81.9162 72.288 81.9446 72.2877 81.973 72.2871L81.8921 68.2874ZM76.8186 69.569L79.1968 72.783C79.2131 72.771 79.2293 72.7588 79.2454 72.7465L76.8186 69.569ZM75.5873 72.1839L79.5716 72.5272C79.574 72.4992 79.5762 72.4711 79.578 72.4431L75.5873 72.1839ZM76.4159 74.7768L74.6862 78.3856C74.7197 78.4017 74.7534 78.4173 74.7874 78.4323L76.4159 74.7768ZM79.8174 74.4778L81.326 78.1814C82.7289 77.6084 83.6886 76.292 83.8049 74.781L79.8174 74.4778ZM79.8911 73.5198L83.8787 73.823C83.9723 72.6074 83.5066 71.4159 82.6139 70.5868C81.7212 69.7577 80.4988 69.3814 79.2937 69.5647L79.8911 73.5198ZM77.3523 73.906L73.36 73.673C73.2885 74.8778 73.7645 76.05 74.6554 76.8629C75.5463 77.6758 76.7568 78.0426 77.9497 77.8612L77.3523 73.906ZM77.5645 70.3295L76.9671 66.3743C75.0996 66.6584 73.6841 68.2104 73.5722 70.0964L77.5645 70.3295ZM84.8487 69.2214L88.8409 69.4578C88.9134 68.2525 88.4379 67.0794 87.5469 66.2657C86.6559 65.452 85.4448 65.0847 84.2513 65.2663L84.8487 69.2214ZM84.3577 77.38L86.771 80.5678C87.7028 79.8616 88.2797 78.7833 88.3499 77.6164L84.3577 77.38ZM81.7869 78.8392L80.161 75.1857C80.1564 75.1878 80.1519 75.1898 80.1473 75.1919L81.7869 78.8392ZM78.1298 79.8568L77.5324 75.9017C75.7172 76.1778 74.7623 75.9266 74.2944 75.6798L72.4266 79.2192L70.5589 82.7587C73.0447 84.0694 75.8919 84.2432 78.7272 83.8119L78.1298 79.8568ZM72.4266 79.2192L74.3146 75.6906C74.1618 75.6089 73.8924 75.4789 73.7558 74.5745L69.8013 75.1761L65.8468 75.7776C66.2885 78.7018 67.7693 81.2673 70.5387 82.7479L72.4266 79.2192ZM69.8013 75.1761L73.7558 74.5745C73.7278 74.3893 73.7051 74.1756 73.6906 73.9312L69.6982 74.1722L65.7059 74.4132C65.7332 74.8744 65.7792 75.3301 65.8468 75.7776L69.8013 75.1761ZM69.6982 74.1722L73.6972 74.1105C73.6937 73.866 73.7001 73.6053 73.7179 73.3278L69.7267 73.0754L65.7356 72.823C65.7051 73.2973 65.6925 73.7678 65.6993 74.2338L69.6982 74.1722ZM69.7267 73.0754L73.7188 73.3126C73.8337 71.4094 74.4123 70.2539 75.188 69.4713L72.3494 66.656L69.5107 63.8407C67.113 66.2597 65.9432 69.3838 65.7346 72.8382L69.7267 73.0754ZM72.3494 66.656L75.1761 69.4832C75.9684 68.6906 77.4414 67.8882 80.1197 67.4808L79.5223 63.5257L78.9249 59.5705C75.2443 60.1304 71.9354 61.4149 69.5226 63.8287L72.3494 66.656ZM79.5223 63.5257L80.1197 67.4808C80.9197 67.3591 81.5323 67.3262 81.9838 67.3435L82.1408 63.3458L82.2978 59.3481C81.2194 59.3068 80.0863 59.3938 78.9249 59.5705L79.5223 63.5257ZM82.1408 63.3458L82.08 67.346C82.6148 67.3536 83.0897 67.4091 83.5128 67.5007L84.3623 63.5905L85.2118 59.6803C84.2296 59.4678 83.2236 59.3601 82.2016 59.3456L82.1408 63.3458ZM84.3623 63.5905L80.369 63.3743L80.0965 68.3196L84.0898 68.5357L88.0831 68.7519L88.3556 63.8067L84.3623 63.5905ZM84.0898 68.5357L85.0657 64.6551C83.9989 64.3876 82.9109 64.2643 81.8111 64.2877L81.8921 68.2874L81.973 72.2871C82.3572 72.279 82.7344 72.3212 83.1139 72.4164L84.0898 68.5357ZM81.8921 68.2874L81.8964 64.2868C80.9363 64.2867 79.9672 64.3643 78.9918 64.5127L79.5892 68.4678L80.1866 72.4229C80.793 72.3307 81.3591 72.288 81.8878 72.288L81.8921 68.2874ZM79.5892 68.4678L78.9918 64.5127C77.3538 64.7618 75.7651 65.3414 74.3918 66.3915L76.8186 69.569L79.2454 72.7465C79.3517 72.6652 79.6101 72.5106 80.1866 72.4229L79.5892 68.4678ZM76.8186 69.569L74.4403 66.355C72.4897 67.8001 71.7281 69.929 71.5966 71.9247L75.5873 72.1839L79.578 72.4431C79.5921 72.2296 79.6249 72.2244 79.5719 72.3369C79.5444 72.3954 79.4988 72.4742 79.4292 72.56C79.3592 72.6464 79.2792 72.722 79.1968 72.783L76.8186 69.569ZM75.5873 72.1839L71.603 71.8406C71.5381 72.5861 71.5482 73.3501 71.6639 74.1159L75.6184 73.5144L79.5729 72.9128C79.5643 72.856 79.5537 72.733 79.5716 72.5272L75.5873 72.1839ZM75.6184 73.5144L71.6639 74.1159C71.8865 75.5898 72.6845 77.4272 74.6862 78.3856L76.4159 74.7768L78.1455 71.1679C78.6261 71.398 79.0149 71.7596 79.271 72.1651C79.5047 72.535 79.5607 72.8321 79.5729 72.9128L75.6184 73.5144ZM76.4159 74.7768L74.7874 78.4323C76.3036 79.107 77.9183 78.9827 78.9925 78.8193L78.3951 74.8641L77.7977 70.909C77.6688 70.9286 77.5722 70.9385 77.5045 70.9431C77.4359 70.9478 77.4086 70.9463 77.4162 70.9466C77.4227 70.9469 77.4826 70.9497 77.5831 70.9701C77.6834 70.9905 77.8455 71.0327 78.0444 71.1212L76.4159 74.7768ZM78.3951 74.8641L78.9925 78.8193C79.7887 78.6981 80.5709 78.4898 81.326 78.1814L79.8174 74.4778L78.3087 70.7743C78.1799 70.8269 78.0138 70.8761 77.7977 70.909L78.3951 74.8641ZM79.8174 74.4778L83.8049 74.781L83.8787 73.823L79.8911 73.5198L75.9035 73.2166L75.8298 74.1746L79.8174 74.4778ZM79.8911 73.5198L79.2937 69.5647L76.7549 69.9509L77.3523 73.906L77.9497 77.8612L80.4885 77.475L79.8911 73.5198ZM77.3523 73.906L81.3447 74.1391L81.5569 70.5625L77.5645 70.3295L73.5722 70.0964L73.36 73.673L77.3523 73.906ZM77.5645 70.3295L78.1619 74.2846L85.4461 73.1765L84.8487 69.2214L84.2513 65.2663L76.9671 66.3743L77.5645 70.3295ZM84.8487 69.2214L80.8566 68.985L80.3656 77.1436L84.3577 77.38L88.3499 77.6164L88.8409 69.4578L84.8487 69.2214ZM84.3577 77.38L81.9445 74.1922C81.5909 74.4602 81.022 74.8017 80.161 75.1857L81.7869 78.8392L83.4127 82.4928C84.6438 81.9436 85.7888 81.3122 86.771 80.5678L84.3577 77.38ZM81.7869 78.8392L80.1473 75.1919C79.522 75.4737 78.6694 75.7287 77.5324 75.9017L78.1298 79.8568L78.7272 83.8119C80.4058 83.5566 81.9913 83.1333 83.4264 82.4866L81.7869 78.8392ZM85.2317 78.5337L81.5292 77.0248C80.9852 78.3578 81.1987 79.8798 82.0883 81.0102C82.9778 82.1406 84.4064 82.7053 85.8291 82.4888L85.2317 78.5337ZM92.0345 61.8651L91.4371 57.9099C90.0441 58.1218 88.8646 59.0511 88.332 60.3562L92.0345 61.8651ZM97.99 60.9591L101.784 59.6888C101.168 57.8444 99.3152 56.7115 97.3926 57.004L97.99 60.9591ZM102.956 75.8375L103.553 79.7927C104.721 79.6151 105.75 78.9308 106.367 77.923C106.983 76.9153 107.123 75.687 106.75 74.5672L102.956 75.8375ZM97.2613 76.7038L93.469 77.9781C94.086 79.8203 95.9377 80.9511 97.8588 80.6589L97.2613 76.7038ZM96.3329 73.9319L100.125 72.6575C99.5082 70.8153 97.6565 69.6845 95.7355 69.9767L96.3329 73.9319ZM92.6315 74.4949L92.0341 70.5398C90.6364 70.7524 89.4539 71.6872 88.9239 72.9986L92.6315 74.4949ZM91.377 77.5989L91.9745 81.554C93.3722 81.3414 94.5546 80.4066 95.0847 79.0952L91.377 77.5989ZM93.4874 70.3592L89.8001 68.8137C89.2401 70.1478 89.4434 71.6797 90.3318 72.8201C91.2201 73.9605 92.6551 74.5318 94.0848 74.3143L93.4874 70.3592ZM95.8127 70.0055L96.4101 73.9606C97.5862 73.7817 98.6221 73.0885 99.2367 72.0693C99.8513 71.05 99.9808 69.8105 99.59 68.6872L95.8127 70.0055ZM94.8261 67.1696L98.6034 65.8513C98.0592 64.2871 96.6071 63.2212 94.9517 63.1708C93.2962 63.1204 91.78 64.096 91.1387 65.6241L94.8261 67.1696ZM85.2317 78.5337L88.9342 80.0426L95.737 63.374L92.0345 61.8651L88.332 60.3562L81.5292 77.0248L85.2317 78.5337ZM92.0345 61.8651L92.6319 65.8202L98.5874 64.9143L97.99 60.9591L97.3926 57.004L91.4371 57.9099L92.0345 61.8651ZM97.99 60.9591L94.1963 62.2295L99.1622 77.1079L102.956 75.8375L106.75 74.5672L101.784 59.6888L97.99 60.9591ZM102.956 75.8375L102.358 71.8824L96.6639 72.7486L97.2613 76.7038L97.8588 80.6589L103.553 79.7927L102.956 75.8375ZM97.2613 76.7038L101.054 75.4294L100.125 72.6575L96.3329 73.9319L92.5406 75.2062L93.469 77.9781L97.2613 76.7038ZM96.3329 73.9319L95.7355 69.9767L92.0341 70.5398L92.6315 74.4949L93.2289 78.4501L96.9304 77.887L96.3329 73.9319ZM92.6315 74.4949L88.9239 72.9986L87.6694 76.1026L91.377 77.5989L95.0847 79.0952L96.3391 75.9912L92.6315 74.4949ZM91.377 77.5989L90.7796 73.6437L84.6343 74.5786L85.2317 78.5337L85.8291 82.4888L91.9745 81.554L91.377 77.5989ZM93.4874 70.3592L94.0848 74.3143L96.4101 73.9606L95.8127 70.0055L95.2153 66.0503L92.89 66.404L93.4874 70.3592ZM95.8127 70.0055L99.59 68.6872L98.6034 65.8513L94.8261 67.1696L91.0487 68.4879L92.0353 71.3237L95.8127 70.0055ZM94.8261 67.1696L91.1387 65.6241L89.8001 68.8137L93.4874 70.3592L97.1748 71.9046L98.5134 68.715L94.8261 67.1696ZM104.174 75.6522L100.181 75.4236C100.111 76.6277 100.588 77.7986 101.479 78.6105C102.37 79.4225 103.579 79.7887 104.771 79.6073L104.174 75.6522ZM105.093 59.8787L104.495 55.9236C102.626 56.2079 101.21 57.7622 101.1 59.6501L105.093 59.8787ZM110.834 59.0052L114.827 59.2327C114.897 58.0288 114.42 56.8582 113.529 56.0465C112.639 55.2349 111.429 54.8688 110.237 55.0501L110.834 59.0052ZM110.182 70.2715L106.189 70.0441C106.119 71.248 106.596 72.4186 107.487 73.2302C108.378 74.0419 109.587 74.408 110.779 74.2267L110.182 70.2715ZM116.422 69.3223L120.414 69.5539C120.486 68.3493 120.009 67.1775 119.118 66.3649C118.228 65.5523 117.017 65.1857 115.825 65.3671L116.422 69.3223ZM116.156 73.8295L116.754 77.7846C118.622 77.5005 120.037 75.9477 120.149 74.0611L116.156 73.8295ZM104.174 75.6522L108.167 75.8809L109.085 60.1073L105.093 59.8787L101.1 59.6501L100.181 75.4236L104.174 75.6522ZM105.093 59.8787L105.69 63.8338L111.432 62.9604L110.834 59.0052L110.237 55.0501L104.495 55.9236L105.093 59.8787ZM110.834 59.0052L106.842 58.7778L106.189 70.0441L110.182 70.2715L114.175 70.499L114.827 59.2327L110.834 59.0052ZM110.182 70.2715L110.779 74.2267L117.019 73.2774L116.422 69.3223L115.825 65.3671L109.584 66.3164L110.182 70.2715ZM116.422 69.3223L112.43 69.0906L112.164 73.5979L116.156 73.8295L120.149 74.0611L120.414 69.5539L116.422 69.3223ZM116.156 73.8295L115.559 69.8744L103.577 71.6971L104.174 75.6522L104.771 79.6073L116.754 77.7846L116.156 73.8295ZM117.011 73.6995L113.018 73.4709C112.948 74.675 113.425 75.8459 114.315 76.6578C115.206 77.4697 116.416 77.836 117.608 77.6546L117.011 73.6995ZM117.929 57.926L117.332 53.9709C115.463 54.2552 114.047 55.8095 113.937 57.6973L117.929 57.926ZM123.671 57.0525L127.664 57.28C127.734 56.0761 127.257 54.9055 126.366 54.0938C125.475 53.2822 124.266 52.9161 123.074 53.0974L123.671 57.0525ZM123.019 68.3188L119.026 68.0914C118.956 69.2953 119.433 70.4659 120.324 71.2775C121.214 72.0892 122.424 72.4553 123.616 72.2739L123.019 68.3188ZM129.259 67.3696L133.251 67.6012C133.322 66.3966 132.846 65.2248 131.955 64.4122C131.064 63.5996 129.854 63.233 128.661 63.4144L129.259 67.3696ZM128.993 71.8768L129.59 75.8319C131.458 75.5478 132.874 73.995 132.985 72.1084L128.993 71.8768ZM117.011 73.6995L121.003 73.9282L121.922 58.1546L117.929 57.926L113.937 57.6973L113.018 73.4709L117.011 73.6995ZM117.929 57.926L118.527 61.8811L124.269 61.0077L123.671 57.0525L123.074 53.0974L117.332 53.9709L117.929 57.926ZM123.671 57.0525L119.678 56.8251L119.026 68.0914L123.019 68.3188L127.011 68.5463L127.664 57.28L123.671 57.0525ZM123.019 68.3188L123.616 72.2739L129.856 71.3247L129.259 67.3696L128.661 63.4144L122.421 64.3637L123.019 68.3188ZM129.259 67.3696L125.266 67.1379L125 71.6452L128.993 71.8768L132.985 72.1084L133.251 67.6012L129.259 67.3696ZM128.993 71.8768L128.396 67.9217L116.413 69.7444L117.011 73.6995L117.608 77.6546L129.59 75.8319L128.993 71.8768ZM129.847 71.7468L125.855 71.5181C125.785 72.7223 126.261 73.8932 127.152 74.7051C128.043 75.517 129.253 75.8833 130.445 75.7019L129.847 71.7468ZM130.766 55.9733L130.169 52.0182C128.299 52.3025 126.883 53.8568 126.773 55.7446L130.766 55.9733ZM142.985 54.1145L146.978 54.3487C147.049 53.1437 146.574 51.9713 145.683 51.158C144.792 50.3448 143.581 49.9778 142.388 50.1593L142.985 54.1145ZM142.731 58.3772L143.329 62.3323C145.196 62.0483 146.611 60.497 146.723 58.6114L142.731 58.3772ZM136.254 59.3625L135.656 55.4074C133.781 55.6927 132.363 57.2559 132.26 59.1503L136.254 59.3625ZM136.177 60.7822L132.183 60.57C132.118 61.7715 132.597 62.9379 133.488 63.7461C134.378 64.5542 135.585 64.9183 136.774 64.7374L136.177 60.7822ZM141.753 59.934L145.745 60.1624C145.815 58.9584 145.339 57.7875 144.448 56.9756C143.557 56.1638 142.347 55.7976 141.155 55.9789L141.753 59.934ZM141.496 64.3427L142.094 68.2979C143.963 68.0135 145.379 66.459 145.489 64.5711L141.496 64.3427ZM135.92 65.1909L135.323 61.2358C133.472 61.5173 132.063 63.0451 131.931 64.9129L135.92 65.1909ZM135.82 66.6142L131.83 66.3362C131.745 67.548 132.214 68.7325 133.106 69.5558C133.998 70.3791 135.217 70.752 136.417 70.5694L135.82 66.6142ZM142.297 65.6289L146.291 65.8411C146.356 64.6396 145.877 63.4732 144.987 62.6651C144.096 61.8569 142.889 61.4928 141.7 61.6738L142.297 65.6289ZM142.067 69.888L142.664 73.8431C144.54 73.5579 145.958 71.9946 146.06 70.1002L142.067 69.888ZM129.847 71.7468L133.84 71.9754L134.759 56.2019L130.766 55.9733L126.773 55.7446L125.855 71.5181L129.847 71.7468ZM130.766 55.9733L131.363 59.9284L143.583 58.0696L142.985 54.1145L142.388 50.1593L130.169 52.0182L130.766 55.9733ZM142.985 54.1145L138.993 53.8802L138.739 58.1429L142.731 58.3772L146.723 58.6114L146.978 54.3487L142.985 54.1145ZM142.731 58.3772L142.134 54.422L135.656 55.4074L136.254 59.3625L136.851 63.3177L143.329 62.3323L142.731 58.3772ZM136.254 59.3625L132.26 59.1503L132.183 60.57L136.177 60.7822L140.17 60.9945L140.247 59.5748L136.254 59.3625ZM136.177 60.7822L136.774 64.7374L142.35 63.8892L141.753 59.934L141.155 55.9789L135.579 56.8271L136.177 60.7822ZM141.753 59.934L137.76 59.7057L137.504 64.1144L141.496 64.3427L145.489 64.5711L145.745 60.1624L141.753 59.934ZM141.496 64.3427L140.899 60.3876L135.323 61.2358L135.92 65.1909L136.518 69.1461L142.094 68.2979L141.496 64.3427ZM135.92 65.1909L131.931 64.9129L131.83 66.3362L135.82 66.6142L139.809 66.8923L139.91 65.469L135.92 65.1909ZM135.82 66.6142L136.417 70.5694L142.895 69.584L142.297 65.6289L141.7 61.6738L135.222 62.6591L135.82 66.6142ZM142.297 65.6289L138.304 65.4166L138.073 69.6757L142.067 69.888L146.06 70.1002L146.291 65.8411L142.297 65.6289ZM142.067 69.888L141.469 65.9329L129.25 67.7917L129.847 71.7468L130.445 75.7019L142.664 73.8431L142.067 69.888ZM143.032 69.7412L139.039 69.5126C138.969 70.7167 139.446 71.8876 140.336 72.6995C141.227 73.5115 142.437 73.8777 143.629 73.6964L143.032 69.7412ZM143.95 53.9677L143.353 50.0126C141.484 50.2969 140.068 51.8512 139.958 53.7391L143.95 53.9677ZM156.19 53.3682L153.816 56.5902C153.826 56.5978 153.837 56.6052 153.847 56.6127L156.19 53.3682ZM157.983 57.6837L153.989 57.4714C153.989 57.4802 153.988 57.489 153.988 57.4979L157.983 57.6837ZM157.11 60.5839L153.694 58.5071L153.69 58.514L157.11 60.5839ZM155.004 62.8706L152.597 59.6781C151.53 60.4833 150.935 61.7676 151.011 63.1014C151.087 64.4353 151.823 65.6426 152.974 66.3196L155.004 62.8706ZM155.597 63.5815L151.836 64.9471C151.846 64.9745 151.856 65.0018 151.867 65.029L155.597 63.5815ZM157.149 67.5937L157.747 71.5488C158.947 71.3663 159.999 70.6487 160.608 69.5982C161.218 68.5477 161.317 67.2778 160.879 66.1462L157.149 67.5937ZM151.17 68.5032L147.451 69.9787C148.136 71.7103 149.926 72.7385 151.768 72.4584L151.17 68.5032ZM149.875 65.2288L146.102 66.5598C146.119 66.6083 146.137 66.6565 146.156 66.7043L149.875 65.2288ZM148.993 64.8532L148.395 60.8981C146.521 61.1832 145.102 62.7456 144.999 64.6393L148.993 64.8532ZM148.774 68.8678L149.371 72.8229C151.246 72.5377 152.664 70.9754 152.767 69.0816L148.774 68.8678ZM149.288 60.2201L145.294 60.0117C145.23 61.2126 145.71 62.378 146.6 63.1852C147.49 63.9925 148.697 64.356 149.885 64.1752L149.288 60.2201ZM152.146 58.5715L156.141 58.7573L156.141 58.7573L152.146 58.5715ZM152.137 58.3544L148.156 57.9787C148.125 58.3043 148.134 58.6325 148.183 58.9559L152.137 58.3544ZM149.421 57.7237L148.823 53.7686C146.946 54.0541 145.528 55.6194 145.427 57.5154L149.421 57.7237ZM143.032 69.7412L147.024 69.9699L147.943 54.1964L143.95 53.9677L139.958 53.7391L139.039 69.5126L143.032 69.7412ZM143.95 53.9677L144.548 57.9228L153.137 56.6163L152.539 52.6611L151.942 48.706L143.353 50.0126L143.95 53.9677ZM152.539 52.6611L153.137 56.6163C153.521 56.5578 153.728 56.5813 153.803 56.596C153.861 56.6072 153.846 56.6121 153.816 56.5902L156.19 53.3682L158.564 50.1461C156.543 48.6573 154.172 48.3668 151.942 48.706L152.539 52.6611ZM156.19 53.3682L153.847 56.6127C153.876 56.6336 153.887 56.6458 153.889 56.6475C153.89 56.6489 153.891 56.6496 153.893 56.6537C153.895 56.6565 153.939 56.7298 153.97 56.9346L157.924 56.3331L161.879 55.7315C161.541 53.4947 160.45 51.5077 158.533 50.1237L156.19 53.3682ZM157.924 56.3331L153.97 56.9346C153.99 57.0681 154.001 57.2442 153.989 57.4714L157.983 57.6837L161.976 57.8959C162.015 57.1767 161.988 56.4524 161.879 55.7315L157.924 56.3331ZM157.983 57.6837L153.988 57.4979C153.968 57.9149 153.864 58.2273 153.694 58.5071L157.11 60.5839L160.526 62.6606C161.419 61.1927 161.897 59.5717 161.977 57.8694L157.983 57.6837ZM157.11 60.5839L153.69 58.514C153.462 58.8891 153.121 59.282 152.597 59.6781L155.004 62.8706L157.411 66.0631C158.658 65.1215 159.721 63.9899 160.53 62.6538L157.11 60.5839ZM155.004 62.8706L152.974 66.3196C152.747 66.1864 152.508 65.9957 152.293 65.7381C152.078 65.4801 151.93 65.2052 151.836 64.9471L155.597 63.5815L159.357 62.216C158.926 61.024 158.11 60.0549 157.034 59.4216L155.004 62.8706ZM155.597 63.5815L151.867 65.029L153.419 69.0411L157.149 67.5937L160.879 66.1462L159.327 62.1341L155.597 63.5815ZM157.149 67.5937L156.552 63.6385L150.573 64.5481L151.17 68.5032L151.768 72.4584L157.747 71.5488L157.149 67.5937ZM151.17 68.5032L154.889 67.0277L153.593 63.7533L149.875 65.2288L146.156 66.7043L147.451 69.9787L151.17 68.5032ZM149.875 65.2288L153.647 63.8978C153.395 63.18 152.863 62.2013 151.783 61.5113C150.667 60.799 149.496 60.7305 148.632 60.862L149.23 64.8171L149.827 68.7722C149.28 68.8556 148.374 68.8317 147.474 68.2566C146.608 67.7038 146.241 66.955 146.102 66.5598L149.875 65.2288ZM149.23 64.8171L148.632 60.862L148.395 60.8981L148.993 64.8532L149.59 68.8083L149.827 68.7722L149.23 64.8171ZM148.993 64.8532L144.999 64.6393L144.78 68.6539L148.774 68.8678L152.767 69.0816L152.986 65.0671L148.993 64.8532ZM148.774 68.8678L148.176 64.9126L142.434 65.7861L143.032 69.7412L143.629 73.6964L149.371 72.8229L148.774 68.8678ZM149.288 60.2201L149.885 64.1752L151.285 63.9623L150.688 60.0071L150.09 56.052L148.69 56.2649L149.288 60.2201ZM150.688 60.0071L151.285 63.9623C152.272 63.8121 153.52 63.4115 154.556 62.3915C155.654 61.3108 156.083 59.9612 156.141 58.7573L152.146 58.5715L148.151 58.3858C148.169 57.997 148.337 57.2942 148.948 56.6921C149.498 56.1505 150.036 56.0602 150.09 56.052L150.688 60.0071ZM152.146 58.5715L156.141 58.7573C156.154 58.4806 156.15 58.1361 156.092 57.7528L152.137 58.3544L148.183 58.9559C148.144 58.6992 148.145 58.4995 148.151 58.3858L152.146 58.5715ZM152.137 58.3544L156.119 58.73C156.155 58.3488 156.147 57.9559 156.087 57.5594L152.132 58.1609L148.178 58.7625C148.137 58.4925 148.132 58.2286 148.156 57.9787L152.137 58.3544ZM152.132 58.1609L156.087 57.5594C155.902 56.3386 155.218 54.9052 153.684 54.0676C152.378 53.3544 151.071 53.4267 150.318 53.5412L150.915 57.4964L151.513 61.4515C151.487 61.4554 150.747 61.5831 149.846 61.0913C148.718 60.4753 148.278 59.4295 148.178 58.7625L152.132 58.1609ZM150.915 57.4964L150.318 53.5412L148.823 53.7686L149.421 57.7237L150.018 61.6789L151.513 61.4515L150.915 57.4964ZM149.421 57.7237L145.427 57.5154L145.294 60.0117L149.288 60.2201L153.282 60.4285L153.414 57.9321L149.421 57.7237ZM161.985 66.858L157.992 66.6362C157.924 67.8392 158.402 69.0083 159.293 69.8186C160.183 70.629 161.392 70.9943 162.583 70.8131L161.985 66.858ZM162.309 61.1281L166.302 61.35C166.344 60.615 166.182 59.8831 165.834 59.2346L162.309 61.1281ZM157.375 51.9255L156.778 47.9703C155.493 48.1659 154.382 48.974 153.8 50.1372C153.217 51.3004 153.236 52.6735 153.85 53.819L157.375 51.9255ZM163.189 51.0412L166.824 49.3692C166.08 47.7491 164.354 46.8179 162.591 47.0861L163.189 51.0412ZM165.323 55.6931L161.688 57.365C162.329 58.7623 163.715 59.6673 165.252 59.6931C166.79 59.7189 168.206 58.8608 168.897 57.4859L165.323 55.6931ZM168.029 50.3049L167.431 46.3497C166.148 46.545 165.038 47.3512 164.455 48.5121L168.029 50.3049ZM174.174 49.3701L177.659 51.3293C178.409 49.9961 178.334 48.3525 177.466 47.0948C176.598 45.837 175.088 45.185 173.577 45.4149L174.174 49.3701ZM168.051 60.2547L164.566 58.2954C164.266 58.8283 164.093 59.4226 164.058 60.0328L168.051 60.2547ZM167.727 65.9846L168.325 69.9397C170.196 69.655 171.613 68.0969 171.72 66.2064L167.727 65.9846ZM161.985 66.858L165.978 67.0799L166.302 61.35L162.309 61.1281L158.316 60.9063L157.992 66.6362L161.985 66.858ZM162.309 61.1281L165.834 59.2346L160.9 50.032L157.375 51.9255L153.85 53.819L158.784 63.0216L162.309 61.1281ZM157.375 51.9255L157.973 55.8806L163.786 54.9963L163.189 51.0412L162.591 47.0861L156.778 47.9703L157.375 51.9255ZM163.189 51.0412L159.554 52.7132L161.688 57.365L165.323 55.6931L168.958 54.0211L166.824 49.3692L163.189 51.0412ZM165.323 55.6931L168.897 57.4859L171.602 52.0977L168.029 50.3049L164.455 48.5121L161.75 53.9002L165.323 55.6931ZM168.029 50.3049L168.626 54.26L174.772 53.3252L174.174 49.3701L173.577 45.4149L167.431 46.3497L168.029 50.3049ZM174.174 49.3701L170.689 47.4108L164.566 58.2954L168.051 60.2547L171.536 62.2139L177.659 51.3293L174.174 49.3701ZM168.051 60.2547L164.058 60.0328L163.734 65.7627L167.727 65.9846L171.72 66.2064L172.044 60.4765L168.051 60.2547ZM167.727 65.9846L167.13 62.0294L161.388 62.9029L161.985 66.858L162.583 70.8131L168.325 69.9397L167.727 65.9846Z" fill="#F0F0F0" mask="url(#path-22-outside-1_433_946)"/>
<mask id="path-24-outside-2_433_946" maskUnits="userSpaceOnUse" x="65.5747" y="46.4733" width="113.863" height="37.608" fill="black">
<rect fill="white" x="65.5747" y="46.4733" width="113.863" height="37.608"/>
<path d="M78.1298 79.8568C75.8046 80.2105 73.9035 79.998 72.4266 79.2192C70.9656 78.4381 70.0905 77.0904 69.8013 75.1761C69.7535 74.8597 69.7192 74.525 69.6982 74.1722C69.6931 73.8169 69.7026 73.4513 69.7267 73.0754C69.8885 70.3966 70.7627 68.2568 72.3494 66.656C73.9519 65.0527 76.3429 64.0093 79.5223 63.5257C80.503 63.3765 81.3759 63.3165 82.1408 63.3458C82.9192 63.3569 83.6597 63.4384 84.3623 63.5905L84.0898 68.5357C83.3666 68.3544 82.634 68.2717 81.8921 68.2874C81.1477 68.2874 80.3801 68.3475 79.5892 68.4678C78.4819 68.6362 77.5584 69.0033 76.8186 69.569C76.0764 70.1189 75.666 70.9905 75.5873 72.1839C75.5459 72.6595 75.5562 73.103 75.6184 73.5144C75.714 74.1472 75.9798 74.568 76.4159 74.7768C76.8496 74.9698 77.5093 74.9989 78.3951 74.8641C78.9013 74.7871 79.3754 74.6584 79.8174 74.4778L79.8911 73.5198L77.3523 73.906L77.5645 70.3295L84.8487 69.2214L84.3577 77.38C83.6899 77.8862 82.8329 78.3726 81.7869 78.8392C80.7566 79.3035 79.5376 79.6426 78.1298 79.8568ZM85.2317 78.5337L92.0345 61.8651L97.99 60.9591L102.956 75.8375L97.2613 76.7038L96.3329 73.9319L92.6315 74.4949L91.377 77.5989L85.2317 78.5337ZM93.4874 70.3592L95.8127 70.0055L94.8261 67.1696L93.4874 70.3592ZM104.174 75.6522L105.093 59.8787L110.834 59.0052L110.182 70.2715L116.422 69.3223L116.156 73.8295L104.174 75.6522ZM117.011 73.6995L117.929 57.926L123.671 57.0525L123.019 68.3188L129.259 67.3696L128.993 71.8768L117.011 73.6995ZM129.847 71.7468L130.766 55.9733L142.985 54.1145L142.731 58.3772L136.254 59.3625L136.177 60.7822L141.753 59.934L141.496 64.3427L135.92 65.1909L135.82 66.6142L142.297 65.6289L142.067 69.888L129.847 71.7468ZM143.032 69.7412L143.95 53.9677L152.539 52.6611C154.026 52.4349 155.243 52.6706 156.19 53.3682C157.153 54.0633 157.731 55.0516 157.924 56.3331C157.989 56.7602 158.008 57.2104 157.983 57.6837C157.932 58.7433 157.641 59.71 157.11 60.5839C156.592 61.4395 155.89 62.2018 155.004 62.8706C155.288 63.0378 155.486 63.2748 155.597 63.5815L157.149 67.5937L151.17 68.5032L149.875 65.2288C149.761 64.9062 149.546 64.769 149.23 64.8171L148.993 64.8532L148.774 68.8678L143.032 69.7412ZM149.288 60.2201L150.688 60.0071C151.621 59.8652 152.107 59.3866 152.146 58.5715C152.15 58.49 152.147 58.4176 152.137 58.3544C152.143 58.2887 152.142 58.2242 152.132 58.1609C152.049 57.6072 151.643 57.3857 150.915 57.4964L149.421 57.7237L149.288 60.2201ZM161.985 66.858L162.309 61.1281L157.375 51.9255L163.189 51.0412L165.323 55.6931L168.029 50.3049L174.174 49.3701L168.051 60.2547L167.727 65.9846L161.985 66.858Z"/>
</mask>
<path d="M78.1298 79.8568C75.8046 80.2105 73.9035 79.998 72.4266 79.2192C70.9656 78.4381 70.0905 77.0904 69.8013 75.1761C69.7535 74.8597 69.7192 74.525 69.6982 74.1722C69.6931 73.8169 69.7026 73.4513 69.7267 73.0754C69.8885 70.3966 70.7627 68.2568 72.3494 66.656C73.9519 65.0527 76.3429 64.0093 79.5223 63.5257C80.503 63.3765 81.3759 63.3165 82.1408 63.3458C82.9192 63.3569 83.6597 63.4384 84.3623 63.5905L84.0898 68.5357C83.3666 68.3544 82.634 68.2717 81.8921 68.2874C81.1477 68.2874 80.3801 68.3475 79.5892 68.4678C78.4819 68.6362 77.5584 69.0033 76.8186 69.569C76.0764 70.1189 75.666 70.9905 75.5873 72.1839C75.5459 72.6595 75.5562 73.103 75.6184 73.5144C75.714 74.1472 75.9798 74.568 76.4159 74.7768C76.8496 74.9698 77.5093 74.9989 78.3951 74.8641C78.9013 74.7871 79.3754 74.6584 79.8174 74.4778L79.8911 73.5198L77.3523 73.906L77.5645 70.3295L84.8487 69.2214L84.3577 77.38C83.6899 77.8862 82.8329 78.3726 81.7869 78.8392C80.7566 79.3035 79.5376 79.6426 78.1298 79.8568ZM85.2317 78.5337L92.0345 61.8651L97.99 60.9591L102.956 75.8375L97.2613 76.7038L96.3329 73.9319L92.6315 74.4949L91.377 77.5989L85.2317 78.5337ZM93.4874 70.3592L95.8127 70.0055L94.8261 67.1696L93.4874 70.3592ZM104.174 75.6522L105.093 59.8787L110.834 59.0052L110.182 70.2715L116.422 69.3223L116.156 73.8295L104.174 75.6522ZM117.011 73.6995L117.929 57.926L123.671 57.0525L123.019 68.3188L129.259 67.3696L128.993 71.8768L117.011 73.6995ZM129.847 71.7468L130.766 55.9733L142.985 54.1145L142.731 58.3772L136.254 59.3625L136.177 60.7822L141.753 59.934L141.496 64.3427L135.92 65.1909L135.82 66.6142L142.297 65.6289L142.067 69.888L129.847 71.7468ZM143.032 69.7412L143.95 53.9677L152.539 52.6611C154.026 52.4349 155.243 52.6706 156.19 53.3682C157.153 54.0633 157.731 55.0516 157.924 56.3331C157.989 56.7602 158.008 57.2104 157.983 57.6837C157.932 58.7433 157.641 59.71 157.11 60.5839C156.592 61.4395 155.89 62.2018 155.004 62.8706C155.288 63.0378 155.486 63.2748 155.597 63.5815L157.149 67.5937L151.17 68.5032L149.875 65.2288C149.761 64.9062 149.546 64.769 149.23 64.8171L148.993 64.8532L148.774 68.8678L143.032 69.7412ZM149.288 60.2201L150.688 60.0071C151.621 59.8652 152.107 59.3866 152.146 58.5715C152.15 58.49 152.147 58.4176 152.137 58.3544C152.143 58.2887 152.142 58.2242 152.132 58.1609C152.049 57.6072 151.643 57.3857 150.915 57.4964L149.421 57.7237L149.288 60.2201ZM161.985 66.858L162.309 61.1281L157.375 51.9255L163.189 51.0412L165.323 55.6931L168.029 50.3049L174.174 49.3701L168.051 60.2547L167.727 65.9846L161.985 66.858Z" fill="#F0F0F0"/>
<path d="M72.4266 79.2192L71.4826 80.9836L71.4928 80.989L72.4266 79.2192ZM69.6982 74.1722L67.6987 74.203C67.6992 74.2329 67.7003 74.2628 67.702 74.2927L69.6982 74.1722ZM69.7267 73.0754L71.7223 73.2016L71.7228 73.194L69.7267 73.0754ZM72.3494 66.656L70.936 65.2423L70.9301 65.2483L72.3494 66.656ZM82.1408 63.3458L82.0623 65.3447C82.0783 65.3453 82.0944 65.3457 82.1104 65.3459L82.1408 63.3458ZM84.3623 63.5905L86.3589 63.6986C86.413 62.7175 85.7468 61.8432 84.787 61.6354L84.3623 63.5905ZM84.0898 68.5357L83.6019 70.4761C84.1808 70.6212 84.7946 70.4999 85.2754 70.1454C85.7561 69.7909 86.0536 69.2401 86.0865 68.6438L84.0898 68.5357ZM81.8921 68.2874L81.8899 70.2877C81.9041 70.2877 81.9183 70.2876 81.9325 70.2873L81.8921 68.2874ZM76.8186 69.569L78.0077 71.176C78.0158 71.17 78.0239 71.1639 78.032 71.1577L76.8186 69.569ZM75.5873 72.1839L77.5795 72.3555C77.5807 72.3415 77.5818 72.3275 77.5827 72.3135L75.5873 72.1839ZM76.4159 74.7768L75.551 76.5812C75.5678 76.5892 75.5847 76.597 75.6016 76.6046L76.4159 74.7768ZM79.8174 74.4778L80.5717 76.3296C81.2732 76.0431 81.753 75.3849 81.8112 74.6294L79.8174 74.4778ZM79.8911 73.5198L81.8849 73.6714C81.9317 73.0636 81.6989 72.4679 81.2525 72.0533C80.8062 71.6388 80.195 71.4506 79.5924 71.5423L79.8911 73.5198ZM77.3523 73.906L75.3561 73.7895C75.3204 74.3919 75.5584 74.978 76.0039 75.3845C76.4493 75.7909 77.0546 75.9743 77.651 75.8836L77.3523 73.906ZM77.5645 70.3295L77.2658 68.3519C76.3321 68.4939 75.6243 69.2699 75.5683 70.2129L77.5645 70.3295ZM84.8487 69.2214L86.8448 69.3396C86.8811 68.7369 86.6433 68.1504 86.1978 67.7435C85.7523 67.3367 85.1468 67.153 84.55 67.2438L84.8487 69.2214ZM84.3577 77.38L85.5644 78.9739C86.0303 78.6208 86.3187 78.0817 86.3538 77.4982L84.3577 77.38ZM81.7869 78.8392L80.9739 77.0125L80.9671 77.0156L81.7869 78.8392ZM78.1298 79.8568L77.8311 77.8792C75.7609 78.1941 74.3329 77.9623 73.3605 77.4495L72.4266 79.2192L71.4928 80.989C73.4741 82.0337 75.8482 82.2269 78.4285 81.8344L78.1298 79.8568ZM72.4266 79.2192L73.3706 77.4549C72.5637 77.0235 71.9915 76.2847 71.7786 74.8753L69.8013 75.1761L67.8241 75.4769C68.1895 77.8961 69.3675 79.8527 71.4826 80.9836L72.4266 79.2192ZM69.8013 75.1761L71.7786 74.8753C71.7407 74.6245 71.7121 74.3503 71.6944 74.0517L69.6982 74.1722L67.702 74.2927C67.7262 74.6997 67.7664 75.0949 67.8241 75.4769L69.8013 75.1761ZM69.6982 74.1722L71.6977 74.1413C71.6934 73.8414 71.7013 73.5283 71.7223 73.2016L69.7267 73.0754L67.7312 72.9492C67.7039 73.3743 67.6928 73.7923 67.6987 74.203L69.6982 74.1722ZM69.7267 73.0754L71.7228 73.194C71.8611 70.903 72.5875 69.2554 73.7687 68.0636L72.3494 66.656L70.9301 65.2483C68.9379 67.2582 67.9158 69.8902 67.7307 72.9568L69.7267 73.0754ZM72.3494 66.656L73.7628 68.0696C74.9602 66.8717 76.8922 65.9488 79.821 65.5032L79.5223 63.5257L79.2236 61.5481C75.7936 62.0699 72.9436 63.2338 70.936 65.2424L72.3494 66.656ZM79.5223 63.5257L79.821 65.5032C80.7114 65.3678 81.4541 65.3214 82.0623 65.3447L82.1408 63.3458L82.2193 61.347C81.2976 61.3117 80.2947 61.3852 79.2236 61.5481L79.5223 63.5257ZM82.1408 63.3458L82.1104 65.3459C82.767 65.3553 83.3747 65.4238 83.9375 65.5456L84.3623 63.5905L84.787 61.6354C83.9447 61.4531 83.0714 61.3585 82.1712 61.3457L82.1408 63.3458ZM84.3623 63.5905L82.3656 63.4824L82.0931 68.4276L84.0898 68.5357L86.0865 68.6438L86.3589 63.6986L84.3623 63.5905ZM84.0898 68.5357L84.5778 66.5954C83.6827 66.371 82.7725 66.268 81.8516 66.2876L81.8921 68.2874L81.9325 70.2873C82.4956 70.2753 83.0505 70.3378 83.6019 70.4761L84.0898 68.5357ZM81.8921 68.2874L81.8942 66.2871C81.042 66.287 80.1736 66.3559 79.2905 66.4902L79.5892 68.4678L79.8879 70.4454C80.5865 70.3391 81.2534 70.2877 81.8899 70.2877L81.8921 68.2874ZM79.5892 68.4678L79.2905 66.4902C77.9179 66.699 76.6617 67.1723 75.6052 67.9803L76.8186 69.569L78.032 71.1577C78.455 70.8343 79.046 70.5734 79.8879 70.4454L79.5892 68.4678ZM76.8186 69.569L75.6294 67.962C74.283 68.9595 73.697 70.4598 73.592 72.0543L75.5873 72.1839L77.5827 72.3135C77.6349 71.5212 77.8697 71.2782 78.0077 71.176L76.8186 69.569ZM75.5873 72.1839L73.5952 72.0123C73.542 72.6228 73.5522 73.2265 73.6411 73.8151L75.6184 73.5144L77.5956 73.2136C77.5603 72.9795 77.5498 72.6963 77.5795 72.3555L75.5873 72.1839ZM75.6184 73.5144L73.6411 73.8151C73.8002 74.8685 74.3322 75.9976 75.551 76.5812L76.4159 74.7768L77.2807 72.9723C77.3384 73 77.3995 73.0394 77.4566 73.0906C77.5134 73.1415 77.5538 73.193 77.5802 73.2348C77.6306 73.3146 77.6134 73.3314 77.5956 73.2136L75.6184 73.5144ZM76.4159 74.7768L75.6016 76.6046C76.5766 77.0384 77.7138 76.9908 78.6938 76.8417L78.3951 74.8641L78.0964 72.8866C77.74 72.9408 77.4894 72.9522 77.3261 72.945C77.1554 72.9374 77.148 72.9125 77.2301 72.949L76.4159 74.7768ZM78.3951 74.8641L78.6938 76.8417C79.345 76.7426 79.9731 76.5741 80.5717 76.3296L79.8174 74.4778L79.0631 72.6261C78.7776 72.7426 78.4576 72.8316 78.0964 72.8866L78.3951 74.8641ZM79.8174 74.4778L81.8112 74.6294L81.8849 73.6714L79.8911 73.5198L77.8973 73.3682L77.8236 74.3262L79.8174 74.4778ZM79.8911 73.5198L79.5924 71.5423L77.0536 71.9285L77.3523 73.906L77.651 75.8836L80.1898 75.4974L79.8911 73.5198ZM77.3523 73.906L79.3485 74.0226L79.5607 70.446L77.5645 70.3295L75.5683 70.2129L75.3561 73.7895L77.3523 73.906ZM77.5645 70.3295L77.8632 72.307L85.1474 71.199L84.8487 69.2214L84.55 67.2438L77.2658 68.3519L77.5645 70.3295ZM84.8487 69.2214L82.8527 69.1032L82.3617 77.2618L84.3577 77.38L86.3538 77.4982L86.8448 69.3396L84.8487 69.2214ZM84.3577 77.38L83.1511 75.7861C82.6404 76.1732 81.9274 76.5872 80.9739 77.0125L81.7869 78.8392L82.5998 80.666C83.7384 80.1581 84.7393 79.5992 85.5644 78.9739L84.3577 77.38ZM81.7869 78.8392L80.9671 77.0156C80.1393 77.3886 79.1035 77.6857 77.8311 77.8792L78.1298 79.8568L78.4285 81.8344C79.9717 81.5996 81.374 81.2184 82.6066 80.6629L81.7869 78.8392ZM85.2317 78.5337L83.3805 77.7792C83.1085 78.4458 83.2152 79.2067 83.66 79.7719C84.1048 80.3371 84.8191 80.6195 85.5304 80.5113L85.2317 78.5337ZM92.0345 61.8651L91.7358 59.8875C91.0393 59.9935 90.4496 60.4581 90.1832 61.1106L92.0345 61.8651ZM97.99 60.9591L99.8868 60.324C99.579 59.4018 98.6526 58.8353 97.6913 58.9816L97.99 60.9591ZM102.956 75.8375L103.255 77.8151C103.838 77.7263 104.353 77.3842 104.661 76.8803C104.969 76.3764 105.04 75.7623 104.853 75.2024L102.956 75.8375ZM97.2613 76.7038L95.3652 77.3409C95.6737 78.262 96.5995 78.8274 97.5601 78.6813L97.2613 76.7038ZM96.3329 73.9319L98.2291 73.2947C97.9206 72.3736 96.9947 71.8082 96.0342 71.9543L96.3329 73.9319ZM92.6315 74.4949L92.3328 72.5174C91.6339 72.6237 91.0427 73.0911 90.7777 73.7468L92.6315 74.4949ZM91.377 77.5989L91.6757 79.5764C92.3746 79.4701 92.9658 79.0027 93.2308 78.347L91.377 77.5989ZM93.4874 70.3592L91.6437 69.5864C91.3638 70.2535 91.4654 71.0194 91.9096 71.5896C92.3538 72.1598 93.0713 72.4455 93.7861 72.3367L93.4874 70.3592ZM95.8127 70.0055L96.1114 71.983C96.6994 71.8936 97.2174 71.547 97.5247 71.0374C97.832 70.5277 97.8967 69.908 97.7013 69.3463L95.8127 70.0055ZM94.8261 67.1696L96.7147 66.5104C96.4426 65.7283 95.7166 65.1954 94.8889 65.1702C94.0612 65.145 93.303 65.6328 92.9824 66.3968L94.8261 67.1696ZM85.2317 78.5337L87.083 79.2882L93.8857 62.6195L92.0345 61.8651L90.1832 61.1106L83.3805 77.7792L85.2317 78.5337ZM92.0345 61.8651L92.3332 63.8426L98.2887 62.9367L97.99 60.9591L97.6913 58.9816L91.7358 59.8875L92.0345 61.8651ZM97.99 60.9591L96.0932 61.5943L101.059 76.4727L102.956 75.8375L104.853 75.2024L99.8868 60.324L97.99 60.9591ZM102.956 75.8375L102.657 73.86L96.9626 74.7262L97.2613 76.7038L97.5601 78.6813L103.255 77.8151L102.956 75.8375ZM97.2613 76.7038L99.1575 76.0666L98.2291 73.2947L96.3329 73.9319L94.4368 74.569L95.3652 77.3409L97.2613 76.7038ZM96.3329 73.9319L96.0342 71.9543L92.3328 72.5174L92.6315 74.4949L92.9302 76.4725L96.6316 75.9094L96.3329 73.9319ZM92.6315 74.4949L90.7777 73.7468L89.5232 76.8507L91.377 77.5989L93.2308 78.347L94.4853 75.2431L92.6315 74.4949ZM91.377 77.5989L91.0783 75.6213L84.933 76.5561L85.2317 78.5337L85.5304 80.5113L91.6757 79.5764L91.377 77.5989ZM93.4874 70.3592L93.7861 72.3367L96.1114 71.983L95.8127 70.0055L95.514 68.0279L93.1887 68.3816L93.4874 70.3592ZM95.8127 70.0055L97.7013 69.3463L96.7147 66.5104L94.8261 67.1696L92.9374 67.8287L93.924 70.6646L95.8127 70.0055ZM94.8261 67.1696L92.9824 66.3968L91.6437 69.5864L93.4874 70.3592L95.3311 71.1319L96.6697 67.9423L94.8261 67.1696ZM104.174 75.6522L102.178 75.5379C102.143 76.1399 102.381 76.7254 102.826 77.1314C103.272 77.5373 103.877 77.7205 104.473 77.6298L104.174 75.6522ZM105.093 59.8787L104.794 57.9011C103.859 58.0433 103.151 58.8205 103.096 59.7644L105.093 59.8787ZM110.834 59.0052L112.831 59.119C112.866 58.517 112.627 57.9317 112.182 57.5259C111.737 57.1201 111.132 56.937 110.536 57.0277L110.834 59.0052ZM110.182 70.2715L108.185 70.1578C108.151 70.7597 108.389 71.3451 108.834 71.7509C109.28 72.1567 109.885 72.3397 110.481 72.2491L110.182 70.2715ZM116.422 69.3223L118.418 69.4381C118.454 68.8358 118.216 68.2499 117.77 67.8436C117.325 67.4373 116.72 67.254 116.123 67.3447L116.422 69.3223ZM116.156 73.8295L116.455 75.8071C117.389 75.665 118.097 74.8886 118.152 73.9453L116.156 73.8295ZM104.174 75.6522L106.17 75.7665L107.089 59.993L105.093 59.8787L103.096 59.7644L102.178 75.5379L104.174 75.6522ZM105.093 59.8787L105.391 61.8563L111.133 60.9828L110.834 59.0052L110.536 57.0277L104.794 57.9011L105.093 59.8787ZM110.834 59.0052L108.838 58.8915L108.185 70.1578L110.182 70.2715L112.178 70.3852L112.831 59.119L110.834 59.0052ZM110.182 70.2715L110.481 72.2491L116.721 71.2998L116.422 69.3223L116.123 67.3447L109.883 68.2939L110.182 70.2715ZM116.422 69.3223L114.426 69.2065L114.16 73.7137L116.156 73.8295L118.152 73.9453L118.418 69.4381L116.422 69.3223ZM116.156 73.8295L115.858 71.8519L103.875 73.6746L104.174 75.6522L104.473 77.6298L116.455 75.8071L116.156 73.8295ZM117.011 73.6995L115.014 73.5852C114.979 74.1872 115.218 74.7727 115.663 75.1787C116.108 75.5846 116.713 75.7677 117.309 75.6771L117.011 73.6995ZM117.929 57.926L117.631 55.9484C116.696 56.0906 115.988 56.8678 115.933 57.8117L117.929 57.926ZM123.671 57.0525L125.668 57.1663C125.702 56.5643 125.464 55.979 125.019 55.5732C124.573 55.1673 123.968 54.9843 123.372 55.075L123.671 57.0525ZM123.019 68.3188L121.022 68.2051C120.987 68.807 121.226 69.3923 121.671 69.7982C122.116 70.204 122.721 70.387 123.317 70.2964L123.019 68.3188ZM129.259 67.3696L131.255 67.4854C131.29 66.8831 131.052 66.2972 130.607 65.8909C130.162 65.4846 129.556 65.3013 128.96 65.392L129.259 67.3696ZM128.993 71.8768L129.292 73.8544C130.226 73.7123 130.934 72.9359 130.989 71.9926L128.993 71.8768ZM117.011 73.6995L119.007 73.8138L119.926 58.0403L117.929 57.926L115.933 57.8117L115.014 73.5852L117.011 73.6995ZM117.929 57.926L118.228 59.9036L123.97 59.0301L123.671 57.0525L123.372 55.075L117.631 55.9484L117.929 57.926ZM123.671 57.0525L121.675 56.9388L121.022 68.2051L123.019 68.3188L125.015 68.4325L125.668 57.1663L123.671 57.0525ZM123.019 68.3188L123.317 70.2964L129.557 69.3471L129.259 67.3696L128.96 65.392L122.72 66.3412L123.019 68.3188ZM129.259 67.3696L127.263 67.2537L126.997 71.761L128.993 71.8768L130.989 71.9926L131.255 67.4854L129.259 67.3696ZM128.993 71.8768L128.694 69.8992L116.712 71.7219L117.011 73.6995L117.309 75.6771L129.292 73.8544L128.993 71.8768ZM129.847 71.7468L127.851 71.6325C127.816 72.2345 128.054 72.82 128.5 73.226C128.945 73.6319 129.55 73.815 130.146 73.7244L129.847 71.7468ZM130.766 55.9733L130.467 53.9957C129.533 54.1379 128.825 54.9151 128.77 55.859L130.766 55.9733ZM142.985 54.1145L144.982 54.2316C145.017 53.6291 144.78 53.0429 144.334 52.6363C143.889 52.2297 143.283 52.0462 142.687 52.1369L142.985 54.1145ZM142.731 58.3772L143.03 60.3548C143.963 60.2127 144.671 59.4371 144.727 58.4943L142.731 58.3772ZM136.254 59.3625L135.955 57.385C135.017 57.5276 134.308 58.3092 134.257 59.2564L136.254 59.3625ZM136.177 60.7822L134.18 60.6761C134.148 61.2769 134.387 61.8601 134.832 62.2642C135.277 62.6682 135.881 62.8503 136.476 62.7598L136.177 60.7822ZM141.753 59.934L143.749 60.0482C143.784 59.4462 143.546 58.8608 143.1 58.4548C142.655 58.0489 142.05 57.8658 141.454 57.9565L141.753 59.934ZM141.496 64.3427L141.795 66.3203C142.73 66.1781 143.438 65.4009 143.493 64.4569L141.496 64.3427ZM135.92 65.1909L135.622 63.2134C134.696 63.3541 133.992 64.118 133.926 65.0519L135.92 65.1909ZM135.82 66.6142L133.825 66.4752C133.782 67.0811 134.017 67.6734 134.463 68.085C134.909 68.4967 135.518 68.6831 136.119 68.5918L135.82 66.6142ZM142.297 65.6289L144.294 65.735C144.327 65.1343 144.087 64.5511 143.642 64.147C143.197 63.7429 142.593 63.5609 141.999 63.6513L142.297 65.6289ZM142.067 69.888L142.366 71.8656C143.303 71.7229 144.012 70.9413 144.064 69.9941L142.067 69.888ZM129.847 71.7468L131.844 71.8611L132.762 56.0876L130.766 55.9733L128.77 55.859L127.851 71.6325L129.847 71.7468ZM130.766 55.9733L131.065 57.9509L143.284 56.092L142.985 54.1145L142.687 52.1369L130.467 53.9957L130.766 55.9733ZM142.985 54.1145L140.989 53.9974L140.735 58.2601L142.731 58.3772L144.727 58.4943L144.982 54.2316L142.985 54.1145ZM142.731 58.3772L142.432 56.3996L135.955 57.385L136.254 59.3625L136.552 61.3401L143.03 60.3548L142.731 58.3772ZM136.254 59.3625L134.257 59.2564L134.18 60.6761L136.177 60.7822L138.174 60.8884L138.25 59.4687L136.254 59.3625ZM136.177 60.7822L136.476 62.7598L142.051 61.9116L141.753 59.934L141.454 57.9565L135.878 58.8047L136.177 60.7822ZM141.753 59.934L139.756 59.8198L139.5 64.2285L141.496 64.3427L143.493 64.4569L143.749 60.0482L141.753 59.934ZM141.496 64.3427L141.198 62.3652L135.622 63.2134L135.92 65.1909L136.219 67.1685L141.795 66.3203L141.496 64.3427ZM135.92 65.1909L133.926 65.0519L133.825 66.4752L135.82 66.6142L137.815 66.7533L137.915 65.33L135.92 65.1909ZM135.82 66.6142L136.119 68.5918L142.596 67.6065L142.297 65.6289L141.999 63.6513L135.521 64.6367L135.82 66.6142ZM142.297 65.6289L140.301 65.5228L140.07 69.7819L142.067 69.888L144.064 69.9941L144.294 65.735L142.297 65.6289ZM142.067 69.888L141.768 67.9104L129.549 69.7692L129.847 71.7468L130.146 73.7244L142.366 71.8656L142.067 69.888ZM143.032 69.7412L141.035 69.6269C141 70.2289 141.239 70.8144 141.684 71.2204C142.129 71.6263 142.734 71.8095 143.33 71.7188L143.032 69.7412ZM143.95 53.9677L143.651 51.9901C142.717 52.1323 142.009 52.9095 141.954 53.8534L143.95 53.9677ZM156.19 53.3682L155.003 54.9792C155.008 54.983 155.013 54.9867 155.018 54.9904L156.19 53.3682ZM157.983 57.6837L155.986 57.5775L155.985 57.5908L157.983 57.6837ZM157.11 60.5839L155.402 59.5455L155.4 59.5489L157.11 60.5839ZM155.004 62.8706L153.8 61.2744C153.267 61.677 152.97 62.3191 153.007 62.986C153.045 63.6529 153.413 64.2566 153.989 64.5951L155.004 62.8706ZM155.597 63.5815L153.716 64.2643C153.721 64.278 153.726 64.2917 153.732 64.3053L155.597 63.5815ZM157.149 67.5937L157.448 69.5712C158.048 69.48 158.574 69.1212 158.879 68.5959C159.183 68.0707 159.233 67.4358 159.014 66.8699L157.149 67.5937ZM151.17 68.5032L149.311 69.241C149.653 70.1068 150.548 70.6208 151.469 70.4808L151.17 68.5032ZM149.875 65.2288L147.988 65.8943C147.997 65.9186 148.006 65.9427 148.015 65.9666L149.875 65.2288ZM148.993 64.8532L148.694 62.8756C147.757 63.0182 147.047 63.7994 146.996 64.7463L148.993 64.8532ZM148.774 68.8678L149.072 70.8453C150.01 70.7027 150.719 69.9216 150.77 68.9747L148.774 68.8678ZM149.288 60.2201L147.291 60.1159C147.259 60.7163 147.499 61.299 147.944 61.7027C148.389 62.1063 148.992 62.2881 149.587 62.1977L149.288 60.2201ZM152.146 58.5715L154.143 58.6644L154.143 58.6644L152.146 58.5715ZM152.137 58.3544L150.147 58.1665C150.131 58.3293 150.136 58.4934 150.16 58.6551L152.137 58.3544ZM149.421 57.7237L149.122 55.7462C148.184 55.8889 147.474 56.6716 147.424 57.6196L149.421 57.7237ZM143.032 69.7412L145.028 69.8555L145.947 54.082L143.95 53.9677L141.954 53.8534L141.035 69.6269L143.032 69.7412ZM143.95 53.9677L144.249 55.9453L152.838 54.6387L152.539 52.6611L152.241 50.6836L143.651 51.9901L143.95 53.9677ZM152.539 52.6611L152.838 54.6387C153.954 54.469 154.593 54.6773 155.003 54.9792L156.19 53.3682L157.377 51.7571C155.893 50.664 154.099 50.4009 152.241 50.6836L152.539 52.6611ZM156.19 53.3682L155.018 54.9904C155.504 55.3411 155.826 55.8301 155.947 56.6338L157.924 56.3331L159.901 56.0323C159.636 54.2731 158.801 52.7855 157.361 51.7459L156.19 53.3682ZM157.924 56.3331L155.947 56.6338C155.989 56.9142 156.005 57.2273 155.986 57.5775L157.983 57.6837L159.979 57.7898C160.012 57.1935 159.988 56.6063 159.901 56.0323L157.924 56.3331ZM157.983 57.6837L155.985 57.5908C155.95 58.3291 155.753 58.9686 155.402 59.5455L157.11 60.5839L158.818 61.6222C159.53 60.4514 159.914 59.1575 159.98 57.7765L157.983 57.6837ZM157.11 60.5839L155.4 59.5489C155.027 60.1643 154.506 60.7419 153.8 61.2744L155.004 62.8706L156.207 64.4668C157.274 63.6616 158.157 62.7147 158.82 61.6188L157.11 60.5839ZM155.004 62.8706L153.989 64.5951C153.947 64.5703 153.887 64.5255 153.829 64.4559C153.771 64.3861 153.735 64.3167 153.716 64.2643L155.597 63.5815L157.477 62.8988C157.206 62.1494 156.699 61.5464 156.019 61.1461L155.004 62.8706ZM155.597 63.5815L153.732 64.3053L155.284 68.3174L157.149 67.5937L159.014 66.8699L157.462 62.8578L155.597 63.5815ZM157.149 67.5937L156.851 65.6161L150.871 66.5257L151.17 68.5032L151.469 70.4808L157.448 69.5712L157.149 67.5937ZM151.17 68.5032L153.03 67.7655L151.734 64.4911L149.875 65.2288L148.015 65.9666L149.311 69.241L151.17 68.5032ZM149.875 65.2288L151.761 64.5633C151.606 64.1238 151.3 63.5769 150.705 63.1976C150.094 62.8071 149.442 62.7618 148.931 62.8395L149.23 64.8171L149.529 66.7947C149.334 66.8243 148.948 66.8235 148.551 66.5703C148.172 66.3282 148.029 66.0113 147.988 65.8943L149.875 65.2288ZM149.23 64.8171L148.931 62.8395L148.694 62.8756L148.993 64.8532L149.291 66.8308L149.529 66.7947L149.23 64.8171ZM148.993 64.8532L146.996 64.7463L146.777 68.7608L148.774 68.8678L150.77 68.9747L150.989 64.9601L148.993 64.8532ZM148.774 68.8678L148.475 66.8902L142.733 67.7637L143.032 69.7412L143.33 71.7188L149.072 70.8453L148.774 68.8678ZM149.288 60.2201L149.587 62.1977L150.986 61.9847L150.688 60.0071L150.389 58.0296L148.989 58.2425L149.288 60.2201ZM150.688 60.0071L150.986 61.9847C151.713 61.8741 152.515 61.5963 153.154 60.9666C153.825 60.3067 154.105 59.4702 154.143 58.6644L152.146 58.5715L150.148 58.4787C150.148 58.4941 150.148 58.4492 150.18 58.3693C150.215 58.2839 150.272 58.1935 150.35 58.1169C150.504 57.9658 150.595 57.9982 150.389 58.0296L150.688 60.0071ZM152.146 58.5715L154.143 58.6644C154.152 58.4853 154.148 58.2769 154.114 58.0536L152.137 58.3544L150.16 58.6551C150.145 58.5584 150.148 58.4948 150.148 58.4787L152.146 58.5715ZM152.137 58.3544L154.128 58.5422C154.149 58.3187 154.144 58.09 154.109 57.8601L152.132 58.1609L150.155 58.4617C150.139 58.3584 150.138 58.2586 150.147 58.1665L152.137 58.3544ZM152.132 58.1609L154.109 57.8601C153.996 57.1113 153.593 56.2977 152.725 55.8235C151.97 55.4115 151.175 55.4338 150.617 55.5188L150.915 57.4964L151.214 59.4739C151.383 59.4482 151.155 59.5259 150.806 59.3354C150.611 59.2293 150.44 59.0701 150.318 58.877C150.203 58.6947 150.166 58.5374 150.155 58.4617L152.132 58.1609ZM150.915 57.4964L150.617 55.5188L149.122 55.7462L149.421 57.7237L149.719 59.7013L151.214 59.4739L150.915 57.4964ZM149.421 57.7237L147.424 57.6196L147.291 60.1159L149.288 60.2201L151.285 60.3243L151.417 57.8279L149.421 57.7237ZM161.985 66.858L159.989 66.7471C159.955 67.3486 160.194 67.9331 160.639 68.3383C161.084 68.7435 161.689 68.9262 162.284 68.8356L161.985 66.858ZM162.309 61.1281L164.306 61.2391C164.327 60.8716 164.246 60.5056 164.072 60.1814L162.309 61.1281ZM157.375 51.9255L157.077 49.9479C156.434 50.0457 155.879 50.4497 155.588 51.0313C155.296 51.6129 155.306 52.2995 155.613 52.8722L157.375 51.9255ZM163.189 51.0412L165.006 50.2052C164.634 49.3951 163.771 48.9295 162.89 49.0636L163.189 51.0412ZM165.323 55.6931L163.506 56.529C163.826 57.2277 164.519 57.6802 165.288 57.6931C166.056 57.706 166.765 57.2769 167.11 56.5895L165.323 55.6931ZM168.029 50.3049L167.73 48.3273C167.088 48.4249 166.534 48.828 166.242 49.4085L168.029 50.3049ZM174.174 49.3701L175.917 50.3497C176.292 49.6831 176.254 48.8613 175.82 48.2324C175.386 47.6035 174.631 47.2775 173.875 47.3925L174.174 49.3701ZM168.051 60.2547L166.309 59.2751C166.159 59.5415 166.072 59.8387 166.055 60.1438L168.051 60.2547ZM167.727 65.9846L168.026 67.9621C168.962 67.8198 169.67 67.0407 169.724 66.0955L167.727 65.9846ZM161.985 66.858L163.982 66.9689L164.306 61.2391L162.309 61.1281L160.313 61.0172L159.989 66.7471L161.985 66.858ZM162.309 61.1281L164.072 60.1814L159.138 50.9787L157.375 51.9255L155.613 52.8722L160.547 62.0749L162.309 61.1281ZM157.375 51.9255L157.674 53.903L163.487 53.0188L163.189 51.0412L162.89 49.0636L157.077 49.9479L157.375 51.9255ZM163.189 51.0412L161.371 51.8772L163.506 56.529L165.323 55.6931L167.141 54.8571L165.006 50.2052L163.189 51.0412ZM165.323 55.6931L167.11 56.5895L169.816 51.2013L168.029 50.3049L166.242 49.4085L163.537 54.7966L165.323 55.6931ZM168.029 50.3049L168.328 52.2824L174.473 51.3476L174.174 49.3701L173.875 47.3925L167.73 48.3273L168.029 50.3049ZM174.174 49.3701L172.432 48.3904L166.309 59.2751L168.051 60.2547L169.794 61.2343L175.917 50.3497L174.174 49.3701ZM168.051 60.2547L166.055 60.1438L165.731 65.8736L167.727 65.9846L169.724 66.0955L170.048 60.3656L168.051 60.2547ZM167.727 65.9846L167.429 64.007L161.687 64.8804L161.985 66.858L162.284 68.8356L168.026 67.9621L167.727 65.9846Z" fill="#113AD1" mask="url(#path-24-outside-2_433_946)"/>
</g>
<defs>
<clipPath id="clip0_433_946">
<rect width="200" height="113" fill="white"/>
</clipPath>
</defs>
</svg>
