<svg width="35" height="9" viewBox="0 0 35 9" fill="none" xmlns="http://www.w3.org/2000/svg">
<mask id="path-1-outside-1_728_30" maskUnits="userSpaceOnUse" x="0" y="0" width="35" height="9" fill="black">
<rect fill="white" width="35" height="9"/>
<path d="M12.3477 3.52148H22.4346V1H27.4785V3.52148H33.7822V7.30469H1V3.52148H7.30469V1H12.3477V3.52148Z"/>
</mask>
<path d="M12.3477 3.52148H22.4346V1H27.4785V3.52148H33.7822V7.30469H1V3.52148H7.30469V1H12.3477V3.52148Z" fill="#8F1E20"/>
<path d="M12.3477 3.52148H11.3477V4.52148H12.3477V3.52148ZM22.4346 3.52148V4.52148H23.4346V3.52148H22.4346ZM22.4346 1V0H21.4346V1H22.4346ZM27.4785 1H28.4785V0H27.4785V1ZM27.4785 3.52148H26.4785V4.52148H27.4785V3.52148ZM33.7822 3.52148H34.7822V2.52148H33.7822V3.52148ZM33.7822 7.30469V8.30469H34.7822V7.30469H33.7822ZM1 7.30469H0V8.30469H1V7.30469ZM1 3.52148V2.52148H0V3.52148H1ZM7.30469 3.52148V4.52148H8.30469V3.52148H7.30469ZM7.30469 1V0H6.30469V1H7.30469ZM12.3477 1H13.3477V0H12.3477V1ZM12.3477 3.52148V4.52148H22.4346V3.52148V2.52148H12.3477V3.52148ZM22.4346 3.52148H23.4346V1H22.4346H21.4346V3.52148H22.4346ZM22.4346 1V2H27.4785V1V0H22.4346V1ZM27.4785 1H26.4785V3.52148H27.4785H28.4785V1H27.4785ZM27.4785 3.52148V4.52148H33.7822V3.52148V2.52148H27.4785V3.52148ZM33.7822 3.52148H32.7822V7.30469H33.7822H34.7822V3.52148H33.7822ZM33.7822 7.30469V6.30469H1V7.30469V8.30469H33.7822V7.30469ZM1 7.30469H2V3.52148H1H0V7.30469H1ZM1 3.52148V4.52148H7.30469V3.52148V2.52148H1V3.52148ZM7.30469 3.52148H8.30469V1H7.30469H6.30469V3.52148H7.30469ZM7.30469 1V2H12.3477V1V0H7.30469V1ZM12.3477 1H11.3477V3.52148H12.3477H13.3477V1H12.3477Z" fill="#F0F0F0" mask="url(#path-1-outside-1_728_30)"/>
<mask id="path-3-inside-2_728_30" fill="white">
<path d="M12.3477 3.52148H22.4346V1H27.4785V3.52148H33.7822V7.30469H1V3.52148H7.30469V1H12.3477V3.52148Z"/>
</mask>
<path d="M12.3477 3.52148H22.4346V1H27.4785V3.52148H33.7822V7.30469H1V3.52148H7.30469V1H12.3477V3.52148Z" fill="#F0F0F0"/>
<path d="M12.3477 3.52148H11.3477V4.52148H12.3477V3.52148ZM22.4346 3.52148V4.52148H23.4346V3.52148H22.4346ZM22.4346 1V0H21.4346V1H22.4346ZM27.4785 1H28.4785V0H27.4785V1ZM27.4785 3.52148H26.4785V4.52148H27.4785V3.52148ZM33.7822 3.52148H34.7822V2.52148H33.7822V3.52148ZM33.7822 7.30469V8.30469H34.7822V7.30469H33.7822ZM1 7.30469H0V8.30469H1V7.30469ZM1 3.52148V2.52148H0V3.52148H1ZM7.30469 3.52148V4.52148H8.30469V3.52148H7.30469ZM7.30469 1V0H6.30469V1H7.30469ZM12.3477 1H13.3477V0H12.3477V1ZM12.3477 3.52148V4.52148H22.4346V3.52148V2.52148H12.3477V3.52148ZM22.4346 3.52148H23.4346V1H22.4346H21.4346V3.52148H22.4346ZM22.4346 1V2H27.4785V1V0H22.4346V1ZM27.4785 1H26.4785V3.52148H27.4785H28.4785V1H27.4785ZM27.4785 3.52148V4.52148H33.7822V3.52148V2.52148H27.4785V3.52148ZM33.7822 3.52148H32.7822V7.30469H33.7822H34.7822V3.52148H33.7822ZM33.7822 7.30469V6.30469H1V7.30469V8.30469H33.7822V7.30469ZM1 7.30469H2V3.52148H1H0V7.30469H1ZM1 3.52148V4.52148H7.30469V3.52148V2.52148H1V3.52148ZM7.30469 3.52148H8.30469V1H7.30469H6.30469V3.52148H7.30469ZM7.30469 1V2H12.3477V1V0H7.30469V1ZM12.3477 1H11.3477V3.52148H12.3477H13.3477V1H12.3477Z" fill="#8F1E20" mask="url(#path-3-inside-2_728_30)"/>
</svg>
